<?xml version="1.0" encoding="UTF-8"?>
<svg width="1200px" height="54px" viewBox="0 0 1200 54" version="1.1" xmlns="http://www.w3.org/2000/svg" xmlns:xlink="http://www.w3.org/1999/xlink">
    <!-- Generator: Sketch 43.2 (39069) - http://www.bohemiancoding.com/sketch -->
    <title>cable</title>
    <desc>Created with Sketch.</desc>
    <defs></defs>
    <g id="Page-1" stroke="none" stroke-width="1" fill="none" fill-rule="evenodd">
        <g id="plug">
            <path d="M0.40510957,26.7016347 C0.40510957,26.7016347 104.256954,28.963981 159.103875,28.9923938 C213.950795,29.0208065 846.900847,28.9923938 846.900847,28.9923938" id="Path-4" stroke="#000000" stroke-width="34"></path>
            <rect id="Rectangle-24" fill="#BFB9B9" x="1025" y="12" width="136" height="33" rx="4"></rect>
            <rect id="Rectangle-23" fill="#D8D8D8" x="840" y="0" width="188" height="54" rx="4"></rect>
            <path d="M1152.7601,13.8318703 C1153.4268,11.5336183 1156.66244,13.5871865 1160.39666,17.5079059 C1164.13088,21.4286253 1168.18538,17.5079059 1170.39909,16.4622603 C1171.71671,15.8398832 1175.0189,9.48891498 1181.52935,14.3599813 C1188.03979,19.2310476 1198.10077,24.2106081 1198.10077,24.2106081 C1198.10077,24.2106081 1202.20746,29.2683481 1198.03878,33.0066083 C1193.8701,36.7448685 1182.4188,42.7676585 1182.4188,42.7676585 C1182.4188,42.7676585 1176.53876,45.505303 1171.59613,42.5685142 C1166.65351,39.6317255 1162.68792,37.7697505 1159.19536,43.856596 C1157.95107,45.0062655 1153.70249,44.3462178 1152.61112,44.3462178 C1151.51976,44.3462178 1152.0934,16.1301223 1152.7601,13.8318703 Z" id="Path-13" fill="#BFB8B8"></path>
        </g>
    </g>
</svg>