<?xml version="1.0" encoding="UTF-8" standalone="no"?>
<svg width="931px" height="144px" viewBox="0 0 931 144" version="1.1" xmlns="http://www.w3.org/2000/svg" xmlns:xlink="http://www.w3.org/1999/xlink">
    <!-- Generator: Sketch 3.6.1 (26313) - http://www.bohemiancoding.com/sketch -->
    <title>Delay</title>
    <desc>Created with Sketch.</desc>
    <defs></defs>
    <g id="Page-1" stroke="none" stroke-width="1" fill="none" fill-rule="evenodd">
        <g id="Delay" transform="translate(1.000000, 1.000000)">
            <g id="Input-node">
                <rect id="Rectangle-1" stroke="#FFFFFF" x="0" y="0" width="122" height="56" rx="8"></rect>
                <text id="Input" font-family="Quicksand-Light, Quicksand" font-size="24" font-weight="300" fill="#FFFFFF">
                    <tspan x="30.408" y="37">Input</tspan>
                </text>
            </g>
            <g id="Gain-node" transform="translate(202.000000, 0.000000)">
                <rect id="Rectangle-1" stroke="#FFFFFF" x="0" y="0" width="122" height="56" rx="8"></rect>
                <text id="Gain" font-family="Quicksand-Light, Quicksand" font-size="24" font-weight="300" fill="#FFFFFF">
                    <tspan x="33.456" y="37">Gain</tspan>
                </text>
            </g>
            <g id="Output-node" transform="translate(807.000000, 1.000000)">
                <rect id="Rectangle-1" stroke="#FFFFFF" x="0" y="0" width="122" height="56" rx="8"></rect>
                <text id="Output" font-family="Quicksand-Light, Quicksand" font-size="24" font-weight="300" fill="#FFFFFF">
                    <tspan x="19.068" y="37">Output</tspan>
                </text>
            </g>
            <g id="Line" transform="translate(123.000000, 19.000000)">
                <path d="M0.5,8.5 L77.5064926,8.5" stroke="#FFFFFF" stroke-linecap="square"></path>
                <path d="M31,17 L31,0 L48,8.5 L31,17 Z" id="Triangle-1" fill="#FFFFFF"></path>
            </g>
            <g id="Gain-node" transform="translate(403.000000, 1.000000)">
                <rect id="Rectangle-1" stroke="#FFFFFF" x="0" y="0" width="122" height="56" rx="8"></rect>
                <text id="Gain" font-family="Quicksand-Light, Quicksand" font-size="24" font-weight="300" fill="#FFFFFF">
                    <tspan x="33.456" y="37">Gain</tspan>
                </text>
            </g>
            <g id="Line" transform="translate(324.000000, 20.000000)">
                <path d="M0.5,8.5 L77.5064926,8.5" stroke="#FFFFFF" stroke-linecap="square"></path>
                <path d="M31,17 L31,0 L48,8.5 L31,17 Z" id="Triangle-1" fill="#FFFFFF"></path>
            </g>
            <g id="Gain-node" transform="translate(604.000000, 1.000000)">
                <rect id="Rectangle-1" stroke="#FFFFFF" x="0" y="0" width="122" height="56" rx="8"></rect>
                <text id="Gain" font-family="Quicksand-Light, Quicksand" font-size="24" font-weight="300" fill="#FFFFFF">
                    <tspan x="33.456" y="37">Gain</tspan>
                </text>
            </g>
            <g id="Line" transform="translate(525.000000, 20.000000)">
                <path d="M0.5,8.5 L77.5064926,8.5" stroke="#FFFFFF" stroke-linecap="square"></path>
                <path d="M31,17 L31,0 L48,8.5 L31,17 Z" id="Triangle-1" fill="#FFFFFF"></path>
            </g>
            <g id="Gain-node" transform="translate(605.000000, 86.000000)">
                <rect id="Rectangle-1" stroke="#FFFFFF" x="0" y="0" width="122" height="56" rx="8"></rect>
                <text id="Gain" font-family="Quicksand-Light, Quicksand" font-size="24" font-weight="300" fill="#FFFFFF">
                    <tspan x="33.456" y="37">Gain</tspan>
                </text>
            </g>
            <g id="Line" transform="translate(526.000000, 95.000000)">
                <path d="M0.5,8.5 L77.5064926,8.5" stroke="#FFFFFF" stroke-linecap="square"></path>
                <path d="M31,17 L31,0 L48,8.5 L31,17 Z" id="Triangle-1" fill="#FFFFFF"></path>
            </g>
            <g id="Line" transform="translate(526.000000, 115.000000)">
                <path d="M0.5,8.5 L77.5064926,8.5" stroke="#FFFFFF" stroke-linecap="square"></path>
                <path d="M31,17 L31,0 L48,8.5 L31,17 Z" id="Triangle-1" fill="#FFFFFF" transform="translate(39.500000, 8.500000) rotate(-180.000000) translate(-39.500000, -8.500000) "></path>
            </g>
            <g id="Delay-node" transform="translate(403.000000, 86.000000)">
                <rect id="Rectangle-1" stroke="#FFFFFF" x="0" y="0" width="122" height="56" rx="8"></rect>
                <text id="Delay" font-family="Quicksand-Light, Quicksand" font-size="24" font-weight="300" fill="#FFFFFF">
                    <tspan x="27.72" y="37">Delay</tspan>
                </text>
            </g>
            <g id="Line" transform="translate(258.000000, 56.000000)">
                <path d="M97,71 L97,54 L114,62.5 L97,71 Z" id="Triangle-1" fill="#FFFFFF"></path>
                <path d="M0.203125,0.58984375 C0.203125,0.58984375 0.203125002,82.8632812 142.890625,58.4179688" id="Path-17" stroke="#FFFFFF"></path>
            </g>
            <g id="Line" transform="translate(727.000000, 20.000000)">
                <path d="M0.5,8.5 L77.5064926,8.5" stroke="#FFFFFF" stroke-linecap="square"></path>
                <path d="M31,17 L31,0 L48,8.5 L31,17 Z" id="Triangle-1" fill="#FFFFFF"></path>
            </g>
            <g id="line" transform="translate(522.000000, 41.000000)">
                <path d="M0.55078125,46.75 C0.55078125,46.75 25.3359375,2.2578125 81.0234375,2.2578125" id="Path-23" stroke="#FFFFFF"></path>
                <path d="M32,21 L32,4 L49,12.5 L32,21 Z" id="Triangle-1" fill="#FFFFFF" transform="translate(40.500000, 12.500000) rotate(-33.000000) translate(-40.500000, -12.500000) "></path>
            </g>
        </g>
    </g>
</svg>