<?xml version="1.0" encoding="UTF-8"?>
<svg width="935px" height="148px" viewBox="0 0 935 148" version="1.1" xmlns="http://www.w3.org/2000/svg" xmlns:xlink="http://www.w3.org/1999/xlink">
    <!-- Generator: Sketch 43.2 (39069) - http://www.bohemiancoding.com/sketch -->
    <title>Delay</title>
    <desc>Created with Sketch.</desc>
    <defs></defs>
    <g id="Page-1" stroke="none" stroke-width="1" fill="none" fill-rule="evenodd">
        <g id="Delay" transform="translate(3.000000, 3.000000)">
            <g id="Input-node">
                <rect id="Rectangle-1" stroke="#000000" x="-0.5" y="-0.5" width="123" height="57" rx="8"></rect>
                <path d="M33.072,36.688 C33.072,36.88 33.192,37 33.384,37 C33.528,37 33.672,36.88 33.672,36.688 L33.672,20.512 C33.672,20.32 33.528,20.2 33.384,20.2 C33.192,20.2 33.072,20.32 33.072,20.512 L33.072,36.688 Z M48.84,36.688 C48.84,36.856 48.936,37 49.128,37 C49.296,37 49.44,36.856 49.44,36.688 L49.44,29.992 C49.44,27.352 47.304,25.24 44.712,25.24 C42.936,25.24 41.376,26.224 40.56,27.688 L40.56,25.528 C40.56,25.336 40.44,25.24 40.272,25.24 C40.104,25.24 39.96,25.336 39.96,25.528 L39.96,36.736 C39.96,36.784 39.984,36.832 40.008,36.856 C40.008,36.88 40.008,36.88 40.032,36.904 C40.056,36.928 40.08,36.952 40.104,36.952 C40.128,36.976 40.152,36.976 40.176,37 L40.272,37 C40.368,37 40.44,36.952 40.488,36.88 C40.536,36.832 40.56,36.76 40.56,36.688 L40.56,29.992 C40.56,27.664 42.456,25.84 44.712,25.84 C46.968,25.84 48.84,27.664 48.84,29.992 L48.84,36.688 Z M54.672,41.824 L54.672,25.552 C54.672,25.36 54.792,25.24 54.984,25.24 C55.152,25.24 55.272,25.36 55.272,25.552 L55.272,28.456 C56.184,26.536 58.104,25.24 60.288,25.24 C63.456,25.24 65.952,27.832 65.952,31.048 C65.952,34.264 63.456,36.88 60.288,36.88 C58.104,36.88 56.184,35.56 55.272,33.688 L55.272,41.824 C55.272,42.016 55.152,42.136 54.984,42.136 C54.792,42.136 54.672,42.016 54.672,41.824 Z M55.272,30.832 L55.272,31.048 C55.272,33.928 57.552,36.256 60.288,36.256 C63.048,36.256 65.328,33.928 65.328,31.048 C65.328,28.192 63.048,25.84 60.288,25.84 C57.624,25.84 55.368,28.072 55.272,30.832 Z M70.272,32.248 C70.272,34.888 72.384,37 74.976,37 C77.592,37 79.728,34.888 79.728,32.248 L79.728,25.552 C79.728,25.384 79.584,25.24 79.416,25.24 C79.272,25.24 79.104,25.384 79.104,25.552 L79.104,32.248 C79.104,34.552 77.256,36.4 74.976,36.4 C72.72,36.4 70.872,34.552 70.872,32.248 L70.872,25.552 C70.872,25.384 70.728,25.24 70.584,25.24 C70.392,25.24 70.272,25.384 70.272,25.552 L70.272,32.248 Z M88.848,25.24 L86.928,25.24 L86.928,20.536 C86.928,20.368 86.784,20.224 86.616,20.224 C86.448,20.224 86.328,20.368 86.328,20.536 L86.328,25.24 L84.312,25.24 C84.144,25.24 84,25.384 84,25.552 C84,25.72 84.144,25.84 84.312,25.84 L86.328,25.84 L86.328,35.2 C86.328,36.208 87.144,37.024 88.152,37.024 C88.32,37.024 88.464,36.88 88.464,36.712 C88.464,36.544 88.32,36.424 88.152,36.424 C87.48,36.424 86.928,35.872 86.928,35.2 L86.928,25.84 L88.848,25.84 C89.016,25.84 89.16,25.72 89.16,25.552 C89.16,25.384 89.016,25.24 88.848,25.24 Z" id="Input" fill="#000000"></path>
            </g>
            <g id="Gain-node" transform="translate(202.000000, 0.000000)">
                <rect id="Rectangle-1" stroke="#000000" x="-0.5" y="-0.5" width="123" height="57" rx="8"></rect>
                <path d="M49.104,29.032 L49.104,34.72 C47.712,35.752 45.96,36.376 44.088,36.376 C39.528,36.376 35.832,32.776 35.832,28.312 C35.832,23.92 39.528,20.296 44.088,20.296 C46.032,20.296 47.832,20.968 49.224,22.072 C49.344,22.192 49.584,22.168 49.68,22.048 C49.8,21.88 49.776,21.688 49.608,21.568 C48.12,20.392 46.176,19.696 44.088,19.696 C39.192,19.696 35.208,23.56 35.208,28.312 C35.208,33.112 39.192,36.976 44.088,37 C46.176,37 48.12,36.28 49.608,35.128 C49.656,35.08 49.68,35.032 49.704,34.96 L49.704,34.912 C49.728,34.888 49.728,34.864 49.728,34.84 L49.728,28.744 C49.728,28.552 49.608,28.408 49.44,28.408 L43.944,28.408 C43.8,28.408 43.632,28.552 43.632,28.744 C43.632,28.888 43.8,29.032 43.944,29.032 L49.104,29.032 Z M64.992,25.24 C65.16,25.24 65.28,25.408 65.28,25.552 L65.28,36.688 C65.28,36.88 65.16,37 64.992,37 C64.8,37 64.68,36.88 64.68,36.688 L64.68,33.76 C63.768,35.68 61.896,37 59.736,37 C56.664,37 54.192,34.336 54.192,31.12 C54.192,27.904 56.664,25.24 59.736,25.24 C61.896,25.24 63.768,26.584 64.68,28.48 L64.68,25.552 C64.68,25.408 64.8,25.24 64.992,25.24 Z M59.736,36.4 C62.448,36.4 64.68,34.048 64.68,31.12 C64.68,28.216 62.448,25.864 59.736,25.864 C57.024,25.864 54.792,28.216 54.792,31.12 C54.792,34.048 57.024,36.4 59.736,36.4 Z M70.344,36.688 C70.344,36.856 70.464,37 70.656,37 C70.8,37 70.944,36.856 70.944,36.688 L70.944,25.528 C70.944,25.336 70.8,25.24 70.656,25.24 C70.464,25.24 70.344,25.336 70.344,25.528 L70.344,36.688 Z M70.344,22.336 C70.344,22.48 70.464,22.624 70.656,22.624 C70.8,22.624 70.944,22.48 70.944,22.336 L70.944,21.76 C70.944,21.568 70.8,21.448 70.656,21.448 C70.464,21.448 70.344,21.568 70.344,21.76 L70.344,22.336 Z M85.944,36.688 C85.944,36.856 86.04,37 86.232,37 C86.4,37 86.544,36.856 86.544,36.688 L86.544,29.992 C86.544,27.352 84.408,25.24 81.816,25.24 C80.04,25.24 78.48,26.224 77.664,27.688 L77.664,25.528 C77.664,25.336 77.544,25.24 77.376,25.24 C77.208,25.24 77.064,25.336 77.064,25.528 L77.064,36.736 C77.064,36.784 77.088,36.832 77.112,36.856 C77.112,36.88 77.112,36.88 77.136,36.904 C77.16,36.928 77.184,36.952 77.208,36.952 C77.232,36.976 77.256,36.976 77.28,37 L77.376,37 C77.472,37 77.544,36.952 77.592,36.88 C77.64,36.832 77.664,36.76 77.664,36.688 L77.664,29.992 C77.664,27.664 79.56,25.84 81.816,25.84 C84.072,25.84 85.944,27.664 85.944,29.992 L85.944,36.688 Z" id="Gain" fill="#000000"></path>
            </g>
            <g id="Output-node" transform="translate(807.000000, 1.000000)">
                <rect id="Rectangle-1" stroke="#000000" x="-0.5" y="-0.5" width="123" height="57" rx="8"></rect>
                <path d="M20.82,28.624 C20.844,23.824 24.468,19.96 29.004,19.96 C33.54,19.96 37.164,23.824 37.212,28.624 C37.164,33.448 33.54,37.312 29.004,37.312 C24.468,37.312 20.844,33.448 20.82,28.624 Z M21.468,28.624 C21.468,33.064 24.876,36.616 29.004,36.664 C33.108,36.616 36.516,33.064 36.54,28.624 C36.516,24.16 33.108,20.584 29.004,20.584 C24.876,20.584 21.468,24.16 21.468,28.624 Z M41.46,32.248 C41.46,34.888 43.572,37 46.164,37 C48.78,37 50.916,34.888 50.916,32.248 L50.916,25.552 C50.916,25.384 50.772,25.24 50.604,25.24 C50.46,25.24 50.292,25.384 50.292,25.552 L50.292,32.248 C50.292,34.552 48.444,36.4 46.164,36.4 C43.908,36.4 42.06,34.552 42.06,32.248 L42.06,25.552 C42.06,25.384 41.916,25.24 41.772,25.24 C41.58,25.24 41.46,25.384 41.46,25.552 L41.46,32.248 Z M60.036,25.24 L58.116,25.24 L58.116,20.536 C58.116,20.368 57.972,20.224 57.804,20.224 C57.636,20.224 57.516,20.368 57.516,20.536 L57.516,25.24 L55.5,25.24 C55.332,25.24 55.188,25.384 55.188,25.552 C55.188,25.72 55.332,25.84 55.5,25.84 L57.516,25.84 L57.516,35.2 C57.516,36.208 58.332,37.024 59.34,37.024 C59.508,37.024 59.652,36.88 59.652,36.712 C59.652,36.544 59.508,36.424 59.34,36.424 C58.668,36.424 58.116,35.872 58.116,35.2 L58.116,25.84 L60.036,25.84 C60.204,25.84 60.348,25.72 60.348,25.552 C60.348,25.384 60.204,25.24 60.036,25.24 Z M66.012,41.824 L66.012,25.552 C66.012,25.36 66.132,25.24 66.324,25.24 C66.492,25.24 66.612,25.36 66.612,25.552 L66.612,28.456 C67.524,26.536 69.444,25.24 71.628,25.24 C74.796,25.24 77.292,27.832 77.292,31.048 C77.292,34.264 74.796,36.88 71.628,36.88 C69.444,36.88 67.524,35.56 66.612,33.688 L66.612,41.824 C66.612,42.016 66.492,42.136 66.324,42.136 C66.132,42.136 66.012,42.016 66.012,41.824 Z M66.612,30.832 L66.612,31.048 C66.612,33.928 68.892,36.256 71.628,36.256 C74.388,36.256 76.668,33.928 76.668,31.048 C76.668,28.192 74.388,25.84 71.628,25.84 C68.964,25.84 66.708,28.072 66.612,30.832 Z M81.612,32.248 C81.612,34.888 83.724,37 86.316,37 C88.932,37 91.068,34.888 91.068,32.248 L91.068,25.552 C91.068,25.384 90.924,25.24 90.756,25.24 C90.612,25.24 90.444,25.384 90.444,25.552 L90.444,32.248 C90.444,34.552 88.596,36.4 86.316,36.4 C84.06,36.4 82.212,34.552 82.212,32.248 L82.212,25.552 C82.212,25.384 82.068,25.24 81.924,25.24 C81.732,25.24 81.612,25.384 81.612,25.552 L81.612,32.248 Z M100.188,25.24 L98.268,25.24 L98.268,20.536 C98.268,20.368 98.124,20.224 97.956,20.224 C97.788,20.224 97.668,20.368 97.668,20.536 L97.668,25.24 L95.652,25.24 C95.484,25.24 95.34,25.384 95.34,25.552 C95.34,25.72 95.484,25.84 95.652,25.84 L97.668,25.84 L97.668,35.2 C97.668,36.208 98.484,37.024 99.492,37.024 C99.66,37.024 99.804,36.88 99.804,36.712 C99.804,36.544 99.66,36.424 99.492,36.424 C98.82,36.424 98.268,35.872 98.268,35.2 L98.268,25.84 L100.188,25.84 C100.356,25.84 100.5,25.72 100.5,25.552 C100.5,25.384 100.356,25.24 100.188,25.24 Z" id="Output" fill="#000000"></path>
            </g>
            <g id="Line" transform="translate(123.000000, 19.000000)">
                <path d="M0.5,8.5 L77.5064926,8.5" stroke="#000000" stroke-linecap="square"></path>
                <polygon id="Triangle-1" fill="#000000" points="31 17 31 0 48 8.5"></polygon>
            </g>
            <g id="Gain-node" transform="translate(403.000000, 1.000000)">
                <rect id="Rectangle-1" stroke="#000000" x="-0.5" y="-0.5" width="123" height="57" rx="8"></rect>
                <path d="M49.104,29.032 L49.104,34.72 C47.712,35.752 45.96,36.376 44.088,36.376 C39.528,36.376 35.832,32.776 35.832,28.312 C35.832,23.92 39.528,20.296 44.088,20.296 C46.032,20.296 47.832,20.968 49.224,22.072 C49.344,22.192 49.584,22.168 49.68,22.048 C49.8,21.88 49.776,21.688 49.608,21.568 C48.12,20.392 46.176,19.696 44.088,19.696 C39.192,19.696 35.208,23.56 35.208,28.312 C35.208,33.112 39.192,36.976 44.088,37 C46.176,37 48.12,36.28 49.608,35.128 C49.656,35.08 49.68,35.032 49.704,34.96 L49.704,34.912 C49.728,34.888 49.728,34.864 49.728,34.84 L49.728,28.744 C49.728,28.552 49.608,28.408 49.44,28.408 L43.944,28.408 C43.8,28.408 43.632,28.552 43.632,28.744 C43.632,28.888 43.8,29.032 43.944,29.032 L49.104,29.032 Z M64.992,25.24 C65.16,25.24 65.28,25.408 65.28,25.552 L65.28,36.688 C65.28,36.88 65.16,37 64.992,37 C64.8,37 64.68,36.88 64.68,36.688 L64.68,33.76 C63.768,35.68 61.896,37 59.736,37 C56.664,37 54.192,34.336 54.192,31.12 C54.192,27.904 56.664,25.24 59.736,25.24 C61.896,25.24 63.768,26.584 64.68,28.48 L64.68,25.552 C64.68,25.408 64.8,25.24 64.992,25.24 Z M59.736,36.4 C62.448,36.4 64.68,34.048 64.68,31.12 C64.68,28.216 62.448,25.864 59.736,25.864 C57.024,25.864 54.792,28.216 54.792,31.12 C54.792,34.048 57.024,36.4 59.736,36.4 Z M70.344,36.688 C70.344,36.856 70.464,37 70.656,37 C70.8,37 70.944,36.856 70.944,36.688 L70.944,25.528 C70.944,25.336 70.8,25.24 70.656,25.24 C70.464,25.24 70.344,25.336 70.344,25.528 L70.344,36.688 Z M70.344,22.336 C70.344,22.48 70.464,22.624 70.656,22.624 C70.8,22.624 70.944,22.48 70.944,22.336 L70.944,21.76 C70.944,21.568 70.8,21.448 70.656,21.448 C70.464,21.448 70.344,21.568 70.344,21.76 L70.344,22.336 Z M85.944,36.688 C85.944,36.856 86.04,37 86.232,37 C86.4,37 86.544,36.856 86.544,36.688 L86.544,29.992 C86.544,27.352 84.408,25.24 81.816,25.24 C80.04,25.24 78.48,26.224 77.664,27.688 L77.664,25.528 C77.664,25.336 77.544,25.24 77.376,25.24 C77.208,25.24 77.064,25.336 77.064,25.528 L77.064,36.736 C77.064,36.784 77.088,36.832 77.112,36.856 C77.112,36.88 77.112,36.88 77.136,36.904 C77.16,36.928 77.184,36.952 77.208,36.952 C77.232,36.976 77.256,36.976 77.28,37 L77.376,37 C77.472,37 77.544,36.952 77.592,36.88 C77.64,36.832 77.664,36.76 77.664,36.688 L77.664,29.992 C77.664,27.664 79.56,25.84 81.816,25.84 C84.072,25.84 85.944,27.664 85.944,29.992 L85.944,36.688 Z" id="Gain" fill="#000000"></path>
            </g>
            <g id="Line" transform="translate(324.000000, 20.000000)">
                <path d="M0.5,8.5 L77.5064926,8.5" stroke="#000000" stroke-linecap="square"></path>
                <polygon id="Triangle-1" fill="#000000" points="31 17 31 0 48 8.5"></polygon>
            </g>
            <g id="Gain-node" transform="translate(604.000000, 1.000000)">
                <rect id="Rectangle-1" stroke="#000000" x="-0.5" y="-0.5" width="123" height="57" rx="8"></rect>
                <path d="M49.104,29.032 L49.104,34.72 C47.712,35.752 45.96,36.376 44.088,36.376 C39.528,36.376 35.832,32.776 35.832,28.312 C35.832,23.92 39.528,20.296 44.088,20.296 C46.032,20.296 47.832,20.968 49.224,22.072 C49.344,22.192 49.584,22.168 49.68,22.048 C49.8,21.88 49.776,21.688 49.608,21.568 C48.12,20.392 46.176,19.696 44.088,19.696 C39.192,19.696 35.208,23.56 35.208,28.312 C35.208,33.112 39.192,36.976 44.088,37 C46.176,37 48.12,36.28 49.608,35.128 C49.656,35.08 49.68,35.032 49.704,34.96 L49.704,34.912 C49.728,34.888 49.728,34.864 49.728,34.84 L49.728,28.744 C49.728,28.552 49.608,28.408 49.44,28.408 L43.944,28.408 C43.8,28.408 43.632,28.552 43.632,28.744 C43.632,28.888 43.8,29.032 43.944,29.032 L49.104,29.032 Z M64.992,25.24 C65.16,25.24 65.28,25.408 65.28,25.552 L65.28,36.688 C65.28,36.88 65.16,37 64.992,37 C64.8,37 64.68,36.88 64.68,36.688 L64.68,33.76 C63.768,35.68 61.896,37 59.736,37 C56.664,37 54.192,34.336 54.192,31.12 C54.192,27.904 56.664,25.24 59.736,25.24 C61.896,25.24 63.768,26.584 64.68,28.48 L64.68,25.552 C64.68,25.408 64.8,25.24 64.992,25.24 Z M59.736,36.4 C62.448,36.4 64.68,34.048 64.68,31.12 C64.68,28.216 62.448,25.864 59.736,25.864 C57.024,25.864 54.792,28.216 54.792,31.12 C54.792,34.048 57.024,36.4 59.736,36.4 Z M70.344,36.688 C70.344,36.856 70.464,37 70.656,37 C70.8,37 70.944,36.856 70.944,36.688 L70.944,25.528 C70.944,25.336 70.8,25.24 70.656,25.24 C70.464,25.24 70.344,25.336 70.344,25.528 L70.344,36.688 Z M70.344,22.336 C70.344,22.48 70.464,22.624 70.656,22.624 C70.8,22.624 70.944,22.48 70.944,22.336 L70.944,21.76 C70.944,21.568 70.8,21.448 70.656,21.448 C70.464,21.448 70.344,21.568 70.344,21.76 L70.344,22.336 Z M85.944,36.688 C85.944,36.856 86.04,37 86.232,37 C86.4,37 86.544,36.856 86.544,36.688 L86.544,29.992 C86.544,27.352 84.408,25.24 81.816,25.24 C80.04,25.24 78.48,26.224 77.664,27.688 L77.664,25.528 C77.664,25.336 77.544,25.24 77.376,25.24 C77.208,25.24 77.064,25.336 77.064,25.528 L77.064,36.736 C77.064,36.784 77.088,36.832 77.112,36.856 C77.112,36.88 77.112,36.88 77.136,36.904 C77.16,36.928 77.184,36.952 77.208,36.952 C77.232,36.976 77.256,36.976 77.28,37 L77.376,37 C77.472,37 77.544,36.952 77.592,36.88 C77.64,36.832 77.664,36.76 77.664,36.688 L77.664,29.992 C77.664,27.664 79.56,25.84 81.816,25.84 C84.072,25.84 85.944,27.664 85.944,29.992 L85.944,36.688 Z" id="Gain" fill="#000000"></path>
            </g>
            <g id="Line" transform="translate(525.000000, 20.000000)">
                <path d="M0.5,8.5 L77.5064926,8.5" stroke="#000000" stroke-linecap="square"></path>
                <polygon id="Triangle-1" fill="#000000" points="31 17 31 0 48 8.5"></polygon>
            </g>
            <g id="Gain-node" transform="translate(605.000000, 86.000000)">
                <rect id="Rectangle-1" stroke="#000000" x="-0.5" y="-0.5" width="123" height="57" rx="8"></rect>
                <path d="M49.104,29.032 L49.104,34.72 C47.712,35.752 45.96,36.376 44.088,36.376 C39.528,36.376 35.832,32.776 35.832,28.312 C35.832,23.92 39.528,20.296 44.088,20.296 C46.032,20.296 47.832,20.968 49.224,22.072 C49.344,22.192 49.584,22.168 49.68,22.048 C49.8,21.88 49.776,21.688 49.608,21.568 C48.12,20.392 46.176,19.696 44.088,19.696 C39.192,19.696 35.208,23.56 35.208,28.312 C35.208,33.112 39.192,36.976 44.088,37 C46.176,37 48.12,36.28 49.608,35.128 C49.656,35.08 49.68,35.032 49.704,34.96 L49.704,34.912 C49.728,34.888 49.728,34.864 49.728,34.84 L49.728,28.744 C49.728,28.552 49.608,28.408 49.44,28.408 L43.944,28.408 C43.8,28.408 43.632,28.552 43.632,28.744 C43.632,28.888 43.8,29.032 43.944,29.032 L49.104,29.032 Z M64.992,25.24 C65.16,25.24 65.28,25.408 65.28,25.552 L65.28,36.688 C65.28,36.88 65.16,37 64.992,37 C64.8,37 64.68,36.88 64.68,36.688 L64.68,33.76 C63.768,35.68 61.896,37 59.736,37 C56.664,37 54.192,34.336 54.192,31.12 C54.192,27.904 56.664,25.24 59.736,25.24 C61.896,25.24 63.768,26.584 64.68,28.48 L64.68,25.552 C64.68,25.408 64.8,25.24 64.992,25.24 Z M59.736,36.4 C62.448,36.4 64.68,34.048 64.68,31.12 C64.68,28.216 62.448,25.864 59.736,25.864 C57.024,25.864 54.792,28.216 54.792,31.12 C54.792,34.048 57.024,36.4 59.736,36.4 Z M70.344,36.688 C70.344,36.856 70.464,37 70.656,37 C70.8,37 70.944,36.856 70.944,36.688 L70.944,25.528 C70.944,25.336 70.8,25.24 70.656,25.24 C70.464,25.24 70.344,25.336 70.344,25.528 L70.344,36.688 Z M70.344,22.336 C70.344,22.48 70.464,22.624 70.656,22.624 C70.8,22.624 70.944,22.48 70.944,22.336 L70.944,21.76 C70.944,21.568 70.8,21.448 70.656,21.448 C70.464,21.448 70.344,21.568 70.344,21.76 L70.344,22.336 Z M85.944,36.688 C85.944,36.856 86.04,37 86.232,37 C86.4,37 86.544,36.856 86.544,36.688 L86.544,29.992 C86.544,27.352 84.408,25.24 81.816,25.24 C80.04,25.24 78.48,26.224 77.664,27.688 L77.664,25.528 C77.664,25.336 77.544,25.24 77.376,25.24 C77.208,25.24 77.064,25.336 77.064,25.528 L77.064,36.736 C77.064,36.784 77.088,36.832 77.112,36.856 C77.112,36.88 77.112,36.88 77.136,36.904 C77.16,36.928 77.184,36.952 77.208,36.952 C77.232,36.976 77.256,36.976 77.28,37 L77.376,37 C77.472,37 77.544,36.952 77.592,36.88 C77.64,36.832 77.664,36.76 77.664,36.688 L77.664,29.992 C77.664,27.664 79.56,25.84 81.816,25.84 C84.072,25.84 85.944,27.664 85.944,29.992 L85.944,36.688 Z" id="Gain" fill="#000000"></path>
            </g>
            <g id="Line" transform="translate(526.000000, 95.000000)">
                <path d="M0.5,8.5 L77.5064926,8.5" stroke="#000000" stroke-linecap="square"></path>
                <polygon id="Triangle-1" fill="#000000" points="31 17 31 0 48 8.5"></polygon>
            </g>
            <g id="Line" transform="translate(526.000000, 115.000000)">
                <path d="M0.5,8.5 L77.5064926,8.5" stroke="#000000" stroke-linecap="square"></path>
                <polygon id="Triangle-1" fill="#000000" transform="translate(39.500000, 8.500000) rotate(-180.000000) translate(-39.500000, -8.500000) " points="31 17 31 0 48 8.5"></polygon>
            </g>
            <g id="Delay-node" transform="translate(403.000000, 86.000000)">
                <rect id="Rectangle-1" stroke="#000000" x="-0.5" y="-0.5" width="123" height="57" rx="8"></rect>
                <path d="M30.216,36.688 L30.216,20.512 C30.216,20.344 30.336,20.2 30.528,20.2 L33.744,20.2 C38.4,20.2 42.144,23.968 42.144,28.576 C42.144,33.232 38.4,37 33.744,37 L30.528,37 C30.336,37 30.216,36.856 30.216,36.688 Z M30.816,36.4 L33.744,36.4 C38.064,36.352 41.52,32.896 41.544,28.576 C41.52,24.304 38.064,20.8 33.744,20.8 L30.816,20.8 L30.816,36.4 Z M52.08,37 C48.936,36.952 46.416,34.336 46.368,31.12 C46.416,27.856 48.936,25.24 52.08,25.24 C55.08,25.24 57.504,27.616 57.72,30.664 L57.72,30.76 C57.696,30.904 57.576,31.048 57.432,31.048 L46.968,31.048 L46.968,31.12 C46.968,34 49.248,36.376 52.08,36.4 C53.856,36.4 55.416,35.44 56.304,34 C56.4,33.856 56.568,33.856 56.736,33.928 C56.856,34 56.904,34.192 56.808,34.336 C55.8,35.896 54.048,37 52.08,37 Z M52.08,25.864 C49.464,25.864 47.304,27.856 46.992,30.472 L57.12,30.472 C56.808,27.856 54.648,25.864 52.08,25.864 Z M61.992,36.688 C61.992,36.856 62.112,37 62.304,37 C62.472,37 62.592,36.856 62.592,36.688 L62.592,20.512 C62.592,20.344 62.472,20.2 62.304,20.2 C62.112,20.2 61.992,20.344 61.992,20.512 L61.992,36.688 Z M77.328,25.24 C77.496,25.24 77.616,25.408 77.616,25.552 L77.616,36.688 C77.616,36.88 77.496,37 77.328,37 C77.136,37 77.016,36.88 77.016,36.688 L77.016,33.76 C76.104,35.68 74.232,37 72.072,37 C69,37 66.528,34.336 66.528,31.12 C66.528,27.904 69,25.24 72.072,25.24 C74.232,25.24 76.104,26.584 77.016,28.48 L77.016,25.552 C77.016,25.408 77.136,25.24 77.328,25.24 Z M72.072,36.4 C74.784,36.4 77.016,34.048 77.016,31.12 C77.016,28.216 74.784,25.864 72.072,25.864 C69.36,25.864 67.128,28.216 67.128,31.12 C67.128,34.048 69.36,36.4 72.072,36.4 Z M82.416,32.248 C82.416,34.84 84.528,36.952 87.144,36.952 C88.896,36.952 90.432,35.992 91.2,34.552 L91.2,36.328 C91.2,39.04 89.016,41.248 86.28,41.248 C85.488,41.248 84.792,41.056 84.12,40.72 C84,40.672 83.808,40.72 83.76,40.864 C83.664,41.032 83.712,41.2 83.88,41.272 C84.6,41.632 85.416,41.848 86.28,41.848 C89.352,41.848 91.8,39.352 91.8,36.328 L91.8,25.552 C91.8,25.48 91.776,25.408 91.728,25.36 C91.728,25.36 91.728,25.336 91.704,25.336 L91.632,25.264 C91.608,25.264 91.584,25.24 91.56,25.24 L91.512,25.24 C91.44,25.24 91.392,25.264 91.344,25.288 L91.272,25.36 C91.248,25.36 91.248,25.384 91.248,25.384 C91.224,25.432 91.2,25.48 91.2,25.504 L91.2,32.416 C91.104,34.6 89.328,36.352 87.144,36.352 C84.864,36.352 83.016,34.504 83.016,32.248 L83.016,25.552 C83.016,25.384 82.872,25.24 82.728,25.24 C82.536,25.24 82.416,25.384 82.416,25.552 L82.416,32.248 Z" id="Delay" fill="#000000"></path>
            </g>
            <g id="Line" transform="translate(258.000000, 56.000000)">
                <polygon id="Triangle-1" fill="#000000" points="97 71 97 54 114 62.5"></polygon>
                <path d="M0.203125,0.58984375 C0.203125,0.58984375 0.203125002,82.8632812 142.890625,58.4179687" id="Path-17" stroke="#000000"></path>
            </g>
            <g id="Line" transform="translate(727.000000, 20.000000)">
                <path d="M0.5,8.5 L77.5064926,8.5" stroke="#000000" stroke-linecap="square"></path>
                <polygon id="Triangle-1" fill="#000000" points="31 17 31 0 48 8.5"></polygon>
            </g>
            <g id="line" transform="translate(522.000000, 41.000000)">
                <path d="M0.55078125,46.75 C0.55078125,46.75 25.3359375,2.2578125 81.0234375,2.2578125" id="Path-23" stroke="#000000"></path>
                <polygon id="Triangle-1" fill="#000000" transform="translate(40.500000, 12.500000) rotate(-33.000000) translate(-40.500000, -12.500000) " points="32 21 32 4 49 12.5"></polygon>
            </g>
        </g>
    </g>
</svg>