<?xml version="1.0" encoding="UTF-8"?>
<svg width="605px" height="62px" viewBox="0 0 605 62" version="1.1" xmlns="http://www.w3.org/2000/svg" xmlns:xlink="http://www.w3.org/1999/xlink">
    <!-- Generator: Sketch 43.2 (39069) - http://www.bohemiancoding.com/sketch -->
    <title>Distortion</title>
    <desc>Created with Sketch.</desc>
    <defs></defs>
    <g id="Page-1" stroke="none" stroke-width="1" fill="none" fill-rule="evenodd">
        <g id="Distortion" transform="translate(3.000000, 3.000000)">
            <g id="Input-node">
                <rect id="Rectangle-1" stroke="#000000" x="-0.5" y="-0.5" width="123" height="57" rx="8"></rect>
                <path d="M33.072,36.688 C33.072,36.88 33.192,37 33.384,37 C33.528,37 33.672,36.88 33.672,36.688 L33.672,20.512 C33.672,20.32 33.528,20.2 33.384,20.2 C33.192,20.2 33.072,20.32 33.072,20.512 L33.072,36.688 Z M48.84,36.688 C48.84,36.856 48.936,37 49.128,37 C49.296,37 49.44,36.856 49.44,36.688 L49.44,29.992 C49.44,27.352 47.304,25.24 44.712,25.24 C42.936,25.24 41.376,26.224 40.56,27.688 L40.56,25.528 C40.56,25.336 40.44,25.24 40.272,25.24 C40.104,25.24 39.96,25.336 39.96,25.528 L39.96,36.736 C39.96,36.784 39.984,36.832 40.008,36.856 C40.008,36.88 40.008,36.88 40.032,36.904 C40.056,36.928 40.08,36.952 40.104,36.952 C40.128,36.976 40.152,36.976 40.176,37 L40.272,37 C40.368,37 40.44,36.952 40.488,36.88 C40.536,36.832 40.56,36.76 40.56,36.688 L40.56,29.992 C40.56,27.664 42.456,25.84 44.712,25.84 C46.968,25.84 48.84,27.664 48.84,29.992 L48.84,36.688 Z M54.672,41.824 L54.672,25.552 C54.672,25.36 54.792,25.24 54.984,25.24 C55.152,25.24 55.272,25.36 55.272,25.552 L55.272,28.456 C56.184,26.536 58.104,25.24 60.288,25.24 C63.456,25.24 65.952,27.832 65.952,31.048 C65.952,34.264 63.456,36.88 60.288,36.88 C58.104,36.88 56.184,35.56 55.272,33.688 L55.272,41.824 C55.272,42.016 55.152,42.136 54.984,42.136 C54.792,42.136 54.672,42.016 54.672,41.824 Z M55.272,30.832 L55.272,31.048 C55.272,33.928 57.552,36.256 60.288,36.256 C63.048,36.256 65.328,33.928 65.328,31.048 C65.328,28.192 63.048,25.84 60.288,25.84 C57.624,25.84 55.368,28.072 55.272,30.832 Z M70.272,32.248 C70.272,34.888 72.384,37 74.976,37 C77.592,37 79.728,34.888 79.728,32.248 L79.728,25.552 C79.728,25.384 79.584,25.24 79.416,25.24 C79.272,25.24 79.104,25.384 79.104,25.552 L79.104,32.248 C79.104,34.552 77.256,36.4 74.976,36.4 C72.72,36.4 70.872,34.552 70.872,32.248 L70.872,25.552 C70.872,25.384 70.728,25.24 70.584,25.24 C70.392,25.24 70.272,25.384 70.272,25.552 L70.272,32.248 Z M88.848,25.24 L86.928,25.24 L86.928,20.536 C86.928,20.368 86.784,20.224 86.616,20.224 C86.448,20.224 86.328,20.368 86.328,20.536 L86.328,25.24 L84.312,25.24 C84.144,25.24 84,25.384 84,25.552 C84,25.72 84.144,25.84 84.312,25.84 L86.328,25.84 L86.328,35.2 C86.328,36.208 87.144,37.024 88.152,37.024 C88.32,37.024 88.464,36.88 88.464,36.712 C88.464,36.544 88.32,36.424 88.152,36.424 C87.48,36.424 86.928,35.872 86.928,35.2 L86.928,25.84 L88.848,25.84 C89.016,25.84 89.16,25.72 89.16,25.552 C89.16,25.384 89.016,25.24 88.848,25.24 Z" id="Input" fill="#000000"></path>
            </g>
            <g id="Waveshaper-node" transform="translate(202.000000, 0.000000)">
                <rect id="Rectangle-1" stroke="#000000" x="-0.5" y="-0.5" width="196" height="57" rx="8"></rect>
                <path d="M40.54,36.784 L35.836,25.528 L31.084,36.808 C31.012,36.976 30.916,37 30.796,37 C30.652,37 30.604,36.952 30.532,36.808 L23.74,20.656 C23.644,20.512 23.74,20.32 23.884,20.272 C24.028,20.2 24.22,20.272 24.292,20.416 L30.796,35.92 L35.5,24.76 C35.548,24.616 35.692,24.544 35.812,24.544 C35.932,24.52 36.076,24.616 36.148,24.76 L40.828,35.92 L47.356,20.416 C47.452,20.272 47.596,20.2 47.764,20.272 C47.932,20.32 48.004,20.512 47.932,20.656 L41.14,36.808 C41.092,36.904 41.044,37 40.852,37 C40.684,37 40.612,36.952 40.54,36.784 Z M58.732,25.24 C58.9,25.24 59.02,25.408 59.02,25.552 L59.02,36.688 C59.02,36.88 58.9,37 58.732,37 C58.54,37 58.42,36.88 58.42,36.688 L58.42,33.76 C57.508,35.68 55.636,37 53.476,37 C50.404,37 47.932,34.336 47.932,31.12 C47.932,27.904 50.404,25.24 53.476,25.24 C55.636,25.24 57.508,26.584 58.42,28.48 L58.42,25.552 C58.42,25.408 58.54,25.24 58.732,25.24 Z M53.476,36.4 C56.188,36.4 58.42,34.048 58.42,31.12 C58.42,28.216 56.188,25.864 53.476,25.864 C50.764,25.864 48.532,28.216 48.532,31.12 C48.532,34.048 50.764,36.4 53.476,36.4 Z M67.372,36.808 C67.42,36.904 67.516,36.976 67.588,37 L67.684,37 C67.756,37 67.828,36.952 67.9,36.88 C67.924,36.856 67.948,36.808 67.948,36.784 L72.628,25.696 C72.7,25.552 72.604,25.384 72.436,25.312 C72.292,25.24 72.124,25.312 72.076,25.48 L67.66,35.92 L63.244,25.48 C63.172,25.312 63.028,25.24 62.86,25.312 C62.716,25.384 62.62,25.552 62.692,25.696 L67.372,36.808 Z M81.7,37 C78.556,36.952 76.036,34.336 75.988,31.12 C76.036,27.856 78.556,25.24 81.7,25.24 C84.7,25.24 87.124,27.616 87.34,30.664 L87.34,30.76 C87.316,30.904 87.196,31.048 87.052,31.048 L76.588,31.048 L76.588,31.12 C76.588,34 78.868,36.376 81.7,36.4 C83.476,36.4 85.036,35.44 85.924,34 C86.02,33.856 86.188,33.856 86.356,33.928 C86.476,34 86.524,34.192 86.428,34.336 C85.42,35.896 83.668,37 81.7,37 Z M81.7,25.864 C79.084,25.864 76.924,27.856 76.612,30.472 L86.74,30.472 C86.428,27.856 84.268,25.864 81.7,25.864 Z M95.236,37 C97.756,37 99.748,35.512 99.748,33.616 C99.748,31.336 97.588,30.832 95.668,30.4 C93.772,29.944 92.14,29.56 92.14,27.856 C92.14,26.608 93.532,25.624 95.236,25.624 C97.3,25.624 98.38,26.824 98.404,26.848 C98.5,26.968 98.692,26.992 98.836,26.872 C98.956,26.752 98.98,26.56 98.86,26.44 C98.812,26.368 97.588,25 95.236,25 C93.196,25 91.516,26.272 91.516,27.856 C91.516,30.064 93.652,30.544 95.524,31 C97.372,31.432 99.124,31.816 99.124,33.616 C99.124,35.152 97.372,36.4 95.236,36.4 C92.98,36.4 91.252,34.864 91.228,34.84 C91.108,34.72 90.916,34.744 90.796,34.864 C90.676,34.984 90.7,35.176 90.82,35.296 C90.892,35.368 92.74,37 95.236,37 Z M112.18,36.688 C112.18,36.856 112.3,37 112.492,37 C112.636,37 112.78,36.856 112.78,36.688 L112.78,30.016 C112.78,27.376 110.668,25.24 108.028,25.24 C106.228,25.24 104.668,26.248 103.852,27.712 L103.852,20.512 C103.852,20.344 103.732,20.2 103.564,20.2 C103.396,20.2 103.252,20.344 103.252,20.512 L103.252,36.736 C103.252,36.808 103.3,36.88 103.348,36.928 C103.42,36.976 103.492,37 103.564,37 L103.612,37 C103.636,37 103.684,36.976 103.732,36.952 C103.804,36.904 103.852,36.808 103.852,36.688 L103.852,29.848 C103.948,27.64 105.772,25.864 108.028,25.864 C110.332,25.864 112.18,27.712 112.18,30.016 L112.18,36.688 Z M128.452,25.24 C128.62,25.24 128.74,25.408 128.74,25.552 L128.74,36.688 C128.74,36.88 128.62,37 128.452,37 C128.26,37 128.14,36.88 128.14,36.688 L128.14,33.76 C127.228,35.68 125.356,37 123.196,37 C120.124,37 117.652,34.336 117.652,31.12 C117.652,27.904 120.124,25.24 123.196,25.24 C125.356,25.24 127.228,26.584 128.14,28.48 L128.14,25.552 C128.14,25.408 128.26,25.24 128.452,25.24 Z M123.196,36.4 C125.908,36.4 128.14,34.048 128.14,31.12 C128.14,28.216 125.908,25.864 123.196,25.864 C120.484,25.864 118.252,28.216 118.252,31.12 C118.252,34.048 120.484,36.4 123.196,36.4 Z M133.78,41.824 L133.78,25.552 C133.78,25.36 133.9,25.24 134.092,25.24 C134.26,25.24 134.38,25.36 134.38,25.552 L134.38,28.456 C135.292,26.536 137.212,25.24 139.396,25.24 C142.564,25.24 145.06,27.832 145.06,31.048 C145.06,34.264 142.564,36.88 139.396,36.88 C137.212,36.88 135.292,35.56 134.38,33.688 L134.38,41.824 C134.38,42.016 134.26,42.136 134.092,42.136 C133.9,42.136 133.78,42.016 133.78,41.824 Z M134.38,30.832 L134.38,31.048 C134.38,33.928 136.66,36.256 139.396,36.256 C142.156,36.256 144.436,33.928 144.436,31.048 C144.436,28.192 142.156,25.84 139.396,25.84 C136.732,25.84 134.476,28.072 134.38,30.832 Z M154.252,37 C151.108,36.952 148.588,34.336 148.54,31.12 C148.588,27.856 151.108,25.24 154.252,25.24 C157.252,25.24 159.676,27.616 159.892,30.664 L159.892,30.76 C159.868,30.904 159.748,31.048 159.604,31.048 L149.14,31.048 L149.14,31.12 C149.14,34 151.42,36.376 154.252,36.4 C156.028,36.4 157.588,35.44 158.476,34 C158.572,33.856 158.74,33.856 158.908,33.928 C159.028,34 159.076,34.192 158.98,34.336 C157.972,35.896 156.22,37 154.252,37 Z M154.252,25.864 C151.636,25.864 149.476,27.856 149.164,30.472 L159.292,30.472 C158.98,27.856 156.82,25.864 154.252,25.864 Z M163.516,36.688 C163.516,36.88 163.66,37 163.804,37 C163.996,37 164.092,36.88 164.092,36.688 L164.092,31.192 C164.092,31.192 164.188,30.904 164.38,30.376 C164.692,29.632 165.268,28.432 166.108,27.472 C166.9,26.584 168.028,25.864 169.516,25.864 C169.708,25.864 169.828,25.72 169.828,25.552 C169.828,25.384 169.708,25.24 169.516,25.24 C167.26,25.24 165.748,26.776 164.836,28.144 C164.524,28.624 164.284,29.104 164.092,29.536 L164.092,25.552 C164.092,25.384 163.996,25.24 163.804,25.24 C163.66,25.24 163.516,25.384 163.516,25.552 L163.516,31.048 C163.492,31.12 163.492,31.144 163.516,31.192 L163.516,36.688 Z" id="Waveshaper" fill="#000000"></path>
            </g>
            <g id="Output-node" transform="translate(477.000000, 0.000000)">
                <rect id="Rectangle-1" stroke="#000000" x="-0.5" y="-0.5" width="123" height="57" rx="8"></rect>
                <path d="M20.82,28.624 C20.844,23.824 24.468,19.96 29.004,19.96 C33.54,19.96 37.164,23.824 37.212,28.624 C37.164,33.448 33.54,37.312 29.004,37.312 C24.468,37.312 20.844,33.448 20.82,28.624 Z M21.468,28.624 C21.468,33.064 24.876,36.616 29.004,36.664 C33.108,36.616 36.516,33.064 36.54,28.624 C36.516,24.16 33.108,20.584 29.004,20.584 C24.876,20.584 21.468,24.16 21.468,28.624 Z M41.46,32.248 C41.46,34.888 43.572,37 46.164,37 C48.78,37 50.916,34.888 50.916,32.248 L50.916,25.552 C50.916,25.384 50.772,25.24 50.604,25.24 C50.46,25.24 50.292,25.384 50.292,25.552 L50.292,32.248 C50.292,34.552 48.444,36.4 46.164,36.4 C43.908,36.4 42.06,34.552 42.06,32.248 L42.06,25.552 C42.06,25.384 41.916,25.24 41.772,25.24 C41.58,25.24 41.46,25.384 41.46,25.552 L41.46,32.248 Z M60.036,25.24 L58.116,25.24 L58.116,20.536 C58.116,20.368 57.972,20.224 57.804,20.224 C57.636,20.224 57.516,20.368 57.516,20.536 L57.516,25.24 L55.5,25.24 C55.332,25.24 55.188,25.384 55.188,25.552 C55.188,25.72 55.332,25.84 55.5,25.84 L57.516,25.84 L57.516,35.2 C57.516,36.208 58.332,37.024 59.34,37.024 C59.508,37.024 59.652,36.88 59.652,36.712 C59.652,36.544 59.508,36.424 59.34,36.424 C58.668,36.424 58.116,35.872 58.116,35.2 L58.116,25.84 L60.036,25.84 C60.204,25.84 60.348,25.72 60.348,25.552 C60.348,25.384 60.204,25.24 60.036,25.24 Z M66.012,41.824 L66.012,25.552 C66.012,25.36 66.132,25.24 66.324,25.24 C66.492,25.24 66.612,25.36 66.612,25.552 L66.612,28.456 C67.524,26.536 69.444,25.24 71.628,25.24 C74.796,25.24 77.292,27.832 77.292,31.048 C77.292,34.264 74.796,36.88 71.628,36.88 C69.444,36.88 67.524,35.56 66.612,33.688 L66.612,41.824 C66.612,42.016 66.492,42.136 66.324,42.136 C66.132,42.136 66.012,42.016 66.012,41.824 Z M66.612,30.832 L66.612,31.048 C66.612,33.928 68.892,36.256 71.628,36.256 C74.388,36.256 76.668,33.928 76.668,31.048 C76.668,28.192 74.388,25.84 71.628,25.84 C68.964,25.84 66.708,28.072 66.612,30.832 Z M81.612,32.248 C81.612,34.888 83.724,37 86.316,37 C88.932,37 91.068,34.888 91.068,32.248 L91.068,25.552 C91.068,25.384 90.924,25.24 90.756,25.24 C90.612,25.24 90.444,25.384 90.444,25.552 L90.444,32.248 C90.444,34.552 88.596,36.4 86.316,36.4 C84.06,36.4 82.212,34.552 82.212,32.248 L82.212,25.552 C82.212,25.384 82.068,25.24 81.924,25.24 C81.732,25.24 81.612,25.384 81.612,25.552 L81.612,32.248 Z M100.188,25.24 L98.268,25.24 L98.268,20.536 C98.268,20.368 98.124,20.224 97.956,20.224 C97.788,20.224 97.668,20.368 97.668,20.536 L97.668,25.24 L95.652,25.24 C95.484,25.24 95.34,25.384 95.34,25.552 C95.34,25.72 95.484,25.84 95.652,25.84 L97.668,25.84 L97.668,35.2 C97.668,36.208 98.484,37.024 99.492,37.024 C99.66,37.024 99.804,36.88 99.804,36.712 C99.804,36.544 99.66,36.424 99.492,36.424 C98.82,36.424 98.268,35.872 98.268,35.2 L98.268,25.84 L100.188,25.84 C100.356,25.84 100.5,25.72 100.5,25.552 C100.5,25.384 100.356,25.24 100.188,25.24 Z" id="Output" fill="#000000"></path>
            </g>
            <g id="Line" transform="translate(123.000000, 19.000000)">
                <path d="M0.5,8.5 L77.5064926,8.5" stroke="#000000" stroke-linecap="square"></path>
                <polygon id="Triangle-1" fill="#000000" points="31 17 31 0 48 8.5"></polygon>
            </g>
            <g id="Line" transform="translate(397.000000, 19.000000)">
                <path d="M0.5,8.5 L77.5064926,8.5" stroke="#000000" stroke-linecap="square"></path>
                <polygon id="Triangle-1" fill="#000000" points="31 17 31 0 48 8.5"></polygon>
            </g>
        </g>
    </g>
</svg>