<?xml version="1.0" encoding="UTF-8"?>
<svg width="960px" height="248px" viewBox="0 0 960 248" version="1.1" xmlns="http://www.w3.org/2000/svg" xmlns:xlink="http://www.w3.org/1999/xlink">
    <!-- Generator: Sketch 43.2 (39069) - http://www.bohemiancoding.com/sketch -->
    <title>Flanger</title>
    <desc>Created with Sketch.</desc>
    <defs></defs>
    <g id="Page-1" stroke="none" stroke-width="1" fill="none" fill-rule="evenodd">
        <g id="Flanger" transform="translate(3.000000, 3.000000)">
            <g id="Input-node" transform="translate(35.000000, 83.000000)">
                <rect id="Rectangle-1" stroke="#000000" x="-0.5" y="-0.5" width="123" height="57" rx="8"></rect>
                <path d="M33.072,36.688 C33.072,36.88 33.192,37 33.384,37 C33.528,37 33.672,36.88 33.672,36.688 L33.672,20.512 C33.672,20.32 33.528,20.2 33.384,20.2 C33.192,20.2 33.072,20.32 33.072,20.512 L33.072,36.688 Z M48.84,36.688 C48.84,36.856 48.936,37 49.128,37 C49.296,37 49.44,36.856 49.44,36.688 L49.44,29.992 C49.44,27.352 47.304,25.24 44.712,25.24 C42.936,25.24 41.376,26.224 40.56,27.688 L40.56,25.528 C40.56,25.336 40.44,25.24 40.272,25.24 C40.104,25.24 39.96,25.336 39.96,25.528 L39.96,36.736 C39.96,36.784 39.984,36.832 40.008,36.856 C40.008,36.88 40.008,36.88 40.032,36.904 C40.056,36.928 40.08,36.952 40.104,36.952 C40.128,36.976 40.152,36.976 40.176,37 L40.272,37 C40.368,37 40.44,36.952 40.488,36.88 C40.536,36.832 40.56,36.76 40.56,36.688 L40.56,29.992 C40.56,27.664 42.456,25.84 44.712,25.84 C46.968,25.84 48.84,27.664 48.84,29.992 L48.84,36.688 Z M54.672,41.824 L54.672,25.552 C54.672,25.36 54.792,25.24 54.984,25.24 C55.152,25.24 55.272,25.36 55.272,25.552 L55.272,28.456 C56.184,26.536 58.104,25.24 60.288,25.24 C63.456,25.24 65.952,27.832 65.952,31.048 C65.952,34.264 63.456,36.88 60.288,36.88 C58.104,36.88 56.184,35.56 55.272,33.688 L55.272,41.824 C55.272,42.016 55.152,42.136 54.984,42.136 C54.792,42.136 54.672,42.016 54.672,41.824 Z M55.272,30.832 L55.272,31.048 C55.272,33.928 57.552,36.256 60.288,36.256 C63.048,36.256 65.328,33.928 65.328,31.048 C65.328,28.192 63.048,25.84 60.288,25.84 C57.624,25.84 55.368,28.072 55.272,30.832 Z M70.272,32.248 C70.272,34.888 72.384,37 74.976,37 C77.592,37 79.728,34.888 79.728,32.248 L79.728,25.552 C79.728,25.384 79.584,25.24 79.416,25.24 C79.272,25.24 79.104,25.384 79.104,25.552 L79.104,32.248 C79.104,34.552 77.256,36.4 74.976,36.4 C72.72,36.4 70.872,34.552 70.872,32.248 L70.872,25.552 C70.872,25.384 70.728,25.24 70.584,25.24 C70.392,25.24 70.272,25.384 70.272,25.552 L70.272,32.248 Z M88.848,25.24 L86.928,25.24 L86.928,20.536 C86.928,20.368 86.784,20.224 86.616,20.224 C86.448,20.224 86.328,20.368 86.328,20.536 L86.328,25.24 L84.312,25.24 C84.144,25.24 84,25.384 84,25.552 C84,25.72 84.144,25.84 84.312,25.84 L86.328,25.84 L86.328,35.2 C86.328,36.208 87.144,37.024 88.152,37.024 C88.32,37.024 88.464,36.88 88.464,36.712 C88.464,36.544 88.32,36.424 88.152,36.424 C87.48,36.424 86.928,35.872 86.928,35.2 L86.928,25.84 L88.848,25.84 C89.016,25.84 89.16,25.72 89.16,25.552 C89.16,25.384 89.016,25.24 88.848,25.24 Z" id="Input" fill="#000000"></path>
            </g>
            <g id="Oscillator-node" transform="translate(0.000000, 185.000000)">
                <rect id="Rectangle-1" stroke="#000000" x="-0.5" y="-0.5" width="158" height="57" rx="8"></rect>
                <path d="M24.2674426,28.624 C24.2914426,23.824 27.9154426,19.96 32.4514426,19.96 C36.9874426,19.96 40.6114426,23.824 40.6594426,28.624 C40.6114426,33.448 36.9874426,37.312 32.4514426,37.312 C27.9154426,37.312 24.2914426,33.448 24.2674426,28.624 Z M24.9154426,28.624 C24.9154426,33.064 28.3234426,36.616 32.4514426,36.664 C36.5554426,36.616 39.9634426,33.064 39.9874426,28.624 C39.9634426,24.16 36.5554426,20.584 32.4514426,20.584 C28.3234426,20.584 24.9154426,24.16 24.9154426,28.624 Z M48.9394426,37 C51.4594426,37 53.4514426,35.512 53.4514426,33.616 C53.4514426,31.336 51.2914426,30.832 49.3714426,30.4 C47.4754426,29.944 45.8434426,29.56 45.8434426,27.856 C45.8434426,26.608 47.2354426,25.624 48.9394426,25.624 C51.0034426,25.624 52.0834426,26.824 52.1074426,26.848 C52.2034426,26.968 52.3954426,26.992 52.5394426,26.872 C52.6594426,26.752 52.6834426,26.56 52.5634426,26.44 C52.5154426,26.368 51.2914426,25 48.9394426,25 C46.8994426,25 45.2194426,26.272 45.2194426,27.856 C45.2194426,30.064 47.3554426,30.544 49.2274426,31 C51.0754426,31.432 52.8274426,31.816 52.8274426,33.616 C52.8274426,35.152 51.0754426,36.4 48.9394426,36.4 C46.6834426,36.4 44.9554426,34.864 44.9314426,34.84 C44.8114426,34.72 44.6194426,34.744 44.4994426,34.864 C44.3794426,34.984 44.4034426,35.176 44.5234426,35.296 C44.5954426,35.368 46.4434426,37 48.9394426,37 Z M56.1154426,31.12 C56.1154426,34.336 58.8274426,36.976 62.1634426,37 C63.5554426,37 64.8754426,36.52 65.9074426,35.728 C66.0274426,35.608 66.0274426,35.44 65.9314426,35.296 C65.8354426,35.176 65.6434426,35.152 65.5234426,35.224 C64.5874426,35.944 63.4114426,36.4 62.1634426,36.4 C59.1154426,36.4 56.7154426,34.024 56.7154426,31.12 C56.7154426,28.216 59.1154426,25.84 62.1634426,25.84 C63.4114426,25.84 64.5874426,26.272 65.5234426,26.992 C65.6674426,27.088 65.8354426,27.088 65.9314426,26.968 C66.0274426,26.824 66.0274426,26.632 65.9074426,26.512 C64.8754426,25.696 63.5554426,25.24 62.1634426,25.24 C58.8274426,25.24 56.1154426,27.88 56.1154426,31.12 Z M70.6834426,36.688 C70.6834426,36.856 70.8034426,37 70.9954426,37 C71.1394426,37 71.2834426,36.856 71.2834426,36.688 L71.2834426,25.528 C71.2834426,25.336 71.1394426,25.24 70.9954426,25.24 C70.8034426,25.24 70.6834426,25.336 70.6834426,25.528 L70.6834426,36.688 Z M70.6834426,22.336 C70.6834426,22.48 70.8034426,22.624 70.9954426,22.624 C71.1394426,22.624 71.2834426,22.48 71.2834426,22.336 L71.2834426,21.76 C71.2834426,21.568 71.1394426,21.448 70.9954426,21.448 C70.8034426,21.448 70.6834426,21.568 70.6834426,21.76 L70.6834426,22.336 Z M77.0674426,36.688 C77.0674426,36.856 77.1874426,37 77.3794426,37 C77.5474426,37 77.6674426,36.856 77.6674426,36.688 L77.6674426,20.512 C77.6674426,20.344 77.5474426,20.2 77.3794426,20.2 C77.1874426,20.2 77.0674426,20.344 77.0674426,20.512 L77.0674426,36.688 Z M83.0434426,36.688 C83.0434426,36.856 83.1634426,37 83.3554426,37 C83.5234426,37 83.6434426,36.856 83.6434426,36.688 L83.6434426,20.512 C83.6434426,20.344 83.5234426,20.2 83.3554426,20.2 C83.1634426,20.2 83.0434426,20.344 83.0434426,20.512 L83.0434426,36.688 Z M98.3794426,25.24 C98.5474426,25.24 98.6674426,25.408 98.6674426,25.552 L98.6674426,36.688 C98.6674426,36.88 98.5474426,37 98.3794426,37 C98.1874426,37 98.0674426,36.88 98.0674426,36.688 L98.0674426,33.76 C97.1554426,35.68 95.2834426,37 93.1234426,37 C90.0514426,37 87.5794426,34.336 87.5794426,31.12 C87.5794426,27.904 90.0514426,25.24 93.1234426,25.24 C95.2834426,25.24 97.1554426,26.584 98.0674426,28.48 L98.0674426,25.552 C98.0674426,25.408 98.1874426,25.24 98.3794426,25.24 Z M93.1234426,36.4 C95.8354426,36.4 98.0674426,34.048 98.0674426,31.12 C98.0674426,28.216 95.8354426,25.864 93.1234426,25.864 C90.4114426,25.864 88.1794426,28.216 88.1794426,31.12 C88.1794426,34.048 90.4114426,36.4 93.1234426,36.4 Z M107.331443,25.24 L105.411443,25.24 L105.411443,20.536 C105.411443,20.368 105.267443,20.224 105.099443,20.224 C104.931443,20.224 104.811443,20.368 104.811443,20.536 L104.811443,25.24 L102.795443,25.24 C102.627443,25.24 102.483443,25.384 102.483443,25.552 C102.483443,25.72 102.627443,25.84 102.795443,25.84 L104.811443,25.84 L104.811443,35.2 C104.811443,36.208 105.627443,37.024 106.635443,37.024 C106.803443,37.024 106.947443,36.88 106.947443,36.712 C106.947443,36.544 106.803443,36.424 106.635443,36.424 C105.963443,36.424 105.411443,35.872 105.411443,35.2 L105.411443,25.84 L107.331443,25.84 C107.499443,25.84 107.643443,25.72 107.643443,25.552 C107.643443,25.384 107.499443,25.24 107.331443,25.24 Z M112.395443,31.12 C112.395443,27.88 114.867443,25.24 117.939443,25.24 C121.011443,25.24 123.507443,27.88 123.507443,31.12 C123.507443,34.336 121.011443,37 117.939443,37 C114.867443,37 112.395443,34.336 112.395443,31.12 Z M112.995443,31.12 C112.995443,34.024 115.227443,36.4 117.939443,36.4 C120.651443,36.4 122.907443,34.024 122.907443,31.12 C122.907443,28.192 120.651443,25.84 117.939443,25.84 C115.227443,25.84 112.995443,28.192 112.995443,31.12 Z M127.491443,36.688 C127.491443,36.88 127.635443,37 127.779443,37 C127.971443,37 128.067443,36.88 128.067443,36.688 L128.067443,31.192 C128.067443,31.192 128.163443,30.904 128.355443,30.376 C128.667443,29.632 129.243443,28.432 130.083443,27.472 C130.875443,26.584 132.003443,25.864 133.491443,25.864 C133.683443,25.864 133.803443,25.72 133.803443,25.552 C133.803443,25.384 133.683443,25.24 133.491443,25.24 C131.235443,25.24 129.723443,26.776 128.811443,28.144 C128.499443,28.624 128.259443,29.104 128.067443,29.536 L128.067443,25.552 C128.067443,25.384 127.971443,25.24 127.779443,25.24 C127.635443,25.24 127.491443,25.384 127.491443,25.552 L127.491443,31.048 C127.467443,31.12 127.467443,31.144 127.491443,31.192 L127.491443,36.688 Z" id="Oscillator" fill="#000000"></path>
            </g>
            <g id="Gain-node" transform="translate(237.000000, 83.000000)">
                <rect id="Rectangle-1" stroke="#000000" x="-0.5" y="-0.5" width="123" height="57" rx="8"></rect>
                <path d="M49.104,29.032 L49.104,34.72 C47.712,35.752 45.96,36.376 44.088,36.376 C39.528,36.376 35.832,32.776 35.832,28.312 C35.832,23.92 39.528,20.296 44.088,20.296 C46.032,20.296 47.832,20.968 49.224,22.072 C49.344,22.192 49.584,22.168 49.68,22.048 C49.8,21.88 49.776,21.688 49.608,21.568 C48.12,20.392 46.176,19.696 44.088,19.696 C39.192,19.696 35.208,23.56 35.208,28.312 C35.208,33.112 39.192,36.976 44.088,37 C46.176,37 48.12,36.28 49.608,35.128 C49.656,35.08 49.68,35.032 49.704,34.96 L49.704,34.912 C49.728,34.888 49.728,34.864 49.728,34.84 L49.728,28.744 C49.728,28.552 49.608,28.408 49.44,28.408 L43.944,28.408 C43.8,28.408 43.632,28.552 43.632,28.744 C43.632,28.888 43.8,29.032 43.944,29.032 L49.104,29.032 Z M64.992,25.24 C65.16,25.24 65.28,25.408 65.28,25.552 L65.28,36.688 C65.28,36.88 65.16,37 64.992,37 C64.8,37 64.68,36.88 64.68,36.688 L64.68,33.76 C63.768,35.68 61.896,37 59.736,37 C56.664,37 54.192,34.336 54.192,31.12 C54.192,27.904 56.664,25.24 59.736,25.24 C61.896,25.24 63.768,26.584 64.68,28.48 L64.68,25.552 C64.68,25.408 64.8,25.24 64.992,25.24 Z M59.736,36.4 C62.448,36.4 64.68,34.048 64.68,31.12 C64.68,28.216 62.448,25.864 59.736,25.864 C57.024,25.864 54.792,28.216 54.792,31.12 C54.792,34.048 57.024,36.4 59.736,36.4 Z M70.344,36.688 C70.344,36.856 70.464,37 70.656,37 C70.8,37 70.944,36.856 70.944,36.688 L70.944,25.528 C70.944,25.336 70.8,25.24 70.656,25.24 C70.464,25.24 70.344,25.336 70.344,25.528 L70.344,36.688 Z M70.344,22.336 C70.344,22.48 70.464,22.624 70.656,22.624 C70.8,22.624 70.944,22.48 70.944,22.336 L70.944,21.76 C70.944,21.568 70.8,21.448 70.656,21.448 C70.464,21.448 70.344,21.568 70.344,21.76 L70.344,22.336 Z M85.944,36.688 C85.944,36.856 86.04,37 86.232,37 C86.4,37 86.544,36.856 86.544,36.688 L86.544,29.992 C86.544,27.352 84.408,25.24 81.816,25.24 C80.04,25.24 78.48,26.224 77.664,27.688 L77.664,25.528 C77.664,25.336 77.544,25.24 77.376,25.24 C77.208,25.24 77.064,25.336 77.064,25.528 L77.064,36.736 C77.064,36.784 77.088,36.832 77.112,36.856 C77.112,36.88 77.112,36.88 77.136,36.904 C77.16,36.928 77.184,36.952 77.208,36.952 C77.232,36.976 77.256,36.976 77.28,37 L77.376,37 C77.472,37 77.544,36.952 77.592,36.88 C77.64,36.832 77.664,36.76 77.664,36.688 L77.664,29.992 C77.664,27.664 79.56,25.84 81.816,25.84 C84.072,25.84 85.944,27.664 85.944,29.992 L85.944,36.688 Z" id="Gain" fill="#000000"></path>
            </g>
            <g id="Output-node" transform="translate(832.000000, 0.000000)">
                <rect id="Rectangle-1" stroke="#000000" x="-0.5" y="-0.5" width="123" height="57" rx="8"></rect>
                <path d="M20.82,28.624 C20.844,23.824 24.468,19.96 29.004,19.96 C33.54,19.96 37.164,23.824 37.212,28.624 C37.164,33.448 33.54,37.312 29.004,37.312 C24.468,37.312 20.844,33.448 20.82,28.624 Z M21.468,28.624 C21.468,33.064 24.876,36.616 29.004,36.664 C33.108,36.616 36.516,33.064 36.54,28.624 C36.516,24.16 33.108,20.584 29.004,20.584 C24.876,20.584 21.468,24.16 21.468,28.624 Z M41.46,32.248 C41.46,34.888 43.572,37 46.164,37 C48.78,37 50.916,34.888 50.916,32.248 L50.916,25.552 C50.916,25.384 50.772,25.24 50.604,25.24 C50.46,25.24 50.292,25.384 50.292,25.552 L50.292,32.248 C50.292,34.552 48.444,36.4 46.164,36.4 C43.908,36.4 42.06,34.552 42.06,32.248 L42.06,25.552 C42.06,25.384 41.916,25.24 41.772,25.24 C41.58,25.24 41.46,25.384 41.46,25.552 L41.46,32.248 Z M60.036,25.24 L58.116,25.24 L58.116,20.536 C58.116,20.368 57.972,20.224 57.804,20.224 C57.636,20.224 57.516,20.368 57.516,20.536 L57.516,25.24 L55.5,25.24 C55.332,25.24 55.188,25.384 55.188,25.552 C55.188,25.72 55.332,25.84 55.5,25.84 L57.516,25.84 L57.516,35.2 C57.516,36.208 58.332,37.024 59.34,37.024 C59.508,37.024 59.652,36.88 59.652,36.712 C59.652,36.544 59.508,36.424 59.34,36.424 C58.668,36.424 58.116,35.872 58.116,35.2 L58.116,25.84 L60.036,25.84 C60.204,25.84 60.348,25.72 60.348,25.552 C60.348,25.384 60.204,25.24 60.036,25.24 Z M66.012,41.824 L66.012,25.552 C66.012,25.36 66.132,25.24 66.324,25.24 C66.492,25.24 66.612,25.36 66.612,25.552 L66.612,28.456 C67.524,26.536 69.444,25.24 71.628,25.24 C74.796,25.24 77.292,27.832 77.292,31.048 C77.292,34.264 74.796,36.88 71.628,36.88 C69.444,36.88 67.524,35.56 66.612,33.688 L66.612,41.824 C66.612,42.016 66.492,42.136 66.324,42.136 C66.132,42.136 66.012,42.016 66.012,41.824 Z M66.612,30.832 L66.612,31.048 C66.612,33.928 68.892,36.256 71.628,36.256 C74.388,36.256 76.668,33.928 76.668,31.048 C76.668,28.192 74.388,25.84 71.628,25.84 C68.964,25.84 66.708,28.072 66.612,30.832 Z M81.612,32.248 C81.612,34.888 83.724,37 86.316,37 C88.932,37 91.068,34.888 91.068,32.248 L91.068,25.552 C91.068,25.384 90.924,25.24 90.756,25.24 C90.612,25.24 90.444,25.384 90.444,25.552 L90.444,32.248 C90.444,34.552 88.596,36.4 86.316,36.4 C84.06,36.4 82.212,34.552 82.212,32.248 L82.212,25.552 C82.212,25.384 82.068,25.24 81.924,25.24 C81.732,25.24 81.612,25.384 81.612,25.552 L81.612,32.248 Z M100.188,25.24 L98.268,25.24 L98.268,20.536 C98.268,20.368 98.124,20.224 97.956,20.224 C97.788,20.224 97.668,20.368 97.668,20.536 L97.668,25.24 L95.652,25.24 C95.484,25.24 95.34,25.384 95.34,25.552 C95.34,25.72 95.484,25.84 95.652,25.84 L97.668,25.84 L97.668,35.2 C97.668,36.208 98.484,37.024 99.492,37.024 C99.66,37.024 99.804,36.88 99.804,36.712 C99.804,36.544 99.66,36.424 99.492,36.424 C98.82,36.424 98.268,35.872 98.268,35.2 L98.268,25.84 L100.188,25.84 C100.356,25.84 100.5,25.72 100.5,25.552 C100.5,25.384 100.356,25.24 100.188,25.24 Z" id="Output" fill="#000000"></path>
            </g>
            <g id="Line" transform="translate(158.000000, 102.000000)">
                <path d="M0.5,8.5 L77.5064926,8.5" stroke="#000000" stroke-linecap="square"></path>
                <polygon id="Triangle-1" fill="#000000" points="31 17 31 0 48 8.5"></polygon>
            </g>
            <g id="Gain-node" transform="translate(237.000000, 185.000000)">
                <rect id="Rectangle-1" stroke="#000000" x="-0.5" y="-0.5" width="123" height="57" rx="8"></rect>
                <path d="M49.104,29.032 L49.104,34.72 C47.712,35.752 45.96,36.376 44.088,36.376 C39.528,36.376 35.832,32.776 35.832,28.312 C35.832,23.92 39.528,20.296 44.088,20.296 C46.032,20.296 47.832,20.968 49.224,22.072 C49.344,22.192 49.584,22.168 49.68,22.048 C49.8,21.88 49.776,21.688 49.608,21.568 C48.12,20.392 46.176,19.696 44.088,19.696 C39.192,19.696 35.208,23.56 35.208,28.312 C35.208,33.112 39.192,36.976 44.088,37 C46.176,37 48.12,36.28 49.608,35.128 C49.656,35.08 49.68,35.032 49.704,34.96 L49.704,34.912 C49.728,34.888 49.728,34.864 49.728,34.84 L49.728,28.744 C49.728,28.552 49.608,28.408 49.44,28.408 L43.944,28.408 C43.8,28.408 43.632,28.552 43.632,28.744 C43.632,28.888 43.8,29.032 43.944,29.032 L49.104,29.032 Z M64.992,25.24 C65.16,25.24 65.28,25.408 65.28,25.552 L65.28,36.688 C65.28,36.88 65.16,37 64.992,37 C64.8,37 64.68,36.88 64.68,36.688 L64.68,33.76 C63.768,35.68 61.896,37 59.736,37 C56.664,37 54.192,34.336 54.192,31.12 C54.192,27.904 56.664,25.24 59.736,25.24 C61.896,25.24 63.768,26.584 64.68,28.48 L64.68,25.552 C64.68,25.408 64.8,25.24 64.992,25.24 Z M59.736,36.4 C62.448,36.4 64.68,34.048 64.68,31.12 C64.68,28.216 62.448,25.864 59.736,25.864 C57.024,25.864 54.792,28.216 54.792,31.12 C54.792,34.048 57.024,36.4 59.736,36.4 Z M70.344,36.688 C70.344,36.856 70.464,37 70.656,37 C70.8,37 70.944,36.856 70.944,36.688 L70.944,25.528 C70.944,25.336 70.8,25.24 70.656,25.24 C70.464,25.24 70.344,25.336 70.344,25.528 L70.344,36.688 Z M70.344,22.336 C70.344,22.48 70.464,22.624 70.656,22.624 C70.8,22.624 70.944,22.48 70.944,22.336 L70.944,21.76 C70.944,21.568 70.8,21.448 70.656,21.448 C70.464,21.448 70.344,21.568 70.344,21.76 L70.344,22.336 Z M85.944,36.688 C85.944,36.856 86.04,37 86.232,37 C86.4,37 86.544,36.856 86.544,36.688 L86.544,29.992 C86.544,27.352 84.408,25.24 81.816,25.24 C80.04,25.24 78.48,26.224 77.664,27.688 L77.664,25.528 C77.664,25.336 77.544,25.24 77.376,25.24 C77.208,25.24 77.064,25.336 77.064,25.528 L77.064,36.736 C77.064,36.784 77.088,36.832 77.112,36.856 C77.112,36.88 77.112,36.88 77.136,36.904 C77.16,36.928 77.184,36.952 77.208,36.952 C77.232,36.976 77.256,36.976 77.28,37 L77.376,37 C77.472,37 77.544,36.952 77.592,36.88 C77.64,36.832 77.664,36.76 77.664,36.688 L77.664,29.992 C77.664,27.664 79.56,25.84 81.816,25.84 C84.072,25.84 85.944,27.664 85.944,29.992 L85.944,36.688 Z" id="Gain" fill="#000000"></path>
            </g>
            <g id="Line" transform="translate(158.000000, 204.000000)">
                <path d="M0.5,8.5 L77.5064926,8.5" stroke="#000000" stroke-linecap="square"></path>
                <polygon id="Triangle-1" fill="#000000" points="31 17 31 0 48 8.5"></polygon>
            </g>
            <g id="Line" transform="translate(422.473123, 195.722751) rotate(-27.000000) translate(-422.473123, -195.722751) translate(358.973123, 165.722751)">
                <path d="M2.55202211,18.7228876 C2.55202211,18.7228876 78.9349491,60.6225039 126.513074,0.321722633" id="Path-42" stroke="#000000" stroke-dasharray="8,8"></path>
                <polygon id="Triangle-1" fill="#000000" points="45.2730789 40.0278444 45.2730789 23.0278444 62.2730789 31.5278444"></polygon>
                <path d="M8.68495829,54.5423627 C8.68495829,54.6683627 8.59495829,54.7763627 8.45095829,54.7763627 C8.34295829,54.7763627 8.23495829,54.6683627 8.23495829,54.5423627 L8.23495829,52.3643627 C7.53295829,53.7863627 6.09295829,54.7763627 4.43695829,54.7763627 C2.06095829,54.7763627 0.152958287,52.7783627 0.152958287,50.3483627 C0.152958287,47.9363627 2.06095829,45.9563627 4.43695829,45.9563627 C6.09295829,45.9563627 7.53295829,46.9463627 8.23495829,48.3863627 L8.23495829,42.4463627 C8.23495829,42.3203627 8.34295829,42.1763627 8.45095829,42.1763627 C8.59495829,42.1763627 8.68495829,42.3203627 8.68495829,42.4463627 L8.68495829,54.5423627 Z M8.23495829,50.3483627 L8.23495829,50.1863627 C8.16295829,48.0803627 6.45295829,46.4063627 4.43695829,46.4063627 C2.33095829,46.4063627 0.602958287,48.1703627 0.602958287,50.3483627 C0.602958287,52.5443627 2.33095829,54.3263627 4.43695829,54.3263627 C6.50695829,54.3263627 8.23495829,52.5443627 8.23495829,50.3483627 Z M16.0109583,54.7763627 C13.6529583,54.7403627 11.7629583,52.7783627 11.7269583,50.3663627 C11.7629583,47.9183627 13.6529583,45.9563627 16.0109583,45.9563627 C18.2609583,45.9563627 20.0789583,47.7383627 20.2409583,50.0243627 L20.2409583,50.0963627 C20.2229583,50.2043627 20.1329583,50.3123627 20.0249583,50.3123627 L12.1769583,50.3123627 L12.1769583,50.3663627 C12.1769583,52.5263627 13.8869583,54.3083627 16.0109583,54.3263627 C17.3429583,54.3263627 18.5129583,53.6063627 19.1789583,52.5263627 C19.2509583,52.4183627 19.3769583,52.4183627 19.5029583,52.4723627 C19.5929583,52.5263627 19.6289583,52.6703627 19.5569583,52.7783627 C18.8009583,53.9483627 17.4869583,54.7763627 16.0109583,54.7763627 Z M16.0109583,46.4243627 C14.0489583,46.4243627 12.4289583,47.9183627 12.1949583,49.8803627 L19.7909583,49.8803627 C19.5569583,47.9183627 17.9369583,46.4243627 16.0109583,46.4243627 Z M23.4449583,54.5423627 C23.4449583,54.6683627 23.5349583,54.7763627 23.6789583,54.7763627 C23.8049583,54.7763627 23.8949583,54.6683627 23.8949583,54.5423627 L23.8949583,42.4103627 C23.8949583,42.2843627 23.8049583,42.1763627 23.6789583,42.1763627 C23.5349583,42.1763627 23.4449583,42.2843627 23.4449583,42.4103627 L23.4449583,54.5423627 Z M34.9469583,45.9563627 C35.0729583,45.9563627 35.1629583,46.0823627 35.1629583,46.1903627 L35.1629583,54.5423627 C35.1629583,54.6863627 35.0729583,54.7763627 34.9469583,54.7763627 C34.8029583,54.7763627 34.7129583,54.6863627 34.7129583,54.5423627 L34.7129583,52.3463627 C34.0289583,53.7863627 32.6249583,54.7763627 31.0049583,54.7763627 C28.7009583,54.7763627 26.8469583,52.7783627 26.8469583,50.3663627 C26.8469583,47.9543627 28.7009583,45.9563627 31.0049583,45.9563627 C32.6249583,45.9563627 34.0289583,46.9643627 34.7129583,48.3863627 L34.7129583,46.1903627 C34.7129583,46.0823627 34.8029583,45.9563627 34.9469583,45.9563627 Z M31.0049583,54.3263627 C33.0389583,54.3263627 34.7129583,52.5623627 34.7129583,50.3663627 C34.7129583,48.1883627 33.0389583,46.4243627 31.0049583,46.4243627 C28.9709583,46.4243627 27.2969583,48.1883627 27.2969583,50.3663627 C27.2969583,52.5623627 28.9709583,54.3263627 31.0049583,54.3263627 Z M38.7629583,51.2123627 C38.7629583,53.1563627 40.3469583,54.7403627 42.3089583,54.7403627 C43.6229583,54.7403627 44.7749583,54.0203627 45.3509583,52.9403627 L45.3509583,54.2723627 C45.3509583,56.3063627 43.7129583,57.9623627 41.6609583,57.9623627 C41.0669583,57.9623627 40.5449583,57.8183627 40.0409583,57.5663627 C39.9509583,57.5303627 39.8069583,57.5663627 39.7709583,57.6743627 C39.6989583,57.8003627 39.7349583,57.9263627 39.8609583,57.9803627 C40.4009583,58.2503627 41.0129583,58.4123627 41.6609583,58.4123627 C43.9649583,58.4123627 45.8009583,56.5403627 45.8009583,54.2723627 L45.8009583,46.1903627 C45.8009583,46.1363627 45.7829583,46.0823627 45.7469583,46.0463627 C45.7469583,46.0463627 45.7469583,46.0283627 45.7289583,46.0283627 L45.6749583,45.9743627 C45.6569583,45.9743627 45.6389583,45.9563627 45.6209583,45.9563627 L45.5849583,45.9563627 C45.5309583,45.9563627 45.4949583,45.9743627 45.4589583,45.9923627 L45.4049583,46.0463627 C45.3869583,46.0463627 45.3869583,46.0643627 45.3869583,46.0643627 C45.3689583,46.1003627 45.3509583,46.1363627 45.3509583,46.1543627 L45.3509583,51.3383627 C45.2789583,52.9763627 43.9469583,54.2903627 42.3089583,54.2903627 C40.5989583,54.2903627 39.2129583,52.9043627 39.2129583,51.2123627 L39.2129583,46.1903627 C39.2129583,46.0643627 39.1049583,45.9563627 38.9969583,45.9563627 C38.8529583,45.9563627 38.7629583,46.0643627 38.7629583,46.1903627 L38.7629583,51.2123627 Z M53.7029583,54.5423627 C53.7029583,54.6683627 53.7929583,54.7763627 53.9369583,54.7763627 C54.0449583,54.7763627 54.1709583,54.6683627 54.1709583,54.5423627 L54.1709583,42.6263627 L58.3109583,42.6263627 C58.4549583,42.6263627 58.5449583,42.5363627 58.5449583,42.4103627 C58.5449583,42.2843627 58.4549583,42.1763627 58.3109583,42.1763627 L49.5449583,42.1763627 C49.4189583,42.1763627 49.3109583,42.2843627 49.3109583,42.4103627 C49.3109583,42.5363627 49.4189583,42.6263627 49.5449583,42.6263627 L53.7029583,42.6263627 L53.7029583,54.5423627 Z M61.0469583,54.5423627 C61.0469583,54.6683627 61.1369583,54.7763627 61.2809583,54.7763627 C61.3889583,54.7763627 61.4969583,54.6683627 61.4969583,54.5423627 L61.4969583,46.1723627 C61.4969583,46.0283627 61.3889583,45.9563627 61.2809583,45.9563627 C61.1369583,45.9563627 61.0469583,46.0283627 61.0469583,46.1723627 L61.0469583,54.5423627 Z M61.0469583,43.7783627 C61.0469583,43.8863627 61.1369583,43.9943627 61.2809583,43.9943627 C61.3889583,43.9943627 61.4969583,43.8863627 61.4969583,43.7783627 L61.4969583,43.3463627 C61.4969583,43.2023627 61.3889583,43.1123627 61.2809583,43.1123627 C61.1369583,43.1123627 61.0469583,43.2023627 61.0469583,43.3463627 L61.0469583,43.7783627 Z M79.3349583,54.5423627 C79.3349583,54.6683627 79.4609583,54.7763627 79.5689583,54.7763627 C79.6949583,54.7763627 79.7849583,54.6683627 79.7849583,54.5423627 L79.7849583,49.5203627 C79.7849583,47.5583627 78.2189583,45.9563627 76.2749583,45.9563627 C74.7449583,45.9563627 73.4489583,46.9103627 72.9449583,48.2603627 C72.4409583,46.9103627 71.1449583,45.9563627 69.6329583,45.9563627 C68.3009583,45.9563627 67.1669583,46.6943627 66.5549583,47.7923627 L66.5549583,46.1903627 C66.5549583,46.0463627 66.4469583,45.9563627 66.3389583,45.9563627 C66.1949583,45.9563627 66.1229583,46.0463627 66.1229583,46.1903627 L66.1229583,49.0883627 C66.1049583,49.2323627 66.0869583,49.3763627 66.0869583,49.5203627 L66.0869583,54.5423627 C66.0869583,54.6683627 66.1769583,54.7583627 66.2849583,54.7763627 L66.3389583,54.7763627 C66.3749583,54.7763627 66.4289583,54.7583627 66.4649583,54.7223627 C66.4829583,54.7223627 66.4829583,54.7043627 66.5009583,54.7043627 C66.5009583,54.6863627 66.5009583,54.6863627 66.5189583,54.6683627 C66.5369583,54.6323627 66.5549583,54.5963627 66.5549583,54.5423627 L66.5549583,49.3943627 C66.6089583,47.7383627 67.9769583,46.4063627 69.6329583,46.4063627 C71.3429583,46.4063627 72.7289583,47.7923627 72.7289583,49.5203627 L72.7289583,54.5423627 C72.7289583,54.6683627 72.8189583,54.7763627 72.9449583,54.7763627 C73.0169583,54.7763627 73.0709583,54.7583627 73.1249583,54.7043627 C73.1249583,54.6863627 73.1249583,54.6863627 73.1429583,54.6683627 C73.1429583,54.6503627 73.1609583,54.6323627 73.1609583,54.6143627 C73.1789583,54.5963627 73.1789583,54.5783627 73.1789583,54.5423627 L73.1789583,49.3943627 C73.2329583,47.7383627 74.6009583,46.4063627 76.2749583,46.4063627 C77.9489583,46.4063627 79.3349583,47.7923627 79.3349583,49.5203627 L79.3349583,54.5423627 Z M86.8589583,54.7763627 C84.5009583,54.7403627 82.6109583,52.7783627 82.5749583,50.3663627 C82.6109583,47.9183627 84.5009583,45.9563627 86.8589583,45.9563627 C89.1089583,45.9563627 90.9269583,47.7383627 91.0889583,50.0243627 L91.0889583,50.0963627 C91.0709583,50.2043627 90.9809583,50.3123627 90.8729583,50.3123627 L83.0249583,50.3123627 L83.0249583,50.3663627 C83.0249583,52.5263627 84.7349583,54.3083627 86.8589583,54.3263627 C88.1909583,54.3263627 89.3609583,53.6063627 90.0269583,52.5263627 C90.0989583,52.4183627 90.2249583,52.4183627 90.3509583,52.4723627 C90.4409583,52.5263627 90.4769583,52.6703627 90.4049583,52.7783627 C89.6489583,53.9483627 88.3349583,54.7763627 86.8589583,54.7763627 Z M86.8589583,46.4243627 C84.8969583,46.4243627 83.2769583,47.9183627 83.0429583,49.8803627 L90.6389583,49.8803627 C90.4049583,47.9183627 88.7849583,46.4243627 86.8589583,46.4243627 Z" id="delayTime" fill="#000000" transform="translate(45.620958, 50.294363) rotate(1.000000) translate(-45.620958, -50.294363) "></path>
            </g>
            <g id="Gain-node" transform="translate(630.000000, 0.000000)">
                <rect id="Rectangle-1" stroke="#000000" x="-0.5" y="-0.5" width="123" height="57" rx="8"></rect>
                <path d="M49.104,29.032 L49.104,34.72 C47.712,35.752 45.96,36.376 44.088,36.376 C39.528,36.376 35.832,32.776 35.832,28.312 C35.832,23.92 39.528,20.296 44.088,20.296 C46.032,20.296 47.832,20.968 49.224,22.072 C49.344,22.192 49.584,22.168 49.68,22.048 C49.8,21.88 49.776,21.688 49.608,21.568 C48.12,20.392 46.176,19.696 44.088,19.696 C39.192,19.696 35.208,23.56 35.208,28.312 C35.208,33.112 39.192,36.976 44.088,37 C46.176,37 48.12,36.28 49.608,35.128 C49.656,35.08 49.68,35.032 49.704,34.96 L49.704,34.912 C49.728,34.888 49.728,34.864 49.728,34.84 L49.728,28.744 C49.728,28.552 49.608,28.408 49.44,28.408 L43.944,28.408 C43.8,28.408 43.632,28.552 43.632,28.744 C43.632,28.888 43.8,29.032 43.944,29.032 L49.104,29.032 Z M64.992,25.24 C65.16,25.24 65.28,25.408 65.28,25.552 L65.28,36.688 C65.28,36.88 65.16,37 64.992,37 C64.8,37 64.68,36.88 64.68,36.688 L64.68,33.76 C63.768,35.68 61.896,37 59.736,37 C56.664,37 54.192,34.336 54.192,31.12 C54.192,27.904 56.664,25.24 59.736,25.24 C61.896,25.24 63.768,26.584 64.68,28.48 L64.68,25.552 C64.68,25.408 64.8,25.24 64.992,25.24 Z M59.736,36.4 C62.448,36.4 64.68,34.048 64.68,31.12 C64.68,28.216 62.448,25.864 59.736,25.864 C57.024,25.864 54.792,28.216 54.792,31.12 C54.792,34.048 57.024,36.4 59.736,36.4 Z M70.344,36.688 C70.344,36.856 70.464,37 70.656,37 C70.8,37 70.944,36.856 70.944,36.688 L70.944,25.528 C70.944,25.336 70.8,25.24 70.656,25.24 C70.464,25.24 70.344,25.336 70.344,25.528 L70.344,36.688 Z M70.344,22.336 C70.344,22.48 70.464,22.624 70.656,22.624 C70.8,22.624 70.944,22.48 70.944,22.336 L70.944,21.76 C70.944,21.568 70.8,21.448 70.656,21.448 C70.464,21.448 70.344,21.568 70.344,21.76 L70.344,22.336 Z M85.944,36.688 C85.944,36.856 86.04,37 86.232,37 C86.4,37 86.544,36.856 86.544,36.688 L86.544,29.992 C86.544,27.352 84.408,25.24 81.816,25.24 C80.04,25.24 78.48,26.224 77.664,27.688 L77.664,25.528 C77.664,25.336 77.544,25.24 77.376,25.24 C77.208,25.24 77.064,25.336 77.064,25.528 L77.064,36.736 C77.064,36.784 77.088,36.832 77.112,36.856 C77.112,36.88 77.112,36.88 77.136,36.904 C77.16,36.928 77.184,36.952 77.208,36.952 C77.232,36.976 77.256,36.976 77.28,37 L77.376,37 C77.472,37 77.544,36.952 77.592,36.88 C77.64,36.832 77.664,36.76 77.664,36.688 L77.664,29.992 C77.664,27.664 79.56,25.84 81.816,25.84 C84.072,25.84 85.944,27.664 85.944,29.992 L85.944,36.688 Z" id="Gain" fill="#000000"></path>
            </g>
            <g id="Line" transform="translate(362.000000, 25.000000)">
                <path d="M266.6875,0.8125 C266.6875,0.8125 124.445312,-3.82421875 0.10546875,61.5039063" id="Path-32" stroke="#000000"></path>
                <polygon id="Triangle-1" fill="#000000" transform="translate(141.500000, 12.500000) rotate(-12.000000) translate(-141.500000, -12.500000) " points="133 21 133 4 150 12.5"></polygon>
            </g>
            <g id="Gain-node" transform="translate(628.000000, 185.000000)">
                <rect id="Rectangle-1" stroke="#000000" x="-0.5" y="-0.5" width="123" height="57" rx="8"></rect>
                <path d="M49.104,29.032 L49.104,34.72 C47.712,35.752 45.96,36.376 44.088,36.376 C39.528,36.376 35.832,32.776 35.832,28.312 C35.832,23.92 39.528,20.296 44.088,20.296 C46.032,20.296 47.832,20.968 49.224,22.072 C49.344,22.192 49.584,22.168 49.68,22.048 C49.8,21.88 49.776,21.688 49.608,21.568 C48.12,20.392 46.176,19.696 44.088,19.696 C39.192,19.696 35.208,23.56 35.208,28.312 C35.208,33.112 39.192,36.976 44.088,37 C46.176,37 48.12,36.28 49.608,35.128 C49.656,35.08 49.68,35.032 49.704,34.96 L49.704,34.912 C49.728,34.888 49.728,34.864 49.728,34.84 L49.728,28.744 C49.728,28.552 49.608,28.408 49.44,28.408 L43.944,28.408 C43.8,28.408 43.632,28.552 43.632,28.744 C43.632,28.888 43.8,29.032 43.944,29.032 L49.104,29.032 Z M64.992,25.24 C65.16,25.24 65.28,25.408 65.28,25.552 L65.28,36.688 C65.28,36.88 65.16,37 64.992,37 C64.8,37 64.68,36.88 64.68,36.688 L64.68,33.76 C63.768,35.68 61.896,37 59.736,37 C56.664,37 54.192,34.336 54.192,31.12 C54.192,27.904 56.664,25.24 59.736,25.24 C61.896,25.24 63.768,26.584 64.68,28.48 L64.68,25.552 C64.68,25.408 64.8,25.24 64.992,25.24 Z M59.736,36.4 C62.448,36.4 64.68,34.048 64.68,31.12 C64.68,28.216 62.448,25.864 59.736,25.864 C57.024,25.864 54.792,28.216 54.792,31.12 C54.792,34.048 57.024,36.4 59.736,36.4 Z M70.344,36.688 C70.344,36.856 70.464,37 70.656,37 C70.8,37 70.944,36.856 70.944,36.688 L70.944,25.528 C70.944,25.336 70.8,25.24 70.656,25.24 C70.464,25.24 70.344,25.336 70.344,25.528 L70.344,36.688 Z M70.344,22.336 C70.344,22.48 70.464,22.624 70.656,22.624 C70.8,22.624 70.944,22.48 70.944,22.336 L70.944,21.76 C70.944,21.568 70.8,21.448 70.656,21.448 C70.464,21.448 70.344,21.568 70.344,21.76 L70.344,22.336 Z M85.944,36.688 C85.944,36.856 86.04,37 86.232,37 C86.4,37 86.544,36.856 86.544,36.688 L86.544,29.992 C86.544,27.352 84.408,25.24 81.816,25.24 C80.04,25.24 78.48,26.224 77.664,27.688 L77.664,25.528 C77.664,25.336 77.544,25.24 77.376,25.24 C77.208,25.24 77.064,25.336 77.064,25.528 L77.064,36.736 C77.064,36.784 77.088,36.832 77.112,36.856 C77.112,36.88 77.112,36.88 77.136,36.904 C77.16,36.928 77.184,36.952 77.208,36.952 C77.232,36.976 77.256,36.976 77.28,37 L77.376,37 C77.472,37 77.544,36.952 77.592,36.88 C77.64,36.832 77.664,36.76 77.664,36.688 L77.664,29.992 C77.664,27.664 79.56,25.84 81.816,25.84 C84.072,25.84 85.944,27.664 85.944,29.992 L85.944,36.688 Z" id="Gain" fill="#000000"></path>
            </g>
            <g id="Line" transform="translate(359.000000, 135.000000)">
                <path d="M267.6875,75.8125 C267.6875,75.8125 78.5898438,95.9492165 0.91015625,0.238282159" id="Path-32" stroke="#000000"></path>
                <polygon id="Triangle-1" fill="#000000" transform="translate(139.710625, 68.710625) rotate(179.000000) translate(-139.710625, -68.710625) " points="131.210625 77.2106248 131.210625 60.2106248 148.210625 68.7106248"></polygon>
            </g>
            <g id="Line" transform="translate(562.000000, 58.000000)">
                <path d="M124.511719,0.738282159 C124.511719,0.738282159 99.0625,40.2382822 0.91015625,40.2382822" id="Path-32" stroke="#000000"></path>
                <polygon id="Triangle-1" fill="#000000" transform="translate(62.710625, 33.710625) rotate(-20.000000) translate(-62.710625, -33.710625) " points="54.2106248 42.2106248 54.2106248 25.2106248 71.2106248 33.7106248"></polygon>
            </g>
            <g id="Line" transform="translate(564.000000, 118.000000)">
                <path d="M118.347656,64.8671884 C118.347656,64.8671884 99.0625,3.23828216 0.91015625,3.23828216" id="Path-32" stroke="#000000"></path>
                <polygon id="Triangle-1" fill="#000000" transform="translate(59.894558, 11.894558) rotate(27.000000) translate(-59.894558, -11.894558) " points="51.3945585 20.3945585 51.3945585 3.39455849 68.3945585 11.8945585"></polygon>
            </g>
            <g id="Line" transform="translate(360.000000, 101.000000)">
                <path d="M0.5,8.5 L77.5064926,8.5" stroke="#000000" stroke-linecap="square"></path>
                <polygon id="Triangle-1" fill="#000000" points="31 17 31 0 48 8.5"></polygon>
            </g>
            <g id="Delay-node" transform="translate(439.000000, 83.000000)">
                <rect id="Rectangle-1" stroke="#000000" x="-0.5" y="-0.5" width="123" height="57" rx="8"></rect>
                <path d="M30.216,36.688 L30.216,20.512 C30.216,20.344 30.336,20.2 30.528,20.2 L33.744,20.2 C38.4,20.2 42.144,23.968 42.144,28.576 C42.144,33.232 38.4,37 33.744,37 L30.528,37 C30.336,37 30.216,36.856 30.216,36.688 Z M30.816,36.4 L33.744,36.4 C38.064,36.352 41.52,32.896 41.544,28.576 C41.52,24.304 38.064,20.8 33.744,20.8 L30.816,20.8 L30.816,36.4 Z M52.08,37 C48.936,36.952 46.416,34.336 46.368,31.12 C46.416,27.856 48.936,25.24 52.08,25.24 C55.08,25.24 57.504,27.616 57.72,30.664 L57.72,30.76 C57.696,30.904 57.576,31.048 57.432,31.048 L46.968,31.048 L46.968,31.12 C46.968,34 49.248,36.376 52.08,36.4 C53.856,36.4 55.416,35.44 56.304,34 C56.4,33.856 56.568,33.856 56.736,33.928 C56.856,34 56.904,34.192 56.808,34.336 C55.8,35.896 54.048,37 52.08,37 Z M52.08,25.864 C49.464,25.864 47.304,27.856 46.992,30.472 L57.12,30.472 C56.808,27.856 54.648,25.864 52.08,25.864 Z M61.992,36.688 C61.992,36.856 62.112,37 62.304,37 C62.472,37 62.592,36.856 62.592,36.688 L62.592,20.512 C62.592,20.344 62.472,20.2 62.304,20.2 C62.112,20.2 61.992,20.344 61.992,20.512 L61.992,36.688 Z M77.328,25.24 C77.496,25.24 77.616,25.408 77.616,25.552 L77.616,36.688 C77.616,36.88 77.496,37 77.328,37 C77.136,37 77.016,36.88 77.016,36.688 L77.016,33.76 C76.104,35.68 74.232,37 72.072,37 C69,37 66.528,34.336 66.528,31.12 C66.528,27.904 69,25.24 72.072,25.24 C74.232,25.24 76.104,26.584 77.016,28.48 L77.016,25.552 C77.016,25.408 77.136,25.24 77.328,25.24 Z M72.072,36.4 C74.784,36.4 77.016,34.048 77.016,31.12 C77.016,28.216 74.784,25.864 72.072,25.864 C69.36,25.864 67.128,28.216 67.128,31.12 C67.128,34.048 69.36,36.4 72.072,36.4 Z M82.416,32.248 C82.416,34.84 84.528,36.952 87.144,36.952 C88.896,36.952 90.432,35.992 91.2,34.552 L91.2,36.328 C91.2,39.04 89.016,41.248 86.28,41.248 C85.488,41.248 84.792,41.056 84.12,40.72 C84,40.672 83.808,40.72 83.76,40.864 C83.664,41.032 83.712,41.2 83.88,41.272 C84.6,41.632 85.416,41.848 86.28,41.848 C89.352,41.848 91.8,39.352 91.8,36.328 L91.8,25.552 C91.8,25.48 91.776,25.408 91.728,25.36 C91.728,25.36 91.728,25.336 91.704,25.336 L91.632,25.264 C91.608,25.264 91.584,25.24 91.56,25.24 L91.512,25.24 C91.44,25.24 91.392,25.264 91.344,25.288 L91.272,25.36 C91.248,25.36 91.248,25.384 91.248,25.384 C91.224,25.432 91.2,25.48 91.2,25.504 L91.2,32.416 C91.104,34.6 89.328,36.352 87.144,36.352 C84.864,36.352 83.016,34.504 83.016,32.248 L83.016,25.552 C83.016,25.384 82.872,25.24 82.728,25.24 C82.536,25.24 82.416,25.384 82.416,25.552 L82.416,32.248 Z" id="Delay" fill="#000000"></path>
            </g>
            <g id="Line" transform="translate(752.000000, 19.000000)">
                <path d="M0.5,8.5 L77.5064926,8.5" stroke="#000000" stroke-linecap="square"></path>
                <polygon id="Triangle-1" fill="#000000" points="31 17 31 0 48 8.5"></polygon>
            </g>
        </g>
    </g>
</svg>