<?xml version="1.0" encoding="UTF-8"?>
<svg width="70px" height="69px" viewBox="0 0 70 69" version="1.1" xmlns="http://www.w3.org/2000/svg" xmlns:xlink="http://www.w3.org/1999/xlink">
    <!-- Generator: Sketch 43.2 (39069) - http://www.bohemiancoding.com/sketch -->
    <title>Combined Shape</title>
    <desc>Created with Sketch.</desc>
    <defs></defs>
    <g id="Page-1" stroke="none" stroke-width="1" fill="none" fill-rule="evenodd">
        <path d="M48.273,0.0001 L48.816,0.0001 C48.809,0.0511 48.795,0.0951 48.789,0.1451 C48.816,0.1051 48.837,0.0661 48.866,0.0271 L49.285,0.4571 C48.575,1.4241 48.27,2.3671 48.359,3.2811 C48.456,4.1991 48.795,4.9491 49.383,5.5371 C49.829,5.9821 50.427,6.4571 51.196,6.9691 C52.105,7.5781 52.787,8.1171 53.253,8.5841 C54.107,9.4371 54.546,10.4651 54.586,11.6771 C54.624,12.8851 54.366,14.0661 53.821,15.2291 C55.111,14.6431 56.357,14.4021 57.56,14.5081 C58.764,14.6131 59.755,15.0601 60.534,15.8421 C60.972,16.2771 61.494,16.9551 62.111,17.8791 C62.623,18.6501 63.093,19.2501 63.528,19.6821 C64.892,21.0491 66.612,21.1031 68.682,19.8511 L69.064,20.2331 C69.045,20.2441 69.026,20.2561 69.008,20.2701 L69.008,20.7911 C67.82,20.9791 66.936,21.4201 66.353,22.1341 C65.768,22.8501 65.481,23.6191 65.481,24.4511 C65.481,25.0771 65.57,25.8461 65.746,26.7441 C65.959,27.8161 66.064,28.6851 66.064,29.3421 C66.064,30.5471 65.648,31.5921 64.816,32.4711 C63.986,33.3491 62.969,34.0101 61.763,34.4451 C63.093,34.9451 64.146,35.6561 64.918,36.5801 C65.69,37.5021 66.082,38.5231 66.082,39.6231 C66.082,40.2421 65.966,41.0961 65.746,42.1741 C65.57,43.0901 65.481,43.8461 65.481,44.4551 C65.481,46.3891 66.654,47.6421 69.008,48.2211 L69.008,48.7621 C68.963,48.7541 68.92,48.7401 68.875,48.7341 L68.467,49.1441 C67.498,48.4381 66.556,48.1251 65.633,48.2161 C64.722,48.3101 63.968,48.6521 63.383,49.2361 C62.942,49.6831 62.461,50.2891 61.951,51.0551 C61.347,51.9591 60.804,52.6461 60.34,53.1111 C59.486,53.9611 58.457,54.4061 57.246,54.4451 C56.04,54.4771 54.852,54.2251 53.691,53.6791 C54.281,54.9731 54.517,56.2151 54.409,57.4181 C54.305,58.6191 53.859,59.6111 53.079,60.3921 C52.642,60.8321 51.965,61.3521 51.044,61.9631 C50.269,62.4801 49.669,62.9511 49.243,63.3851 C47.871,64.7481 47.816,66.4681 49.067,68.5371 L48.688,68.9221 C48.674,68.9041 48.664,68.8801 48.652,68.8631 L48.13,68.8631 C47.946,67.6781 47.497,66.7951 46.783,66.2091 C46.069,65.6311 45.298,65.3381 44.47,65.3381 C43.838,65.3381 43.074,65.4281 42.176,65.6031 C41.1,65.8191 40.234,65.9191 39.579,65.9191 C38.375,65.9191 37.334,65.5051 36.451,64.6721 C35.572,63.8461 34.908,62.8301 34.473,61.6251 C33.978,62.9511 33.267,64.0011 32.337,64.7751 C31.409,65.5501 30.4,65.9341 29.297,65.9341 C28.678,65.9341 27.827,65.8281 26.743,65.6071 C25.833,65.4241 25.072,65.3381 24.464,65.3381 C22.531,65.3381 21.274,66.5131 20.698,68.8631 L20.318,68.8631 C20.276,68.9221 20.247,68.9781 20.201,69.0371 L19.772,68.6111 C20.487,67.6451 20.792,66.7051 20.702,65.7851 C20.608,64.8711 20.265,64.1151 19.678,63.5311 C19.236,63.0861 18.63,62.6091 17.869,62.1001 C16.963,61.4911 16.278,60.9531 15.806,60.4861 C14.954,59.6371 14.513,58.6051 14.477,57.3961 C14.442,56.1851 14.696,54.9981 15.241,53.8401 C13.95,54.4261 12.706,54.6691 11.501,54.5591 C10.302,54.4551 9.308,54.0061 8.529,53.2271 C8.091,52.7911 7.567,52.1091 6.955,51.1911 C6.439,50.4181 5.966,49.8171 5.535,49.3881 C4.169,48.0191 2.449,47.9641 0.377,49.2191 L0,48.8361 C0.046,48.8011 0.094,48.7771 0.14,48.7401 C0.111,48.7461 0.085,48.7571 0.059,48.7621 L0.059,48.1601 C1.247,47.9811 2.125,47.5321 2.713,46.8141 C3.291,46.1001 3.584,45.3271 3.584,44.4981 C3.584,43.8751 3.492,43.1051 3.316,42.2051 C3.108,41.1311 2.999,40.2691 3.002,39.6071 C2.999,38.4061 3.414,37.3611 4.247,36.4791 C5.074,35.6011 6.093,34.9451 7.296,34.5061 C5.969,34.0101 4.921,33.3011 4.146,32.3731 C3.369,31.4481 2.983,30.4321 2.985,29.3301 C2.985,28.7071 3.093,27.8571 3.316,26.7771 C3.492,25.8651 3.584,25.1051 3.584,24.5001 C3.584,22.5631 2.408,21.3061 0.059,20.7301 L0.059,20.2701 C0.038,20.2581 0.019,20.2461 0,20.2331 L0.423,19.8031 C1.392,20.5151 2.333,20.8241 3.248,20.7321 C4.168,20.6371 4.921,20.3031 5.507,19.7111 C5.946,19.2681 6.424,18.6641 6.936,17.8981 C7.542,16.9921 8.079,16.3071 8.55,15.8401 C9.405,14.9881 10.435,14.5451 11.645,14.5081 C12.852,14.4731 14.04,14.7281 15.197,15.2741 C14.611,13.9861 14.368,12.7341 14.477,11.5331 C14.587,10.3321 15.03,9.3381 15.808,8.5561 C16.249,8.1211 16.923,7.5991 17.849,6.9881 C18.619,6.4731 19.221,5.9961 19.651,5.5701 C21.016,4.2011 21.073,2.4781 19.819,0.4121 L20.201,0.0271 C20.228,0.0661 20.247,0.1051 20.276,0.1451 C20.265,0.0931 20.252,0.0511 20.247,0.0001 L20.845,0.0031 C21.029,1.1851 21.477,2.0721 22.19,2.6581 C22.904,3.2341 23.678,3.5301 24.509,3.5301 C25.133,3.5301 25.898,3.4381 26.801,3.2611 C27.873,3.0511 28.741,2.9451 29.399,2.9451 C30.603,2.9451 31.646,3.3581 32.524,4.1891 C33.408,5.0161 34.067,6.0371 34.5,7.2421 C34.997,5.9151 35.714,4.8671 36.635,4.0881 C37.561,3.3141 38.576,2.9291 39.681,2.9291 C40.298,2.9291 41.151,3.0371 42.231,3.2611 C43.143,3.4401 43.9,3.5301 44.51,3.5301 C46.442,3.5301 47.697,2.3571 48.273,0.0001 Z M34.5322,20.0918 C42.4972,20.0918 48.9532,26.5508 48.9582,34.5158 C48.9562,42.4808 42.4972,48.9378 34.5322,48.9458 C26.5612,48.9358 20.1062,42.4808 20.1062,34.5158 C20.1062,26.5508 26.5612,20.0918 34.5322,20.0918 Z M41.2342,54.9528 L54.8972,41.4298 C55.4832,40.8498 55.7922,39.7218 55.5822,38.9238 L50.7112,20.3338 C50.5022,19.5358 49.6792,18.7048 48.8842,18.4878 L30.3342,13.4248 C29.5382,13.2068 28.4072,13.5048 27.8212,14.0848 L14.1672,27.6048 C13.5812,28.1848 13.2722,29.3128 13.4812,30.1118 L18.3502,48.6988 C18.5592,49.4978 19.3822,50.3278 20.1772,50.5458 L38.7212,55.6128 C39.5162,55.8298 40.6482,55.5328 41.2342,54.9528 Z" id="Combined-Shape" fill="#000000"></path>
    </g>
</svg>