<?xml version="1.0" encoding="UTF-8"?>
<svg width="296px" height="426px" viewBox="0 0 296 426" version="1.1" xmlns="http://www.w3.org/2000/svg" xmlns:xlink="http://www.w3.org/1999/xlink">
    <!-- Generator: Sketch 43.2 (39069) - http://www.bohemiancoding.com/sketch -->
    <title>pedal-fuzz</title>
    <desc>Created with Sketch.</desc>
    <defs>
        <rect id="path-1" x="0" y="0" width="296" height="426" rx="4"></rect>
        <circle id="path-2" cx="148.5" cy="344.5" r="21.5"></circle>
    </defs>
    <g id="Page-1" stroke="none" stroke-width="1" fill="none" fill-rule="evenodd">
        <g id="BMP">
            <g id="Rectangle-6">
                <use fill="#6E7D2C" fill-rule="evenodd" xlink:href="#path-1"></use>
                <rect stroke="#596623" stroke-width="2" x="1" y="1" width="294" height="424" rx="4"></rect>
            </g>
            <g id="Oval-7">
                <use fill="#5E625A" fill-rule="evenodd" xlink:href="#path-2"></use>
                <circle stroke="#9D9D9C" stroke-width="7" cx="148.5" cy="344.5" r="18"></circle>
            </g>
            <path d="M41.8164062,232 L33.9414062,232 C32.8046818,232 31.9931665,231.74512 31.5068359,231.235352 C31.0205054,230.725583 30.7773438,229.914068 30.7773438,228.800781 L30.7773438,209.429688 C30.7773438,208.292963 31.0263647,207.475588 31.5244141,206.977539 C32.0224634,206.47949 32.8281194,206.230469 33.9414062,206.230469 L42.2910156,206.230469 C43.5214905,206.230469 44.5878861,206.30664 45.4902344,206.458984 C46.3925826,206.611329 47.2011683,206.904295 47.9160156,207.337891 C48.5253937,207.701174 49.0644508,208.16113 49.5332031,208.717773 C50.0019555,209.274417 50.3593738,209.889645 50.6054688,210.563477 C50.8515637,211.237308 50.9746094,211.949215 50.9746094,212.699219 C50.9746094,215.277357 49.6855598,217.164057 47.1074219,218.359375 C50.4941576,219.437505 52.1875,221.535141 52.1875,224.652344 C52.1875,226.093757 51.8183631,227.391596 51.0800781,228.545898 C50.3417932,229.700201 49.3457094,230.552732 48.0917969,231.103516 C47.3066367,231.431642 46.404302,231.663085 45.3847656,231.797852 C44.3652293,231.932618 43.175788,232 41.8164062,232 Z M41.4296875,220.556641 L35.9980469,220.556641 L35.9980469,228.080078 L41.6054688,228.080078 C45.1328301,228.080078 46.8964844,226.808606 46.8964844,224.265625 C46.8964844,222.964837 46.4394577,222.021487 45.5253906,221.435547 C44.6113236,220.849606 43.2461028,220.556641 41.4296875,220.556641 Z M35.9980469,210.150391 L35.9980469,216.8125 L40.7792969,216.8125 C42.0800846,216.8125 43.0849574,216.689454 43.7939453,216.443359 C44.5029332,216.197264 45.04492,215.728519 45.4199219,215.037109 C45.7128921,214.544919 45.859375,213.994144 45.859375,213.384766 C45.859375,212.083978 45.396489,211.219729 44.4707031,210.791992 C43.5449172,210.364256 42.132822,210.150391 40.234375,210.150391 L35.9980469,210.150391 Z M56.9160156,229.257812 L56.9160156,208.955078 C56.9160156,207.900385 57.1562476,207.109378 57.6367188,206.582031 C58.1171899,206.054685 58.7382774,205.791016 59.5,205.791016 C60.2851602,205.791016 60.920896,206.051755 61.4072266,206.573242 C61.8935571,207.094729 62.1367188,207.888667 62.1367188,208.955078 L62.1367188,229.257812 C62.1367188,230.324224 61.8935571,231.121091 61.4072266,231.648438 C60.920896,232.175784 60.2851602,232.439453 59.5,232.439453 C58.7499962,232.439453 58.1318384,232.172854 57.6455078,231.639648 C57.1591773,231.106443 56.9160156,230.312505 56.9160156,229.257812 Z M91.5097656,221.523438 L91.5097656,226.462891 C91.5097656,227.119144 91.4453131,227.643553 91.3164062,228.036133 C91.1874994,228.428713 90.950197,228.783202 90.6044922,229.099609 C90.2587873,229.416017 89.8164089,229.720702 89.2773438,230.013672 C87.7187422,230.857426 86.2187572,231.472654 84.7773438,231.859375 C83.3359303,232.246096 81.7656335,232.439453 80.0664062,232.439453 C78.0859276,232.439453 76.2812581,232.134769 74.6523438,231.525391 C73.0234294,230.916013 71.6347714,230.031256 70.4863281,228.871094 C69.3378849,227.710932 68.4560578,226.304696 67.8408203,224.652344 C67.2255829,222.999992 66.9179688,221.154307 66.9179688,219.115234 C66.9179688,217.111318 67.2167939,215.277352 67.8144531,213.613281 C68.4121124,211.94921 69.2910098,210.537115 70.4511719,209.376953 C71.6113339,208.216791 73.0234292,207.329105 74.6875,206.713867 C76.3515708,206.09863 78.2382707,205.791016 80.3476562,205.791016 C82.0820399,205.791016 83.6171808,206.022459 84.953125,206.485352 C86.2890692,206.948245 87.3730427,207.531246 88.2050781,208.234375 C89.0371135,208.937504 89.6640604,209.681637 90.0859375,210.466797 C90.5078146,211.251957 90.71875,211.949216 90.71875,212.558594 C90.71875,213.214847 90.4755884,213.774412 89.9892578,214.237305 C89.5029273,214.700198 88.9199253,214.931641 88.2402344,214.931641 C87.8652325,214.931641 87.5048845,214.843751 87.1591797,214.667969 C86.8134748,214.492187 86.5234387,214.246095 86.2890625,213.929688 C85.644528,212.92187 85.0996116,212.160159 84.6542969,211.644531 C84.2089821,211.128904 83.6084022,210.695314 82.8525391,210.34375 C82.0966759,209.992186 81.1328184,209.816406 79.9609375,209.816406 C78.7539002,209.816406 77.675786,210.024412 76.7265625,210.44043 C75.777339,210.856447 74.9658237,211.459957 74.2919922,212.250977 C73.6181607,213.041996 73.1025408,214.011713 72.7451172,215.160156 C72.3876935,216.308599 72.2089844,217.580071 72.2089844,218.974609 C72.2089844,221.998062 72.9033134,224.324211 74.2919922,225.953125 C75.680671,227.582039 77.6171751,228.396484 80.1015625,228.396484 C81.3085998,228.396484 82.4423775,228.238283 83.5029297,227.921875 C84.5634819,227.605467 85.6386664,227.1543 86.7285156,226.568359 L86.7285156,222.384766 L82.6855469,222.384766 C81.7128858,222.384766 80.9775416,222.238283 80.4794922,221.945312 C79.9814428,221.652342 79.7324219,221.1543 79.7324219,220.451172 C79.7324219,219.87695 79.9404276,219.402346 80.3564453,219.027344 C80.772463,218.652342 81.3378871,218.464844 82.0527344,218.464844 L87.9765625,218.464844 C88.7031286,218.464844 89.3183569,218.529296 89.8222656,218.658203 C90.3261744,218.78711 90.7333969,219.074217 91.0439453,219.519531 C91.3544937,219.964846 91.5097656,220.632808 91.5097656,221.523438 Z M114.185547,228.115234 L110.054688,211.697266 L110.054688,229.486328 C110.054688,230.470708 109.834963,231.208982 109.395508,231.701172 C108.956052,232.193362 108.373051,232.439453 107.646484,232.439453 C106.943356,232.439453 106.369143,232.196291 105.923828,231.709961 C105.478513,231.22363 105.255859,230.482427 105.255859,229.486328 L105.255859,209.095703 C105.255859,207.970697 105.548825,207.211916 106.134766,206.819336 C106.720706,206.426756 107.511714,206.230469 108.507812,206.230469 L110.125,206.230469 C111.097661,206.230469 111.803709,206.318358 112.243164,206.494141 C112.682619,206.669923 113.007811,206.986326 113.21875,207.443359 C113.429689,207.900393 113.669921,208.644526 113.939453,209.675781 L117.683594,223.791016 L121.427734,209.675781 C121.697267,208.644526 121.937499,207.900393 122.148438,207.443359 C122.359376,206.986326 122.684568,206.669923 123.124023,206.494141 C123.563479,206.318358 124.269526,206.230469 125.242188,206.230469 L126.859375,206.230469 C127.855474,206.230469 128.646481,206.426756 129.232422,206.819336 C129.818362,207.211916 130.111328,207.970697 130.111328,209.095703 L130.111328,229.486328 C130.111328,230.470708 129.891604,231.208982 129.452148,231.701172 C129.012693,232.193362 128.423832,232.439453 127.685547,232.439453 C126.994137,232.439453 126.425783,232.193362 125.980469,231.701172 C125.535154,231.208982 125.3125,230.470708 125.3125,229.486328 L125.3125,211.697266 L121.181641,228.115234 C120.912108,229.181646 120.692384,229.963865 120.522461,230.461914 C120.352538,230.959963 120.039065,231.41406 119.582031,231.824219 C119.124998,232.234377 118.492192,232.439453 117.683594,232.439453 C117.074216,232.439453 116.558596,232.307619 116.136719,232.043945 C115.714842,231.780272 115.38672,231.443361 115.152344,231.033203 C114.917968,230.623045 114.733399,230.168948 114.598633,229.670898 C114.463867,229.172849 114.326173,228.6543 114.185547,228.115234 Z M135.507812,221.347656 L135.507812,208.955078 C135.507812,207.900385 135.745115,207.109378 136.219727,206.582031 C136.694338,206.054685 137.318356,205.791016 138.091797,205.791016 C138.900395,205.791016 139.54199,206.054685 140.016602,206.582031 C140.491213,207.109378 140.728516,207.900385 140.728516,208.955078 L140.728516,221.628906 C140.728516,223.07032 140.889647,224.274409 141.211914,225.241211 C141.534181,226.208013 142.105465,226.958005 142.925781,227.491211 C143.746098,228.024417 144.894524,228.291016 146.371094,228.291016 C148.410166,228.291016 149.851558,227.749029 150.695312,226.665039 C151.539067,225.581049 151.960938,223.937511 151.960938,221.734375 L151.960938,208.955078 C151.960938,207.888667 152.19531,207.094729 152.664062,206.573242 C153.132815,206.051755 153.759762,205.791016 154.544922,205.791016 C155.330082,205.791016 155.965818,206.051755 156.452148,206.573242 C156.938479,207.094729 157.181641,207.888667 157.181641,208.955078 L157.181641,221.347656 C157.181641,223.363291 156.985354,225.044915 156.592773,226.392578 C156.200193,227.740241 155.45899,228.923823 154.369141,229.943359 C153.431636,230.810551 152.341803,231.443357 151.099609,231.841797 C149.857416,232.240236 148.404305,232.439453 146.740234,232.439453 C144.759756,232.439453 143.054695,232.225588 141.625,231.797852 C140.195305,231.370115 139.029301,230.708012 138.126953,229.811523 C137.224605,228.915035 136.562502,227.766609 136.140625,226.366211 C135.718748,224.965813 135.507812,223.292978 135.507812,221.347656 Z M178.222656,210.255859 L167.939453,210.255859 L167.939453,216.847656 L176.535156,216.847656 C177.332035,216.847656 177.926756,217.026365 178.319336,217.383789 C178.711916,217.741213 178.908203,218.218747 178.908203,218.816406 C178.908203,219.414065 178.708986,219.88867 178.310547,220.240234 C177.912107,220.591799 177.320316,220.767578 176.535156,220.767578 L167.939453,220.767578 L167.939453,229.257812 C167.939453,230.335943 167.696291,231.13574 167.209961,231.657227 C166.72363,232.178714 166.099613,232.439453 165.337891,232.439453 C164.564449,232.439453 163.934573,232.175784 163.448242,231.648438 C162.961912,231.121091 162.71875,230.324224 162.71875,229.257812 L162.71875,209.429688 C162.71875,208.679684 162.830077,208.067385 163.052734,207.592773 C163.275392,207.118162 163.624021,206.772462 164.098633,206.555664 C164.573245,206.338866 165.179684,206.230469 165.917969,206.230469 L178.222656,206.230469 C179.054692,206.230469 179.67285,206.415037 180.077148,206.78418 C180.481447,207.153322 180.683594,207.636716 180.683594,208.234375 C180.683594,208.843753 180.481447,209.333006 180.077148,209.702148 C179.67285,210.071291 179.054692,210.255859 178.222656,210.255859 Z M199.966797,210.255859 L189.683594,210.255859 L189.683594,216.847656 L198.279297,216.847656 C199.076176,216.847656 199.670896,217.026365 200.063477,217.383789 C200.456057,217.741213 200.652344,218.218747 200.652344,218.816406 C200.652344,219.414065 200.453127,219.88867 200.054688,220.240234 C199.656248,220.591799 199.064457,220.767578 198.279297,220.767578 L189.683594,220.767578 L189.683594,229.257812 C189.683594,230.335943 189.440432,231.13574 188.954102,231.657227 C188.467771,232.178714 187.843754,232.439453 187.082031,232.439453 C186.30859,232.439453 185.678713,232.175784 185.192383,231.648438 C184.706052,231.121091 184.462891,230.324224 184.462891,229.257812 L184.462891,209.429688 C184.462891,208.679684 184.574218,208.067385 184.796875,207.592773 C185.019532,207.118162 185.368162,206.772462 185.842773,206.555664 C186.317385,206.338866 186.923824,206.230469 187.662109,206.230469 L199.966797,206.230469 C200.798832,206.230469 201.41699,206.415037 201.821289,206.78418 C202.225588,207.153322 202.427734,207.636716 202.427734,208.234375 C202.427734,208.843753 202.225588,209.333006 201.821289,209.702148 C201.41699,210.071291 200.798832,210.255859 199.966797,210.255859 Z M221.289062,224.757812 L215.734375,224.757812 C214.890621,224.757812 214.249026,224.561525 213.80957,224.168945 C213.370115,223.776365 213.150391,223.269534 213.150391,222.648438 C213.150391,222.015622 213.364256,221.502932 213.791992,221.110352 C214.219729,220.717771 214.867183,220.521484 215.734375,220.521484 L221.289062,220.521484 C222.156254,220.521484 222.803709,220.717771 223.231445,221.110352 C223.659182,221.502932 223.873047,222.015622 223.873047,222.648438 C223.873047,223.269534 223.662111,223.776365 223.240234,224.168945 C222.818357,224.561525 222.167973,224.757812 221.289062,224.757812 Z M254.925781,206.34375 L247.707031,206.34375 C247.352863,210.531271 247.009116,213.963528 246.675781,216.640625 C246.342446,219.317722 246.019533,221.619782 245.707031,223.546875 C245.39453,225.473968 245.071616,227.229159 244.738281,228.8125 C244.467447,230.041673 244.071617,231.005205 243.550781,231.703125 C243.029945,232.401045 242.25912,232.885415 241.238281,233.15625 C240.404944,233.364584 239.576827,233.197919 238.753906,232.65625 C237.930985,232.114581 237.436199,231.468754 237.269531,230.71875 C237.144531,230.156247 237.113281,229.682294 237.175781,229.296875 C237.238282,228.911456 237.352864,228.552085 237.519531,228.21875 C237.686199,227.885415 237.873697,227.583335 238.082031,227.3125 C238.290366,227.041665 238.509113,226.770835 238.738281,226.5 C238.800782,226.416666 239.160153,225.989587 239.816406,225.21875 C240.47266,224.447913 240.967446,223.744795 241.300781,223.109375 C241.634116,222.473955 241.842447,221.770837 241.925781,221 L243.800781,206.34375 L240.769531,206.34375 C239.91536,206.34375 239.102868,206.546873 238.332031,206.953125 C237.561194,207.359377 236.96745,207.833331 236.550781,208.375 L235.207031,210.375 L234.113281,210.375 C234.404949,209.562496 234.769529,208.588547 235.207031,207.453125 C235.644533,206.317703 236.248694,205.218755 237.019531,204.15625 C237.623701,203.260412 238.436193,202.484378 239.457031,201.828125 C240.47787,201.171872 241.665358,200.84375 243.019531,200.84375 L266.894531,200.84375 L266.894531,206.34375 L258.832031,206.34375 C258.311195,211.322942 258.050781,216.333308 258.050781,221.375 C258.050781,222.291671 258.20703,223.187496 258.519531,224.0625 C258.832033,224.937504 259.217446,225.604164 259.675781,226.0625 C260.259118,226.604169 260.972652,226.953124 261.816406,227.109375 C262.66016,227.265626 263.519527,227.000003 264.394531,226.3125 C264.8737,225.937498 265.222655,225.510419 265.441406,225.03125 C265.660157,224.552081 265.800781,224.093752 265.863281,223.65625 L266.050781,222.34375 L267.394531,222.34375 C267.373698,224.072925 267.113284,225.630201 266.613281,227.015625 C266.113279,228.401049 265.519535,229.515621 264.832031,230.359375 C264.144528,231.203129 263.467451,231.812498 262.800781,232.1875 C262.050777,232.645836 261.175786,232.921875 260.175781,233.015625 C259.175776,233.109375 258.259119,232.875003 257.425781,232.3125 C256.050774,231.312495 255.009118,229.739594 254.300781,227.59375 C253.904946,226.343744 253.68099,224.692719 253.628906,222.640625 C253.576823,220.588531 253.64453,218.583343 253.832031,216.625 L254.925781,206.34375 Z" id="BIG-MUFF---π" fill="#242323"></path>
            <g id="Knobs" transform="translate(44.000000, 59.000000)">
                <circle id="Oval-10" fill="#C74F4F" cx="103.5" cy="92.5" r="6.5"></circle>
                <circle id="Oval-8" fill="#242323" cx="103" cy="28" r="28"></circle>
                <circle id="Oval-8" fill="#242323" cx="28" cy="84" r="28"></circle>
                <circle id="Oval-8" fill="#242323" cx="179" cy="84" r="28"></circle>
                <circle id="Oval-9" fill="#FFFFFF" cx="46.5" cy="93.5" r="2.5"></circle>
                <circle id="Oval-9" fill="#FFFFFF" cx="118.5" cy="13.5" r="2.5"></circle>
                <circle id="Oval-9" fill="#FFFFFF" cx="199.5" cy="84.5" r="2.5"></circle>
            </g>
            <path d="M38.3134766,99.609375 L41.2314453,108.249023 L44.1582031,99.5478516 C44.3105476,99.090818 44.4248043,98.7729501 44.5009766,98.5942383 C44.5771488,98.4155265 44.7031241,98.2543952 44.8789062,98.1108398 C45.0546884,97.9672844 45.2949204,97.8955078 45.5996094,97.8955078 C45.8222667,97.8955078 46.0288076,97.9511713 46.2192383,98.0625 C46.4096689,98.1738287 46.5590815,98.3217764 46.6674805,98.5063477 C46.7758794,98.6909189 46.8300781,98.8769522 46.8300781,99.0644531 C46.8300781,99.19336 46.8125002,99.3325188 46.7773438,99.4819336 C46.7421873,99.6313484 46.6982425,99.7778313 46.6455078,99.9213867 C46.5927732,100.064942 46.5400393,100.21289 46.4873047,100.365234 L43.3671875,108.785156 C43.2558588,109.107423 43.1445318,109.413573 43.0332031,109.703613 C42.9218744,109.993654 42.7929695,110.248534 42.6464844,110.468262 C42.4999993,110.687989 42.305177,110.868163 42.0620117,111.008789 C41.8188464,111.149415 41.5214861,111.219727 41.1699219,111.219727 C40.8183576,111.219727 40.5209973,111.15088 40.277832,111.013184 C40.0346668,110.875488 39.8383797,110.693849 39.6889648,110.468262 C39.53955,110.242675 39.4091802,109.98633 39.2978516,109.699219 C39.1865229,109.412108 39.0751959,109.107423 38.9638672,108.785156 L35.8964844,100.435547 C35.8437497,100.283202 35.7895511,100.13379 35.7338867,99.9873047 C35.6782224,99.8408196 35.6313478,99.682618 35.5932617,99.5126953 C35.5551756,99.3427726 35.5361328,99.1992193 35.5361328,99.0820312 C35.5361328,98.7832016 35.6562488,98.5107434 35.8964844,98.2646484 C36.13672,98.0185535 36.4384747,97.8955078 36.8017578,97.8955078 C37.2470725,97.8955078 37.5620108,98.0317369 37.746582,98.3041992 C37.9311533,98.5766615 38.1201162,99.0117158 38.3134766,99.609375 Z M54.2216797,97.8955078 C55.5576239,97.8955078 56.7045851,98.1665012 57.6625977,98.7084961 C58.6206103,99.250491 59.3457007,100.020991 59.8378906,101.02002 C60.3300806,102.019048 60.5761719,103.192376 60.5761719,104.540039 C60.5761719,105.536138 60.4414076,106.441402 60.171875,107.255859 C59.9023424,108.070317 59.4980496,108.776364 58.9589844,109.374023 C58.4199192,109.971683 57.7578164,110.428709 56.9726562,110.745117 C56.1874961,111.061525 55.288091,111.219727 54.2744141,111.219727 C53.2665965,111.219727 52.3642618,111.057131 51.5673828,110.731934 C50.7705038,110.406737 50.1054714,109.948245 49.5722656,109.356445 C49.0390598,108.764645 48.6362318,108.052739 48.3637695,107.220703 C48.0913072,106.388668 47.9550781,105.489263 47.9550781,104.522461 C47.9550781,103.532222 48.0971665,102.624028 48.3813477,101.797852 C48.6655288,100.971676 49.0771457,100.268558 49.6162109,99.6884766 C50.1552761,99.1083955 50.8115196,98.6645523 51.5849609,98.3569336 C52.3584023,98.0493149 53.2372998,97.8955078 54.2216797,97.8955078 Z M57.9306641,104.522461 C57.9306641,103.579097 57.7783218,102.761722 57.4736328,102.070312 C57.1689438,101.378903 56.7338895,100.855959 56.168457,100.501465 C55.6030245,100.146971 54.9541052,99.9697266 54.2216797,99.9697266 C53.7001927,99.9697266 53.2182639,100.06787 52.7758789,100.26416 C52.3334939,100.46045 51.9526383,100.746092 51.6333008,101.121094 C51.3139632,101.496096 51.0620126,101.975095 50.8774414,102.558105 C50.6928702,103.141116 50.6005859,103.795895 50.6005859,104.522461 C50.6005859,105.254886 50.6928702,105.916989 50.8774414,106.508789 C51.0620126,107.100589 51.3227522,107.591307 51.659668,107.980957 C51.9965837,108.370607 52.3832986,108.662108 52.8198242,108.855469 C53.2563498,109.048829 53.735349,109.145508 54.2568359,109.145508 C54.924808,109.145508 55.5385714,108.978517 56.0981445,108.644531 C56.6577176,108.310545 57.1030257,107.794925 57.434082,107.097656 C57.7651384,106.400387 57.9306641,105.541997 57.9306641,104.522461 Z M65.3662109,99.4775391 L65.3662109,108.855469 L70.6572266,108.855469 C71.0791037,108.855469 71.4028309,108.958007 71.628418,109.163086 C71.854005,109.368165 71.9667969,109.625975 71.9667969,109.936523 C71.9667969,110.252931 71.8554699,110.509276 71.6328125,110.705566 C71.4101551,110.901856 71.0849631,111 70.6572266,111 L64.3554688,111 C63.7871065,111 63.3784192,110.874025 63.1293945,110.62207 C62.8803698,110.370116 62.7558594,109.962893 62.7558594,109.400391 L62.7558594,99.4775391 C62.7558594,98.9501927 62.8745105,98.5546888 63.1118164,98.2910156 C63.3491223,98.0273424 63.6611309,97.8955078 64.0478516,97.8955078 C64.4404317,97.8955078 64.7582996,98.0258776 65.0014648,98.2866211 C65.2446301,98.5473646 65.3662109,98.9443333 65.3662109,99.4775391 Z M72.8017578,105.673828 L72.8017578,99.4775391 C72.8017578,98.9501927 72.920409,98.5546888 73.1577148,98.2910156 C73.3950207,98.0273424 73.7070293,97.8955078 74.09375,97.8955078 C74.4980489,97.8955078 74.8188465,98.0273424 75.0561523,98.2910156 C75.2934582,98.5546888 75.4121094,98.9501927 75.4121094,99.4775391 L75.4121094,105.814453 C75.4121094,106.53516 75.492675,107.137205 75.6538086,107.620605 C75.8149422,108.104006 76.1005839,108.479003 76.5107422,108.745605 C76.9209005,109.012208 77.4951135,109.145508 78.2333984,109.145508 C79.2529348,109.145508 79.9736307,108.874514 80.3955078,108.33252 C80.8173849,107.790525 81.0283203,106.968756 81.0283203,105.867188 L81.0283203,99.4775391 C81.0283203,98.9443333 81.1455066,98.5473646 81.3798828,98.2866211 C81.614259,98.0258776 81.9277324,97.8955078 82.3203125,97.8955078 C82.7128926,97.8955078 83.0307605,98.0258776 83.2739258,98.2866211 C83.5170911,98.5473646 83.6386719,98.9443333 83.6386719,99.4775391 L83.6386719,105.673828 C83.6386719,106.681646 83.5405283,107.522458 83.3442383,108.196289 C83.1479482,108.870121 82.7773465,109.461912 82.2324219,109.97168 C81.7636695,110.405276 81.2187531,110.721679 80.5976562,110.920898 C79.9765594,111.120118 79.2500042,111.219727 78.4179688,111.219727 C77.4277294,111.219727 76.5751989,111.112794 75.8603516,110.898926 C75.1455042,110.685058 74.5625023,110.354006 74.1113281,109.905762 C73.660154,109.457517 73.3291026,108.883304 73.1181641,108.183105 C72.9072255,107.482907 72.8017578,106.646489 72.8017578,105.673828 Z M90.8105469,109.057617 L88.7451172,100.848633 L88.7451172,109.743164 C88.7451172,110.235354 88.635255,110.604491 88.4155273,110.850586 C88.1957997,111.096681 87.9042987,111.219727 87.5410156,111.219727 C87.1894514,111.219727 86.9023449,111.098146 86.6796875,110.85498 C86.4570301,110.611815 86.3457031,110.241213 86.3457031,109.743164 L86.3457031,99.5478516 C86.3457031,98.9853487 86.492186,98.605958 86.7851562,98.409668 C87.0781265,98.2133779 87.4736303,98.1152344 87.9716797,98.1152344 L88.7802734,98.1152344 C89.266604,98.1152344 89.6196278,98.1591792 89.8393555,98.2470703 C90.0590831,98.3349614 90.2216792,98.4931629 90.3271484,98.7216797 C90.4326177,98.9501965 90.5527337,99.322263 90.6875,99.8378906 L92.5595703,106.895508 L94.4316406,99.8378906 C94.5664069,99.322263 94.6865229,98.9501965 94.7919922,98.7216797 C94.8974615,98.4931629 95.0600575,98.3349614 95.2797852,98.2470703 C95.4995128,98.1591792 95.8525366,98.1152344 96.3388672,98.1152344 L97.1474609,98.1152344 C97.6455103,98.1152344 98.0410142,98.2133779 98.3339844,98.409668 C98.6269546,98.605958 98.7734375,98.9853487 98.7734375,99.5478516 L98.7734375,109.743164 C98.7734375,110.235354 98.6635753,110.604491 98.4438477,110.850586 C98.22412,111.096681 97.9296893,111.219727 97.5605469,111.219727 C97.214842,111.219727 96.9306652,111.096681 96.7080078,110.850586 C96.4853504,110.604491 96.3740234,110.235354 96.3740234,109.743164 L96.3740234,100.848633 L94.3085938,109.057617 C94.1738275,109.590823 94.0639653,109.981932 93.9790039,110.230957 C93.8940425,110.479982 93.7373058,110.70703 93.5087891,110.912109 C93.2802723,111.117189 92.9638692,111.219727 92.5595703,111.219727 C92.2548813,111.219727 91.9970714,111.153809 91.7861328,111.021973 C91.5751943,110.890136 91.4111334,110.721681 91.2939453,110.516602 C91.1767572,110.311522 91.084473,110.084474 91.0170898,109.835449 C90.9497067,109.586425 90.8808597,109.32715 90.8105469,109.057617 Z M109.944336,100.12793 L104.064453,100.12793 L104.064453,103.291992 L109.478516,103.291992 C109.876955,103.291992 110.174315,103.381347 110.370605,103.560059 C110.566896,103.73877 110.665039,103.974608 110.665039,104.267578 C110.665039,104.560548 110.56836,104.799315 110.375,104.983887 C110.18164,105.168458 109.882815,105.260742 109.478516,105.260742 L104.064453,105.260742 L104.064453,108.925781 L110.146484,108.925781 C110.556643,108.925781 110.865722,109.020995 111.07373,109.211426 C111.281739,109.401856 111.385742,109.655272 111.385742,109.97168 C111.385742,110.276369 111.281739,110.523925 111.07373,110.714355 C110.865722,110.904786 110.556643,111 110.146484,111 L103.053711,111 C102.485349,111 102.076661,110.874025 101.827637,110.62207 C101.578612,110.370116 101.454102,109.962893 101.454102,109.400391 L101.454102,99.7148438 C101.454102,99.3398419 101.509765,99.0336926 101.621094,98.7963867 C101.732422,98.5590808 101.906737,98.386231 102.144043,98.277832 C102.381349,98.1694331 102.684568,98.1152344 103.053711,98.1152344 L109.944336,98.1152344 C110.360354,98.1152344 110.669433,98.2075186 110.871582,98.3920898 C111.073731,98.5766611 111.174805,98.8183579 111.174805,99.1171875 C111.174805,99.4218765 111.073731,99.666503 110.871582,99.8510742 C110.669433,100.035645 110.360354,100.12793 109.944336,100.12793 Z" id="VOLUME" fill="#242323"></path>
            <path d="M95.0234375,42.1152344 L98.4248047,42.1152344 C99.3095747,42.1152344 100.068356,42.1972648 100.701172,42.3613281 C101.333988,42.5253914 101.908201,42.8330056 102.423828,43.2841797 C103.765632,44.4326229 104.436523,46.1786992 104.436523,48.5224609 C104.436523,49.2959023 104.369141,50.0019499 104.234375,50.640625 C104.099609,51.2793001 103.891603,51.8549779 103.610352,52.3676758 C103.3291,52.8803737 102.968752,53.3388652 102.529297,53.7431641 C102.183592,54.0537125 101.805666,54.3027334 101.395508,54.4902344 C100.98535,54.6777353 100.544436,54.8095699 100.072754,54.8857422 C99.6010719,54.9619144 99.0693389,55 98.4775391,55 L95.0761719,55 C94.6015601,55 94.2441418,54.9282234 94.0039062,54.784668 C93.7636707,54.6411126 93.606934,54.4389661 93.5336914,54.1782227 C93.4604489,53.9174792 93.4238281,53.5791036 93.4238281,53.1630859 L93.4238281,43.7148438 C93.4238281,43.1523409 93.5498034,42.7451184 93.8017578,42.4931641 C94.0537122,42.2412097 94.4609347,42.1152344 95.0234375,42.1152344 Z M96.0341797,44.1806641 L96.0341797,52.9257812 L98.0117188,52.9257812 C98.4453147,52.9257812 98.785155,52.9140626 99.03125,52.890625 C99.277345,52.8671874 99.5322252,52.8085942 99.7958984,52.7148438 C100.059572,52.6210933 100.288085,52.4892587 100.481445,52.3193359 C101.354497,51.581051 101.791016,50.3095793 101.791016,48.5048828 C101.791016,47.2333921 101.599123,46.2812532 101.215332,45.6484375 C100.831541,45.0156218 100.358401,44.6127938 99.7958984,44.4399414 C99.2333956,44.267089 98.5537149,44.1806641 97.7568359,44.1806641 L96.0341797,44.1806641 Z M106.835938,53.6289062 L106.835938,43.4775391 C106.835938,42.9501927 106.956053,42.5546888 107.196289,42.2910156 C107.436525,42.0273424 107.747068,41.8955078 108.12793,41.8955078 C108.52051,41.8955078 108.838378,42.0258776 109.081543,42.2866211 C109.324708,42.5473646 109.446289,42.9443333 109.446289,43.4775391 L109.446289,53.6289062 C109.446289,54.162112 109.324708,54.5605456 109.081543,54.8242188 C108.838378,55.0878919 108.52051,55.2197266 108.12793,55.2197266 C107.752928,55.2197266 107.443849,55.0864271 107.200684,54.8198242 C106.957518,54.5532213 106.835938,54.1562526 106.835938,53.6289062 Z M122.155273,51.1328125 C122.155273,51.9121133 121.954592,52.6123016 121.553223,53.2333984 C121.151853,53.8544953 120.564457,54.3408186 119.791016,54.6923828 C119.017574,55.0439471 118.100591,55.2197266 117.040039,55.2197266 C115.768548,55.2197266 114.719731,54.9794946 113.893555,54.4990234 C113.307614,54.1533186 112.831545,53.6918974 112.465332,53.1147461 C112.099119,52.5375948 111.916016,51.9765652 111.916016,51.4316406 C111.916016,51.1152328 112.025878,50.8442394 112.245605,50.6186523 C112.465333,50.3930653 112.745115,50.2802734 113.084961,50.2802734 C113.360353,50.2802734 113.593261,50.3681632 113.783691,50.5439453 C113.974122,50.7197274 114.136718,50.980467 114.271484,51.3261719 C114.435548,51.7363302 114.612792,52.0791002 114.803223,52.3544922 C114.993653,52.6298842 115.261717,52.8569327 115.607422,53.0356445 C115.953127,53.2143564 116.407224,53.3037109 116.969727,53.3037109 C117.743168,53.3037109 118.37158,53.123537 118.85498,52.7631836 C119.338381,52.4028302 119.580078,51.9531277 119.580078,51.4140625 C119.580078,50.986326 119.449708,50.6391615 119.188965,50.3725586 C118.928221,50.1059557 118.591311,49.9023445 118.178223,49.7617188 C117.765135,49.621093 117.212894,49.4716805 116.521484,49.3134766 C115.595698,49.0966786 114.820804,48.8432632 114.196777,48.5532227 C113.572751,48.2631821 113.077639,47.8676783 112.711426,47.3666992 C112.345213,46.8657202 112.162109,46.2431678 112.162109,45.4990234 C112.162109,44.7900355 112.355467,44.160159 112.742188,43.609375 C113.128908,43.058591 113.688473,42.6352554 114.420898,42.3393555 C115.153324,42.0434556 116.014643,41.8955078 117.004883,41.8955078 C117.795902,41.8955078 118.479978,41.9936514 119.057129,42.1899414 C119.63428,42.3862315 120.113279,42.646971 120.494141,42.972168 C120.875002,43.2973649 121.153319,43.6386701 121.329102,43.9960938 C121.504884,44.3535174 121.592773,44.7021467 121.592773,45.0419922 C121.592773,45.3525406 121.482911,45.632323 121.263184,45.8813477 C121.043456,46.1303723 120.769533,46.2548828 120.441406,46.2548828 C120.142577,46.2548828 119.915528,46.1801765 119.760254,46.0307617 C119.60498,45.8813469 119.436524,45.6367204 119.254883,45.296875 C119.020507,44.8105444 118.739259,44.4311537 118.411133,44.1586914 C118.083006,43.8862291 117.555668,43.75 116.829102,43.75 C116.15527,43.75 115.611818,43.8979477 115.19873,44.1938477 C114.785642,44.4897476 114.579102,44.845701 114.579102,45.2617188 C114.579102,45.5195325 114.649413,45.7421866 114.790039,45.9296875 C114.930665,46.1171884 115.124022,46.2783196 115.370117,46.4130859 C115.616212,46.5478522 115.865233,46.6533199 116.117188,46.7294922 C116.369142,46.8056644 116.785153,46.9169915 117.365234,47.0634766 C118.091801,47.2333993 118.749509,47.4208974 119.338379,47.6259766 C119.927249,47.8310557 120.428221,48.0800767 120.841309,48.3730469 C121.254397,48.6660171 121.576659,49.0366189 121.808105,49.4848633 C122.039552,49.9331077 122.155273,50.4824186 122.155273,51.1328125 Z M132.737305,44.2685547 L129.889648,44.2685547 L129.889648,53.6289062 C129.889648,54.1679714 129.769532,54.5678698 129.529297,54.8286133 C129.289061,55.0893568 128.978518,55.2197266 128.597656,55.2197266 C128.210936,55.2197266 127.895997,55.0878919 127.652832,54.8242188 C127.409667,54.5605456 127.288086,54.162112 127.288086,53.6289062 L127.288086,44.2685547 L124.44043,44.2685547 C123.995115,44.2685547 123.664064,44.1704111 123.447266,43.9741211 C123.230468,43.777831 123.12207,43.5185563 123.12207,43.1962891 C123.12207,42.862303 123.234862,42.5986338 123.460449,42.4052734 C123.686036,42.2119131 124.012693,42.1152344 124.44043,42.1152344 L132.737305,42.1152344 C133.188479,42.1152344 133.523925,42.2148428 133.743652,42.4140625 C133.96338,42.6132822 134.073242,42.8740218 134.073242,43.1962891 C134.073242,43.5185563 133.961915,43.777831 133.739258,43.9741211 C133.5166,44.1704111 133.182619,44.2685547 132.737305,44.2685547 Z M141.051758,41.8955078 C142.387702,41.8955078 143.534663,42.1665012 144.492676,42.7084961 C145.450688,43.250491 146.175779,44.0209911 146.667969,45.0200195 C147.160159,46.019048 147.40625,47.1923761 147.40625,48.5400391 C147.40625,49.5361378 147.271486,50.4414022 147.001953,51.2558594 C146.732421,52.0703166 146.328128,52.7763642 145.789062,53.3740234 C145.249997,53.9716827 144.587895,54.4287094 143.802734,54.7451172 C143.017574,55.061525 142.118169,55.2197266 141.104492,55.2197266 C140.096675,55.2197266 139.19434,55.0571305 138.397461,54.7319336 C137.600582,54.4067367 136.93555,53.9482451 136.402344,53.3564453 C135.869138,52.7646455 135.46631,52.0527385 135.193848,51.2207031 C134.921385,50.3886677 134.785156,49.4892626 134.785156,48.5224609 C134.785156,47.5322216 134.927245,46.6240276 135.211426,45.7978516 C135.495607,44.9716756 135.907224,44.2685576 136.446289,43.6884766 C136.985354,43.1083955 137.641598,42.6645523 138.415039,42.3569336 C139.18848,42.0493149 140.067378,41.8955078 141.051758,41.8955078 Z M144.760742,48.5224609 C144.760742,47.5790968 144.6084,46.7617222 144.303711,46.0703125 C143.999022,45.3789028 143.563968,44.8559588 142.998535,44.5014648 C142.433103,44.1469709 141.784183,43.9697266 141.051758,43.9697266 C140.530271,43.9697266 140.048342,44.0678701 139.605957,44.2641602 C139.163572,44.4604502 138.782716,44.7460919 138.463379,45.1210938 C138.144041,45.4960956 137.892091,45.9750947 137.70752,46.5581055 C137.522948,47.1411162 137.430664,47.7958948 137.430664,48.5224609 C137.430664,49.2548865 137.522948,49.9169892 137.70752,50.5087891 C137.892091,51.1005889 138.15283,51.5913066 138.489746,51.980957 C138.826662,52.3706074 139.213377,52.6621084 139.649902,52.8554688 C140.086428,53.0488291 140.565427,53.1455078 141.086914,53.1455078 C141.754886,53.1455078 142.36865,52.9785173 142.928223,52.6445312 C143.487796,52.3105452 143.933104,51.7949254 144.26416,51.0976562 C144.595216,50.4003871 144.760742,49.5419973 144.760742,48.5224609 Z M153.145508,49.4892578 L152.231445,49.4892578 L152.231445,53.6289062 C152.231445,54.1738308 152.111329,54.575194 151.871094,54.8330078 C151.630858,55.0908216 151.317385,55.2197266 150.930664,55.2197266 C150.514646,55.2197266 150.192384,55.0849623 149.963867,54.8154297 C149.73535,54.5458971 149.621094,54.1503932 149.621094,53.6289062 L149.621094,43.7148438 C149.621094,43.1523409 149.747069,42.7451184 149.999023,42.4931641 C150.250978,42.2412097 150.6582,42.1152344 151.220703,42.1152344 L155.46582,42.1152344 C156.051761,42.1152344 156.552732,42.1401365 156.96875,42.1899414 C157.384768,42.2397463 157.759764,42.3408196 158.09375,42.4931641 C158.498049,42.6630868 158.855467,42.9062484 159.166016,43.2226562 C159.476564,43.5390641 159.712402,43.9067362 159.873535,44.3256836 C160.034669,44.744631 160.115234,45.1884742 160.115234,45.6572266 C160.115234,46.6181689 159.844241,47.3857393 159.302246,47.9599609 C158.760251,48.5341826 157.938482,48.941405 156.836914,49.1816406 C157.299807,49.4277356 157.742185,49.7910132 158.164062,50.2714844 C158.58594,50.7519555 158.962401,51.2631809 159.293457,51.8051758 C159.624513,52.3471707 159.882323,52.8364236 160.066895,53.2729492 C160.251466,53.7094748 160.34375,54.0097648 160.34375,54.1738281 C160.34375,54.3437508 160.289551,54.5122062 160.181152,54.6791992 C160.072753,54.8461922 159.924806,54.9780269 159.737305,55.074707 C159.549804,55.1713872 159.333009,55.2197266 159.086914,55.2197266 C158.793944,55.2197266 158.547853,55.1508796 158.348633,55.0131836 C158.149413,54.8754876 157.978028,54.7011729 157.834473,54.4902344 C157.690917,54.2792958 157.496095,53.9687521 157.25,53.5585938 L156.204102,51.8183594 C155.8291,51.1796843 155.493654,50.693361 155.197754,50.359375 C154.901854,50.025389 154.601564,49.7968756 154.296875,49.6738281 C153.992186,49.5507806 153.608401,49.4892578 153.145508,49.4892578 Z M154.639648,44.0751953 L152.231445,44.0751953 L152.231445,47.6171875 L154.569336,47.6171875 C155.196292,47.6171875 155.723631,47.5629888 156.151367,47.4545898 C156.579104,47.3461909 156.905761,47.1616224 157.131348,46.9008789 C157.356935,46.6401354 157.469727,46.2812523 157.469727,45.8242188 C157.469727,45.4667951 157.378907,45.1518568 157.197266,44.8793945 C157.015624,44.6069322 156.763673,44.403321 156.441406,44.2685547 C156.136717,44.1396478 155.536137,44.0751953 154.639648,44.0751953 Z M170.055664,44.2685547 L167.208008,44.2685547 L167.208008,53.6289062 C167.208008,54.1679714 167.087892,54.5678698 166.847656,54.8286133 C166.607421,55.0893568 166.296877,55.2197266 165.916016,55.2197266 C165.529295,55.2197266 165.214357,55.0878919 164.971191,54.8242188 C164.728026,54.5605456 164.606445,54.162112 164.606445,53.6289062 L164.606445,44.2685547 L161.758789,44.2685547 C161.313474,44.2685547 160.982423,44.1704111 160.765625,43.9741211 C160.548827,43.777831 160.44043,43.5185563 160.44043,43.1962891 C160.44043,42.862303 160.553222,42.5986338 160.778809,42.4052734 C161.004396,42.2119131 161.331053,42.1152344 161.758789,42.1152344 L170.055664,42.1152344 C170.506838,42.1152344 170.842284,42.2148428 171.062012,42.4140625 C171.281739,42.6132822 171.391602,42.8740218 171.391602,43.1962891 C171.391602,43.5185563 171.280275,43.777831 171.057617,43.9741211 C170.83496,44.1704111 170.500979,44.2685547 170.055664,44.2685547 Z M173.043945,53.6289062 L173.043945,43.4775391 C173.043945,42.9501927 173.164061,42.5546888 173.404297,42.2910156 C173.644532,42.0273424 173.955076,41.8955078 174.335938,41.8955078 C174.728518,41.8955078 175.046386,42.0258776 175.289551,42.2866211 C175.532716,42.5473646 175.654297,42.9443333 175.654297,43.4775391 L175.654297,53.6289062 C175.654297,54.162112 175.532716,54.5605456 175.289551,54.8242188 C175.046386,55.0878919 174.728518,55.2197266 174.335938,55.2197266 C173.960936,55.2197266 173.651857,55.0864271 173.408691,54.8198242 C173.165526,54.5532213 173.043945,54.1562526 173.043945,53.6289062 Z M184.241211,41.8955078 C185.577155,41.8955078 186.724116,42.1665012 187.682129,42.7084961 C188.640142,43.250491 189.365232,44.0209911 189.857422,45.0200195 C190.349612,46.019048 190.595703,47.1923761 190.595703,48.5400391 C190.595703,49.5361378 190.460939,50.4414022 190.191406,51.2558594 C189.921874,52.0703166 189.517581,52.7763642 188.978516,53.3740234 C188.43945,53.9716827 187.777348,54.4287094 186.992188,54.7451172 C186.207027,55.061525 185.307622,55.2197266 184.293945,55.2197266 C183.286128,55.2197266 182.383793,55.0571305 181.586914,54.7319336 C180.790035,54.4067367 180.125003,53.9482451 179.591797,53.3564453 C179.058591,52.7646455 178.655763,52.0527385 178.383301,51.2207031 C178.110838,50.3886677 177.974609,49.4892626 177.974609,48.5224609 C177.974609,47.5322216 178.116698,46.6240276 178.400879,45.7978516 C178.68506,44.9716756 179.096677,44.2685576 179.635742,43.6884766 C180.174807,43.1083955 180.831051,42.6645523 181.604492,42.3569336 C182.377934,42.0493149 183.256831,41.8955078 184.241211,41.8955078 Z M187.950195,48.5224609 C187.950195,47.5790968 187.797853,46.7617222 187.493164,46.0703125 C187.188475,45.3789028 186.753421,44.8559588 186.187988,44.5014648 C185.622556,44.1469709 184.973636,43.9697266 184.241211,43.9697266 C183.719724,43.9697266 183.237795,44.0678701 182.79541,44.2641602 C182.353025,44.4604502 181.97217,44.7460919 181.652832,45.1210938 C181.333494,45.4960956 181.081544,45.9750947 180.896973,46.5581055 C180.712401,47.1411162 180.620117,47.7958948 180.620117,48.5224609 C180.620117,49.2548865 180.712401,49.9169892 180.896973,50.5087891 C181.081544,51.1005889 181.342283,51.5913066 181.679199,51.980957 C182.016115,52.3706074 182.40283,52.6621084 182.839355,52.8554688 C183.275881,53.0488291 183.75488,53.1455078 184.276367,53.1455078 C184.944339,53.1455078 185.558103,52.9785173 186.117676,52.6445312 C186.677249,52.3105452 187.122557,51.7949254 187.453613,51.0976562 C187.78467,50.4003871 187.950195,49.5419973 187.950195,48.5224609 Z M196.229492,43.4599609 L201.248047,51.0537109 L201.248047,43.3896484 C201.248047,42.8915991 201.354979,42.5180677 201.568848,42.269043 C201.782716,42.0200183 202.071287,41.8955078 202.43457,41.8955078 C202.809572,41.8955078 203.105468,42.0200183 203.322266,42.269043 C203.539064,42.5180677 203.647461,42.8915991 203.647461,43.3896484 L203.647461,53.5234375 C203.647461,54.6543025 203.178716,55.2197266 202.241211,55.2197266 C202.006835,55.2197266 201.795899,55.1860355 201.608398,55.1186523 C201.420897,55.0512692 201.245118,54.9443367 201.081055,54.7978516 C200.916991,54.6513665 200.764649,54.4799815 200.624023,54.2836914 C200.483398,54.0874014 200.342774,53.8867198 200.202148,53.6816406 L195.306641,46.1757812 L195.306641,53.7255859 C195.306641,54.2177759 195.192384,54.5898425 194.963867,54.8417969 C194.73535,55.0937513 194.442385,55.2197266 194.084961,55.2197266 C193.715818,55.2197266 193.419923,55.0922864 193.197266,54.8374023 C192.974608,54.5825183 192.863281,54.2119165 192.863281,53.7255859 L192.863281,43.7851562 C192.863281,43.3632791 192.910156,43.0322278 193.003906,42.7919922 C193.115235,42.528319 193.299803,42.3129891 193.557617,42.1459961 C193.815431,41.9790031 194.093749,41.8955078 194.392578,41.8955078 C194.626954,41.8955078 194.827636,41.9335934 194.994629,42.0097656 C195.161622,42.0859379 195.308105,42.1884759 195.434082,42.3173828 C195.560059,42.4462897 195.688964,42.6132802 195.820801,42.8183594 C195.952637,43.0234385 196.088866,43.2373036 196.229492,43.4599609 Z" id="DISTORTION" fill="#242323"></path>
            <path d="M208.773438,100.268555 L205.925781,100.268555 L205.925781,109.628906 C205.925781,110.167971 205.805665,110.56787 205.56543,110.828613 C205.325194,111.089357 205.01465,111.219727 204.633789,111.219727 C204.247068,111.219727 203.93213,111.087892 203.688965,110.824219 C203.4458,110.560546 203.324219,110.162112 203.324219,109.628906 L203.324219,100.268555 L200.476562,100.268555 C200.031248,100.268555 199.700196,100.170411 199.483398,99.9741211 C199.2666,99.777831 199.158203,99.5185563 199.158203,99.1962891 C199.158203,98.862303 199.270995,98.5986338 199.496582,98.4052734 C199.722169,98.2119131 200.048826,98.1152344 200.476562,98.1152344 L208.773438,98.1152344 C209.224612,98.1152344 209.560057,98.2148428 209.779785,98.4140625 C209.999513,98.6132822 210.109375,98.8740218 210.109375,99.1962891 C210.109375,99.5185563 209.998048,99.777831 209.775391,99.9741211 C209.552733,100.170411 209.218752,100.268555 208.773438,100.268555 Z M217.087891,97.8955078 C218.423835,97.8955078 219.570796,98.1665012 220.528809,98.7084961 C221.486821,99.250491 222.211912,100.020991 222.704102,101.02002 C223.196292,102.019048 223.442383,103.192376 223.442383,104.540039 C223.442383,105.536138 223.307619,106.441402 223.038086,107.255859 C222.768553,108.070317 222.364261,108.776364 221.825195,109.374023 C221.28613,109.971683 220.624027,110.428709 219.838867,110.745117 C219.053707,111.061525 218.154302,111.219727 217.140625,111.219727 C216.132807,111.219727 215.230473,111.057131 214.433594,110.731934 C213.636715,110.406737 212.971682,109.948245 212.438477,109.356445 C211.905271,108.764645 211.502443,108.052739 211.22998,107.220703 C210.957518,106.388668 210.821289,105.489263 210.821289,104.522461 C210.821289,103.532222 210.963377,102.624028 211.247559,101.797852 C211.53174,100.971676 211.943357,100.268558 212.482422,99.6884766 C213.021487,99.1083955 213.677731,98.6645523 214.451172,98.3569336 C215.224613,98.0493149 216.103511,97.8955078 217.087891,97.8955078 Z M220.796875,104.522461 C220.796875,103.579097 220.644533,102.761722 220.339844,102.070312 C220.035155,101.378903 219.6001,100.855959 219.034668,100.501465 C218.469235,100.146971 217.820316,99.9697266 217.087891,99.9697266 C216.566404,99.9697266 216.084475,100.06787 215.64209,100.26416 C215.199705,100.46045 214.818849,100.746092 214.499512,101.121094 C214.180174,101.496096 213.928224,101.975095 213.743652,102.558105 C213.559081,103.141116 213.466797,103.795895 213.466797,104.522461 C213.466797,105.254886 213.559081,105.916989 213.743652,106.508789 C213.928224,107.100589 214.188963,107.591307 214.525879,107.980957 C214.862795,108.370607 215.24951,108.662108 215.686035,108.855469 C216.122561,109.048829 216.60156,109.145508 217.123047,109.145508 C217.791019,109.145508 218.404782,108.978517 218.964355,108.644531 C219.523929,108.310545 219.969237,107.794925 220.300293,107.097656 C220.631349,106.400387 220.796875,105.541997 220.796875,104.522461 Z M229.076172,99.4599609 L234.094727,107.053711 L234.094727,99.3896484 C234.094727,98.8915991 234.201659,98.5180677 234.415527,98.269043 C234.629396,98.0200183 234.917967,97.8955078 235.28125,97.8955078 C235.656252,97.8955078 235.952147,98.0200183 236.168945,98.269043 C236.385743,98.5180677 236.494141,98.8915991 236.494141,99.3896484 L236.494141,109.523438 C236.494141,110.654303 236.025395,111.219727 235.087891,111.219727 C234.853514,111.219727 234.642579,111.186035 234.455078,111.118652 C234.267577,111.051269 234.091798,110.944337 233.927734,110.797852 C233.763671,110.651366 233.611329,110.479981 233.470703,110.283691 C233.330077,110.087401 233.189454,109.88672 233.048828,109.681641 L228.15332,102.175781 L228.15332,109.725586 C228.15332,110.217776 228.039064,110.589842 227.810547,110.841797 C227.58203,111.093751 227.289064,111.219727 226.931641,111.219727 C226.562498,111.219727 226.266603,111.092286 226.043945,110.837402 C225.821288,110.582518 225.709961,110.211916 225.709961,109.725586 L225.709961,99.7851562 C225.709961,99.3632791 225.756835,99.0322278 225.850586,98.7919922 C225.961915,98.528319 226.146483,98.3129891 226.404297,98.1459961 C226.662111,97.9790031 226.940428,97.8955078 227.239258,97.8955078 C227.473634,97.8955078 227.674316,97.9335934 227.841309,98.0097656 C228.008302,98.0859379 228.154785,98.1884759 228.280762,98.3173828 C228.406739,98.4462897 228.535644,98.6132802 228.66748,98.8183594 C228.799317,99.0234385 228.935546,99.2373036 229.076172,99.4599609 Z M247.84082,100.12793 L241.960938,100.12793 L241.960938,103.291992 L247.375,103.291992 C247.773439,103.291992 248.0708,103.381347 248.26709,103.560059 C248.46338,103.73877 248.561523,103.974608 248.561523,104.267578 C248.561523,104.560548 248.464845,104.799315 248.271484,104.983887 C248.078124,105.168458 247.779299,105.260742 247.375,105.260742 L241.960938,105.260742 L241.960938,108.925781 L248.042969,108.925781 C248.453127,108.925781 248.762206,109.020995 248.970215,109.211426 C249.178224,109.401856 249.282227,109.655272 249.282227,109.97168 C249.282227,110.276369 249.178224,110.523925 248.970215,110.714355 C248.762206,110.904786 248.453127,111 248.042969,111 L240.950195,111 C240.381833,111 239.973146,110.874025 239.724121,110.62207 C239.475096,110.370116 239.350586,109.962893 239.350586,109.400391 L239.350586,99.7148438 C239.350586,99.3398419 239.406249,99.0336926 239.517578,98.7963867 C239.628907,98.5590808 239.803221,98.386231 240.040527,98.277832 C240.277833,98.1694331 240.581053,98.1152344 240.950195,98.1152344 L247.84082,98.1152344 C248.256838,98.1152344 248.565917,98.2075186 248.768066,98.3920898 C248.970216,98.5766611 249.071289,98.8183579 249.071289,99.1171875 C249.071289,99.4218765 248.970216,99.666503 248.768066,99.8510742 C248.565917,100.035645 248.256838,100.12793 247.84082,100.12793 Z" id="TONE" fill="#242323"></path>
        </g>
    </g>
</svg>