<?xml version="1.0" encoding="UTF-8"?>
<svg width="646px" height="463px" viewBox="0 0 646 463" version="1.1" xmlns="http://www.w3.org/2000/svg" xmlns:xlink="http://www.w3.org/1999/xlink">
    <!-- Generator: Sketch 43.2 (39069) - http://www.bohemiancoding.com/sketch -->
    <title>pedal-reverb</title>
    <desc>Created with Sketch.</desc>
    <defs>
        <circle id="path-1" cx="67.5" cy="370.5" r="21.5"></circle>
        <circle id="path-2" cx="323.5" cy="370.5" r="21.5"></circle>
        <circle id="path-3" cx="579.5" cy="370.5" r="21.5"></circle>
    </defs>
    <g id="Page-1" stroke="none" stroke-width="1" fill="none" fill-rule="evenodd">
        <g id="Big-Sky">
            <rect id="Rectangle-20" fill="#0179A0" x="0" y="0" width="646" height="463" rx="5"></rect>
            <path d="M599.768066,319.210938 C601.168464,319.210938 602.324214,318.874027 603.235352,318.200195 C604.146489,317.526364 604.745604,316.562506 605.032715,315.308594 L603.433105,315.308594 C603.204589,316.082035 602.770999,316.682615 602.132324,317.110352 C601.493649,317.538088 600.708501,317.751953 599.776855,317.751953 C598.522943,317.751953 597.526859,317.290532 596.788574,316.367676 C596.050289,315.44482 595.681152,314.207039 595.681152,312.654297 C595.681152,311.113274 596.053219,309.879887 596.797363,308.954102 C597.541508,308.028316 598.531732,307.56543 599.768066,307.56543 C600.676274,307.56543 601.464352,307.815915 602.132324,308.316895 C602.800296,308.817874 603.233886,309.484371 603.433105,310.316406 L605.032715,310.316406 C604.833495,309.050775 604.251958,308.032719 603.288086,307.262207 C602.324214,306.491695 601.150886,306.106445 599.768066,306.106445 C598.033683,306.106445 596.647954,306.699701 595.61084,307.88623 C594.573725,309.07276 594.055176,310.662099 594.055176,312.654297 C594.055176,314.664073 594.570796,316.259271 595.602051,317.439941 C596.633306,318.620611 598.021964,319.210938 599.768066,319.210938 Z" id="C" fill="#FFFFFF"></path>
            <path d="M99.2880859,317 L99.0947266,316.450684 C98.9658197,316.084471 98.8178719,315.6626 98.6508789,315.185059 C98.4838859,314.707517 98.3359381,314.285646 98.2070312,313.919434 L98.0136719,313.370117 L92.96875,313.370117 L91.6943359,317 L90.0332031,317 L94.7089844,304.317383 L96.2734375,304.317383 L100.949219,317 L99.2880859,317 Z M95.4648438,306.242188 L95.2583008,306.82666 C95.1206048,307.216311 94.9521494,307.698239 94.7529297,308.272461 C94.5537099,308.846683 94.3530284,309.420896 94.1508789,309.995117 C93.9487295,310.569339 93.7788093,311.051268 93.6411133,311.440918 L93.4345703,312.025391 L97.5478516,312.025391 L95.5175781,306.242188 L95.4648438,306.242188 Z" id="A" fill="#FFFFFF"></path>
            <path d="M349.150391,318 L344.202148,318 L344.202148,305.317383 L349.167969,305.317383 C350.251959,305.317383 351.129391,305.607419 351.800293,306.1875 C352.471195,306.767581 352.806641,307.532222 352.806641,308.481445 C352.806641,309.137699 352.59424,309.735349 352.169434,310.274414 C351.744627,310.813479 351.227542,311.138671 350.618164,311.25 L350.618164,311.320312 C351.479496,311.431641 352.166501,311.768552 352.679199,312.331055 C353.191897,312.893557 353.448242,313.596675 353.448242,314.44043 C353.448242,315.553717 353.068851,316.42529 352.310059,317.055176 C351.551266,317.685062 350.498054,318 349.150391,318 Z M345.78418,306.714844 L345.78418,310.78418 L348.31543,310.78418 C349.252934,310.78418 349.969236,310.602541 350.464355,310.239258 C350.959475,309.875975 351.207031,309.351566 351.207031,308.666016 C351.207031,308.039059 350.999026,307.557131 350.583008,307.220215 C350.16699,306.883299 349.575199,306.714844 348.807617,306.714844 L345.78418,306.714844 Z M345.78418,316.602539 L348.913086,316.602539 C349.868169,316.602539 350.591794,316.412111 351.083984,316.03125 C351.576174,315.650389 351.822266,315.093754 351.822266,314.361328 C351.822266,313.628903 351.565921,313.076662 351.053223,312.70459 C350.540525,312.332518 349.777349,312.146484 348.763672,312.146484 L345.78418,312.146484 L345.78418,316.602539 Z" id="B" fill="#FFFFFF"></path>
            <g id="Value" transform="translate(242.000000, 36.000000)">
                <path d="M14.4814453,80 L17.3232422,71.5449219 L15.3955078,71.5449219 L13.4619141,78.1777344 L13.4208984,78.1777344 L11.4873047,71.5449219 L9.50683594,71.5449219 L12.3427734,80 L14.4814453,80 Z M23.7216797,80 L23.6220703,79.6894531 C23.5556637,79.4824208 23.4814457,79.244142 23.3994141,78.9746094 C23.3173824,78.7050768 23.2431644,78.4667979 23.1767578,78.2597656 L23.0771484,77.9492188 L20.1064453,77.9492188 L19.4619141,80 L17.6455078,80 L20.5810547,71.5449219 L22.6611328,71.5449219 L25.6025391,80 L23.7216797,80 Z M21.5712891,73.1621094 L21.4628906,73.5136719 C21.3906246,73.748048 21.3007818,74.0371077 21.1933594,74.3808594 L20.8710938,75.4121094 C20.7636713,75.7558611 20.6728519,76.0439442 20.5986328,76.2763672 L20.4873047,76.625 L22.6962891,76.625 L21.6123047,73.1621094 L21.5712891,73.1621094 Z M31.9306641,78.5351562 L28.2333984,78.5351562 L28.2333984,71.5449219 L26.4638672,71.5449219 L26.4638672,80 L31.9306641,80 L31.9306641,78.5351562 Z M34.7490234,71.5449219 L32.9794922,71.5449219 L32.9794922,77.0117188 C32.9794922,77.9453172 33.2998015,78.701169 33.9404297,79.2792969 C34.5810579,79.8574248 35.4423774,80.1464844 36.5244141,80.1464844 C37.6064507,80.1464844 38.4667937,79.8574248 39.1054688,79.2792969 C39.7441438,78.701169 40.0634766,77.9453172 40.0634766,77.0117188 L40.0634766,71.5449219 L38.2939453,71.5449219 L38.2939453,76.8359375 C38.2939453,77.378909 38.1406265,77.8134749 37.8339844,78.1396484 C37.5273422,78.4658219 37.0908231,78.6289062 36.5244141,78.6289062 C35.958005,78.6289062 35.5205094,78.4658219 35.2119141,78.1396484 C34.9033188,77.8134749 34.7490234,77.378909 34.7490234,76.8359375 L34.7490234,71.5449219 Z M47.0712891,78.5351562 L43.2392578,78.5351562 L43.2392578,76.4082031 L46.8544922,76.4082031 L46.8544922,75.0429688 L43.2392578,75.0429688 L43.2392578,73.0097656 L47.0712891,73.0097656 L47.0712891,71.5449219 L41.4697266,71.5449219 L41.4697266,80 L47.0712891,80 L47.0712891,78.5351562 Z" id="VALUE" fill="#FFFFFF"></path>
                <circle id="Oval-15" fill="#101117" cx="28" cy="28" r="28"></circle>
                <rect id="Rectangle-21" fill="#FFFFFF" transform="translate(35.406122, 17.016805) rotate(41.000000) translate(-35.406122, -17.016805) " x="34.4061222" y="3.51680497" width="2" height="27"></rect>
            </g>
            <g id="Value" transform="translate(21.000000, 36.000000)">
                <path d="M327.157227,71.5449219 L330.415039,71.5449219 C331.684577,71.5449219 332.673825,71.9081995 333.382812,72.6347656 C334.0918,73.3613318 334.446289,74.3964777 334.446289,75.7402344 C334.446289,77.0800848 334.0918,78.1249962 333.382812,78.875 C332.673825,79.6250038 331.684577,80 330.415039,80 L327.157227,80 L327.157227,71.5449219 Z M328.926758,73.0097656 L328.926758,78.5351562 L330.204102,78.5351562 C330.993168,78.5351562 331.596678,78.2978539 332.014648,77.8232422 C332.432619,77.3486304 332.641602,76.6562546 332.641602,75.7460938 C332.641602,74.8632768 332.42969,74.1865258 332.005859,73.7158203 C331.582029,73.2451148 330.981449,73.0097656 330.204102,73.0097656 L328.926758,73.0097656 Z M341.18457,78.5351562 L337.352539,78.5351562 L337.352539,76.4082031 L340.967773,76.4082031 L340.967773,75.0429688 L337.352539,75.0429688 L337.352539,73.0097656 L341.18457,73.0097656 L341.18457,71.5449219 L335.583008,71.5449219 L335.583008,80 L341.18457,80 L341.18457,78.5351562 Z M347.928711,78.5351562 L344.231445,78.5351562 L344.231445,71.5449219 L342.461914,71.5449219 L342.461914,80 L347.928711,80 L347.928711,78.5351562 Z M354.514648,80 L354.415039,79.6894531 C354.348632,79.4824208 354.274414,79.244142 354.192383,78.9746094 C354.110351,78.7050768 354.036133,78.4667979 353.969727,78.2597656 L353.870117,77.9492188 L350.899414,77.9492188 L350.254883,80 L348.438477,80 L351.374023,71.5449219 L353.454102,71.5449219 L356.395508,80 L354.514648,80 Z M352.364258,73.1621094 L352.255859,73.5136719 C352.183593,73.748048 352.093751,74.0371077 351.986328,74.3808594 L351.664062,75.4121094 C351.55664,75.7558611 351.465821,76.0439442 351.391602,76.2763672 L351.280273,76.625 L353.489258,76.625 L352.405273,73.1621094 L352.364258,73.1621094 Z M361.428711,80 L361.428711,76.8417969 L364.375977,71.5449219 L362.47168,71.5449219 L360.579102,75.1542969 L360.538086,75.1542969 L358.645508,71.5449219 L356.717773,71.5449219 L359.65918,76.8417969 L359.65918,80 L361.428711,80 Z" id="DELAY" fill="#FFFFFF"></path>
                <circle id="Oval-15" fill="#101117" cx="345" cy="28" r="28"></circle>
                <rect id="Rectangle-21" fill="#FFFFFF" transform="translate(349.447191, 14.929308) rotate(25.000000) translate(-349.447191, -14.929308) " x="348.447191" y="1.4293079" width="2" height="27"></rect>
                <rect id="Rectangle-22" fill="#101210" x="0" y="6" width="195" height="52"></rect>
            </g>
            <g id="Value" transform="translate(431.000000, 36.000000)">
                <path d="M0.4609375,71.5449219 L3.98828125,71.5449219 C4.85547309,71.5449219 5.56054416,71.8105442 6.10351562,72.3417969 C6.64648709,72.8730495 6.91796875,73.5742144 6.91796875,74.4453125 C6.91796875,75.3085981 6.63769812,76.0068333 6.07714844,76.5400391 C5.51659876,77.0732449 4.79102008,77.3398438 3.90039062,77.3398438 L2.23046875,77.3398438 L2.23046875,80 L0.4609375,80 L0.4609375,71.5449219 Z M2.23046875,72.9511719 L2.23046875,75.9511719 L3.51367188,75.9511719 C4.02148691,75.9511719 4.41601422,75.8212904 4.69726562,75.5615234 C4.97851703,75.3017565 5.11914062,74.9296899 5.11914062,74.4453125 C5.11914062,73.9648413 4.97851703,73.5957044 4.69726562,73.3378906 C4.41601422,73.0800768 4.02344002,72.9511719 3.51953125,72.9511719 L2.23046875,72.9511719 Z M9.73046875,72.9335938 L9.73046875,75.6230469 L11.2832031,75.6230469 C11.7285179,75.6230469 12.0751941,75.5039074 12.3232422,75.265625 C12.5712903,75.0273426 12.6953125,74.6992208 12.6953125,74.28125 C12.6953125,73.8710917 12.5664075,73.5439465 12.3085938,73.2998047 C12.05078,73.0556628 11.7031272,72.9335938 11.265625,72.9335938 L9.73046875,72.9335938 Z M9.73046875,76.9121094 L9.73046875,80 L7.9609375,80 L7.9609375,71.5449219 L11.453125,71.5449219 C12.4257861,71.5449219 13.1787083,71.7861304 13.7119141,72.2685547 C14.2451199,72.750979 14.5117188,73.408199 14.5117188,74.2402344 C14.5117188,74.7832058 14.377931,75.2724588 14.1103516,75.7080078 C13.8427721,76.1435569 13.4648462,76.4550772 12.9765625,76.6425781 L14.7578125,80 L12.7480469,80 L11.1777344,76.9121094 L9.73046875,76.9121094 Z M21.2734375,78.5351562 L17.4414062,78.5351562 L17.4414062,76.4082031 L21.0566406,76.4082031 L21.0566406,75.0429688 L17.4414062,75.0429688 L17.4414062,73.0097656 L21.2734375,73.0097656 L21.2734375,71.5449219 L15.671875,71.5449219 L15.671875,80 L21.2734375,80 L21.2734375,78.5351562 Z M26.4238281,77.3574219 L26.4238281,75.8632812 L22.5742188,75.8632812 L22.5742188,77.3574219 L26.4238281,77.3574219 Z M27.8535156,71.5449219 L31.1113281,71.5449219 C32.3808657,71.5449219 33.3701136,71.9081995 34.0791016,72.6347656 C34.7880895,73.3613318 35.1425781,74.3964777 35.1425781,75.7402344 C35.1425781,77.0800848 34.7880895,78.1249962 34.0791016,78.875 C33.3701136,79.6250038 32.3808657,80 31.1113281,80 L27.8535156,80 L27.8535156,71.5449219 Z M29.6230469,73.0097656 L29.6230469,78.5351562 L30.9003906,78.5351562 C31.6894571,78.5351562 32.2929667,78.2978539 32.7109375,77.8232422 C33.1289083,77.3486304 33.3378906,76.6562546 33.3378906,75.7460938 C33.3378906,74.8632768 33.1259787,74.1865258 32.7021484,73.7158203 C32.2783182,73.2451148 31.6777383,73.0097656 30.9003906,73.0097656 L29.6230469,73.0097656 Z M41.8808594,78.5351562 L38.0488281,78.5351562 L38.0488281,76.4082031 L41.6640625,76.4082031 L41.6640625,75.0429688 L38.0488281,75.0429688 L38.0488281,73.0097656 L41.8808594,73.0097656 L41.8808594,71.5449219 L36.2792969,71.5449219 L36.2792969,80 L41.8808594,80 L41.8808594,78.5351562 Z M48.625,78.5351562 L44.9277344,78.5351562 L44.9277344,71.5449219 L43.1582031,71.5449219 L43.1582031,80 L48.625,80 L48.625,78.5351562 Z M55.2109375,80 L55.1113281,79.6894531 C55.0449215,79.4824208 54.9707035,79.244142 54.8886719,78.9746094 C54.8066402,78.7050768 54.7324222,78.4667979 54.6660156,78.2597656 L54.5664062,77.9492188 L51.5957031,77.9492188 L50.9511719,80 L49.1347656,80 L52.0703125,71.5449219 L54.1503906,71.5449219 L57.0917969,80 L55.2109375,80 Z M53.0605469,73.1621094 L52.9521484,73.5136719 C52.8798825,73.748048 52.7900396,74.0371077 52.6826172,74.3808594 L52.3603516,75.4121094 C52.2529292,75.7558611 52.1621097,76.0439442 52.0878906,76.2763672 L51.9765625,76.625 L54.1855469,76.625 L53.1015625,73.1621094 L53.0605469,73.1621094 Z M62.125,80 L62.125,76.8417969 L65.0722656,71.5449219 L63.1679688,71.5449219 L61.2753906,75.1542969 L61.234375,75.1542969 L59.3417969,71.5449219 L57.4140625,71.5449219 L60.3554688,76.8417969 L60.3554688,80 L62.125,80 Z" id="PRE-DELAY" fill="#FFFFFF"></path>
                <circle id="Oval-15" fill="#101117" cx="32" cy="28" r="28"></circle>
                <rect id="Rectangle-21" fill="#FFFFFF" transform="translate(17.551372, 25.823397) rotate(-85.000000) translate(-17.551372, -25.823397) " x="16.5513716" y="12.3233975" width="2" height="27"></rect>
            </g>
            <g id="Value" transform="translate(531.000000, 36.000000)">
                <path d="M27.2695312,80 L27.2695312,71.5449219 L25.21875,71.5449219 L22.8164062,77.5390625 L22.7695312,77.5390625 L20.3671875,71.5449219 L18.3164062,71.5449219 L18.3164062,80 L19.8925781,80 L19.8925781,74.2929688 L19.9394531,74.2929688 L22.2363281,79.9179688 L23.3496094,79.9179688 L25.6464844,74.2929688 L25.6875,74.2929688 L25.6875,80 L27.2695312,80 Z M30.4453125,80 L30.4453125,71.5449219 L28.6757812,71.5449219 L28.6757812,80 L30.4453125,80 Z M31.4003906,80 L33.3105469,80 L35.1738281,77.0410156 L35.2207031,77.0410156 L37.0664062,80 L39.0878906,80 L36.3574219,75.7929688 L36.3574219,75.7519531 L39.1230469,71.5449219 L37.1425781,71.5449219 L35.3378906,74.5917969 L35.2910156,74.5917969 L33.4980469,71.5449219 L31.4121094,71.5449219 L34.0839844,75.7167969 L34.0839844,75.7636719 L33.8115234,76.1914062 C33.6298819,76.4765639 33.4062513,76.8290995 33.140625,77.2490234 C32.8749987,77.6689474 32.6083998,78.0898416 32.3408203,78.5117188 C32.0732408,78.9335959 31.8496103,79.2871079 31.6699219,79.5722656 L31.4003906,80 Z" id="MIX" fill="#FFFFFF"></path>
                <circle id="Oval-15" fill="#101117" cx="28" cy="28" r="28"></circle>
                <rect id="Rectangle-21" fill="#FFFFFF" x="26" y="0" width="2" height="27"></rect>
            </g>
            <g id="Value" transform="translate(395.000000, 150.000000)">
                <path d="M3.96386719,71.5449219 L7.49121094,71.5449219 C8.35840277,71.5449219 9.06347385,71.8105442 9.60644531,72.3417969 C10.1494168,72.8730495 10.4208984,73.5742144 10.4208984,74.4453125 C10.4208984,75.3085981 10.1406278,76.0068333 9.58007812,76.5400391 C9.01952845,77.0732449 8.29394977,77.3398438 7.40332031,77.3398438 L5.73339844,77.3398438 L5.73339844,80 L3.96386719,80 L3.96386719,71.5449219 Z M5.73339844,72.9511719 L5.73339844,75.9511719 L7.01660156,75.9511719 C7.5244166,75.9511719 7.91894391,75.8212904 8.20019531,75.5615234 C8.48144672,75.3017565 8.62207031,74.9296899 8.62207031,74.4453125 C8.62207031,73.9648413 8.48144672,73.5957044 8.20019531,73.3378906 C7.91894391,73.0800768 7.52636971,72.9511719 7.02246094,72.9511719 L5.73339844,72.9511719 Z M17.0009766,80 L16.9013672,79.6894531 C16.8349606,79.4824208 16.7607426,79.244142 16.6787109,78.9746094 C16.5966793,78.7050768 16.5224613,78.4667979 16.4560547,78.2597656 L16.3564453,77.9492188 L13.3857422,77.9492188 L12.7412109,80 L10.9248047,80 L13.8603516,71.5449219 L15.9404297,71.5449219 L18.8818359,80 L17.0009766,80 Z M14.8505859,73.1621094 L14.7421875,73.5136719 C14.6699215,73.748048 14.5800787,74.0371077 14.4726562,74.3808594 L14.1503906,75.4121094 C14.0429682,75.7558611 13.9521488,76.0439442 13.8779297,76.2763672 L13.7666016,76.625 L15.9755859,76.625 L14.8916016,73.1621094 L14.8505859,73.1621094 Z M21.5126953,72.9335938 L21.5126953,75.6230469 L23.0654297,75.6230469 C23.5107444,75.6230469 23.8574206,75.5039074 24.1054688,75.265625 C24.3535169,75.0273426 24.4775391,74.6992208 24.4775391,74.28125 C24.4775391,73.8710917 24.3486341,73.5439465 24.0908203,73.2998047 C23.8330065,73.0556628 23.4853538,72.9335938 23.0478516,72.9335938 L21.5126953,72.9335938 Z M21.5126953,76.9121094 L21.5126953,80 L19.7431641,80 L19.7431641,71.5449219 L23.2353516,71.5449219 C24.2080127,71.5449219 24.9609348,71.7861304 25.4941406,72.2685547 C26.0273464,72.750979 26.2939453,73.408199 26.2939453,74.2402344 C26.2939453,74.7832058 26.1601576,75.2724588 25.8925781,75.7080078 C25.6249987,76.1435569 25.2470728,76.4550772 24.7587891,76.6425781 L26.5400391,80 L24.5302734,80 L22.9599609,76.9121094 L21.5126953,76.9121094 Z M32.9912109,80 L32.8916016,79.6894531 C32.825195,79.4824208 32.750977,79.244142 32.6689453,78.9746094 C32.5869137,78.7050768 32.5126956,78.4667979 32.4462891,78.2597656 L32.3466797,77.9492188 L29.3759766,77.9492188 L28.7314453,80 L26.9150391,80 L29.8505859,71.5449219 L31.9306641,71.5449219 L34.8720703,80 L32.9912109,80 Z M30.8408203,73.1621094 L30.7324219,73.5136719 C30.6601559,73.748048 30.570313,74.0371077 30.4628906,74.3808594 L30.140625,75.4121094 C30.0332026,75.7558611 29.9423832,76.0439442 29.8681641,76.2763672 L29.7568359,76.625 L31.9658203,76.625 L30.8818359,73.1621094 L30.8408203,73.1621094 Z M44.6865234,80 L44.6865234,71.5449219 L42.6357422,71.5449219 L40.2333984,77.5390625 L40.1865234,77.5390625 L37.7841797,71.5449219 L35.7333984,71.5449219 L35.7333984,80 L37.3095703,80 L37.3095703,74.2929688 L37.3564453,74.2929688 L39.6533203,79.9179688 L40.7666016,79.9179688 L43.0634766,74.2929688 L43.1044922,74.2929688 L43.1044922,80 L44.6865234,80 Z M50.6748047,80 L52.4326172,80 L52.4326172,71.5449219 L50.6689453,71.5449219 L50.3408203,71.7734375 C50.1220692,71.925782 49.8681655,72.1025381 49.5791016,72.3037109 C49.2900376,72.5048838 49.0351574,72.6816399 48.8144531,72.8339844 L48.4833984,73.0625 L48.4833984,74.6621094 L48.8085938,74.4365234 C49.0253917,74.2861321 49.2763658,74.1123057 49.5615234,73.9150391 C49.8466811,73.7177725 50.0976552,73.5439461 50.3144531,73.3935547 L50.6396484,73.1679688 L50.6748047,73.1679688 L50.6748047,80 Z" id="PARAM-1" fill="#FFFFFF"></path>
                <circle id="Oval-15" fill="#101117" cx="28" cy="28" r="28"></circle>
                <rect id="Rectangle-21" fill="#FFFFFF" transform="translate(20.871128, 14.971412) rotate(-27.000000) translate(-20.871128, -14.971412) " x="19.8711283" y="1.47141192" width="2" height="27"></rect>
            </g>
            <g id="Value" transform="translate(483.000000, 150.000000)">
                <path d="M3.22558594,71.5449219 L6.75292969,71.5449219 C7.62012152,71.5449219 8.3251926,71.8105442 8.86816406,72.3417969 C9.41113553,72.8730495 9.68261719,73.5742144 9.68261719,74.4453125 C9.68261719,75.3085981 9.40234655,76.0068333 8.84179688,76.5400391 C8.2812472,77.0732449 7.55566852,77.3398438 6.66503906,77.3398438 L4.99511719,77.3398438 L4.99511719,80 L3.22558594,80 L3.22558594,71.5449219 Z M4.99511719,72.9511719 L4.99511719,75.9511719 L6.27832031,75.9511719 C6.78613535,75.9511719 7.18066266,75.8212904 7.46191406,75.5615234 C7.74316547,75.3017565 7.88378906,74.9296899 7.88378906,74.4453125 C7.88378906,73.9648413 7.74316547,73.5957044 7.46191406,73.3378906 C7.18066266,73.0800768 6.78808846,72.9511719 6.28417969,72.9511719 L4.99511719,72.9511719 Z M16.2626953,80 L16.1630859,79.6894531 C16.0966794,79.4824208 16.0224613,79.244142 15.9404297,78.9746094 C15.858398,78.7050768 15.78418,78.4667979 15.7177734,78.2597656 L15.6181641,77.9492188 L12.6474609,77.9492188 L12.0029297,80 L10.1865234,80 L13.1220703,71.5449219 L15.2021484,71.5449219 L18.1435547,80 L16.2626953,80 Z M14.1123047,73.1621094 L14.0039062,73.5136719 C13.9316403,73.748048 13.8417974,74.0371077 13.734375,74.3808594 L13.4121094,75.4121094 C13.304687,75.7558611 13.2138676,76.0439442 13.1396484,76.2763672 L13.0283203,76.625 L15.2373047,76.625 L14.1533203,73.1621094 L14.1123047,73.1621094 Z M20.7744141,72.9335938 L20.7744141,75.6230469 L22.3271484,75.6230469 C22.7724632,75.6230469 23.1191394,75.5039074 23.3671875,75.265625 C23.6152356,75.0273426 23.7392578,74.6992208 23.7392578,74.28125 C23.7392578,73.8710917 23.6103529,73.5439465 23.3525391,73.2998047 C23.0947253,73.0556628 22.7470725,72.9335938 22.3095703,72.9335938 L20.7744141,72.9335938 Z M20.7744141,76.9121094 L20.7744141,80 L19.0048828,80 L19.0048828,71.5449219 L22.4970703,71.5449219 C23.4697314,71.5449219 24.2226536,71.7861304 24.7558594,72.2685547 C25.2890652,72.750979 25.5556641,73.408199 25.5556641,74.2402344 C25.5556641,74.7832058 25.4218763,75.2724588 25.1542969,75.7080078 C24.8867174,76.1435569 24.5087915,76.4550772 24.0205078,76.6425781 L25.8017578,80 L23.7919922,80 L22.2216797,76.9121094 L20.7744141,76.9121094 Z M32.2529297,80 L32.1533203,79.6894531 C32.0869137,79.4824208 32.0126957,79.244142 31.9306641,78.9746094 C31.8486324,78.7050768 31.7744144,78.4667979 31.7080078,78.2597656 L31.6083984,77.9492188 L28.6376953,77.9492188 L27.9931641,80 L26.1767578,80 L29.1123047,71.5449219 L31.1923828,71.5449219 L34.1337891,80 L32.2529297,80 Z M30.1025391,73.1621094 L29.9941406,73.5136719 C29.9218746,73.748048 29.8320318,74.0371077 29.7246094,74.3808594 L29.4023438,75.4121094 C29.2949213,75.7558611 29.2041019,76.0439442 29.1298828,76.2763672 L29.0185547,76.625 L31.2275391,76.625 L30.1435547,73.1621094 L30.1025391,73.1621094 Z M43.9482422,80 L43.9482422,71.5449219 L41.8974609,71.5449219 L39.4951172,77.5390625 L39.4482422,77.5390625 L37.0458984,71.5449219 L34.9951172,71.5449219 L34.9951172,80 L36.5712891,80 L36.5712891,74.2929688 L36.6181641,74.2929688 L38.9150391,79.9179688 L40.0283203,79.9179688 L42.3251953,74.2929688 L42.3662109,74.2929688 L42.3662109,80 L43.9482422,80 Z M47.7275391,74.09375 L47.7275391,74.1171875 L49.3681641,74.1171875 L49.3681641,74.0878906 C49.3681641,73.6972637 49.5029283,73.3740247 49.7724609,73.1181641 C50.0419935,72.8623034 50.3818339,72.734375 50.7919922,72.734375 C51.1826191,72.734375 51.5029284,72.8447255 51.7529297,73.0654297 C52.0029309,73.2861339 52.1279297,73.556639 52.1279297,73.8769531 C52.1279297,74.1660171 52.0488289,74.4423815 51.890625,74.7060547 C51.7324211,74.9697279 51.4404318,75.314451 51.0146484,75.7402344 L47.8271484,78.8105469 L47.8271484,80 L53.9736328,80 L53.9736328,78.59375 L50.1591797,78.59375 L50.1591797,78.5585938 L52.2216797,76.5722656 C52.690432,76.1113258 53.0800766,75.6660178 53.390625,75.2363281 C53.7011734,74.8066385 53.8564453,74.3300807 53.8564453,73.8066406 C53.8564453,73.0956996 53.5781278,72.5097679 53.0214844,72.0488281 C52.464841,71.5878883 51.7412154,71.3574219 50.8505859,71.3574219 C49.9287063,71.3574219 49.1777373,71.6132787 48.5976562,72.125 C48.0175752,72.6367213 47.7275391,73.2929647 47.7275391,74.09375 Z" id="PARAM-2" fill="#FFFFFF"></path>
                <circle id="Oval-15" fill="#101117" cx="28" cy="28" r="28"></circle>
                <rect id="Rectangle-21" fill="#FFFFFF" transform="translate(15.308657, 20.250000) rotate(-60.000000) translate(-15.308657, -20.250000) " x="14.308657" y="6.75" width="2" height="27"></rect>
            </g>
            <g id="Value" transform="translate(572.000000, 150.000000)">
                <path d="M24.2431641,80 L24.2431641,71.5449219 L22.1923828,71.5449219 L19.7900391,77.5390625 L19.7431641,77.5390625 L17.3408203,71.5449219 L15.2900391,71.5449219 L15.2900391,80 L16.8662109,80 L16.8662109,74.2929688 L16.9130859,74.2929688 L19.2099609,79.9179688 L20.3232422,79.9179688 L22.6201172,74.2929688 L22.6611328,74.2929688 L22.6611328,80 L24.2431641,80 Z M29.4638672,71.3984375 C30.7177797,71.3984375 31.7109338,71.7910117 32.4433594,72.5761719 C33.1757849,73.3613321 33.5419922,74.4277276 33.5419922,75.7753906 C33.5419922,77.1230536 33.1757849,78.1884726 32.4433594,78.9716797 C31.7109338,79.7548867 30.7177797,80.1464844 29.4638672,80.1464844 C28.2099547,80.1464844 27.215824,79.7548867 26.4814453,78.9716797 C25.7470666,78.1884726 25.3798828,77.1230536 25.3798828,75.7753906 C25.3798828,74.4277276 25.7470666,73.3613321 26.4814453,72.5761719 C27.215824,71.7910117 28.2099547,71.3984375 29.4638672,71.3984375 Z M29.4638672,72.8808594 C28.7724575,72.8808594 28.2207052,73.141599 27.8085938,73.6630859 C27.3964823,74.1845729 27.1904297,74.8886674 27.1904297,75.7753906 C27.1904297,76.6582075 27.3964823,77.360349 27.8085938,77.8818359 C28.2207052,78.4033229 28.7724575,78.6640625 29.4638672,78.6640625 C30.1552769,78.6640625 30.7060526,78.4033229 31.1162109,77.8818359 C31.5263692,77.360349 31.7314453,76.6582075 31.7314453,75.7753906 C31.7314453,74.8886674 31.5253927,74.1845729 31.1132812,73.6630859 C30.7011698,73.141599 30.1513706,72.8808594 29.4638672,72.8808594 Z M34.6787109,71.5449219 L37.9365234,71.5449219 C39.206061,71.5449219 40.195309,71.9081995 40.9042969,72.6347656 C41.6132848,73.3613318 41.9677734,74.3964777 41.9677734,75.7402344 C41.9677734,77.0800848 41.6132848,78.1249962 40.9042969,78.875 C40.195309,79.6250038 39.206061,80 37.9365234,80 L34.6787109,80 L34.6787109,71.5449219 Z M36.4482422,73.0097656 L36.4482422,78.5351562 L37.7255859,78.5351562 C38.5146524,78.5351562 39.118162,78.2978539 39.5361328,77.8232422 C39.9541037,77.3486304 40.1630859,76.6562546 40.1630859,75.7460938 C40.1630859,74.8632768 39.951174,74.1865258 39.5273438,73.7158203 C39.1035135,73.2451148 38.5029336,73.0097656 37.7255859,73.0097656 L36.4482422,73.0097656 Z" id="MOD" fill="#FFFFFF"></path>
                <circle id="Oval-15" fill="#101117" cx="28" cy="28" r="28"></circle>
                <rect id="Rectangle-21" fill="#FFFFFF" transform="translate(38.691343, 20.250000) rotate(-300.000000) translate(-38.691343, -20.250000) " x="37.691343" y="6.75" width="2" height="27"></rect>
            </g>
            <g id="Type" transform="translate(27.000000, 122.000000)">
                <text id="TYPE" font-family=".SFNSDisplay-Bold, .SF NS Display" font-size="12" font-weight="bold" fill="#FFFFFF">
                    <tspan x="75.1816406" y="129">TYPE</tspan>
                </text>
                <circle id="Oval-15" fill="#101117" cx="90" cy="56" r="28"></circle>
                <circle id="Oval-16" fill="#073F3A" transform="translate(80.500000, 103.500000) rotate(2.000000) translate(-80.500000, -103.500000) " cx="80.5" cy="103.5" r="5.5"></circle>
                <circle id="Oval-16" fill="#65FF00" cx="58.5" cy="91.5" r="5.5"></circle>
                <circle id="Oval-16" fill="#073F3A" cx="45.5" cy="70.5" r="5.5"></circle>
                <circle id="Oval-16" fill="#073F3A" cx="45.5" cy="45.5" r="5.5"></circle>
                <circle id="Oval-16" fill="#073F3A" cx="58.5" cy="22.5" r="5.5"></circle>
                <circle id="Oval-16" fill="#073F3A" cx="80.5" cy="10.5" r="5.5"></circle>
                <circle id="Oval-16" fill="#073F3A" cx="104.5" cy="10.5" r="5.5"></circle>
                <circle id="Oval-16" fill="#073F3A" cx="126.5" cy="23.5" r="5.5"></circle>
                <circle id="Oval-16" fill="#073F3A" cx="139.5" cy="44.5" r="5.5"></circle>
                <circle id="Oval-16" fill="#073F3A" cx="139.5" cy="69.5" r="5.5"></circle>
                <circle id="Oval-16" fill="#073F3A" cx="126.5" cy="91.5" r="5.5"></circle>
                <circle id="Oval-16" fill="#073F3A" cx="104.5" cy="103.5" r="5.5"></circle>
                <path d="M38.5678711,106.735352 L38.5678711,109.435547 L40.3012695,109.435547 C40.7537458,109.435547 41.1028634,109.318361 41.3486328,109.083984 C41.5944023,108.849608 41.7172852,108.515953 41.7172852,108.083008 C41.7172852,107.659829 41.5887057,107.329428 41.331543,107.091797 C41.0743802,106.854165 40.7179385,106.735352 40.262207,106.735352 L38.5678711,106.735352 Z M38.5678711,110.211914 L38.5678711,113 L37.6889648,113 L37.6889648,105.954102 L40.3793945,105.954102 C41.0597365,105.954102 41.6041646,106.145343 42.0126953,106.527832 C42.421226,106.910321 42.6254883,107.418942 42.6254883,108.053711 C42.6254883,108.54525 42.500164,108.97005 42.2495117,109.328125 C41.9988594,109.6862 41.6521832,109.935221 41.2094727,110.075195 L42.840332,113 L41.8100586,113 L40.3012695,110.211914 L38.5678711,110.211914 Z M46.7026367,105.836914 C47.7019907,105.836914 48.4929984,106.164059 49.0756836,106.818359 C49.6583688,107.47266 49.949707,108.359695 49.949707,109.479492 C49.949707,110.596034 49.6583688,111.481442 49.0756836,112.135742 C48.4929984,112.790042 47.7019907,113.117188 46.7026367,113.117188 C45.7032828,113.117188 44.912275,112.790042 44.3295898,112.135742 C43.7469046,111.481442 43.4555664,110.596034 43.4555664,109.479492 C43.4555664,108.359695 43.7469046,107.47266 44.3295898,106.818359 C44.912275,106.164059 45.7032828,105.836914 46.7026367,105.836914 Z M46.7026367,106.647461 C45.9832321,106.647461 45.4127625,106.902178 44.9912109,107.411621 C44.5696594,107.921064 44.3588867,108.610347 44.3588867,109.479492 C44.3588867,110.345382 44.5696594,111.033038 44.9912109,111.54248 C45.4127625,112.051923 45.9832321,112.306641 46.7026367,112.306641 C47.4220414,112.306641 47.9925109,112.051923 48.4140625,111.54248 C48.8356141,111.033038 49.0463867,110.345382 49.0463867,109.479492 C49.0463867,108.610347 48.8356141,107.921064 48.4140625,107.411621 C47.9925109,106.902178 47.4220414,106.647461 46.7026367,106.647461 Z M54.0170898,105.836914 C55.0164438,105.836914 55.8074515,106.164059 56.3901367,106.818359 C56.9728219,107.47266 57.2641602,108.359695 57.2641602,109.479492 C57.2641602,110.596034 56.9728219,111.481442 56.3901367,112.135742 C55.8074515,112.790042 55.0164438,113.117188 54.0170898,113.117188 C53.0177359,113.117188 52.2267282,112.790042 51.644043,112.135742 C51.0613578,111.481442 50.7700195,110.596034 50.7700195,109.479492 C50.7700195,108.359695 51.0613578,107.47266 51.644043,106.818359 C52.2267282,106.164059 53.0177359,105.836914 54.0170898,105.836914 Z M54.0170898,106.647461 C53.2976852,106.647461 52.7272156,106.902178 52.3056641,107.411621 C51.8841125,107.921064 51.6733398,108.610347 51.6733398,109.479492 C51.6733398,110.345382 51.8841125,111.033038 52.3056641,111.54248 C52.7272156,112.051923 53.2976852,112.306641 54.0170898,112.306641 C54.7364945,112.306641 55.306964,112.051923 55.7285156,111.54248 C56.1500672,111.033038 56.3608398,110.345382 56.3608398,109.479492 C56.3608398,108.610347 56.1500672,107.921064 55.7285156,107.411621 C55.306964,106.902178 54.7364945,106.647461 54.0170898,106.647461 Z M65.3012695,113 L65.3012695,105.954102 L64.2807617,105.954102 L61.8491211,111.833008 L61.8100586,111.833008 L59.378418,105.954102 L58.3579102,105.954102 L58.3579102,113 L59.1782227,113 L59.1782227,107.570312 L59.2124023,107.570312 L61.4584961,112.951172 L62.2006836,112.951172 L64.4467773,107.570312 L64.480957,107.570312 L64.480957,113 L65.3012695,113 Z" id="ROOM" fill="#FFFFFF"></path>
                <path d="M26.4091797,95 L26.4091797,87.9541016 L25.5302734,87.9541016 L25.5302734,91.0009766 L21.6630859,91.0009766 L21.6630859,87.9541016 L20.7841797,87.9541016 L20.7841797,95 L21.6630859,95 L21.6630859,91.7919922 L25.5302734,91.7919922 L25.5302734,95 L26.4091797,95 Z M32.3564453,95 L32.2490234,94.6948242 C32.1774085,94.4913727 32.0952153,94.257 32.0024414,93.9916992 C31.9096675,93.7263984 31.8274743,93.4920258 31.7558594,93.2885742 L31.6484375,92.9833984 L28.8457031,92.9833984 L28.1376953,95 L27.2148438,95 L29.8125,87.9541016 L30.6816406,87.9541016 L33.2792969,95 L32.3564453,95 Z M30.2324219,89.0234375 L30.1176758,89.3481445 C30.041178,89.564617 29.9475917,89.8323552 29.8369141,90.1513672 C29.7262364,90.4703792 29.6147467,90.7893864 29.5024414,91.1083984 C29.3901362,91.4274104 29.2957361,91.6951487 29.2192383,91.9116211 L29.1044922,92.2363281 L31.3896484,92.2363281 L30.2617188,89.0234375 L30.2324219,89.0234375 Z M38.3623047,94.2089844 L34.9638672,94.2089844 L34.9638672,87.9541016 L34.0849609,87.9541016 L34.0849609,95 L38.3623047,95 L38.3623047,94.2089844 Z M43.6064453,94.2089844 L40.2080078,94.2089844 L40.2080078,87.9541016 L39.3291016,87.9541016 L39.3291016,95 L43.6064453,95 L43.6064453,94.2089844 Z" id="HALL" fill="#FFFFFF"></path>
                <path d="M4.72558594,66.9541016 L7.38671875,66.9541016 C8.04752935,66.9541016 8.58870232,67.1640604 9.01025391,67.5839844 C9.43180549,68.0039083 9.64257812,68.5475227 9.64257812,69.2148438 C9.64257812,69.8821648 9.43017791,70.4274067 9.00537109,70.8505859 C8.58056428,71.2737651 8.03776372,71.4853516 7.37695312,71.4853516 L5.60449219,71.4853516 L5.60449219,74 L4.72558594,74 L4.72558594,66.9541016 Z M5.60449219,67.7353516 L5.60449219,70.7041016 L7.15722656,70.7041016 C7.66178638,70.7041016 8.05159368,70.5730807 8.32666016,70.3110352 C8.60172664,70.0489896 8.73925781,69.6835961 8.73925781,69.2148438 C8.73925781,68.7493466 8.60172664,68.3863945 8.32666016,68.1259766 C8.05159368,67.8655586 7.66178638,67.7353516 7.15722656,67.7353516 L5.60449219,67.7353516 Z M14.9257812,73.2089844 L11.5273438,73.2089844 L11.5273438,66.9541016 L10.6484375,66.9541016 L10.6484375,74 L14.9257812,74 L14.9257812,73.2089844 Z M20.4726562,74 L20.3652344,73.6948242 C20.2936194,73.4913727 20.2114262,73.257 20.1186523,72.9916992 C20.0258784,72.7263984 19.9436853,72.4920258 19.8720703,72.2885742 L19.7646484,71.9833984 L16.9619141,71.9833984 L16.2539062,74 L15.3310547,74 L17.9287109,66.9541016 L18.7978516,66.9541016 L21.3955078,74 L20.4726562,74 Z M18.3486328,68.0234375 L18.2338867,68.3481445 C18.1573889,68.564617 18.0638026,68.8323552 17.953125,69.1513672 C17.8424474,69.4703792 17.7309576,69.7893864 17.6186523,70.1083984 C17.5063471,70.4274104 17.411947,70.6951487 17.3354492,70.9116211 L17.2207031,71.2363281 L19.5058594,71.2363281 L18.3779297,68.0234375 L18.3486328,68.0234375 Z M24.9111328,74 L24.9111328,67.7451172 L27.1816406,67.7451172 L27.1816406,66.9541016 L21.7617188,66.9541016 L21.7617188,67.7451172 L24.0322266,67.7451172 L24.0322266,74 L24.9111328,74 Z M32.4746094,73.2089844 L28.9882812,73.2089844 L28.9882812,70.7871094 L32.2939453,70.7871094 L32.2939453,70.0058594 L28.9882812,70.0058594 L28.9882812,67.7451172 L32.4746094,67.7451172 L32.4746094,66.9541016 L28.109375,66.9541016 L28.109375,74 L32.4746094,74 L32.4746094,73.2089844 Z" id="PLATE" fill="#FFFFFF"></path>
                <path d="M139.72168,96 L139.72168,90.4873047 L139.765625,90.4873047 L143.623047,96 L144.477539,96 L144.477539,88.9541016 L143.608398,88.9541016 L143.608398,94.4863281 L143.564453,94.4863281 L139.707031,88.9541016 L138.852539,88.9541016 L138.852539,96 L139.72168,96 Z M148.818359,88.8369141 C149.817713,88.8369141 150.608721,89.1640592 151.191406,89.8183594 C151.774091,90.4726595 152.06543,91.3596949 152.06543,92.4794922 C152.06543,93.5960342 151.774091,94.481442 151.191406,95.1357422 C150.608721,95.7900423 149.817713,96.1171875 148.818359,96.1171875 C147.819005,96.1171875 147.027998,95.7900423 146.445312,95.1357422 C145.862627,94.481442 145.571289,93.5960342 145.571289,92.4794922 C145.571289,91.3596949 145.862627,90.4726595 146.445312,89.8183594 C147.027998,89.1640592 147.819005,88.8369141 148.818359,88.8369141 Z M148.818359,89.6474609 C148.098955,89.6474609 147.528485,89.9021784 147.106934,90.4116211 C146.685382,90.9210637 146.474609,91.6103472 146.474609,92.4794922 C146.474609,93.3453819 146.685382,94.0330378 147.106934,94.5424805 C147.528485,95.0519231 148.098955,95.3066406 148.818359,95.3066406 C149.537764,95.3066406 150.108234,95.0519231 150.529785,94.5424805 C150.951337,94.0330378 151.162109,93.3453819 151.162109,92.4794922 C151.162109,91.6103472 150.951337,90.9210637 150.529785,90.4116211 C150.108234,89.9021784 149.537764,89.6474609 148.818359,89.6474609 Z M154.02832,96 L154.02832,90.4873047 L154.072266,90.4873047 L157.929688,96 L158.78418,96 L158.78418,88.9541016 L157.915039,88.9541016 L157.915039,94.4863281 L157.871094,94.4863281 L154.013672,88.9541016 L153.15918,88.9541016 L153.15918,96 L154.02832,96 Z M164.428711,95.2089844 L161.030273,95.2089844 L161.030273,88.9541016 L160.151367,88.9541016 L160.151367,96 L164.428711,96 L164.428711,95.2089844 Z M166.274414,96 L166.274414,88.9541016 L165.395508,88.9541016 L165.395508,96 L166.274414,96 Z M168.510742,96 L168.510742,90.4873047 L168.554688,90.4873047 L172.412109,96 L173.266602,96 L173.266602,88.9541016 L172.397461,88.9541016 L172.397461,94.4863281 L172.353516,94.4863281 L168.496094,88.9541016 L167.641602,88.9541016 L167.641602,96 L168.510742,96 Z M178.999023,95.2089844 L175.512695,95.2089844 L175.512695,92.7871094 L178.818359,92.7871094 L178.818359,92.0058594 L175.512695,92.0058594 L175.512695,89.7451172 L178.999023,89.7451172 L178.999023,88.9541016 L174.633789,88.9541016 L174.633789,96 L178.999023,96 L178.999023,95.2089844 Z M184.736328,96 L184.628906,95.6948242 C184.557291,95.4913727 184.475098,95.257 184.382324,94.9916992 C184.28955,94.7263984 184.207357,94.4920258 184.135742,94.2885742 L184.02832,93.9833984 L181.225586,93.9833984 L180.517578,96 L179.594727,96 L182.192383,88.9541016 L183.061523,88.9541016 L185.65918,96 L184.736328,96 Z M182.612305,90.0234375 L182.497559,90.3481445 C182.421061,90.564617 182.327475,90.8323552 182.216797,91.1513672 C182.106119,91.4703792 181.994629,91.7893864 181.882324,92.1083984 C181.770019,92.4274104 181.675619,92.6951487 181.599121,92.9116211 L181.484375,93.2363281 L183.769531,93.2363281 L182.641602,90.0234375 L182.612305,90.0234375 Z M187.34375,89.7353516 L187.34375,92.4355469 L189.077148,92.4355469 C189.529625,92.4355469 189.878742,92.3183605 190.124512,92.0839844 C190.370281,91.8496082 190.493164,91.5159527 190.493164,91.0830078 C190.493164,90.6598286 190.364585,90.3294283 190.107422,90.0917969 C189.850259,89.8541655 189.493817,89.7353516 189.038086,89.7353516 L187.34375,89.7353516 Z M187.34375,93.2119141 L187.34375,96 L186.464844,96 L186.464844,88.9541016 L189.155273,88.9541016 C189.835615,88.9541016 190.380044,89.1453431 190.788574,89.527832 C191.197105,89.9103209 191.401367,90.4189421 191.401367,91.0537109 C191.401367,91.5452499 191.276043,91.9700503 191.025391,92.328125 C190.774738,92.6861997 190.428062,92.9352207 189.985352,93.0751953 L191.616211,96 L190.585938,96 L189.077148,93.2119141 L187.34375,93.2119141 Z" id="NONLINEAR" fill="#FFFFFF"></path>
                <path d="M119.472656,8.1171875 C120.250655,8.1171875 120.892738,7.93001489 121.398926,7.55566406 C121.905113,7.18131323 122.237955,6.64583682 122.397461,5.94921875 L121.508789,5.94921875 C121.381835,6.3789084 121.140952,6.71256392 120.786133,6.95019531 C120.431313,7.18782671 119.99512,7.30664062 119.477539,7.30664062 C118.780921,7.30664062 118.227541,7.05029553 117.817383,6.53759766 C117.407225,6.02489978 117.202148,5.3372439 117.202148,4.47460938 C117.202148,3.6184853 117.408852,2.9332708 117.822266,2.41894531 C118.235679,1.90461982 118.785804,1.64746094 119.472656,1.64746094 C119.977216,1.64746094 120.415037,1.7866197 120.786133,2.06494141 C121.157228,2.34326311 121.398111,2.71353936 121.508789,3.17578125 L122.397461,3.17578125 C122.286783,2.47265273 121.963707,1.90706594 121.428223,1.47900391 C120.892738,1.05094187 120.240889,0.836914062 119.472656,0.836914062 C118.50911,0.836914062 117.739261,1.16650061 117.163086,1.82568359 C116.586911,2.48486658 116.298828,3.36783301 116.298828,4.47460938 C116.298828,5.59115142 116.585284,6.47737302 117.158203,7.13330078 C117.731123,7.78922854 118.502599,8.1171875 119.472656,8.1171875 Z M127.709961,7.20898438 L124.311523,7.20898438 L124.311523,0.954101562 L123.432617,0.954101562 L123.432617,8 L127.709961,8 L127.709961,7.20898438 Z M131.650391,0.836914062 C132.649745,0.836914062 133.440752,1.16405923 134.023438,1.81835938 C134.606123,2.47265952 134.897461,3.35969492 134.897461,4.47949219 C134.897461,5.59603423 134.606123,6.48144204 134.023438,7.13574219 C133.440752,7.79004233 132.649745,8.1171875 131.650391,8.1171875 C130.651037,8.1171875 129.860029,7.79004233 129.277344,7.13574219 C128.694659,6.48144204 128.40332,5.59603423 128.40332,4.47949219 C128.40332,3.35969492 128.694659,2.47265952 129.277344,1.81835938 C129.860029,1.16405923 130.651037,0.836914062 131.650391,0.836914062 Z M131.650391,1.64746094 C130.930986,1.64746094 130.360516,1.90217844 129.938965,2.41162109 C129.517413,2.92106375 129.306641,3.61034722 129.306641,4.47949219 C129.306641,5.34538193 129.517413,6.03303782 129.938965,6.54248047 C130.360516,7.05192312 130.930986,7.30664062 131.650391,7.30664062 C132.369795,7.30664062 132.940265,7.05192312 133.361816,6.54248047 C133.783368,6.03303782 133.994141,5.34538193 133.994141,4.47949219 C133.994141,3.61034722 133.783368,2.92106375 133.361816,2.41162109 C132.940265,1.90217844 132.369795,1.64746094 131.650391,1.64746094 Z M136.870117,0.954101562 L135.991211,0.954101562 L135.991211,5.52929688 C135.991211,6.28125376 136.239418,6.90055095 136.73584,7.38720703 C137.232262,7.87386311 137.916662,8.1171875 138.789062,8.1171875 C139.664718,8.1171875 140.349932,7.87386311 140.844727,7.38720703 C141.339521,6.90055095 141.586914,6.28125376 141.586914,5.52929688 L141.586914,0.954101562 L140.708008,0.954101562 L140.708008,5.47070312 C140.708008,6.00130474 140.54118,6.43993967 140.20752,6.78662109 C139.873859,7.13330251 139.401045,7.30664062 138.789062,7.30664062 C138.180335,7.30664062 137.708335,7.13330251 137.373047,6.78662109 C137.037759,6.43993967 136.870117,6.00130474 136.870117,5.47070312 L136.870117,0.954101562 Z M142.954102,0.954101562 L145.371094,0.954101562 C146.416021,0.954101562 147.231442,1.26334326 147.817383,1.88183594 C148.403323,2.50032861 148.696289,3.36457778 148.696289,4.47460938 C148.696289,5.58464097 148.404137,6.44970393 147.819824,7.06982422 C147.235511,7.68994451 146.419276,8 145.371094,8 L142.954102,8 L142.954102,0.954101562 Z M143.833008,1.74511719 L143.833008,7.20898438 L145.3125,7.20898438 C146.11003,7.20898438 146.723631,6.97298413 147.15332,6.50097656 C147.58301,6.02896899 147.797852,5.3567752 147.797852,4.484375 C147.797852,3.60220913 147.583824,2.92513257 147.155762,2.453125 C146.7277,1.98111743 146.113285,1.74511719 145.3125,1.74511719 L143.833008,1.74511719 Z" id="CLOUD" fill="#FFFFFF"></path>
                <path d="M0.739746094,48.0615234 C0.782064014,48.6832713 1.04166428,49.1813132 1.51855469,49.5556641 C1.99544509,49.9300149 2.60660435,50.1171875 3.35205078,50.1171875 C4.16260171,50.1171875 4.80468513,49.9292011 5.27832031,49.5532227 C5.75195549,49.1772442 5.98876953,48.6669954 5.98876953,48.0224609 C5.98876953,47.5179011 5.82926592,47.1142593 5.51025391,46.8115234 C5.19124189,46.5087875 4.66715859,46.266277 3.93798828,46.0839844 L3.20068359,45.8886719 C2.72216558,45.7649733 2.37793074,45.6176766 2.16796875,45.4467773 C1.95800676,45.2758781 1.85302734,45.0569675 1.85302734,44.7900391 C1.85302734,44.4449853 1.99706887,44.1650401 2.28515625,43.9501953 C2.57324363,43.7353505 2.94514746,43.6279297 3.40087891,43.6279297 C3.85986558,43.6279297 4.2325832,43.7369781 4.51904297,43.9550781 C4.80550273,44.1731782 4.96826152,44.4710268 5.00732422,44.8486328 L5.88623047,44.8486328 C5.86669912,44.2561819 5.6274437,43.7727883 5.16845703,43.3984375 C4.70947036,43.0240867 4.13004907,42.8369141 3.43017578,42.8369141 C2.69775024,42.8369141 2.09961169,43.0224591 1.63574219,43.3935547 C1.17187268,43.7646503 0.939941406,44.2431611 0.939941406,44.8291016 C0.939941406,45.7503301 1.56493516,46.3704411 2.81494141,46.6894531 L3.71826172,46.9238281 C4.19352451,47.0442714 4.53938694,47.2005199 4.75585938,47.3925781 C4.97233181,47.5846364 5.08056641,47.8304021 5.08056641,48.1298828 C5.08056641,48.4749366 4.92513176,48.7605783 4.61425781,48.9868164 C4.30338386,49.2130545 3.91032139,49.3261719 3.43505859,49.3261719 C2.933754,49.3261719 2.5170915,49.2106131 2.18505859,48.9794922 C1.85302568,48.7483712 1.66585308,48.4423847 1.62353516,48.0615234 L0.739746094,48.0615234 Z M7.01416016,42.9541016 L9.67529297,42.9541016 C10.3361036,42.9541016 10.8772765,43.1640604 11.2988281,43.5839844 C11.7203797,44.0039083 11.9311523,44.5475227 11.9311523,45.2148438 C11.9311523,45.8821648 11.7187521,46.4274067 11.2939453,46.8505859 C10.8691385,47.2737651 10.3263379,47.4853516 9.66552734,47.4853516 L7.89306641,47.4853516 L7.89306641,50 L7.01416016,50 L7.01416016,42.9541016 Z M7.89306641,43.7353516 L7.89306641,46.7041016 L9.44580078,46.7041016 C9.9503606,46.7041016 10.3401679,46.5730807 10.6152344,46.3110352 C10.8903009,46.0489896 11.027832,45.6835961 11.027832,45.2148438 C11.027832,44.7493466 10.8903009,44.3863945 10.6152344,44.1259766 C10.3401679,43.8655586 9.9503606,43.7353516 9.44580078,43.7353516 L7.89306641,43.7353516 Z M13.815918,43.7353516 L13.815918,46.4355469 L15.5493164,46.4355469 C16.0017926,46.4355469 16.3509102,46.3183605 16.5966797,46.0839844 C16.8424491,45.8496082 16.965332,45.5159527 16.965332,45.0830078 C16.965332,44.6598286 16.8367526,44.3294283 16.5795898,44.0917969 C16.3224271,43.8541655 15.9659854,43.7353516 15.5102539,43.7353516 L13.815918,43.7353516 Z M13.815918,47.2119141 L13.815918,50 L12.9370117,50 L12.9370117,42.9541016 L15.6274414,42.9541016 C16.3077833,42.9541016 16.8522115,43.1453431 17.2607422,43.527832 C17.6692729,43.9103209 17.8735352,44.4189421 17.8735352,45.0537109 C17.8735352,45.5452499 17.7482109,45.9700503 17.4975586,46.328125 C17.2469063,46.6861997 16.9002301,46.9352207 16.4575195,47.0751953 L18.0883789,50 L17.0581055,50 L15.5493164,47.2119141 L13.815918,47.2119141 Z M19.855957,50 L19.855957,42.9541016 L18.9770508,42.9541016 L18.9770508,50 L19.855957,50 Z M22.0922852,50 L22.0922852,44.4873047 L22.1362305,44.4873047 L25.9936523,50 L26.8481445,50 L26.8481445,42.9541016 L25.9790039,42.9541016 L25.9790039,48.4863281 L25.9350586,48.4863281 L22.0776367,42.9541016 L21.2231445,42.9541016 L21.2231445,50 L22.0922852,50 Z M34.1577148,47.0849609 L34.1577148,46.4160156 L31.2915039,46.4160156 L31.2915039,47.1875 L33.2788086,47.1875 L33.2788086,47.3144531 C33.2788086,47.9036488 33.083498,48.3829734 32.6928711,48.7524414 C32.3022441,49.1219094 31.7944367,49.3066406 31.1694336,49.3066406 C30.4532842,49.3066406 29.8868836,49.0494817 29.4702148,48.5351562 C29.0535461,48.0208308 28.8452148,47.320968 28.8452148,46.4355469 C28.8452148,45.5631467 29.0511047,44.8803736 29.4628906,44.387207 C29.8746765,43.8940405 30.4435185,43.6474609 31.1694336,43.6474609 C31.6642277,43.6474609 32.0882144,43.777668 32.4414062,44.0380859 C32.7945981,44.2985039 33.0444329,44.6663388 33.190918,45.1416016 L34.1137695,45.1416016 C33.9835605,44.4417283 33.6507188,43.8826518 33.1152344,43.4643555 C32.5797499,43.0460591 31.9311562,42.8369141 31.1694336,42.8369141 C30.1831005,42.8369141 29.3986032,43.1624316 28.815918,43.8134766 C28.2332328,44.4645215 27.9418945,45.3401638 27.9418945,46.4404297 C27.9418945,47.560227 28.2340466,48.4529589 28.8183594,49.1186523 C29.4026722,49.7843458 30.1863558,50.1171875 31.1694336,50.1171875 C32.1101935,50.1171875 32.8434219,49.8494493 33.3691406,49.3139648 C33.8948594,48.7784804 34.1577148,48.0354865 34.1577148,47.0849609 Z" id="SPRING" fill="#FFFFFF"></path>
                <path d="M14.2485352,24.0615234 C14.2908531,24.6832713 14.5504533,25.1813132 15.0273438,25.5556641 C15.5042342,25.9300149 16.1153934,26.1171875 16.8608398,26.1171875 C17.6713908,26.1171875 18.3134742,25.9292011 18.7871094,25.5532227 C19.2607446,25.1772442 19.4975586,24.6669954 19.4975586,24.0224609 C19.4975586,23.5179011 19.338055,23.1142593 19.019043,22.8115234 C18.700031,22.5087875 18.1759477,22.266277 17.4467773,22.0839844 L16.7094727,21.8886719 C16.2309546,21.7649733 15.8867198,21.6176766 15.6767578,21.4467773 C15.4667958,21.2758781 15.3618164,21.0569675 15.3618164,20.7900391 C15.3618164,20.4449853 15.5058579,20.1650401 15.7939453,19.9501953 C16.0820327,19.7353505 16.4539365,19.6279297 16.909668,19.6279297 C17.3686546,19.6279297 17.7413723,19.7369781 18.027832,19.9550781 C18.3142918,20.1731782 18.4770506,20.4710268 18.5161133,20.8486328 L19.3950195,20.8486328 C19.3754882,20.2561819 19.1362328,19.7727883 18.6772461,19.3984375 C18.2182594,19.0240867 17.6388381,18.8369141 16.9389648,18.8369141 C16.2065393,18.8369141 15.6084008,19.0224591 15.1445312,19.3935547 C14.6806617,19.7646503 14.4487305,20.2431611 14.4487305,20.8291016 C14.4487305,21.7503301 15.0737242,22.3704411 16.3237305,22.6894531 L17.2270508,22.9238281 C17.7023136,23.0442714 18.048176,23.2005199 18.2646484,23.3925781 C18.4811209,23.5846364 18.5893555,23.8304021 18.5893555,24.1298828 C18.5893555,24.4749366 18.4339208,24.7605783 18.1230469,24.9868164 C17.8121729,25.2130545 17.4191104,25.3261719 16.9438477,25.3261719 C16.4425431,25.3261719 16.0258806,25.2106131 15.6938477,24.9794922 C15.3618147,24.7483712 15.1746421,24.4423847 15.1323242,24.0615234 L14.2485352,24.0615234 Z M24.434082,20.4091797 L24.4829102,20.4091797 L26.1088867,26 L26.9389648,26 L28.8579102,18.9541016 L27.9399414,18.9541016 L26.5288086,24.7060547 L26.4897461,24.7060547 L24.902832,18.9541016 L24.0141602,18.9541016 L22.4272461,24.7060547 L22.3881836,24.7060547 L20.9770508,18.9541016 L20.059082,18.9541016 L21.9780273,26 L22.8081055,26 L22.925293,25.597168 C23.0034184,25.3286119 23.1043288,24.9819357 23.2280273,24.5571289 C23.3517259,24.1323221 23.4827467,23.6814802 23.6210938,23.2045898 C23.7594408,22.7276994 23.8904616,22.2768576 24.0141602,21.8520508 C24.1378587,21.427244 24.2387691,21.0805677 24.3168945,20.8120117 L24.434082,20.4091797 Z M34.1264648,25.2089844 L30.6401367,25.2089844 L30.6401367,22.7871094 L33.9458008,22.7871094 L33.9458008,22.0058594 L30.6401367,22.0058594 L30.6401367,19.7451172 L34.1264648,19.7451172 L34.1264648,18.9541016 L29.7612305,18.9541016 L29.7612305,26 L34.1264648,26 L34.1264648,25.2089844 Z M39.5610352,25.2089844 L36.1625977,25.2089844 L36.1625977,18.9541016 L35.2836914,18.9541016 L35.2836914,26 L39.5610352,26 L39.5610352,25.2089844 Z M44.8051758,25.2089844 L41.4067383,25.2089844 L41.4067383,18.9541016 L40.527832,18.9541016 L40.527832,26 L44.8051758,26 L44.8051758,25.2089844 Z" id="SWELL" fill="#FFFFFF"></path>
                <path d="M35.7695312,8 L33.0205078,8 L33.0205078,0.954101562 L35.7792969,0.954101562 C36.3815134,0.954101562 36.868976,1.11523276 37.2416992,1.4375 C37.6144224,1.75976724 37.8007812,2.18456768 37.8007812,2.71191406 C37.8007812,3.07649922 37.6827811,3.40852715 37.4467773,3.70800781 C37.2107736,4.00748848 36.9235043,4.18815073 36.5849609,4.25 L36.5849609,4.2890625 C37.063479,4.35091177 37.4451483,4.53808438 37.7299805,4.85058594 C38.0148126,5.1630875 38.1572266,5.55370859 38.1572266,6.02246094 C38.1572266,6.64095361 37.9464539,7.12516101 37.5249023,7.47509766 C37.1033508,7.8250343 36.5182329,8 35.7695312,8 Z M33.8994141,1.73046875 L33.8994141,3.99121094 L35.3056641,3.99121094 C35.8265,3.99121094 36.2244452,3.89030049 36.4995117,3.68847656 C36.7745782,3.48665264 36.9121094,3.1953144 36.9121094,2.81445312 C36.9121094,2.46614409 36.7965506,2.19840588 36.5654297,2.01123047 C36.3343087,1.82405505 36.005536,1.73046875 35.5791016,1.73046875 L33.8994141,1.73046875 Z M33.8994141,7.22363281 L35.6376953,7.22363281 C36.1682969,7.22363281 36.5703111,7.1178396 36.84375,6.90625 C37.1171889,6.6946604 37.2539062,6.3854187 37.2539062,5.97851562 C37.2539062,5.57161255 37.1114923,5.26481223 36.8266602,5.05810547 C36.541828,4.85139871 36.1178414,4.74804688 35.5546875,4.74804688 L33.8994141,4.74804688 L33.8994141,7.22363281 Z M43.4306641,7.20898438 L40.0322266,7.20898438 L40.0322266,0.954101562 L39.1533203,0.954101562 L39.1533203,8 L43.4306641,8 L43.4306641,7.20898438 Z M47.3710938,0.836914062 C48.3704477,0.836914062 49.1614554,1.16405923 49.7441406,1.81835938 C50.3268258,2.47265952 50.6181641,3.35969492 50.6181641,4.47949219 C50.6181641,5.59603423 50.3268258,6.48144204 49.7441406,7.13574219 C49.1614554,7.79004233 48.3704477,8.1171875 47.3710938,8.1171875 C46.3717398,8.1171875 45.5807321,7.79004233 44.9980469,7.13574219 C44.4153617,6.48144204 44.1240234,5.59603423 44.1240234,4.47949219 C44.1240234,3.35969492 44.4153617,2.47265952 44.9980469,1.81835938 C45.5807321,1.16405923 46.3717398,0.836914062 47.3710938,0.836914062 Z M47.3710938,1.64746094 C46.6516891,1.64746094 46.0812196,1.90217844 45.659668,2.41162109 C45.2381164,2.92106375 45.0273438,3.61034722 45.0273438,4.47949219 C45.0273438,5.34538193 45.2381164,6.03303782 45.659668,6.54248047 C46.0812196,7.05192312 46.6516891,7.30664062 47.3710938,7.30664062 C48.0904984,7.30664062 48.6609679,7.05192312 49.0825195,6.54248047 C49.5040711,6.03303782 49.7148438,5.34538193 49.7148438,4.47949219 C49.7148438,3.61034722 49.5040711,2.92106375 49.0825195,2.41162109 C48.6609679,1.90217844 48.0904984,1.64746094 47.3710938,1.64746094 Z M54.6855469,0.836914062 C55.6849008,0.836914062 56.4759085,1.16405923 57.0585938,1.81835938 C57.641279,2.47265952 57.9326172,3.35969492 57.9326172,4.47949219 C57.9326172,5.59603423 57.641279,6.48144204 57.0585938,7.13574219 C56.4759085,7.79004233 55.6849008,8.1171875 54.6855469,8.1171875 C53.6861929,8.1171875 52.8951852,7.79004233 52.3125,7.13574219 C51.7298148,6.48144204 51.4384766,5.59603423 51.4384766,4.47949219 C51.4384766,3.35969492 51.7298148,2.47265952 52.3125,1.81835938 C52.8951852,1.16405923 53.6861929,0.836914062 54.6855469,0.836914062 Z M54.6855469,1.64746094 C53.9661422,1.64746094 53.3956727,1.90217844 52.9741211,2.41162109 C52.5525695,2.92106375 52.3417969,3.61034722 52.3417969,4.47949219 C52.3417969,5.34538193 52.5525695,6.03303782 52.9741211,6.54248047 C53.3956727,7.05192312 53.9661422,7.30664062 54.6855469,7.30664062 C55.4049515,7.30664062 55.9754211,7.05192312 56.3969727,6.54248047 C56.8185242,6.03303782 57.0292969,5.34538193 57.0292969,4.47949219 C57.0292969,3.61034722 56.8185242,2.92106375 56.3969727,2.41162109 C55.9754211,1.90217844 55.4049515,1.64746094 54.6855469,1.64746094 Z M65.9697266,8 L65.9697266,0.954101562 L64.9492188,0.954101562 L62.5175781,6.83300781 L62.4785156,6.83300781 L60.046875,0.954101562 L59.0263672,0.954101562 L59.0263672,8 L59.8466797,8 L59.8466797,2.5703125 L59.8808594,2.5703125 L62.1269531,7.95117188 L62.8691406,7.95117188 L65.1152344,2.5703125 L65.1494141,2.5703125 L65.1494141,8 L65.9697266,8 Z" id="BLOOM" fill="#FFFFFF"></path>
                <path d="M118.624512,106.735352 L118.624512,109.435547 L120.35791,109.435547 C120.810386,109.435547 121.159504,109.318361 121.405273,109.083984 C121.651043,108.849608 121.773926,108.515953 121.773926,108.083008 C121.773926,107.659829 121.645346,107.329428 121.388184,107.091797 C121.131021,106.854165 120.774579,106.735352 120.318848,106.735352 L118.624512,106.735352 Z M118.624512,110.211914 L118.624512,113 L117.745605,113 L117.745605,105.954102 L120.436035,105.954102 C121.116377,105.954102 121.660805,106.145343 122.069336,106.527832 C122.477867,106.910321 122.682129,107.418942 122.682129,108.053711 C122.682129,108.54525 122.556805,108.97005 122.306152,109.328125 C122.0555,109.6862 121.708824,109.935221 121.266113,110.075195 L122.896973,113 L121.866699,113 L120.35791,110.211914 L118.624512,110.211914 Z M128.150879,112.208984 L124.664551,112.208984 L124.664551,109.787109 L127.970215,109.787109 L127.970215,109.005859 L124.664551,109.005859 L124.664551,106.745117 L128.150879,106.745117 L128.150879,105.954102 L123.785645,105.954102 L123.785645,113 L128.150879,113 L128.150879,112.208984 Z M130.187012,113 L130.187012,109.948242 L133.307129,109.948242 L133.307129,109.166992 L130.187012,109.166992 L130.187012,106.745117 L133.585449,106.745117 L133.585449,105.954102 L129.308105,105.954102 L129.308105,113 L130.187012,113 Z M138.86377,112.208984 L135.465332,112.208984 L135.465332,105.954102 L134.586426,105.954102 L134.586426,113 L138.86377,113 L138.86377,112.208984 Z M144.195801,112.208984 L140.709473,112.208984 L140.709473,109.787109 L144.015137,109.787109 L144.015137,109.005859 L140.709473,109.005859 L140.709473,106.745117 L144.195801,106.745117 L144.195801,105.954102 L139.830566,105.954102 L139.830566,113 L144.195801,113 L144.195801,112.208984 Z M148.253418,113.117188 C149.031417,113.117188 149.6735,112.930015 150.179688,112.555664 C150.685875,112.181313 151.018717,111.645837 151.178223,110.949219 L150.289551,110.949219 C150.162597,111.378908 149.921714,111.712564 149.566895,111.950195 C149.212075,112.187827 148.775881,112.306641 148.258301,112.306641 C147.561683,112.306641 147.008303,112.050296 146.598145,111.537598 C146.187986,111.0249 145.98291,110.337244 145.98291,109.474609 C145.98291,108.618485 146.189614,107.933271 146.603027,107.418945 C147.016441,106.90462 147.566566,106.647461 148.253418,106.647461 C148.757978,106.647461 149.195799,106.78662 149.566895,107.064941 C149.93799,107.343263 150.178873,107.713539 150.289551,108.175781 L151.178223,108.175781 C151.067545,107.472653 150.744469,106.907066 150.208984,106.479004 C149.6735,106.050942 149.021651,105.836914 148.253418,105.836914 C147.289871,105.836914 146.520022,106.166501 145.943848,106.825684 C145.367673,107.484867 145.07959,108.367833 145.07959,109.474609 C145.07959,110.591151 145.366045,111.477373 145.938965,112.133301 C146.511884,112.789229 147.283361,113.117188 148.253418,113.117188 Z M154.92334,113 L154.92334,106.745117 L157.193848,106.745117 L157.193848,105.954102 L151.773926,105.954102 L151.773926,106.745117 L154.044434,106.745117 L154.044434,113 L154.92334,113 Z M159.000488,113 L159.000488,105.954102 L158.121582,105.954102 L158.121582,113 L159.000488,113 Z M163.341309,105.836914 C164.340663,105.836914 165.13167,106.164059 165.714355,106.818359 C166.297041,107.47266 166.588379,108.359695 166.588379,109.479492 C166.588379,110.596034 166.297041,111.481442 165.714355,112.135742 C165.13167,112.790042 164.340663,113.117188 163.341309,113.117188 C162.341955,113.117188 161.550947,112.790042 160.968262,112.135742 C160.385577,111.481442 160.094238,110.596034 160.094238,109.479492 C160.094238,108.359695 160.385577,107.47266 160.968262,106.818359 C161.550947,106.164059 162.341955,105.836914 163.341309,105.836914 Z M163.341309,106.647461 C162.621904,106.647461 162.051434,106.902178 161.629883,107.411621 C161.208331,107.921064 160.997559,108.610347 160.997559,109.479492 C160.997559,110.345382 161.208331,111.033038 161.629883,111.54248 C162.051434,112.051923 162.621904,112.306641 163.341309,112.306641 C164.060713,112.306641 164.631183,112.051923 165.052734,111.54248 C165.474286,111.033038 165.685059,110.345382 165.685059,109.479492 C165.685059,108.610347 165.474286,107.921064 165.052734,107.411621 C164.631183,106.902178 164.060713,106.647461 163.341309,106.647461 Z M168.55127,113 L168.55127,107.487305 L168.595215,107.487305 L172.452637,113 L173.307129,113 L173.307129,105.954102 L172.437988,105.954102 L172.437988,111.486328 L172.394043,111.486328 L168.536621,105.954102 L167.682129,105.954102 L167.682129,113 L168.55127,113 Z M174.337402,111.061523 C174.37972,111.683271 174.639321,112.181313 175.116211,112.555664 C175.593101,112.930015 176.204261,113.117188 176.949707,113.117188 C177.760258,113.117188 178.402341,112.929201 178.875977,112.553223 C179.349612,112.177244 179.586426,111.666995 179.586426,111.022461 C179.586426,110.517901 179.426922,110.114259 179.10791,109.811523 C178.788898,109.508788 178.264815,109.266277 177.535645,109.083984 L176.79834,108.888672 C176.319822,108.764973 175.975587,108.617677 175.765625,108.446777 C175.555663,108.275878 175.450684,108.056967 175.450684,107.790039 C175.450684,107.444985 175.594725,107.16504 175.882812,106.950195 C176.1709,106.73535 176.542804,106.62793 176.998535,106.62793 C177.457522,106.62793 177.830239,106.736978 178.116699,106.955078 C178.403159,107.173178 178.565918,107.471027 178.60498,107.848633 L179.483887,107.848633 C179.464355,107.256182 179.2251,106.772788 178.766113,106.398438 C178.307127,106.024087 177.727705,105.836914 177.027832,105.836914 C176.295406,105.836914 175.697268,106.022459 175.233398,106.393555 C174.769529,106.76465 174.537598,107.243161 174.537598,107.829102 C174.537598,108.75033 175.162591,109.370441 176.412598,109.689453 L177.315918,109.923828 C177.791181,110.044271 178.137043,110.20052 178.353516,110.392578 C178.569988,110.584636 178.678223,110.830402 178.678223,111.129883 C178.678223,111.474937 178.522788,111.760578 178.211914,111.986816 C177.90104,112.213055 177.507978,112.326172 177.032715,112.326172 C176.53141,112.326172 176.114748,112.210613 175.782715,111.979492 C175.450682,111.748371 175.263509,111.442385 175.221191,111.061523 L174.337402,111.061523 Z" id="REFLECTIONS" fill="#FFFFFF"></path>
                <path d="M157.911133,74 L157.911133,66.9541016 L156.890625,66.9541016 L154.458984,72.8330078 L154.419922,72.8330078 L151.988281,66.9541016 L150.967773,66.9541016 L150.967773,74 L151.788086,74 L151.788086,68.5703125 L151.822266,68.5703125 L154.068359,73.9511719 L154.810547,73.9511719 L157.056641,68.5703125 L157.09082,68.5703125 L157.09082,74 L157.911133,74 Z M163.858398,74 L163.750977,73.6948242 C163.679362,73.4913727 163.597168,73.257 163.504395,72.9916992 C163.411621,72.7263984 163.329427,72.4920258 163.257812,72.2885742 L163.150391,71.9833984 L160.347656,71.9833984 L159.639648,74 L158.716797,74 L161.314453,66.9541016 L162.183594,66.9541016 L164.78125,74 L163.858398,74 Z M161.734375,68.0234375 L161.619629,68.3481445 C161.543131,68.564617 161.449545,68.8323552 161.338867,69.1513672 C161.22819,69.4703792 161.1167,69.7893864 161.004395,70.1083984 C160.892089,70.4274104 160.797689,70.6951487 160.721191,70.9116211 L160.606445,71.2363281 L162.891602,71.2363281 L161.763672,68.0234375 L161.734375,68.0234375 Z M171.529297,71.0849609 L171.529297,70.4160156 L168.663086,70.4160156 L168.663086,71.1875 L170.650391,71.1875 L170.650391,71.3144531 C170.650391,71.9036488 170.45508,72.3829734 170.064453,72.7524414 C169.673826,73.1219094 169.166019,73.3066406 168.541016,73.3066406 C167.824866,73.3066406 167.258466,73.0494817 166.841797,72.5351562 C166.425128,72.0208308 166.216797,71.320968 166.216797,70.4355469 C166.216797,69.5631467 166.422687,68.8803736 166.834473,68.387207 C167.246259,67.8940405 167.815101,67.6474609 168.541016,67.6474609 C169.03581,67.6474609 169.459796,67.777668 169.812988,68.0380859 C170.16618,68.2985039 170.416015,68.6663388 170.5625,69.1416016 L171.485352,69.1416016 C171.355143,68.4417283 171.022301,67.8826518 170.486816,67.4643555 C169.951332,67.0460591 169.302738,66.8369141 168.541016,66.8369141 C167.554683,66.8369141 166.770185,67.1624316 166.1875,67.8134766 C165.604815,68.4645215 165.313477,69.3401638 165.313477,70.4404297 C165.313477,71.560227 165.605629,72.4529589 166.189941,73.1186523 C166.774254,73.7843458 167.557938,74.1171875 168.541016,74.1171875 C169.481776,74.1171875 170.215004,73.8494493 170.740723,73.3139648 C171.266441,72.7784804 171.529297,72.0354865 171.529297,71.0849609 Z M173.521484,74 L173.521484,68.4873047 L173.56543,68.4873047 L177.422852,74 L178.277344,74 L178.277344,66.9541016 L177.408203,66.9541016 L177.408203,72.4863281 L177.364258,72.4863281 L173.506836,66.9541016 L172.652344,66.9541016 L172.652344,74 L173.521484,74 Z M184.009766,73.2089844 L180.523438,73.2089844 L180.523438,70.7871094 L183.829102,70.7871094 L183.829102,70.0058594 L180.523438,70.0058594 L180.523438,67.7451172 L184.009766,67.7451172 L184.009766,66.9541016 L179.644531,66.9541016 L179.644531,74 L184.009766,74 L184.009766,73.2089844 Z M187.876953,74 L187.876953,67.7451172 L190.147461,67.7451172 L190.147461,66.9541016 L184.727539,66.9541016 L184.727539,67.7451172 L186.998047,67.7451172 L186.998047,74 L187.876953,74 Z M194.048828,66.8369141 C195.048182,66.8369141 195.83919,67.1640592 196.421875,67.8183594 C197.00456,68.4726595 197.295898,69.3596949 197.295898,70.4794922 C197.295898,71.5960342 197.00456,72.481442 196.421875,73.1357422 C195.83919,73.7900423 195.048182,74.1171875 194.048828,74.1171875 C193.049474,74.1171875 192.258466,73.7900423 191.675781,73.1357422 C191.093096,72.481442 190.801758,71.5960342 190.801758,70.4794922 C190.801758,69.3596949 191.093096,68.4726595 191.675781,67.8183594 C192.258466,67.1640592 193.049474,66.8369141 194.048828,66.8369141 Z M194.048828,67.6474609 C193.329423,67.6474609 192.758954,67.9021784 192.337402,68.4116211 C191.915851,68.9210637 191.705078,69.6103472 191.705078,70.4794922 C191.705078,71.3453819 191.915851,72.0330378 192.337402,72.5424805 C192.758954,73.0519231 193.329423,73.3066406 194.048828,73.3066406 C194.768233,73.3066406 195.338702,73.0519231 195.760254,72.5424805 C196.181805,72.0330378 196.392578,71.3453819 196.392578,70.4794922 C196.392578,69.6103472 196.181805,68.9210637 195.760254,68.4116211 C195.338702,67.9021784 194.768233,67.6474609 194.048828,67.6474609 Z" id="MAGNETO" fill="#FFFFFF"></path>
                <path d="M150.162109,48.0615234 C150.204427,48.6832713 150.464028,49.1813132 150.940918,49.5556641 C151.417808,49.9300149 152.028968,50.1171875 152.774414,50.1171875 C153.584965,50.1171875 154.227048,49.9292011 154.700684,49.5532227 C155.174319,49.1772442 155.411133,48.6669954 155.411133,48.0224609 C155.411133,47.5179011 155.251629,47.1142593 154.932617,46.8115234 C154.613605,46.5087875 154.089522,46.266277 153.360352,46.0839844 L152.623047,45.8886719 C152.144529,45.7649733 151.800294,45.6176766 151.590332,45.4467773 C151.38037,45.2758781 151.275391,45.0569675 151.275391,44.7900391 C151.275391,44.4449853 151.419432,44.1650401 151.70752,43.9501953 C151.995607,43.7353505 152.367511,43.6279297 152.823242,43.6279297 C153.282229,43.6279297 153.654946,43.7369781 153.941406,43.9550781 C154.227866,44.1731782 154.390625,44.4710268 154.429688,44.8486328 L155.308594,44.8486328 C155.289062,44.2561819 155.049807,43.7727883 154.59082,43.3984375 C154.131834,43.0240867 153.552412,42.8369141 152.852539,42.8369141 C152.120114,42.8369141 151.521975,43.0224591 151.058105,43.3935547 C150.594236,43.7646503 150.362305,44.2431611 150.362305,44.8291016 C150.362305,45.7503301 150.987298,46.3704411 152.237305,46.6894531 L153.140625,46.9238281 C153.615888,47.0442714 153.96175,47.2005199 154.178223,47.3925781 C154.394695,47.5846364 154.50293,47.8304021 154.50293,48.1298828 C154.50293,48.4749366 154.347495,48.7605783 154.036621,48.9868164 C153.725747,49.2130545 153.332685,49.3261719 152.857422,49.3261719 C152.356117,49.3261719 151.939455,49.2106131 151.607422,48.9794922 C151.275389,48.7483712 151.088216,48.4423847 151.045898,48.0615234 L150.162109,48.0615234 Z M162.061523,50 L162.061523,42.9541016 L161.182617,42.9541016 L161.182617,46.0009766 L157.31543,46.0009766 L157.31543,42.9541016 L156.436523,42.9541016 L156.436523,50 L157.31543,50 L157.31543,46.7919922 L161.182617,46.7919922 L161.182617,50 L162.061523,50 Z M164.307617,50 L164.307617,42.9541016 L163.428711,42.9541016 L163.428711,50 L164.307617,50 Z M172.618164,50 L172.618164,42.9541016 L171.597656,42.9541016 L169.166016,48.8330078 L169.126953,48.8330078 L166.695312,42.9541016 L165.674805,42.9541016 L165.674805,50 L166.495117,50 L166.495117,44.5703125 L166.529297,44.5703125 L168.775391,49.9511719 L169.517578,49.9511719 L171.763672,44.5703125 L171.797852,44.5703125 L171.797852,50 L172.618164,50 Z M180.928711,50 L180.928711,42.9541016 L179.908203,42.9541016 L177.476562,48.8330078 L177.4375,48.8330078 L175.005859,42.9541016 L173.985352,42.9541016 L173.985352,50 L174.805664,50 L174.805664,44.5703125 L174.839844,44.5703125 L177.085938,49.9511719 L177.828125,49.9511719 L180.074219,44.5703125 L180.108398,44.5703125 L180.108398,50 L180.928711,50 Z M186.661133,49.2089844 L183.174805,49.2089844 L183.174805,46.7871094 L186.480469,46.7871094 L186.480469,46.0058594 L183.174805,46.0058594 L183.174805,43.7451172 L186.661133,43.7451172 L186.661133,42.9541016 L182.295898,42.9541016 L182.295898,50 L186.661133,50 L186.661133,49.2089844 Z M188.697266,43.7353516 L188.697266,46.4355469 L190.430664,46.4355469 C190.88314,46.4355469 191.232258,46.3183605 191.478027,46.0839844 C191.723797,45.8496082 191.84668,45.5159527 191.84668,45.0830078 C191.84668,44.6598286 191.7181,44.3294283 191.460938,44.0917969 C191.203775,43.8541655 190.847333,43.7353516 190.391602,43.7353516 L188.697266,43.7353516 Z M188.697266,47.2119141 L188.697266,50 L187.818359,50 L187.818359,42.9541016 L190.508789,42.9541016 C191.189131,42.9541016 191.733559,43.1453431 192.14209,43.527832 C192.550621,43.9103209 192.754883,44.4189421 192.754883,45.0537109 C192.754883,45.5452499 192.629559,45.9700503 192.378906,46.328125 C192.128254,46.6861997 191.781578,46.9352207 191.338867,47.0751953 L192.969727,50 L191.939453,50 L190.430664,47.2119141 L188.697266,47.2119141 Z" id="SHIMMER" fill="#FFFFFF"></path>
                <path d="M142.937988,26.1171875 C143.715987,26.1171875 144.35807,25.9300149 144.864258,25.5556641 C145.370445,25.1813132 145.703287,24.6458368 145.862793,23.9492188 L144.974121,23.9492188 C144.847167,24.3789084 144.606284,24.7125639 144.251465,24.9501953 C143.896645,25.1878267 143.460452,25.3066406 142.942871,25.3066406 C142.246253,25.3066406 141.692873,25.0502955 141.282715,24.5375977 C140.872557,24.0248998 140.66748,23.3372439 140.66748,22.4746094 C140.66748,21.6184853 140.874184,20.9332708 141.287598,20.4189453 C141.701011,19.9046198 142.251136,19.6474609 142.937988,19.6474609 C143.442548,19.6474609 143.880369,19.7866197 144.251465,20.0649414 C144.62256,20.3432631 144.863443,20.7135394 144.974121,21.1757812 L145.862793,21.1757812 C145.752115,20.4726527 145.429039,19.9070659 144.893555,19.4790039 C144.35807,19.0509419 143.706221,18.8369141 142.937988,18.8369141 C141.974442,18.8369141 141.204593,19.1665006 140.628418,19.8256836 C140.052243,20.4848666 139.76416,21.367833 139.76416,22.4746094 C139.76416,23.5911514 140.050616,24.477373 140.623535,25.1333008 C141.196455,25.7892285 141.967931,26.1171875 142.937988,26.1171875 Z M152.522949,26 L152.522949,18.9541016 L151.644043,18.9541016 L151.644043,22.0009766 L147.776855,22.0009766 L147.776855,18.9541016 L146.897949,18.9541016 L146.897949,26 L147.776855,26 L147.776855,22.7919922 L151.644043,22.7919922 L151.644043,26 L152.522949,26 Z M156.86377,18.8369141 C157.863123,18.8369141 158.654131,19.1640592 159.236816,19.8183594 C159.819502,20.4726595 160.11084,21.3596949 160.11084,22.4794922 C160.11084,23.5960342 159.819502,24.481442 159.236816,25.1357422 C158.654131,25.7900423 157.863123,26.1171875 156.86377,26.1171875 C155.864416,26.1171875 155.073408,25.7900423 154.490723,25.1357422 C153.908037,24.481442 153.616699,23.5960342 153.616699,22.4794922 C153.616699,21.3596949 153.908037,20.4726595 154.490723,19.8183594 C155.073408,19.1640592 155.864416,18.8369141 156.86377,18.8369141 Z M156.86377,19.6474609 C156.144365,19.6474609 155.573895,19.9021784 155.152344,20.4116211 C154.730792,20.9210637 154.52002,21.6103472 154.52002,22.4794922 C154.52002,23.3453819 154.730792,24.0330378 155.152344,24.5424805 C155.573895,25.0519231 156.144365,25.3066406 156.86377,25.3066406 C157.583174,25.3066406 158.153644,25.0519231 158.575195,24.5424805 C158.996747,24.0330378 159.20752,23.3453819 159.20752,22.4794922 C159.20752,21.6103472 158.996747,20.9210637 158.575195,20.4116211 C158.153644,19.9021784 157.583174,19.6474609 156.86377,19.6474609 Z M162.083496,19.7353516 L162.083496,22.4355469 L163.816895,22.4355469 C164.269371,22.4355469 164.618488,22.3183605 164.864258,22.0839844 C165.110027,21.8496082 165.23291,21.5159527 165.23291,21.0830078 C165.23291,20.6598286 165.104331,20.3294283 164.847168,20.0917969 C164.590005,19.8541655 164.233563,19.7353516 163.777832,19.7353516 L162.083496,19.7353516 Z M162.083496,23.2119141 L162.083496,26 L161.20459,26 L161.20459,18.9541016 L163.89502,18.9541016 C164.575361,18.9541016 165.11979,19.1453431 165.52832,19.527832 C165.936851,19.9103209 166.141113,20.4189421 166.141113,21.0537109 C166.141113,21.5452499 166.015789,21.9700503 165.765137,22.328125 C165.514484,22.6861997 165.167808,22.9352207 164.725098,23.0751953 L166.355957,26 L165.325684,26 L163.816895,23.2119141 L162.083496,23.2119141 Z M171.824707,26 L171.717285,25.6948242 C171.64567,25.4913727 171.563477,25.257 171.470703,24.9916992 C171.377929,24.7263984 171.295736,24.4920258 171.224121,24.2885742 L171.116699,23.9833984 L168.313965,23.9833984 L167.605957,26 L166.683105,26 L169.280762,18.9541016 L170.149902,18.9541016 L172.747559,26 L171.824707,26 Z M169.700684,20.0234375 L169.585938,20.3481445 C169.50944,20.564617 169.415853,20.8323552 169.305176,21.1513672 C169.194498,21.4703792 169.083008,21.7893864 168.970703,22.1083984 C168.858398,22.4274104 168.763998,22.6951487 168.6875,22.9116211 L168.572754,23.2363281 L170.85791,23.2363281 L169.72998,20.0234375 L169.700684,20.0234375 Z M177.830566,25.2089844 L174.432129,25.2089844 L174.432129,18.9541016 L173.553223,18.9541016 L173.553223,26 L177.830566,26 L177.830566,25.2089844 Z M183.162598,25.2089844 L179.67627,25.2089844 L179.67627,22.7871094 L182.981934,22.7871094 L182.981934,22.0058594 L179.67627,22.0058594 L179.67627,19.7451172 L183.162598,19.7451172 L183.162598,18.9541016 L178.797363,18.9541016 L178.797363,26 L183.162598,26 L183.162598,25.2089844 Z" id="CHORALE" fill="#FFFFFF"></path>
            </g>
            <g id="Oval-7">
                <use fill="#5E625A" fill-rule="evenodd" xlink:href="#path-1"></use>
                <circle stroke="#9D9D9C" stroke-width="7" cx="67.5" cy="370.5" r="18"></circle>
            </g>
            <g id="Oval-7">
                <use fill="#5E625A" fill-rule="evenodd" xlink:href="#path-2"></use>
                <circle stroke="#9D9D9C" stroke-width="7" cx="323.5" cy="370.5" r="18"></circle>
            </g>
            <g id="Oval-7">
                <use fill="#5E625A" fill-rule="evenodd" xlink:href="#path-3"></use>
                <circle stroke="#9D9D9C" stroke-width="7" cx="579.5" cy="370.5" r="18"></circle>
            </g>
            <circle id="Oval-16" stroke="#26D7EF" stroke-width="3" fill="#65FF00" cx="72.5" cy="310.5" r="5.5"></circle>
            <circle id="Oval-16" stroke="#26D7EF" stroke-width="3" fill="#C8C0C3" cx="577.5" cy="310.5" r="5.5"></circle>
            <circle id="Oval-16" stroke="#26D7EF" stroke-width="3" fill="#C8C0C3" cx="324.5" cy="310.5" r="5.5"></circle>
            <text id="920-mS" font-family="AndaleMono, Andale Mono" font-size="30" font-weight="normal" fill="#65FF00">
                <tspan x="93.4912109" y="80">920 mS</tspan>
            </text>
        </g>
    </g>
</svg>