<?xml version="1.0" encoding="UTF-8"?>
<svg width="225px" height="364px" viewBox="0 0 225 364" version="1.1" xmlns="http://www.w3.org/2000/svg" xmlns:xlink="http://www.w3.org/1999/xlink">
    <!-- Generator: Sketch 43.2 (39069) - http://www.bohemiancoding.com/sketch -->
    <title>pedal-flanger</title>
    <desc>Created with Sketch.</desc>
    <defs>
        <circle id="path-1" cx="28" cy="28" r="28"></circle>
        <circle id="path-2" cx="28" cy="28" r="28"></circle>
        <circle id="path-3" cx="29" cy="28" r="28"></circle>
        <circle id="path-4" cx="28" cy="28" r="28"></circle>
        <circle id="path-5" cx="112.5" cy="295.5" r="21.5"></circle>
    </defs>
    <g id="Page-1" stroke="none" stroke-width="1" fill="none" fill-rule="evenodd">
        <g id="MF-Flange">
            <g id="Body">
                <path d="M0,9.99215818 C0,4.4736416 4.46913811,0 9.99484814,0 L215.005152,0 C220.525154,0 225,4.47780839 225,10.0026129 L225,223.53542 L221.379008,354.010739 C221.225901,359.527656 216.625257,364 211.092225,364 L13.8008707,364 C8.27274462,364 3.67052611,359.517516 3.52169048,353.994124 L0,223.30178 L0,9.99215818 Z" id="Rectangle" fill="#171719"></path>
                <path d="M7.996214,237.964373 C7.84086374,233.008075 11.7259925,229 16.6860935,229 L207.001002,229 C211.963814,229 215.887768,233.01743 215.773334,237.981597 L213.661301,329.602135 C213.546533,334.580816 209.410956,338.613936 204.443008,338.598217 L20.1557959,338.015105 C15.1756556,337.999347 11.0045173,333.941348 10.8482708,328.956458 L7.996214,237.964373 L7.996214,237.964373 Z" id="Rectangle-18" stroke="#CDCCD2" stroke-width="2"></path>
                <rect id="Rectangle-19" stroke="#CDCCD2" stroke-width="2" x="8" y="12" width="208" height="204" rx="10"></rect>
                <path d="M209.862363,18.0016817 C213.804371,14.1347597 217,15.4700217 217,21.0054252 L217,206.994575 C217,212.520419 212.516698,217 206.994928,217 L17.005072,217 C11.4794233,217 10.1937163,213.867116 14.1376367,209.998318 L209.862363,18.0016817 Z" id="Rectangle-19" fill="#CDCCD2"></path>
            </g>
            <g id="Rate" transform="translate(29.000000, 36.000000)">
                <g id="Oval-11">
                    <use fill="#D4D3D6" fill-rule="evenodd" xlink:href="#path-1"></use>
                    <circle stroke="#29282B" stroke-width="10" cx="28" cy="28" r="23"></circle>
                </g>
                <circle id="Oval-13" fill="#FFFFFF" cx="45" cy="13" r="2"></circle>
                <path d="M16.4707031,64.1113281 L16.4707031,66.3525391 L17.7646484,66.3525391 C18.135744,66.3525391 18.4246409,66.2532562 18.6313477,66.0546875 C18.8380544,65.8561188 18.9414062,65.582684 18.9414062,65.234375 C18.9414062,64.8925764 18.8339854,64.6199554 18.6191406,64.4165039 C18.4042958,64.2130524 18.1145852,64.1113281 17.75,64.1113281 L16.4707031,64.1113281 Z M16.4707031,67.4267578 L16.4707031,70 L14.9960938,70 L14.9960938,62.9541016 L17.90625,62.9541016 C18.7168009,62.9541016 19.3442361,63.1551087 19.7885742,63.5571289 C20.2329124,63.9591491 20.4550781,64.5068325 20.4550781,65.2001953 C20.4550781,65.6526715 20.3435884,66.0603823 20.1206055,66.4233398 C19.8976226,66.7862974 19.5826843,67.0458977 19.1757812,67.2021484 L20.6601562,70 L18.9853516,70 L17.6767578,67.4267578 L16.4707031,67.4267578 Z M27.0361328,70 L26.953125,69.7412109 C26.8977862,69.568684 26.8359378,69.3701183 26.7675781,69.1455078 C26.6992184,68.9208973 26.6373701,68.7223316 26.5820312,68.5498047 L26.4990234,68.2910156 L24.0234375,68.2910156 L23.4863281,70 L21.9726562,70 L24.4189453,62.9541016 L26.1523438,62.9541016 L28.6035156,70 L27.0361328,70 Z M25.2441406,64.3017578 L25.1538086,64.5947266 C25.0935869,64.79004 25.0187179,65.030923 24.9291992,65.3173828 L24.6606445,66.1767578 C24.5711259,66.4632176 24.495443,66.7032868 24.4335938,66.8969727 L24.3408203,67.1875 L26.1816406,67.1875 L25.2783203,64.3017578 L25.2441406,64.3017578 Z M32.5527344,70 L32.5527344,64.1748047 L34.6181641,64.1748047 L34.6181641,62.9541016 L29.0126953,62.9541016 L29.0126953,64.1748047 L31.078125,64.1748047 L31.078125,70 L32.5527344,70 Z M41.1015625,68.7792969 L37.9082031,68.7792969 L37.9082031,67.0068359 L40.9208984,67.0068359 L40.9208984,65.8691406 L37.9082031,65.8691406 L37.9082031,64.1748047 L41.1015625,64.1748047 L41.1015625,62.9541016 L36.4335938,62.9541016 L36.4335938,70 L41.1015625,70 L41.1015625,68.7792969 Z" id="RATE" fill="#CDCCD2"></path>
            </g>
            <g id="Depth" transform="translate(144.000000, 36.000000)">
                <g id="Oval-11">
                    <use fill="#D4D3D6" fill-rule="evenodd" xlink:href="#path-2"></use>
                    <circle stroke="#29282B" stroke-width="10" cx="28" cy="28" r="23"></circle>
                </g>
                <circle id="Oval-13" fill="#FFFFFF" cx="47" cy="41" r="2"></circle>
                <path d="M10.3994141,62.9541016 L13.1142578,62.9541016 C14.1722058,62.9541016 14.9965791,63.2568329 15.5874023,63.8623047 C16.1782256,64.4677765 16.4736328,65.330398 16.4736328,66.4501953 C16.4736328,67.5667374 16.1782256,68.4374969 15.5874023,69.0625 C14.9965791,69.6875031 14.1722058,70 13.1142578,70 L10.3994141,70 L10.3994141,62.9541016 Z M11.8740234,64.1748047 L11.8740234,68.7792969 L12.9384766,68.7792969 C13.5960319,68.7792969 14.0989566,68.5815449 14.4472656,68.1860352 C14.7955747,67.7905254 14.9697266,67.2135455 14.9697266,66.4550781 C14.9697266,65.7193974 14.7931333,65.1554382 14.4399414,64.7631836 C14.0867495,64.370929 13.5862663,64.1748047 12.9384766,64.1748047 L11.8740234,64.1748047 Z M23.0888672,68.7792969 L19.8955078,68.7792969 L19.8955078,67.0068359 L22.9082031,67.0068359 L22.9082031,65.8691406 L19.8955078,65.8691406 L19.8955078,64.1748047 L23.0888672,64.1748047 L23.0888672,62.9541016 L18.4208984,62.9541016 L18.4208984,70 L23.0888672,70 L23.0888672,68.7792969 Z M25.1533203,62.9541016 L28.0927734,62.9541016 C28.8154333,62.9541016 29.4029925,63.1754535 29.8554688,63.6181641 C30.307945,64.0608746 30.5341797,64.6451787 30.5341797,65.3710938 C30.5341797,66.0904984 30.3006208,66.6723611 29.8334961,67.1166992 C29.3663714,67.5610374 28.7617225,67.7832031 28.0195312,67.7832031 L26.6279297,67.7832031 L26.6279297,70 L25.1533203,70 L25.1533203,62.9541016 Z M26.6279297,64.1259766 L26.6279297,66.6259766 L27.6972656,66.6259766 C28.1204448,66.6259766 28.4492176,66.517742 28.6835938,66.3012695 C28.9179699,66.0847971 29.0351562,65.7747416 29.0351562,65.3710938 C29.0351562,64.9707011 28.9179699,64.663087 28.6835938,64.4482422 C28.4492176,64.2333974 28.1220724,64.1259766 27.7021484,64.1259766 L26.6279297,64.1259766 Z M35.5869141,70 L35.5869141,64.1748047 L37.6523438,64.1748047 L37.6523438,62.9541016 L32.046875,62.9541016 L32.046875,64.1748047 L34.1123047,64.1748047 L34.1123047,70 L35.5869141,70 Z M45.5908203,70 L45.5908203,62.9541016 L44.1162109,62.9541016 L44.1162109,65.8154297 L40.9423828,65.8154297 L40.9423828,62.9541016 L39.4677734,62.9541016 L39.4677734,70 L40.9423828,70 L40.9423828,67.0361328 L44.1162109,67.0361328 L44.1162109,70 L45.5908203,70 Z" id="DEPTH" fill="#171719"></path>
            </g>
            <g id="Feedback" transform="translate(143.000000, 124.000000)">
                <g id="Oval-11">
                    <use fill="#D4D3D6" fill-rule="evenodd" xlink:href="#path-3"></use>
                    <circle stroke="#29282B" stroke-width="10" cx="29" cy="28" r="23"></circle>
                </g>
                <circle id="Oval-13" fill="#FFFFFF" cx="50" cy="21" r="2"></circle>
                <path d="M2.20654297,70 L2.20654297,67.2265625 L5.07275391,67.2265625 L5.07275391,66.0595703 L2.20654297,66.0595703 L2.20654297,64.1748047 L5.34619141,64.1748047 L5.34619141,62.9541016 L0.731933594,62.9541016 L0.731933594,70 L2.20654297,70 Z M11.8833008,68.7792969 L8.68994141,68.7792969 L8.68994141,67.0068359 L11.7026367,67.0068359 L11.7026367,65.8691406 L8.68994141,65.8691406 L8.68994141,64.1748047 L11.8833008,64.1748047 L11.8833008,62.9541016 L7.21533203,62.9541016 L7.21533203,70 L11.8833008,70 L11.8833008,68.7792969 Z M18.6157227,68.7792969 L15.4223633,68.7792969 L15.4223633,67.0068359 L18.4350586,67.0068359 L18.4350586,65.8691406 L15.4223633,65.8691406 L15.4223633,64.1748047 L18.6157227,64.1748047 L18.6157227,62.9541016 L13.9477539,62.9541016 L13.9477539,70 L18.6157227,70 L18.6157227,68.7792969 Z M20.6801758,62.9541016 L23.3950195,62.9541016 C24.4529675,62.9541016 25.2773408,63.2568329 25.8681641,63.8623047 C26.4589873,64.4677765 26.7543945,65.330398 26.7543945,66.4501953 C26.7543945,67.5667374 26.4589873,68.4374969 25.8681641,69.0625 C25.2773408,69.6875031 24.4529675,70 23.3950195,70 L20.6801758,70 L20.6801758,62.9541016 Z M22.1547852,64.1748047 L22.1547852,68.7792969 L23.2192383,68.7792969 C23.8767937,68.7792969 24.3797183,68.5815449 24.7280273,68.1860352 C25.0763364,67.7905254 25.2504883,67.2135455 25.2504883,66.4550781 C25.2504883,65.7193974 25.073895,65.1554382 24.7207031,64.7631836 C24.3675113,64.370929 23.867028,64.1748047 23.2192383,64.1748047 L22.1547852,64.1748047 Z M31.8657227,70 L28.7016602,70 L28.7016602,62.9541016 L31.8120117,62.9541016 C32.4728223,62.9541016 32.9969056,63.1119776 33.3842773,63.4277344 C33.7716491,63.7434912 33.965332,64.1715468 33.965332,64.7119141 C33.965332,65.0960306 33.8383802,65.4329413 33.5844727,65.7226562 C33.3305651,66.0123712 33.0164407,66.1848956 32.6420898,66.2402344 L32.6420898,66.2792969 C33.1206079,66.3183596 33.5169255,66.4957667 33.8310547,66.8115234 C34.1451839,67.1272802 34.3022461,67.5179013 34.3022461,67.9833984 C34.3022461,68.6018911 34.0841493,69.0926089 33.6479492,69.4555664 C33.2117491,69.818524 32.6176795,70 31.8657227,70 Z M30.1762695,64.0527344 L30.1762695,65.8837891 L31.2797852,65.8837891 C31.6736673,65.8837891 31.9780263,65.8015959 32.1928711,65.637207 C32.4077159,65.4728182 32.5151367,65.2425145 32.5151367,64.9462891 C32.5151367,64.6630845 32.4199228,64.4433602 32.2294922,64.2871094 C32.0390615,64.1308586 31.7729509,64.0527344 31.4311523,64.0527344 L30.1762695,64.0527344 Z M30.1762695,68.9013672 L31.4897461,68.9013672 C31.9129253,68.9013672 32.2368153,68.8134774 32.4614258,68.6376953 C32.6860363,68.4619132 32.7983398,68.2047543 32.7983398,67.8662109 C32.7983398,67.5406885 32.6827811,67.2908537 32.4516602,67.1166992 C32.2205392,66.9425447 31.8885113,66.8554688 31.4555664,66.8554688 L30.1762695,66.8554688 L30.1762695,68.9013672 Z M40.7563477,70 L40.6733398,69.7412109 C40.618001,69.568684 40.5561527,69.3701183 40.487793,69.1455078 C40.4194333,68.9208973 40.3575849,68.7223316 40.3022461,68.5498047 L40.2192383,68.2910156 L37.7436523,68.2910156 L37.206543,70 L35.6928711,70 L38.1391602,62.9541016 L39.8725586,62.9541016 L42.3237305,70 L40.7563477,70 Z M38.9643555,64.3017578 L38.8740234,64.5947266 C38.8138018,64.79004 38.7389327,65.030923 38.6494141,65.3173828 L38.3808594,66.1767578 C38.2913407,66.4632176 38.2156579,66.7032868 38.1538086,66.8969727 L38.0610352,67.1875 L39.9018555,67.1875 L38.9985352,64.3017578 L38.9643555,64.3017578 Z M46.8149414,70.1220703 C47.6775759,70.1220703 48.3896456,69.8909528 48.9511719,69.4287109 C49.5126981,68.966469 49.8341467,68.3414753 49.9155273,67.5537109 L48.4799805,67.5537109 C48.3985999,67.9703797 48.2106135,68.2991524 47.9160156,68.5400391 C47.6214178,68.7809257 47.2560243,68.9013672 46.8198242,68.9013672 C46.2566704,68.9013672 45.8098975,68.6840842 45.4794922,68.2495117 C45.1490869,67.8149392 44.9838867,67.2216834 44.9838867,66.4697266 C44.9838867,65.7275354 45.1499007,65.1391623 45.4819336,64.7045898 C45.8139665,64.2700174 46.258298,64.0527344 46.8149414,64.0527344 C47.2446311,64.0527344 47.6116521,64.1837552 47.9160156,64.4458008 C48.2203791,64.7078464 48.4067379,65.0537088 48.4750977,65.4833984 L49.9106445,65.4833984 C49.8553057,64.6956341 49.5379261,64.0568058 48.9584961,63.5668945 C48.3790661,63.0769832 47.664555,62.8320312 46.8149414,62.8320312 C45.7928009,62.8320312 44.9806345,63.1551074 44.378418,63.8012695 C43.7762014,64.4474316 43.4750977,65.338536 43.4750977,66.4746094 C43.4750977,67.613938 43.7753876,68.5066699 44.3759766,69.152832 C44.9765655,69.7989941 45.7895457,70.1220703 46.8149414,70.1220703 Z M53.2983398,70 L53.2983398,67.8466797 L53.9575195,67.0556641 L56.0424805,70 L57.8100586,70 L55.0219727,66.0791016 L57.6293945,62.9541016 L55.9887695,62.9541016 L53.3422852,66.1669922 L53.2983398,66.1669922 L53.2983398,62.9541016 L51.8237305,62.9541016 L51.8237305,70 L53.2983398,70 Z" id="FEEDBACK" fill="#171719"></path>
            </g>
            <g id="Time" transform="translate(29.000000, 124.000000)">
                <g id="Oval-11">
                    <use fill="#D4D3D6" fill-rule="evenodd" xlink:href="#path-4"></use>
                    <circle stroke="#29282B" stroke-width="10" cx="28" cy="28" r="23"></circle>
                </g>
                <circle id="Oval-13" fill="#FFFFFF" cx="11" cy="12" r="2"></circle>
                <path d="M18.7265625,70 L18.7265625,64.1748047 L20.7919922,64.1748047 L20.7919922,62.9541016 L15.1865234,62.9541016 L15.1865234,64.1748047 L17.2519531,64.1748047 L17.2519531,70 L18.7265625,70 Z M24.0820312,70 L24.0820312,62.9541016 L22.6074219,62.9541016 L22.6074219,70 L24.0820312,70 Z M33.7148438,70 L33.7148438,62.9541016 L32.0058594,62.9541016 L30.0039062,67.9492188 L29.9648438,67.9492188 L27.9628906,62.9541016 L26.2539062,62.9541016 L26.2539062,70 L27.5673828,70 L27.5673828,65.2441406 L27.6064453,65.2441406 L29.5205078,69.9316406 L30.4482422,69.9316406 L32.3623047,65.2441406 L32.3964844,65.2441406 L32.3964844,70 L33.7148438,70 Z M40.5546875,68.7792969 L37.3613281,68.7792969 L37.3613281,67.0068359 L40.3740234,67.0068359 L40.3740234,65.8691406 L37.3613281,65.8691406 L37.3613281,64.1748047 L40.5546875,64.1748047 L40.5546875,62.9541016 L35.8867188,62.9541016 L35.8867188,70 L40.5546875,70 L40.5546875,68.7792969 Z" fill="#171719"></path>
            </g>
            <g id="Toggle" transform="translate(104.000000, 139.000000)">
                <ellipse id="Oval-4" stroke="#73786F" stroke-width="4" fill="#969D90" cx="7.82352941" cy="8" rx="7.82352941" ry="8"></ellipse>
                <path d="M16.2510734,4.7049202 C15.5099524,4.7049202 7.42101986,5.17697902 7.42101986,5.17697902 C7.42101986,5.17697902 3.47807153,8.17837865 7.41740855,11.4536586 C7.42101986,11.5426953 16.1752359,11.5461829 16.1752359,11.5461829 C16.1752359,11.5461829 18.4332263,6.29256404 16.2510734,4.7049202 Z" id="Path-2" fill="#666B62"></path>
                <ellipse id="Path" fill="#5E625A" cx="15.6470588" cy="8" rx="3.35294118" ry="3.42857143"></ellipse>
            </g>
            <path d="M92.1162109,251 L92.1162109,242.544922 L90.0654297,242.544922 L87.6630859,248.539062 L87.6162109,248.539062 L85.2138672,242.544922 L83.1630859,242.544922 L83.1630859,251 L84.7392578,251 L84.7392578,245.292969 L84.7861328,245.292969 L87.0830078,250.917969 L88.1962891,250.917969 L90.4931641,245.292969 L90.5341797,245.292969 L90.5341797,251 L92.1162109,251 Z M95.2919922,251 L95.2919922,247.671875 L98.7314453,247.671875 L98.7314453,246.271484 L95.2919922,246.271484 L95.2919922,244.009766 L99.0595703,244.009766 L99.0595703,242.544922 L93.5224609,242.544922 L93.5224609,251 L95.2919922,251 Z M104.450195,251 L104.450195,247.671875 L107.889648,247.671875 L107.889648,246.271484 L104.450195,246.271484 L104.450195,244.009766 L108.217773,244.009766 L108.217773,242.544922 L102.680664,242.544922 L102.680664,251 L104.450195,251 Z M114.727539,249.535156 L111.030273,249.535156 L111.030273,242.544922 L109.260742,242.544922 L109.260742,251 L114.727539,251 L114.727539,249.535156 Z M121.313477,251 L121.213867,250.689453 C121.147461,250.482421 121.073243,250.244142 120.991211,249.974609 C120.909179,249.705077 120.834961,249.466798 120.768555,249.259766 L120.668945,248.949219 L117.698242,248.949219 L117.053711,251 L115.237305,251 L118.172852,242.544922 L120.25293,242.544922 L123.194336,251 L121.313477,251 Z M119.163086,244.162109 L119.054688,244.513672 C118.982422,244.748048 118.892579,245.037108 118.785156,245.380859 L118.462891,246.412109 C118.355468,246.755861 118.264649,247.043944 118.19043,247.276367 L118.079102,247.625 L120.288086,247.625 L119.204102,244.162109 L119.163086,244.162109 Z M125.749023,251 L125.749023,245.46875 L125.801758,245.46875 L129.756836,251 L131.22168,251 L131.22168,242.544922 L129.52832,242.544922 L129.52832,248.052734 L129.475586,248.052734 L125.532227,242.544922 L124.055664,242.544922 L124.055664,251 L125.749023,251 Z M140.186523,247.449219 L140.186523,246.494141 L136.624023,246.494141 L136.624023,247.783203 L138.458008,247.783203 L138.452148,247.917969 C138.436523,248.441409 138.245119,248.865233 137.87793,249.189453 C137.51074,249.513673 137.040042,249.675781 136.46582,249.675781 C135.762692,249.675781 135.204104,249.413089 134.790039,248.887695 C134.375974,248.362302 134.168945,247.642583 134.168945,246.728516 C134.168945,245.826167 134.366209,245.124026 134.760742,244.62207 C135.155275,244.120115 135.702145,243.869141 136.401367,243.869141 C136.877932,243.869141 137.286131,243.993163 137.625977,244.241211 C137.965822,244.489259 138.200195,244.833982 138.329102,245.275391 L140.110352,245.275391 C139.985351,244.423824 139.582035,243.731448 138.900391,243.198242 C138.218747,242.665036 137.383794,242.398438 136.395508,242.398438 C135.153314,242.398438 134.169925,242.784176 133.445312,243.555664 C132.7207,244.327152 132.358398,245.390618 132.358398,246.746094 C132.358398,248.121101 132.722653,249.198238 133.451172,249.977539 C134.179691,250.75684 135.174798,251.146484 136.436523,251.146484 C137.612311,251.146484 138.531247,250.817386 139.193359,250.15918 C139.855472,249.500973 140.186523,248.597662 140.186523,247.449219 Z M146.954102,249.535156 L143.12207,249.535156 L143.12207,247.408203 L146.737305,247.408203 L146.737305,246.042969 L143.12207,246.042969 L143.12207,244.009766 L146.954102,244.009766 L146.954102,242.544922 L141.352539,242.544922 L141.352539,251 L146.954102,251 L146.954102,249.535156 Z" id="MF-FLANGE" fill="#CDCCD2"></path>
            <g id="Oval-7">
                <use fill="#5E625A" fill-rule="evenodd" xlink:href="#path-5"></use>
                <circle stroke="#9D9D9C" stroke-width="7" cx="112.5" cy="295.5" r="18"></circle>
            </g>
            <text id="MIX" font-family=".SFNSDisplay-Bold, .SF NS Display" font-size="7" font-weight="bold" letter-spacing="1" fill="#171719">
                <tspan x="104.652832" y="170">MIX</tspan>
            </text>
            <circle id="Oval-14" fill="#950D2B" cx="113.5" cy="196.5" r="4.5"></circle>
        </g>
    </g>
</svg>