<?xml version="1.0" encoding="UTF-8"?>
<svg width="348px" height="268px" viewBox="0 0 348 268" version="1.1" xmlns="http://www.w3.org/2000/svg" xmlns:xlink="http://www.w3.org/1999/xlink">
    <!-- Generator: Sketch 43.2 (39069) - http://www.bohemiancoding.com/sketch -->
    <title>pedal-drone</title>
    <desc>Created with Sketch.</desc>
    <defs></defs>
    <g id="Page-1" stroke="none" stroke-width="1" fill="none" fill-rule="evenodd">
        <g id="Drone-Machine">
            <rect id="Rectangle-2" fill="#323434" x="0" y="0" width="348" height="268" rx="15"></rect>
            <path d="M16,37.0039051 C16,28.7174771 22.7096133,22 31.002271,22 L316.997729,22 C325.283254,22 332,28.7076778 332,37.0039051 L331.718077,178.590445 C331.718077,179.503597 16,178.590445 16,178.590445 C16,178.590445 331.749562,179.363372 331.729778,178.590445 C331.709995,177.817517 329.761759,158.504581 313.186046,130.611142 C296.610333,102.717703 284.695967,130.408054 284.695967,130.408054 C284.695967,130.408054 224.272455,227.094007 173.962265,170.07261 C123.652076,113.051213 105.101319,150.760046 105.101319,150.760046 C105.101319,150.760046 78.1894426,188.908637 59.4219499,173.472338 C40.6544573,158.036039 36.3595134,135.184713 27.1130459,156.772734 C17.8665784,178.360756 16.000227,178.590542 16,178.590445 L16,37.0039051 Z" id="Combined-Shape" fill="#9D9D9C"></path>
            <g id="Toggle" transform="translate(85.000000, 208.000000)">
                <circle id="Oval-4" stroke="#73786F" stroke-width="4" fill="#969D90" cx="14" cy="14" r="14"></circle>
                <path d="M29.0808681,8.23361034 C27.7546516,8.23361034 13.2797197,9.05971328 13.2797197,9.05971328 C13.2797197,9.05971328 6.22391748,14.3121626 13.2732574,20.0439025 C13.2797197,20.1997168 28.9451589,20.2058201 28.9451589,20.2058201 C28.9451589,20.2058201 32.9857734,11.0119871 29.0808681,8.23361034 Z" id="Path-2" fill="#666B62"></path>
                <circle id="Path" fill="#5E625A" cx="28" cy="14" r="6"></circle>
            </g>
            <g id="Toggle" transform="translate(231.000000, 208.000000)">
                <circle id="Oval-4" stroke="#73786F" stroke-width="4" fill="#969D90" cx="14" cy="14" r="14"></circle>
                <path d="M29.0808681,8.23361034 C27.7546516,8.23361034 13.2797197,9.05971328 13.2797197,9.05971328 C13.2797197,9.05971328 6.22391748,14.3121626 13.2732574,20.0439025 C13.2797197,20.1997168 28.9451589,20.2058201 28.9451589,20.2058201 C28.9451589,20.2058201 32.9857734,11.0119871 29.0808681,8.23361034 Z" id="Path-2" fill="#666B62"></path>
                <circle id="Path" fill="#5E625A" cx="28" cy="14" r="6"></circle>
            </g>
            <circle id="Led" stroke="#73786F" stroke-width="3" fill="#2DB377" cx="99" cy="189" r="10"></circle>
            <circle id="Led" stroke="#73786F" stroke-width="3" fill="#2DB377" cx="243" cy="189" r="10"></circle>
            <g id="Knob" transform="translate(36.000000, 39.000000)">
                <circle id="Oval" fill="#2C2C2C" cx="27" cy="27" r="27"></circle>
                <circle id="Oval-2" fill="#181717" cx="27" cy="27" r="13"></circle>
                <circle id="Oval-3" fill="#FFFFFF" cx="40.5" cy="42.5" r="2.5"></circle>
            </g>
            <g id="Knob" transform="translate(136.000000, 66.000000) rotate(-60.000000) translate(-136.000000, -66.000000) translate(109.000000, 39.000000)">
                <circle id="Oval" fill="#2C2C2C" cx="27" cy="27" r="27"></circle>
                <circle id="Oval-2" fill="#181717" cx="27" cy="27" r="13"></circle>
                <circle id="Oval-3" fill="#FFFFFF" cx="40.5" cy="42.5" r="2.5"></circle>
            </g>
            <g id="Knob" transform="translate(209.000000, 66.000000) rotate(-165.000000) translate(-209.000000, -66.000000) translate(182.000000, 39.000000)">
                <circle id="Oval" fill="#2C2C2C" cx="27" cy="27" r="27"></circle>
                <circle id="Oval-2" fill="#181717" cx="27" cy="27" r="13"></circle>
                <circle id="Oval-3" fill="#FFFFFF" cx="40.5" cy="42.5" r="2.5"></circle>
            </g>
            <g id="Knob" transform="translate(282.000000, 66.000000) rotate(-45.000000) translate(-282.000000, -66.000000) translate(255.000000, 39.000000)">
                <circle id="Oval" fill="#2C2C2C" cx="27" cy="27" r="27"></circle>
                <circle id="Oval-2" fill="#181717" cx="27" cy="27" r="13"></circle>
                <circle id="Oval-3" fill="#FFFFFF" cx="40.5" cy="42.5" r="2.5"></circle>
            </g>
            <path d="M103.862,130 C103.304,130 102.872,129.55 102.872,129.01 L102.872,118.39 C102.872,117.832 103.304,117.4 103.862,117.4 L105.986,117.4 C109.46,117.4 112.268,120.226 112.268,123.682 C112.268,127.174 109.46,130 105.986,130 L103.862,130 Z M104.87,119.398 L104.87,128.002 L105.986,128.002 C108.362,127.984 110.27,126.076 110.27,123.682 C110.27,121.324 108.362,119.398 105.986,119.398 L104.87,119.398 Z M123.158,127.894 C123.446,127.984 123.68,128.2 123.788,128.506 C123.968,129.028 123.68,129.586 123.158,129.766 C123.086,129.784 122.942,129.82 122.762,129.82 L122.744,129.82 C122.564,129.82 122.294,129.784 122.042,129.622 C121.808,129.478 121.61,129.244 121.466,128.992 C121.214,128.47 121.088,127.822 121.088,126.832 C121.07,126.49 120.998,126.256 120.872,126.058 C120.764,125.86 120.548,125.68 120.332,125.536 C119.954,125.284 119.486,125.14 119.324,125.104 L117.2,125.104 L117.2,129.01 C117.2,129.55 116.75,130 116.192,130 C115.634,130 115.202,129.55 115.202,129.01 L115.202,118.39 C115.202,117.832 115.634,117.4 116.192,117.4 L119.414,117.4 C121.556,117.4 123.266,119.128 123.266,121.27 C123.266,122.458 122.726,123.502 121.862,124.222 C122.096,124.402 122.312,124.618 122.492,124.888 C122.852,125.41 123.086,126.076 123.086,126.832 C123.068,127.372 123.122,127.714 123.158,127.894 Z M119.414,123.106 C120.44,123.106 121.268,122.278 121.268,121.27 C121.268,120.226 120.44,119.398 119.414,119.398 L117.2,119.398 L117.2,123.106 L119.414,123.106 Z M132.032,117.04 C133.688,117.04 135.272,117.778 136.334,118.966 C137.45,120.154 138.152,121.738 138.152,123.52 C138.152,125.302 137.45,126.904 136.334,128.074 C135.272,129.244 133.688,130 132.032,130 C130.304,130 128.72,129.244 127.622,128.074 C126.506,126.904 125.84,125.302 125.84,123.52 C125.84,121.738 126.506,120.154 127.622,118.966 C128.72,117.778 130.304,117.04 132.032,117.04 Z M134.876,126.652 C135.614,125.878 136.1,124.744 136.1,123.52 C136.1,122.296 135.614,121.162 134.876,120.37 C134.12,119.56 133.112,119.092 132.032,119.092 C130.88,119.092 129.872,119.56 129.116,120.37 C128.36,121.162 127.892,122.296 127.892,123.52 C127.892,124.744 128.36,125.878 129.116,126.652 C129.872,127.462 130.88,127.948 132.032,127.948 C133.112,127.948 134.12,127.462 134.876,126.652 Z M143.21,121.54 L148.97,129.532 C148.988,129.568 149.024,129.604 149.06,129.64 C149.24,129.856 149.51,130 149.798,130 C150.338,130 150.788,129.55 150.788,129.01 L150.788,118.552 C150.788,118.03 150.338,117.58 149.798,117.58 C149.258,117.58 148.826,118.03 148.826,118.552 L148.826,125.968 L143.012,117.922 C142.706,117.49 142.094,117.4 141.644,117.706 C141.374,117.904 141.23,118.228 141.248,118.534 L141.248,129.01 C141.248,129.55 141.68,130 142.238,130 C142.76,130 143.21,129.55 143.21,129.01 L143.21,121.54 Z M154.928,130 L154.946,129.982 C154.946,129.982 154.946,130 154.982,130 L160.814,130 C161.336,130 161.804,129.55 161.804,129.01 C161.804,128.452 161.336,128.002 160.814,128.002 L155.936,128.002 L155.936,124.69 L160.13,124.69 C160.67,124.69 161.12,124.24 161.12,123.682 C161.12,123.16 160.67,122.692 160.13,122.692 L155.936,122.692 L155.936,119.398 L160.814,119.398 C161.336,119.398 161.804,118.948 161.804,118.39 C161.804,117.832 161.336,117.4 160.814,117.4 L154.928,117.4 C154.37,117.4 153.938,117.832 153.938,118.39 L153.938,129.01 C153.938,129.55 154.37,130 154.928,130 Z M179.84,117.4 L179.822,117.4 C179.498,117.4 179.21,117.544 179.012,117.814 L175.43,122.782 L171.848,117.814 C171.668,117.544 171.344,117.4 171.056,117.4 L171.002,117.4 C170.462,117.4 170.012,117.85 170.012,118.39 L170.012,129.01 C170.012,129.55 170.462,130 171.002,130 C171.56,130 172.01,129.55 172.01,129.01 L172.01,121.432 L174.584,125.032 C174.782,125.302 175.088,125.446 175.412,125.446 L175.448,125.446 C175.772,125.446 176.06,125.302 176.258,125.032 L178.85,121.432 L178.85,129.01 C178.85,129.55 179.282,130 179.84,130 C180.38,130 180.848,129.55 180.848,129.01 L180.848,118.39 C180.848,117.85 180.38,117.418 179.84,117.4 Z M191.342,129.37 L190.46,127.03 L186.086,127.03 L185.204,129.37 C185.042,129.766 184.664,130 184.268,130 C184.142,130 184.034,129.982 183.926,129.946 C183.404,129.748 183.152,129.172 183.332,128.65 L187.31,118.048 C187.472,117.652 187.868,117.4 188.264,117.418 C188.678,117.4 189.056,117.652 189.218,118.048 L193.196,128.65 C193.376,129.172 193.124,129.748 192.602,129.946 C192.512,129.982 192.386,130 192.26,130 C191.864,130 191.486,129.766 191.342,129.37 Z M186.806,125.05 L189.722,125.05 L188.264,121.18 L186.806,125.05 Z M200.99,130 C202.574,130 204.014,129.478 205.148,128.596 C205.58,128.254 205.652,127.606 205.328,127.156 C204.968,126.724 204.302,126.652 203.888,126.958 C203.078,127.606 202.106,127.948 200.99,127.948 C199.748,127.948 198.596,127.444 197.75,126.652 C196.94,125.86 196.436,124.744 196.436,123.52 C196.436,122.296 196.94,121.216 197.75,120.388 C198.596,119.596 199.748,119.092 200.99,119.092 C202.106,119.092 203.096,119.434 203.888,120.082 C204.302,120.406 204.968,120.334 205.328,119.884 C205.652,119.434 205.58,118.804 205.148,118.444 C204.014,117.562 202.574,117.04 200.99,117.04 C197.39,117.058 194.402,119.956 194.384,123.52 C194.402,127.102 197.39,130 200.99,130 Z M209.81,130 C210.368,130 210.818,129.568 210.818,129.01 L210.818,124.69 L215.48,124.69 L215.48,129.01 C215.48,129.568 215.912,130 216.47,130 C217.028,130 217.478,129.568 217.478,129.01 L217.478,118.39 C217.478,117.832 217.028,117.4 216.47,117.4 C215.912,117.4 215.48,117.832 215.48,118.39 L215.48,122.71 L210.818,122.71 L210.818,118.39 C210.818,117.832 210.368,117.4 209.81,117.4 C209.252,117.4 208.82,117.832 208.82,118.39 L208.82,129.01 C208.82,129.568 209.252,130 209.81,130 Z M220.808,129.01 C220.808,129.568 221.24,130 221.798,130 C222.338,130 222.806,129.568 222.806,129.01 L222.806,118.39 C222.806,117.832 222.338,117.4 221.798,117.4 C221.24,117.4 220.808,117.832 220.808,118.39 L220.808,129.01 Z M228.152,121.54 L233.912,129.532 C233.93,129.568 233.966,129.604 234.002,129.64 C234.182,129.856 234.452,130 234.74,130 C235.28,130 235.73,129.55 235.73,129.01 L235.73,118.552 C235.73,118.03 235.28,117.58 234.74,117.58 C234.2,117.58 233.768,118.03 233.768,118.552 L233.768,125.968 L227.954,117.922 C227.648,117.49 227.036,117.4 226.586,117.706 C226.316,117.904 226.172,118.228 226.19,118.534 L226.19,129.01 C226.19,129.55 226.622,130 227.18,130 C227.702,130 228.152,129.55 228.152,129.01 L228.152,121.54 Z M239.87,130 L239.888,129.982 C239.888,129.982 239.888,130 239.924,130 L245.756,130 C246.278,130 246.746,129.55 246.746,129.01 C246.746,128.452 246.278,128.002 245.756,128.002 L240.878,128.002 L240.878,124.69 L245.072,124.69 C245.612,124.69 246.062,124.24 246.062,123.682 C246.062,123.16 245.612,122.692 245.072,122.692 L240.878,122.692 L240.878,119.398 L245.756,119.398 C246.278,119.398 246.746,118.948 246.746,118.39 C246.746,117.832 246.278,117.4 245.756,117.4 L239.87,117.4 C239.312,117.4 238.88,117.832 238.88,118.39 L238.88,129.01 C238.88,129.55 239.312,130 239.87,130 Z" id="DRONE-MACHINE" fill="#323535"></path>
            <path d="M88.17,245.8 C89.09,245.8 89.97,246.21 90.56,246.87 C91.18,247.53 91.57,248.41 91.57,249.4 C91.57,250.39 91.18,251.28 90.56,251.93 C89.97,252.58 89.09,253 88.17,253 C87.21,253 86.33,252.58 85.72,251.93 C85.1,251.28 84.73,250.39 84.73,249.4 C84.73,248.41 85.1,247.53 85.72,246.87 C86.33,246.21 87.21,245.8 88.17,245.8 Z M89.75,251.14 C90.16,250.71 90.43,250.08 90.43,249.4 C90.43,248.72 90.16,248.09 89.75,247.65 C89.33,247.2 88.77,246.94 88.17,246.94 C87.53,246.94 86.97,247.2 86.55,247.65 C86.13,248.09 85.87,248.72 85.87,249.4 C85.87,250.08 86.13,250.71 86.55,251.14 C86.97,251.59 87.53,251.86 88.17,251.86 C88.77,251.86 89.33,251.59 89.75,251.14 Z M93.35,251.99 C93.92,252.44 94.83,252.98 95.91,252.99 C96.62,252.99 97.27,252.78 97.76,252.42 C98.26,252.06 98.62,251.51 98.62,250.87 C98.62,250.56 98.53,250.26 98.38,250.02 C98.15,249.65 97.79,249.39 97.38,249.19 C96.98,249 96.51,248.87 96,248.77 L95.98,248.77 C95.44,248.67 94.99,248.51 94.73,248.33 C94.6,248.24 94.51,248.15 94.46,248.07 C94.41,247.99 94.39,247.91 94.39,247.79 C94.39,247.58 94.5,247.36 94.77,247.16 C95.04,246.96 95.44,246.82 95.89,246.82 C96.5,246.82 96.99,247.12 97.5,247.46 C97.74,247.62 98.06,247.55 98.21,247.31 C98.37,247.08 98.3,246.76 98.07,246.6 C97.56,246.27 96.85,245.8 95.89,245.8 C95.24,245.8 94.63,245.99 94.16,246.33 C93.7,246.67 93.36,247.19 93.36,247.79 C93.36,248.09 93.44,248.37 93.59,248.61 C93.81,248.96 94.14,249.21 94.52,249.39 C94.9,249.57 95.34,249.69 95.81,249.78 L95.83,249.78 C96.42,249.89 96.91,250.06 97.2,250.25 C97.35,250.35 97.44,250.45 97.5,250.55 C97.56,250.65 97.59,250.74 97.59,250.87 C97.59,251.12 97.46,251.37 97.16,251.59 C96.86,251.81 96.41,251.96 95.91,251.96 C95.2,251.97 94.44,251.55 94,251.19 C93.78,251.01 93.45,251.04 93.27,251.26 C93.1,251.48 93.13,251.81 93.35,251.99 Z M103.52,253 C104.4,253 105.2,252.71 105.83,252.22 C106.07,252.03 106.11,251.67 105.93,251.42 C105.73,251.18 105.36,251.14 105.13,251.31 C104.68,251.67 104.14,251.86 103.52,251.86 C102.83,251.86 102.19,251.58 101.72,251.14 C101.27,250.7 100.99,250.08 100.99,249.4 C100.99,248.72 101.27,248.12 101.72,247.66 C102.19,247.22 102.83,246.94 103.52,246.94 C104.14,246.94 104.69,247.13 105.13,247.49 C105.36,247.67 105.73,247.63 105.93,247.38 C106.11,247.13 106.07,246.78 105.83,246.58 C105.2,246.09 104.4,245.8 103.52,245.8 C101.52,245.81 99.86,247.42 99.85,249.4 C99.86,251.39 101.52,253 103.52,253 Z M114.45,251.89 L112.32,251.89 L114.21,250.18 C114.73,249.71 115,249.05 115,248.4 C115,247.83 114.8,247.24 114.38,246.79 C113.91,246.27 113.25,246 112.6,246 C112.03,246 111.44,246.2 110.99,246.62 L110.68,246.9 C110.45,247.11 110.44,247.45 110.64,247.68 C110.85,247.91 111.19,247.93 111.42,247.72 L111.73,247.44 C111.98,247.22 112.29,247.11 112.6,247.11 C112.95,247.11 113.3,247.24 113.56,247.53 C113.78,247.78 113.89,248.08 113.89,248.4 C113.89,248.76 113.76,249.1 113.47,249.36 L110.51,252.04 C110.29,252.25 110.27,252.59 110.48,252.82 C110.58,252.94 110.74,253 110.89,253 L114.45,253 C114.76,253 115,252.76 115,252.45 C115,252.14 114.76,251.89 114.45,251.89 Z" id="OSC-2" fill="#9D9D9C"></path>
            <path d="M228.17,245.8 C229.09,245.8 229.97,246.21 230.56,246.87 C231.18,247.53 231.57,248.41 231.57,249.4 C231.57,250.39 231.18,251.28 230.56,251.93 C229.97,252.58 229.09,253 228.17,253 C227.21,253 226.33,252.58 225.72,251.93 C225.1,251.28 224.73,250.39 224.73,249.4 C224.73,248.41 225.1,247.53 225.72,246.87 C226.33,246.21 227.21,245.8 228.17,245.8 Z M229.75,251.14 C230.16,250.71 230.43,250.08 230.43,249.4 C230.43,248.72 230.16,248.09 229.75,247.65 C229.33,247.2 228.77,246.94 228.17,246.94 C227.53,246.94 226.97,247.2 226.55,247.65 C226.13,248.09 225.87,248.72 225.87,249.4 C225.87,250.08 226.13,250.71 226.55,251.14 C226.97,251.59 227.53,251.86 228.17,251.86 C228.77,251.86 229.33,251.59 229.75,251.14 Z M234.38,248.3 L237.58,252.74 C237.59,252.76 237.61,252.78 237.63,252.8 C237.73,252.92 237.88,253 238.04,253 C238.34,253 238.59,252.75 238.59,252.45 L238.59,246.64 C238.59,246.35 238.34,246.1 238.04,246.1 C237.74,246.1 237.5,246.35 237.5,246.64 L237.5,250.76 L234.27,246.29 C234.1,246.05 233.76,246 233.51,246.17 C233.36,246.28 233.28,246.46 233.29,246.63 L233.29,252.45 C233.29,252.75 233.53,253 233.84,253 C234.13,253 234.38,252.75 234.38,252.45 L234.38,248.3 Z M241.1,252.96 C241.16,252.99 241.24,253 241.3,253 C241.51,253 241.72,252.88 241.81,252.67 L244.26,246.83 C244.38,246.56 244.25,246.23 243.98,246.12 C243.69,246 243.37,246.13 243.25,246.41 L240.8,252.24 C240.68,252.52 240.81,252.85 241.1,252.96 Z M247.94,245.8 C248.86,245.8 249.74,246.21 250.33,246.87 C250.95,247.53 251.34,248.41 251.34,249.4 C251.34,250.39 250.95,251.28 250.33,251.93 C249.74,252.58 248.86,253 247.94,253 C246.98,253 246.1,252.58 245.49,251.93 C244.87,251.28 244.5,250.39 244.5,249.4 C244.5,248.41 244.87,247.53 245.49,246.87 C246.1,246.21 246.98,245.8 247.94,245.8 Z M249.52,251.14 C249.93,250.71 250.2,250.08 250.2,249.4 C250.2,248.72 249.93,248.09 249.52,247.65 C249.1,247.2 248.54,246.94 247.94,246.94 C247.3,246.94 246.74,247.2 246.32,247.65 C245.9,248.09 245.64,248.72 245.64,249.4 C245.64,250.08 245.9,250.71 246.32,251.14 C246.74,251.59 247.3,251.86 247.94,251.86 C248.54,251.86 249.1,251.59 249.52,251.14 Z M253.86,253 C254.17,253 254.42,252.75 254.42,252.45 L254.42,250.05 L256.75,250.05 C257.05,250.05 257.3,249.8 257.3,249.49 C257.3,249.2 257.05,248.94 256.75,248.94 L254.42,248.94 L254.42,247.11 L257.13,247.11 C257.42,247.11 257.68,246.86 257.68,246.55 C257.68,246.25 257.42,246 257.13,246 L253.86,246 C253.55,246 253.31,246.25 253.31,246.55 L253.31,252.45 C253.31,252.75 253.55,253 253.86,253 Z M259.91,253 C260.22,253 260.47,252.75 260.47,252.45 L260.47,250.05 L262.8,250.05 C263.1,250.05 263.35,249.8 263.35,249.49 C263.35,249.2 263.1,248.94 262.8,248.94 L260.47,248.94 L260.47,247.11 L263.18,247.11 C263.47,247.11 263.73,246.86 263.73,246.55 C263.73,246.25 263.47,246 263.18,246 L259.91,246 C259.6,246 259.36,246.25 259.36,246.55 L259.36,252.45 C259.36,252.75 259.6,253 259.91,253 Z" id="ON/OFF" fill="#9D9D9C"></path>
        </g>
    </g>
</svg>