<?xml version="1.0" encoding="UTF-8"?>
<svg width="342px" height="401px" viewBox="0 0 342 401" version="1.1" xmlns="http://www.w3.org/2000/svg" xmlns:xlink="http://www.w3.org/1999/xlink">
    <!-- Generator: Sketch 43.2 (39069) - http://www.bohemiancoding.com/sketch -->
    <title>pedal-delay</title>
    <desc>Created with Sketch.</desc>
    <defs>
        <circle id="path-1" cx="41" cy="37" r="31"></circle>
        <circle id="path-2" cx="41" cy="37" r="31"></circle>
        <circle id="path-3" cx="41" cy="37" r="31"></circle>
        <rect id="path-4" x="13" y="81" width="53" height="23"></rect>
        <circle id="path-5" cx="87.5" cy="352.5" r="21.5"></circle>
        <circle id="path-6" cx="256.5" cy="352.5" r="21.5"></circle>
    </defs>
    <g id="Page-1" stroke="none" stroke-width="1" fill="none" fill-rule="evenodd">
        <g id="Echo-shifter">
            <g id="Body">
                <rect id="Rectangle-7" fill="#FAF0D9" x="18" y="5" width="304" height="389"></rect>
                <rect id="Rectangle-8" fill="#49404A" x="0" y="0" width="20" height="401" rx="2"></rect>
                <rect id="Rectangle-8" fill="#49404A" x="322" y="0" width="20" height="401" rx="2"></rect>
            </g>
            <g id="Feedback" transform="translate(45.000000, 44.000000)">
                <rect id="Rectangle-9" stroke="#1E1C19" stroke-width="2" x="1" y="1" width="79" height="79" rx="4"></rect>
                <path d="M0.0373917111,71.0040346 C0.105923498,70.9955739 81.0278967,71.0028624 81.0373917,71.0040346 C81.0468867,71.0052068 81.0404165,77.0090313 81.0404165,77.0090313 C81.038746,79.2154107 79.2511904,81.0040346 77.0344139,81.0040346 L4.04036957,81.0040346 C1.82958594,81.0040346 0.0264814988,79.217582 0.0154986055,76.9969745 C0.0154986055,76.9969745 -0.0311400754,71.0124953 0.0373917111,71.0040346 Z" id="Rectangle-10" fill="#1D1725"></path>
                <path d="M19.0429688,79 L19.0429688,77.0039062 L21.1289062,77.0039062 L21.1289062,75.7617188 L19.0429688,75.7617188 L19.0429688,74.6796875 L21.3476562,74.6796875 L21.3476562,73.3632812 L17.3867188,73.3632812 L17.3867188,79 L19.0429688,79 Z M26.4101562,77.6835938 L24.0898438,77.6835938 L24.0898438,76.7773438 L26.265625,76.7773438 L26.265625,75.5898438 L24.0898438,75.5898438 L24.0898438,74.6796875 L26.4101562,74.6796875 L26.4101562,73.3632812 L22.4335938,73.3632812 L22.4335938,79 L26.4101562,79 L26.4101562,77.6835938 Z M31.6601562,77.6835938 L29.3398438,77.6835938 L29.3398438,76.7773438 L31.515625,76.7773438 L31.515625,75.5898438 L29.3398438,75.5898438 L29.3398438,74.6796875 L31.6601562,74.6796875 L31.6601562,73.3632812 L27.6835938,73.3632812 L27.6835938,79 L31.6601562,79 L31.6601562,77.6835938 Z M32.9335938,73.3632812 L35.34375,73.3632812 C36.2005251,73.3632812 36.8671851,73.600258 37.34375,74.0742188 C37.8203149,74.5481795 38.0585938,75.2369746 38.0585938,76.140625 C38.0585938,77.0416712 37.8196638,77.7434871 37.3417969,78.2460938 C36.8639299,78.7487004 36.1979209,79 35.34375,79 L32.9335938,79 L32.9335938,73.3632812 Z M34.5898438,74.6796875 L34.5898438,77.6835938 L35.109375,77.6835938 C35.5234396,77.6835938 35.8372385,77.5559909 36.0507812,77.3007812 C36.264324,77.0455716 36.3710938,76.6588568 36.3710938,76.140625 C36.3710938,75.6666643 36.2597667,75.3046887 36.0371094,75.0546875 C35.814452,74.8046863 35.5052103,74.6796875 35.109375,74.6796875 L34.5898438,74.6796875 Z M42.0664062,79 L39.203125,79 L39.203125,73.3632812 L41.9726562,73.3632812 C42.54818,73.3632812 42.9967432,73.487629 43.3183594,73.7363281 C43.6399756,73.9850273 43.8007812,74.3294249 43.8007812,74.7695312 C43.8007812,75.0924495 43.6914073,75.3658843 43.4726562,75.5898438 C43.2539052,75.8138032 42.9817725,75.9466144 42.65625,75.9882812 L42.65625,76.0195312 C43.0364602,76.029948 43.364582,76.1627591 43.640625,76.4179688 C43.916668,76.6731784 44.0546875,76.9869773 44.0546875,77.359375 C44.0546875,77.8541691 43.8743508,78.2513006 43.5136719,78.5507812 C43.152993,78.8502619 42.6705759,79 42.0664062,79 Z M40.859375,74.5 L40.859375,75.6210938 L41.5,75.6210938 C41.7135427,75.6210938 41.8821608,75.569662 42.0058594,75.4667969 C42.1295579,75.3639318 42.1914062,75.2278654 42.1914062,75.0585938 C42.1914062,74.8841137 42.1321621,74.7473963 42.0136719,74.6484375 C41.8951817,74.5494787 41.7317719,74.5 41.5234375,74.5 L40.859375,74.5 Z M40.859375,77.8632812 L41.5664062,77.8632812 C41.8216159,77.8632812 42.0195305,77.8072922 42.1601562,77.6953125 C42.300782,77.5833328 42.3710938,77.420574 42.3710938,77.2070312 C42.3710938,77.0065094 42.300782,76.850261 42.1601562,76.7382812 C42.0195305,76.6263015 41.8255221,76.5703125 41.578125,76.5703125 L40.859375,76.5703125 L40.859375,77.8632812 Z M48.8203125,79 L48.7753906,78.8300781 C48.7454426,78.7167963 48.7115887,78.5865893 48.6738281,78.4394531 C48.6360675,78.292317 48.6022137,78.1621099 48.5722656,78.0488281 L48.5273438,77.8789062 L46.8085938,77.8789062 L46.515625,79 L44.828125,79 L46.6679688,73.3632812 L48.7460938,73.3632812 L50.5859375,79 L48.8203125,79 Z M47.6523438,74.6640625 L47.5976562,74.8710938 C47.5611977,75.0091153 47.5162763,75.1796865 47.4628906,75.3828125 C47.4095049,75.5859385 47.355469,75.7890615 47.3007812,75.9921875 C47.2460935,76.1953135 47.200521,76.3658847 47.1640625,76.5039062 L47.109375,76.7109375 L48.2265625,76.7109375 L47.6835938,74.6640625 L47.6523438,74.6640625 Z M53.8632812,79.0976562 C54.6237017,79.0976562 55.2506486,78.8782574 55.7441406,78.4394531 C56.2376327,78.0006488 56.4856771,77.429691 56.4882812,76.7265625 L54.9023438,76.7265625 C54.876302,77.052085 54.7688812,77.311848 54.5800781,77.5058594 C54.3912751,77.6998708 54.1536473,77.796875 53.8671875,77.796875 C53.5234358,77.796875 53.2519541,77.6542983 53.0527344,77.3691406 C52.8535146,77.0839829 52.7539062,76.6862005 52.7539062,76.1757812 C52.7539062,75.6705704 52.8541657,75.2760431 53.0546875,74.9921875 C53.2552093,74.7083319 53.5247379,74.5664062 53.8632812,74.5664062 C54.149741,74.5664062 54.3886709,74.6640615 54.5800781,74.859375 C54.7714853,75.0546885 54.876302,75.3124984 54.8945312,75.6328125 L56.4804688,75.6328125 C56.4778646,74.9322882 56.227216,74.3626324 55.7285156,73.9238281 C55.2298152,73.4850238 54.6080766,73.265625 53.8632812,73.265625 C53.0012978,73.265625 52.319664,73.5188777 51.8183594,74.0253906 C51.3170548,74.5319036 51.0664062,75.2499954 51.0664062,76.1796875 C51.0664062,77.1093796 51.3170548,77.8281225 51.8183594,78.3359375 C52.319664,78.8437525 53.0012978,79.0976562 53.8632812,79.0976562 Z M59.2695312,79 L59.2695312,77.5234375 L59.7109375,76.9296875 L60.9414062,79 L62.8671875,79 L60.9257812,75.8671875 L62.78125,73.3632812 L61.0429688,73.3632812 L59.3007812,75.7539062 L59.2695312,75.7539062 L59.2695312,73.3632812 L57.6132812,73.3632812 L57.6132812,79 L59.2695312,79 Z" id="FEEDBACK" fill="#FAF0D9"></path>
                <g id="Oval-11">
                    <use fill="#ABAAB2" fill-rule="evenodd" xlink:href="#path-1"></use>
                    <circle stroke="#26202C" stroke-width="10" cx="41" cy="37" r="26"></circle>
                </g>
                <rect id="Rectangle-11" fill="#FFFFFF" transform="translate(23.723231, 55.276867) rotate(-315.000000) translate(-23.723231, -55.276867) " x="23.0161937" y="49.2285331" width="1.41407522" height="12.0966669"></rect>
                <circle id="Oval-12" fill="#ABAAB2" cx="41" cy="37" r="21"></circle>
            </g>
            <g id="Mix" transform="translate(131.000000, 44.000000)">
                <rect id="Rectangle-9" stroke="#1E1C19" stroke-width="2" x="1" y="1" width="79" height="79" rx="4"></rect>
                <path d="M0.0373917111,71.0040346 C0.105923498,70.9955739 81.0278967,71.0028624 81.0373917,71.0040346 C81.0468867,71.0052068 81.0404165,77.0090313 81.0404165,77.0090313 C81.038746,79.2154107 79.2511904,81.0040346 77.0344139,81.0040346 L4.04036957,81.0040346 C1.82958594,81.0040346 0.0264814988,79.217582 0.0154986055,76.9969745 C0.0154986055,76.9969745 -0.0311400754,71.0124953 0.0373917111,71.0040346 Z" id="Rectangle-10" fill="#1D1725"></path>
                <path d="M38.2734375,79 L38.2734375,73.3632812 L36.359375,73.3632812 L35.1015625,76.6523438 L35.0703125,76.6523438 L33.8085938,73.3632812 L31.8945312,73.3632812 L31.8945312,79 L33.3398438,79 L33.3398438,75.734375 L33.3710938,75.734375 L34.640625,78.9335938 L35.5273438,78.9335938 L36.796875,75.734375 L36.828125,75.734375 L36.828125,79 L38.2734375,79 Z M41.2109375,79 L41.2109375,73.3632812 L39.5546875,73.3632812 L39.5546875,79 L41.2109375,79 Z M42.2617188,79 L44.0117188,79 L44.9765625,77.3007812 L45.0117188,77.3007812 L45.9804688,79 L47.8242188,79 L46.0859375,76.1835938 L46.0859375,76.1523438 L47.8320312,73.3632812 L45.9960938,73.3632812 L45.1054688,75.1601562 L45.0742188,75.1601562 L44.1875,73.3632812 L42.2578125,73.3632812 L43.921875,76.1445312 L43.921875,76.1757812 L43.7539062,76.4609375 C43.6419265,76.6510426 43.5039071,76.8860663 43.3398438,77.1660156 C43.1757804,77.4459649 43.0110685,77.7265611 42.8457031,78.0078125 C42.6803377,78.2890639 42.5416672,78.5247386 42.4296875,78.7148438 L42.2617188,79 Z" id="MIX" fill="#FAF0D9"></path>
                <g id="Oval-11">
                    <use fill="#ABAAB2" fill-rule="evenodd" xlink:href="#path-2"></use>
                    <circle stroke="#26202C" stroke-width="10" cx="41" cy="37" r="26"></circle>
                </g>
                <rect id="Rectangle-11" fill="#FFFFFF" transform="translate(58.439817, 54.276964) rotate(-405.000000) translate(-58.439817, -54.276964) " x="57.7327798" y="48.2286309" width="1.41407522" height="12.0966669"></rect>
                <circle id="Oval-12" fill="#ABAAB2" cx="41" cy="37" r="21"></circle>
            </g>
            <g id="Depth" transform="translate(217.000000, 44.000000)">
                <rect id="Rectangle-9" stroke="#1E1C19" stroke-width="2" x="1" y="1" width="79" height="79" rx="4"></rect>
                <path d="M0.0373917111,71.0040346 C0.105923498,70.9955739 81.0278967,71.0028624 81.0373917,71.0040346 C81.0468867,71.0052068 81.0404165,77.0090313 81.0404165,77.0090313 C81.038746,79.2154107 79.2511904,81.0040346 77.0344139,81.0040346 L4.04036957,81.0040346 C1.82958594,81.0040346 0.0264814988,79.217582 0.0154986055,76.9969745 C0.0154986055,76.9969745 -0.0311400754,71.0124953 0.0373917111,71.0040346 Z" id="Rectangle-10" fill="#1D1725"></path>
                <path d="M25.7207031,73.3632812 L28.1308594,73.3632812 C28.9876345,73.3632812 29.6542945,73.600258 30.1308594,74.0742188 C30.6074243,74.5481795 30.8457031,75.2369746 30.8457031,76.140625 C30.8457031,77.0416712 30.6067732,77.7434871 30.1289062,78.2460938 C29.6510393,78.7487004 28.9850303,79 28.1308594,79 L25.7207031,79 L25.7207031,73.3632812 Z M27.3769531,74.6796875 L27.3769531,77.6835938 L27.8964844,77.6835938 C28.3105489,77.6835938 28.6243479,77.5559909 28.8378906,77.3007812 C29.0514334,77.0455716 29.1582031,76.6588568 29.1582031,76.140625 C29.1582031,75.6666643 29.0468761,75.3046887 28.8242188,75.0546875 C28.6015614,74.8046863 28.2923197,74.6796875 27.8964844,74.6796875 L27.3769531,74.6796875 Z M35.9667969,77.6835938 L33.6464844,77.6835938 L33.6464844,76.7773438 L35.8222656,76.7773438 L35.8222656,75.5898438 L33.6464844,75.5898438 L33.6464844,74.6796875 L35.9667969,74.6796875 L35.9667969,73.3632812 L31.9902344,73.3632812 L31.9902344,79 L35.9667969,79 L35.9667969,77.6835938 Z M37.2402344,73.3632812 L39.8144531,73.3632812 C40.4420604,73.3632812 40.9485658,73.5488263 41.3339844,73.9199219 C41.719403,74.2910175 41.9121094,74.7903614 41.9121094,75.4179688 C41.9121094,76.0377635 41.7083354,76.5332013 41.3007812,76.9042969 C40.8932271,77.2753925 40.3600293,77.4609375 39.7011719,77.4609375 L38.8964844,77.4609375 L38.8964844,79 L37.2402344,79 L37.2402344,73.3632812 Z M38.8964844,74.609375 L38.8964844,76.2382812 L39.3613281,76.2382812 C39.6373712,76.2382812 39.8528638,76.1692715 40.0078125,76.03125 C40.1627612,75.8932285 40.2402344,75.6901055 40.2402344,75.421875 C40.2402344,75.1536445 40.1634122,74.9511726 40.0097656,74.8144531 C39.856119,74.6777337 39.6438816,74.609375 39.3730469,74.609375 L38.8964844,74.609375 Z M45.9238281,79 L45.9238281,74.6796875 L47.4082031,74.6796875 L47.4082031,73.3632812 L42.7832031,73.3632812 L42.7832031,74.6796875 L44.2675781,74.6796875 L44.2675781,79 L45.9238281,79 Z M53.7714844,79 L53.7714844,73.3632812 L52.1152344,73.3632812 L52.1152344,75.5039062 L50.1308594,75.5039062 L50.1308594,73.3632812 L48.4746094,73.3632812 L48.4746094,79 L50.1308594,79 L50.1308594,76.8203125 L52.1152344,76.8203125 L52.1152344,79 L53.7714844,79 Z" id="DEPTH" fill="#FAF0D9"></path>
                <g id="Oval-11">
                    <use fill="#ABAAB2" fill-rule="evenodd" xlink:href="#path-3"></use>
                    <circle stroke="#26202C" stroke-width="10" cx="41" cy="37" r="26"></circle>
                </g>
                <rect id="Rectangle-11" fill="#FFFFFF" transform="translate(57.831072, 18.840925) rotate(-498.000000) translate(-57.831072, -18.840925) " x="57.124034" y="12.7925917" width="1.41407522" height="12.0966669"></rect>
                <circle id="Oval-12" fill="#ABAAB2" cx="41" cy="37" r="21"></circle>
            </g>
            <g id="Oscillation" transform="translate(45.000000, 129.000000)">
                <rect id="Rectangle-9" stroke="#1E1C19" stroke-width="2" x="1" y="1" width="79" height="115" rx="4"></rect>
                <path d="M0.0373917111,107.004035 C0.105923498,106.995574 81.0278967,107.002862 81.0373917,107.004035 C81.0468867,107.005207 81.0404165,113.009031 81.0404165,113.009031 C81.038746,115.215411 79.2511904,117.004035 77.0344139,117.004035 L4.04036957,117.004035 C1.82958594,117.004035 0.0264814988,115.217582 0.0154986055,112.996974 C0.0154986055,112.996974 -0.0311400754,107.012495 0.0373917111,107.004035 Z" id="Rectangle-10" fill="#1D1725"></path>
                <path d="M13.5605469,109.265625 C14.4329471,109.265625 15.1243464,109.52669 15.6347656,110.048828 C16.1451848,110.570966 16.4003906,111.282548 16.4003906,112.183594 C16.4003906,113.08464 16.1451848,113.79557 15.6347656,114.316406 C15.1243464,114.837242 14.4329471,115.097656 13.5605469,115.097656 C12.6881467,115.097656 11.9967473,114.837242 11.4863281,114.316406 C10.9759089,113.79557 10.7207031,113.08464 10.7207031,112.183594 C10.7207031,111.282548 10.9765599,110.570966 11.4882812,110.048828 C12.0000026,109.52669 12.6907509,109.265625 13.5605469,109.265625 Z M13.5605469,110.585938 C13.214191,110.585938 12.9355479,110.729816 12.7246094,111.017578 C12.5136708,111.30534 12.4082031,111.694008 12.4082031,112.183594 C12.4082031,112.670575 12.5136708,113.057941 12.7246094,113.345703 C12.9355479,113.633465 13.214191,113.777344 13.5605469,113.777344 C13.909507,113.777344 14.188801,113.633465 14.3984375,113.345703 C14.608074,113.057941 14.7128906,112.670575 14.7128906,112.183594 C14.7128906,111.694008 14.6074229,111.30534 14.3964844,111.017578 C14.1855458,110.729816 13.9069028,110.585938 13.5605469,110.585938 Z M17.3886719,113.339844 C17.3912761,113.902347 17.6061177,114.335936 18.0332031,114.640625 C18.4602886,114.945314 19.0514285,115.097656 19.8066406,115.097656 C20.5566444,115.097656 21.1549457,114.927085 21.6015625,114.585938 C22.0481793,114.24479 22.2714844,113.786461 22.2714844,113.210938 C22.2714844,112.752602 22.1406263,112.391277 21.8789062,112.126953 C21.6171862,111.862629 21.2128934,111.682292 20.6660156,111.585938 L19.8925781,111.453125 C19.6243476,111.40625 19.4296881,111.344401 19.3085938,111.267578 C19.1874994,111.190755 19.1269531,111.084636 19.1269531,110.949219 C19.1269531,110.808593 19.1907546,110.696615 19.3183594,110.613281 C19.4459642,110.529948 19.6178375,110.488281 19.8339844,110.488281 C20.0579438,110.488281 20.246744,110.537109 20.4003906,110.634766 C20.5540372,110.732422 20.6334635,110.869791 20.6386719,111.046875 L22.1503906,111.046875 C22.1477864,110.499997 21.9433614,110.066408 21.5371094,109.746094 C21.1308573,109.42578 20.5527381,109.265625 19.8027344,109.265625 C19.130856,109.265625 18.5761741,109.432941 18.1386719,109.767578 C17.7011697,110.102215 17.4824219,110.554685 17.4824219,111.125 C17.4824219,112.044275 18.0149686,112.596353 19.0800781,112.78125 L19.8261719,112.914062 C20.1282567,112.96875 20.3391921,113.030599 20.4589844,113.099609 C20.5787766,113.16862 20.6386719,113.268229 20.6386719,113.398438 C20.6386719,113.533855 20.567058,113.646484 20.4238281,113.736328 C20.2805982,113.826172 20.0852877,113.871094 19.8378906,113.871094 C19.6165354,113.871094 19.4199227,113.822266 19.2480469,113.724609 C19.076171,113.626953 18.9785157,113.498699 18.9550781,113.339844 L17.3886719,113.339844 Z M26.0566406,115.097656 C26.8170611,115.097656 27.4440079,114.878257 27.9375,114.439453 C28.4309921,114.000649 28.6790364,113.429691 28.6816406,112.726562 L27.0957031,112.726562 C27.0696613,113.052085 26.9622405,113.311848 26.7734375,113.505859 C26.5846345,113.699871 26.3470066,113.796875 26.0605469,113.796875 C25.7167952,113.796875 25.4453135,113.654298 25.2460938,113.369141 C25.046874,113.083983 24.9472656,112.6862 24.9472656,112.175781 C24.9472656,111.67057 25.047525,111.276043 25.2480469,110.992188 C25.4485687,110.708332 25.7180973,110.566406 26.0566406,110.566406 C26.3431004,110.566406 26.5820303,110.664062 26.7734375,110.859375 C26.9648447,111.054688 27.0696614,111.312498 27.0878906,111.632812 L28.6738281,111.632812 C28.6712239,110.932288 28.4205754,110.362632 27.921875,109.923828 C27.4231746,109.485024 26.801436,109.265625 26.0566406,109.265625 C25.1946571,109.265625 24.5130233,109.518878 24.0117188,110.025391 C23.5104142,110.531904 23.2597656,111.249995 23.2597656,112.179688 C23.2597656,113.10938 23.5104142,113.828122 24.0117188,114.335938 C24.5130233,114.843753 25.1946571,115.097656 26.0566406,115.097656 Z M31.4628906,115 L31.4628906,109.363281 L29.8066406,109.363281 L29.8066406,115 L31.4628906,115 Z M36.6113281,113.683594 L34.4003906,113.683594 L34.4003906,109.363281 L32.7441406,109.363281 L32.7441406,115 L36.6113281,115 L36.6113281,113.683594 Z M41.6035156,113.683594 L39.3925781,113.683594 L39.3925781,109.363281 L37.7363281,109.363281 L37.7363281,115 L41.6035156,115 L41.6035156,113.683594 Z M46.4472656,115 L46.4023437,114.830078 C46.3723957,114.716796 46.3385419,114.586589 46.3007812,114.439453 C46.2630206,114.292317 46.2291668,114.16211 46.1992187,114.048828 L46.1542969,113.878906 L44.4355469,113.878906 L44.1425781,115 L42.4550781,115 L44.2949219,109.363281 L46.3730469,109.363281 L48.2128906,115 L46.4472656,115 Z M45.2792969,110.664062 L45.2246094,110.871094 C45.1881509,111.009115 45.1432294,111.179686 45.0898438,111.382812 C45.0364581,111.585939 44.9824221,111.789061 44.9277344,111.992188 C44.8730466,112.195314 44.8274741,112.365885 44.7910156,112.503906 L44.7363281,112.710938 L45.8535156,112.710938 L45.3105469,110.664062 L45.2792969,110.664062 Z M51.4042969,115 L51.4042969,110.679688 L52.8886719,110.679688 L52.8886719,109.363281 L48.2636719,109.363281 L48.2636719,110.679688 L49.7480469,110.679688 L49.7480469,115 L51.4042969,115 Z M55.6113281,115 L55.6113281,109.363281 L53.9550781,109.363281 L53.9550781,115 L55.6113281,115 Z M59.5957031,109.265625 C60.4681033,109.265625 61.1595027,109.52669 61.6699219,110.048828 C62.1803411,110.570966 62.4355469,111.282548 62.4355469,112.183594 C62.4355469,113.08464 62.1803411,113.79557 61.6699219,114.316406 C61.1595027,114.837242 60.4681033,115.097656 59.5957031,115.097656 C58.7233029,115.097656 58.0319036,114.837242 57.5214844,114.316406 C57.0110652,113.79557 56.7558594,113.08464 56.7558594,112.183594 C56.7558594,111.282548 57.0117162,110.570966 57.5234375,110.048828 C58.0351588,109.52669 58.7259071,109.265625 59.5957031,109.265625 Z M59.5957031,110.585938 C59.2493472,110.585938 58.9707042,110.729816 58.7597656,111.017578 C58.5488271,111.30534 58.4433594,111.694008 58.4433594,112.183594 C58.4433594,112.670575 58.5488271,113.057941 58.7597656,113.345703 C58.9707042,113.633465 59.2493472,113.777344 59.5957031,113.777344 C59.9446632,113.777344 60.2239573,113.633465 60.4335937,113.345703 C60.6432302,113.057941 60.7480469,112.670575 60.7480469,112.183594 C60.7480469,111.694008 60.6425792,111.30534 60.4316406,111.017578 C60.2207021,110.729816 59.942059,110.585938 59.5957031,110.585938 Z M65.1425781,115 L65.1425781,112.03125 L65.1738281,112.03125 L67.3652344,115 L68.6347656,115 L68.6347656,109.363281 L67.0722656,109.363281 L67.0722656,112.285156 L67.0410156,112.285156 L64.8652344,109.363281 L63.5800781,109.363281 L63.5800781,115 L65.1425781,115 Z" id="OSCILLATION" fill="#FAF0D9"></path>
                <g id="Toggle" transform="translate(24.000000, 66.000000)">
                    <circle id="Oval-4" stroke="#73786F" stroke-width="4" fill="#969D90" cx="14" cy="14" r="14"></circle>
                    <path d="M29.0808681,8.23361034 C27.7546516,8.23361034 13.2797197,9.05971328 13.2797197,9.05971328 C13.2797197,9.05971328 6.22391748,14.3121626 13.2732574,20.0439025 C13.2797197,20.1997168 28.9451589,20.2058201 28.9451589,20.2058201 C28.9451589,20.2058201 32.9857734,11.0119871 29.0808681,8.23361034 Z" id="Path-2" fill="#666B62"></path>
                    <circle id="Path" fill="#5E625A" cx="28" cy="14" r="6"></circle>
                </g>
                <circle id="Led" stroke="#73786F" stroke-width="3" fill="#2DB377" cx="39.5" cy="26.5" r="7.5"></circle>
                <path d="M10.1992188,58.265625 C11.0716189,58.265625 11.7630183,58.5266901 12.2734375,59.0488281 C12.7838567,59.5709662 13.0390625,60.2825476 13.0390625,61.1835938 C13.0390625,62.0846399 12.7838567,62.7955703 12.2734375,63.3164062 C11.7630183,63.8372422 11.0716189,64.0976562 10.1992188,64.0976562 C9.32681855,64.0976562 8.63541922,63.8372422 8.125,63.3164062 C7.61458078,62.7955703 7.359375,62.0846399 7.359375,61.1835938 C7.359375,60.2825476 7.61523182,59.5709662 8.12695312,59.0488281 C8.63867443,58.5266901 9.32942273,58.265625 10.1992188,58.265625 Z M10.1992188,59.5859375 C9.85286285,59.5859375 9.5742198,59.7298163 9.36328125,60.0175781 C9.1523427,60.30534 9.046875,60.694008 9.046875,61.1835938 C9.046875,61.6705754 9.1523427,62.0579413 9.36328125,62.3457031 C9.5742198,62.633465 9.85286285,62.7773438 10.1992188,62.7773438 C10.5481788,62.7773438 10.8274729,62.633465 11.0371094,62.3457031 C11.2467458,62.0579413 11.3515625,61.6705754 11.3515625,61.1835938 C11.3515625,60.694008 11.2460948,60.30534 11.0351562,60.0175781 C10.8242177,59.7298163 10.5455746,59.5859375 10.1992188,59.5859375 Z M15.8398438,64 L15.8398438,62.0039062 L17.9257812,62.0039062 L17.9257812,60.7617188 L15.8398438,60.7617188 L15.8398438,59.6796875 L18.1445312,59.6796875 L18.1445312,58.3632812 L14.1835938,58.3632812 L14.1835938,64 L15.8398438,64 Z M20.8867188,64 L20.8867188,62.0039062 L22.9726562,62.0039062 L22.9726562,60.7617188 L20.8867188,60.7617188 L20.8867188,59.6796875 L23.1914062,59.6796875 L23.1914062,58.3632812 L19.2304688,58.3632812 L19.2304688,64 L20.8867188,64 Z" id="OFF" fill="#1D1725"></path>
                <path d="M63.078125,58.265625 C63.9505252,58.265625 64.6419245,58.5266901 65.1523438,59.0488281 C65.662763,59.5709662 65.9179688,60.2825476 65.9179688,61.1835938 C65.9179688,62.0846399 65.662763,62.7955703 65.1523438,63.3164062 C64.6419245,63.8372422 63.9505252,64.0976562 63.078125,64.0976562 C62.2057248,64.0976562 61.5143255,63.8372422 61.0039062,63.3164062 C60.493487,62.7955703 60.2382812,62.0846399 60.2382812,61.1835938 C60.2382812,60.2825476 60.4941381,59.5709662 61.0058594,59.0488281 C61.5175807,58.5266901 62.208329,58.265625 63.078125,58.265625 Z M63.078125,59.5859375 C62.7317691,59.5859375 62.4531261,59.7298163 62.2421875,60.0175781 C62.0312489,60.30534 61.9257812,60.694008 61.9257812,61.1835938 C61.9257812,61.6705754 62.0312489,62.0579413 62.2421875,62.3457031 C62.4531261,62.633465 62.7317691,62.7773438 63.078125,62.7773438 C63.4270851,62.7773438 63.7063792,62.633465 63.9160156,62.3457031 C64.1256521,62.0579413 64.2304688,61.6705754 64.2304688,61.1835938 C64.2304688,60.694008 64.1250011,60.30534 63.9140625,60.0175781 C63.7031239,59.7298163 63.4244809,59.5859375 63.078125,59.5859375 Z M68.625,64 L68.625,61.03125 L68.65625,61.03125 L70.8476562,64 L72.1171875,64 L72.1171875,58.3632812 L70.5546875,58.3632812 L70.5546875,61.2851562 L70.5234375,61.2851562 L68.3476562,58.3632812 L67.0625,58.3632812 L67.0625,64 L68.625,64 Z" id="ON" fill="#1D1725"></path>
            </g>
            <g id="Modulation" transform="translate(217.000000, 129.000000)">
                <rect id="Rectangle-9" stroke="#1E1C19" stroke-width="2" x="1" y="1" width="79" height="115" rx="4"></rect>
                <path d="M0.0373917111,107.004035 C0.105923498,106.995574 81.0278967,107.002862 81.0373917,107.004035 C81.0468867,107.005207 81.0404165,113.009031 81.0404165,113.009031 C81.038746,115.215411 79.2511904,117.004035 77.0344139,117.004035 L4.04036957,117.004035 C1.82958594,117.004035 0.0264814988,115.217582 0.0154986055,112.996974 C0.0154986055,112.996974 -0.0311400754,107.012495 0.0373917111,107.004035 Z" id="Rectangle-10" fill="#1D1725"></path>
                <path d="M17.2421875,115 L17.2421875,109.363281 L15.328125,109.363281 L14.0703125,112.652344 L14.0390625,112.652344 L12.7773438,109.363281 L10.8632812,109.363281 L10.8632812,115 L12.3085938,115 L12.3085938,111.734375 L12.3398438,111.734375 L13.609375,114.933594 L14.4960938,114.933594 L15.765625,111.734375 L15.796875,111.734375 L15.796875,115 L17.2421875,115 Z M21.2265625,109.265625 C22.0989627,109.265625 22.790362,109.52669 23.3007813,110.048828 C23.8112005,110.570966 24.0664063,111.282548 24.0664063,112.183594 C24.0664063,113.08464 23.8112005,113.79557 23.3007813,114.316406 C22.790362,114.837242 22.0989627,115.097656 21.2265625,115.097656 C20.3541623,115.097656 19.662763,114.837242 19.1523438,114.316406 C18.6419245,113.79557 18.3867188,113.08464 18.3867188,112.183594 C18.3867188,111.282548 18.6425756,110.570966 19.1542969,110.048828 C19.6660182,109.52669 20.3567665,109.265625 21.2265625,109.265625 Z M21.2265625,110.585938 C20.8802066,110.585938 20.6015636,110.729816 20.390625,111.017578 C20.1796864,111.30534 20.0742188,111.694008 20.0742188,112.183594 C20.0742188,112.670575 20.1796864,113.057941 20.390625,113.345703 C20.6015636,113.633465 20.8802066,113.777344 21.2265625,113.777344 C21.5755226,113.777344 21.8548167,113.633465 22.0644531,113.345703 C22.2740896,113.057941 22.3789062,112.670575 22.3789062,112.183594 C22.3789062,111.694008 22.2734386,111.30534 22.0625,111.017578 C21.8515614,110.729816 21.5729184,110.585938 21.2265625,110.585938 Z M25.2109375,109.363281 L27.6210938,109.363281 C28.4778689,109.363281 29.1445289,109.600258 29.6210938,110.074219 C30.0976586,110.548179 30.3359375,111.236975 30.3359375,112.140625 C30.3359375,113.041671 30.0970076,113.743487 29.6191406,114.246094 C29.1412737,114.7487 28.4752647,115 27.6210938,115 L25.2109375,115 L25.2109375,109.363281 Z M26.8671875,110.679688 L26.8671875,113.683594 L27.3867188,113.683594 C27.8007833,113.683594 28.1145823,113.555991 28.328125,113.300781 C28.5416677,113.045572 28.6484375,112.658857 28.6484375,112.140625 C28.6484375,111.666664 28.5371105,111.304689 28.3144531,111.054688 C28.0917958,110.804686 27.7825541,110.679688 27.3867188,110.679688 L26.8671875,110.679688 Z M33.1367188,109.363281 L31.4804688,109.363281 L31.4804688,112.992188 C31.4804688,113.63542 31.7083311,114.147134 32.1640625,114.527344 C32.6197939,114.907554 33.2200484,115.097656 33.9648438,115.097656 C34.7096391,115.097656 35.3098936,114.907554 35.765625,114.527344 C36.2213564,114.147134 36.4492188,113.63542 36.4492188,112.992188 L36.4492188,109.363281 L34.7929688,109.363281 L34.7929688,112.808594 C34.7929688,113.10547 34.7220059,113.332682 34.5800781,113.490234 C34.4381503,113.647787 34.2330743,113.726562 33.9648438,113.726562 C33.6966132,113.726562 33.4915372,113.647787 33.3496094,113.490234 C33.2076816,113.332682 33.1367188,113.10547 33.1367188,112.808594 L33.1367188,109.363281 Z M41.5976562,113.683594 L39.3867188,113.683594 L39.3867188,109.363281 L37.7304688,109.363281 L37.7304688,115 L41.5976562,115 L41.5976562,113.683594 Z M46.4414062,115 L46.3964844,114.830078 C46.3665363,114.716796 46.3326825,114.586589 46.2949219,114.439453 C46.2571613,114.292317 46.2233074,114.16211 46.1933594,114.048828 L46.1484375,113.878906 L44.4296875,113.878906 L44.1367188,115 L42.4492188,115 L44.2890625,109.363281 L46.3671875,109.363281 L48.2070312,115 L46.4414062,115 Z M45.2734375,110.664062 L45.21875,110.871094 C45.1822915,111.009115 45.1373701,111.179686 45.0839844,111.382812 C45.0305987,111.585939 44.9765628,111.789061 44.921875,111.992188 C44.8671872,112.195314 44.8216148,112.365885 44.7851562,112.503906 L44.7304688,112.710938 L45.8476562,112.710938 L45.3046875,110.664062 L45.2734375,110.664062 Z M51.3984375,115 L51.3984375,110.679688 L52.8828125,110.679688 L52.8828125,109.363281 L48.2578125,109.363281 L48.2578125,110.679688 L49.7421875,110.679688 L49.7421875,115 L51.3984375,115 Z M55.6054688,115 L55.6054688,109.363281 L53.9492188,109.363281 L53.9492188,115 L55.6054688,115 Z M59.5898438,109.265625 C60.4622439,109.265625 61.1536433,109.52669 61.6640625,110.048828 C62.1744817,110.570966 62.4296875,111.282548 62.4296875,112.183594 C62.4296875,113.08464 62.1744817,113.79557 61.6640625,114.316406 C61.1536433,114.837242 60.4622439,115.097656 59.5898438,115.097656 C58.7174436,115.097656 58.0260442,114.837242 57.515625,114.316406 C57.0052058,113.79557 56.75,113.08464 56.75,112.183594 C56.75,111.282548 57.0058568,110.570966 57.5175781,110.048828 C58.0292994,109.52669 58.7200477,109.265625 59.5898438,109.265625 Z M59.5898438,110.585938 C59.2434879,110.585938 58.9648448,110.729816 58.7539063,111.017578 C58.5429677,111.30534 58.4375,111.694008 58.4375,112.183594 C58.4375,112.670575 58.5429677,113.057941 58.7539063,113.345703 C58.9648448,113.633465 59.2434879,113.777344 59.5898438,113.777344 C59.9388038,113.777344 60.2180979,113.633465 60.4277344,113.345703 C60.6373708,113.057941 60.7421875,112.670575 60.7421875,112.183594 C60.7421875,111.694008 60.6367198,111.30534 60.4257813,111.017578 C60.2148427,110.729816 59.9361996,110.585938 59.5898438,110.585938 Z M65.1367188,115 L65.1367188,112.03125 L65.1679688,112.03125 L67.359375,115 L68.6289062,115 L68.6289062,109.363281 L67.0664062,109.363281 L67.0664062,112.285156 L67.0351562,112.285156 L64.859375,109.363281 L63.5742188,109.363281 L63.5742188,115 L65.1367188,115 Z" id="MODULATION" fill="#FAF0D9"></path>
                <g id="Toggle" transform="translate(24.000000, 66.000000)">
                    <circle id="Oval-4" stroke="#73786F" stroke-width="4" fill="#969D90" cx="14" cy="14" r="14"></circle>
                    <path d="M29.0808681,8.23361034 C27.7546516,8.23361034 13.2797197,9.05971328 13.2797197,9.05971328 C13.2797197,9.05971328 6.22391748,14.3121626 13.2732574,20.0439025 C13.2797197,20.1997168 28.9451589,20.2058201 28.9451589,20.2058201 C28.9451589,20.2058201 32.9857734,11.0119871 29.0808681,8.23361034 Z" id="Path-2" fill="#666B62"></path>
                    <circle id="Path" fill="#5E625A" cx="28" cy="14" r="6"></circle>
                </g>
                <circle id="Led" stroke="#73786F" stroke-width="3" fill="#2DB377" cx="38" cy="26" r="8"></circle>
                <path d="M9.19921875,56.265625 C10.0716189,56.265625 10.7630183,56.5266901 11.2734375,57.0488281 C11.7838567,57.5709662 12.0390625,58.2825476 12.0390625,59.1835938 C12.0390625,60.0846399 11.7838567,60.7955703 11.2734375,61.3164062 C10.7630183,61.8372422 10.0716189,62.0976562 9.19921875,62.0976562 C8.32681855,62.0976562 7.63541922,61.8372422 7.125,61.3164062 C6.61458078,60.7955703 6.359375,60.0846399 6.359375,59.1835938 C6.359375,58.2825476 6.61523182,57.5709662 7.12695312,57.0488281 C7.63867443,56.5266901 8.32942273,56.265625 9.19921875,56.265625 Z M9.19921875,57.5859375 C8.85286285,57.5859375 8.5742198,57.7298163 8.36328125,58.0175781 C8.1523427,58.30534 8.046875,58.694008 8.046875,59.1835938 C8.046875,59.6705754 8.1523427,60.0579413 8.36328125,60.3457031 C8.5742198,60.633465 8.85286285,60.7773438 9.19921875,60.7773438 C9.54817883,60.7773438 9.82747291,60.633465 10.0371094,60.3457031 C10.2467458,60.0579413 10.3515625,59.6705754 10.3515625,59.1835938 C10.3515625,58.694008 10.2460948,58.30534 10.0351562,58.0175781 C9.8242177,57.7298163 9.54557465,57.5859375 9.19921875,57.5859375 Z M14.8398438,62 L14.8398438,60.0039062 L16.9257812,60.0039062 L16.9257812,58.7617188 L14.8398438,58.7617188 L14.8398438,57.6796875 L17.1445312,57.6796875 L17.1445312,56.3632812 L13.1835938,56.3632812 L13.1835938,62 L14.8398438,62 Z M19.8867188,62 L19.8867188,60.0039062 L21.9726562,60.0039062 L21.9726562,58.7617188 L19.8867188,58.7617188 L19.8867188,57.6796875 L22.1914062,57.6796875 L22.1914062,56.3632812 L18.2304688,56.3632812 L18.2304688,62 L19.8867188,62 Z" id="OFF" fill="#1D1725"></path>
                <path d="M62.578125,56.265625 C63.4505252,56.265625 64.1419245,56.5266901 64.6523438,57.0488281 C65.162763,57.5709662 65.4179688,58.2825476 65.4179688,59.1835938 C65.4179688,60.0846399 65.162763,60.7955703 64.6523438,61.3164062 C64.1419245,61.8372422 63.4505252,62.0976562 62.578125,62.0976562 C61.7057248,62.0976562 61.0143255,61.8372422 60.5039062,61.3164062 C59.993487,60.7955703 59.7382812,60.0846399 59.7382812,59.1835938 C59.7382812,58.2825476 59.9941381,57.5709662 60.5058594,57.0488281 C61.0175807,56.5266901 61.708329,56.265625 62.578125,56.265625 Z M62.578125,57.5859375 C62.2317691,57.5859375 61.9531261,57.7298163 61.7421875,58.0175781 C61.5312489,58.30534 61.4257812,58.694008 61.4257812,59.1835938 C61.4257812,59.6705754 61.5312489,60.0579413 61.7421875,60.3457031 C61.9531261,60.633465 62.2317691,60.7773438 62.578125,60.7773438 C62.9270851,60.7773438 63.2063792,60.633465 63.4160156,60.3457031 C63.6256521,60.0579413 63.7304688,59.6705754 63.7304688,59.1835938 C63.7304688,58.694008 63.6250011,58.30534 63.4140625,58.0175781 C63.2031239,57.7298163 62.9244809,57.5859375 62.578125,57.5859375 Z M68.125,62 L68.125,59.03125 L68.15625,59.03125 L70.3476562,62 L71.6171875,62 L71.6171875,56.3632812 L70.0546875,56.3632812 L70.0546875,59.2851562 L70.0234375,59.2851562 L67.8476562,56.3632812 L66.5625,56.3632812 L66.5625,62 L68.125,62 Z" id="ON" fill="#1D1725"></path>
            </g>
            <g id="Delay-Time" transform="translate(131.000000, 129.000000)">
                <rect id="Rectangle-9" stroke="#1E1C19" stroke-width="2" x="1" y="1" width="79" height="175" rx="4"></rect>
                <path d="M0.0373917111,167.004035 C0.105923498,166.995574 81.0278967,167.002862 81.0373917,167.004035 C81.0468867,167.005207 81.0404165,173.009031 81.0404165,173.009031 C81.038746,175.215411 79.2511904,177.004035 77.0344139,177.004035 L4.04036957,177.004035 C1.82958594,177.004035 0.0264814988,175.217582 0.0154986055,172.996974 C0.0154986055,172.996974 -0.0311400754,167.012495 0.0373917111,167.004035 Z" id="Rectangle-10" fill="#1D1725"></path>
                <rect id="Rectangle-12" fill="#1D1725" x="36" y="9" width="10" height="154" rx="2"></rect>
                <path d="M14.5195312,169.363281 L16.9296875,169.363281 C17.7864626,169.363281 18.4531226,169.600258 18.9296875,170.074219 C19.4062524,170.548179 19.6445312,171.236975 19.6445312,172.140625 C19.6445312,173.041671 19.4056013,173.743487 18.9277344,174.246094 C18.4498674,174.7487 17.7838584,175 16.9296875,175 L14.5195312,175 L14.5195312,169.363281 Z M16.1757812,170.679688 L16.1757812,173.683594 L16.6953125,173.683594 C17.1093771,173.683594 17.423176,173.555991 17.6367188,173.300781 C17.8502615,173.045572 17.9570312,172.658857 17.9570312,172.140625 C17.9570312,171.666664 17.8457042,171.304689 17.6230469,171.054688 C17.4003895,170.804686 17.0911478,170.679688 16.6953125,170.679688 L16.1757812,170.679688 Z M24.765625,173.683594 L22.4453125,173.683594 L22.4453125,172.777344 L24.6210938,172.777344 L24.6210938,171.589844 L22.4453125,171.589844 L22.4453125,170.679688 L24.765625,170.679688 L24.765625,169.363281 L20.7890625,169.363281 L20.7890625,175 L24.765625,175 L24.765625,173.683594 Z M29.90625,173.683594 L27.6953125,173.683594 L27.6953125,169.363281 L26.0390625,169.363281 L26.0390625,175 L29.90625,175 L29.90625,173.683594 Z M34.75,175 L34.7050781,174.830078 C34.6751301,174.716796 34.6412762,174.586589 34.6035156,174.439453 C34.565755,174.292317 34.5319012,174.16211 34.5019531,174.048828 L34.4570312,173.878906 L32.7382812,173.878906 L32.4453125,175 L30.7578125,175 L32.5976562,169.363281 L34.6757812,169.363281 L36.515625,175 L34.75,175 Z M33.5820312,170.664062 L33.5273438,170.871094 C33.4908852,171.009115 33.4459638,171.179686 33.3925781,171.382812 C33.3391924,171.585939 33.2851565,171.789061 33.2304688,171.992188 C33.175781,172.195314 33.1302085,172.365885 33.09375,172.503906 L33.0390625,172.710938 L34.15625,172.710938 L33.6132812,170.664062 L33.5820312,170.664062 Z M39.9726562,175 L38.3164062,175 L38.3164062,173.214844 L36.390625,169.363281 L38.1601562,169.363281 L39.1484375,171.648438 L39.1796875,171.648438 L40.1679688,169.363281 L41.8984375,169.363281 L39.9726562,173.214844 L39.9726562,175 Z M47.8554688,175 L47.8554688,170.679688 L49.3398438,170.679688 L49.3398438,169.363281 L44.7148438,169.363281 L44.7148438,170.679688 L46.1992188,170.679688 L46.1992188,175 L47.8554688,175 Z M52.0625,175 L52.0625,169.363281 L50.40625,169.363281 L50.40625,175 L52.0625,175 Z M59.7226562,175 L59.7226562,169.363281 L57.8085938,169.363281 L56.5507812,172.652344 L56.5195312,172.652344 L55.2578125,169.363281 L53.34375,169.363281 L53.34375,175 L54.7890625,175 L54.7890625,171.734375 L54.8203125,171.734375 L56.0898438,174.933594 L56.9765625,174.933594 L58.2460938,171.734375 L58.2773438,171.734375 L58.2773438,175 L59.7226562,175 Z M64.9804688,173.683594 L62.6601562,173.683594 L62.6601562,172.777344 L64.8359375,172.777344 L64.8359375,171.589844 L62.6601562,171.589844 L62.6601562,170.679688 L64.9804688,170.679688 L64.9804688,169.363281 L61.0039062,169.363281 L61.0039062,175 L64.9804688,175 L64.9804688,173.683594 Z" id="DELAY-TIME" fill="#FAF0D9"></path>
                <rect id="Rectangle-13" fill="#1D1725" x="7" y="20" width="69" height="2"></rect>
                <rect id="Rectangle-13" fill="#1D1725" x="7" y="46" width="69" height="2"></rect>
                <rect id="Rectangle-13" fill="#1D1725" x="7" y="72" width="69" height="2"></rect>
                <rect id="Rectangle-13" fill="#1D1725" x="7" y="97" width="69" height="2"></rect>
                <rect id="Rectangle-13" fill="#1D1725" x="7" y="122" width="69" height="2"></rect>
                <rect id="Rectangle-13" fill="#1D1725" x="7" y="147" width="69" height="2"></rect>
                <rect id="Rectangle-14" fill="#1D1725" x="8" y="27" width="12" height="2"></rect>
                <rect id="Rectangle-14" fill="#1D1725" x="8" y="33" width="12" height="2"></rect>
                <rect id="Rectangle-14" fill="#1D1725" x="8" y="40" width="12" height="2"></rect>
                <rect id="Rectangle-14" fill="#1D1725" x="64" y="27" width="12" height="2"></rect>
                <rect id="Rectangle-14" fill="#1D1725" x="64" y="33" width="12" height="2"></rect>
                <rect id="Rectangle-14" fill="#1D1725" x="64" y="40" width="12" height="2"></rect>
                <rect id="Rectangle-14" fill="#1D1725" x="8" y="53" width="12" height="2"></rect>
                <rect id="Rectangle-14" fill="#1D1725" x="8" y="59" width="12" height="2"></rect>
                <rect id="Rectangle-14" fill="#1D1725" x="8" y="66" width="12" height="2"></rect>
                <rect id="Rectangle-14" fill="#1D1725" x="64" y="53" width="12" height="2"></rect>
                <rect id="Rectangle-14" fill="#1D1725" x="64" y="59" width="12" height="2"></rect>
                <rect id="Rectangle-14" fill="#1D1725" x="64" y="66" width="12" height="2"></rect>
                <rect id="Rectangle-14" fill="#1D1725" x="8" y="78" width="12" height="2"></rect>
                <rect id="Rectangle-14" fill="#1D1725" x="8" y="84" width="12" height="2"></rect>
                <rect id="Rectangle-14" fill="#1D1725" x="8" y="91" width="12" height="2"></rect>
                <rect id="Rectangle-14" fill="#1D1725" x="64" y="78" width="12" height="2"></rect>
                <rect id="Rectangle-14" fill="#1D1725" x="64" y="84" width="12" height="2"></rect>
                <rect id="Rectangle-14" fill="#1D1725" x="64" y="91" width="12" height="2"></rect>
                <rect id="Rectangle-14" fill="#1D1725" x="8" y="103" width="12" height="2"></rect>
                <rect id="Rectangle-14" fill="#1D1725" x="8" y="109" width="12" height="2"></rect>
                <rect id="Rectangle-14" fill="#1D1725" x="8" y="116" width="12" height="2"></rect>
                <rect id="Rectangle-14" fill="#1D1725" x="64" y="103" width="12" height="2"></rect>
                <rect id="Rectangle-14" fill="#1D1725" x="64" y="109" width="12" height="2"></rect>
                <rect id="Rectangle-14" fill="#1D1725" x="64" y="116" width="12" height="2"></rect>
                <rect id="Rectangle-14" fill="#1D1725" x="8" y="129" width="12" height="2"></rect>
                <rect id="Rectangle-14" fill="#1D1725" x="8" y="135" width="12" height="2"></rect>
                <rect id="Rectangle-14" fill="#1D1725" x="8" y="142" width="12" height="2"></rect>
                <rect id="Rectangle-14" fill="#1D1725" x="64" y="129" width="12" height="2"></rect>
                <rect id="Rectangle-14" fill="#1D1725" x="64" y="135" width="12" height="2"></rect>
                <rect id="Rectangle-14" fill="#1D1725" x="64" y="142" width="12" height="2"></rect>
                <g id="Rectangle-15">
                    <use fill="#0D0C0E" fill-rule="evenodd" xlink:href="#path-4"></use>
                    <rect stroke="#110E15" stroke-width="1" x="13.5" y="81.5" width="52" height="22"></rect>
                </g>
                <rect id="Rectangle-16" fill="#FFFFFF" x="13" y="91" width="53" height="2"></rect>
            </g>
            <path d="M86.1359863,305 L86.1359863,302.255371 L89.0041504,302.255371 L89.0041504,300.547363 L86.1359863,300.547363 L86.1359863,299.05957 L89.3049316,299.05957 L89.3049316,297.249512 L83.8586426,297.249512 L83.8586426,305 L86.1359863,305 Z M90.2937012,305 L92.6999512,305 L94.0266113,302.663574 L94.0749512,302.663574 L95.4069824,305 L97.9421387,305 L95.552002,301.127441 L95.552002,301.084473 L97.9528809,297.249512 L95.4284668,297.249512 L94.2038574,299.720215 L94.1608887,299.720215 L92.9416504,297.249512 L90.2883301,297.249512 L92.576416,301.07373 L92.576416,301.116699 L92.345459,301.508789 C92.1914869,301.770184 92.0017101,302.093341 91.776123,302.478271 C91.550536,302.863202 91.3240571,303.249022 91.0966797,303.635742 C90.8693022,304.022463 90.6786303,304.346516 90.5246582,304.60791 L90.2937012,305 Z" id="FX" fill="#1D1725"></path>
            <path d="M250.15918,305 L247.881836,305 L247.881836,299.05957 L245.84082,299.05957 L245.84082,297.249512 L252.200195,297.249512 L252.200195,299.05957 L250.15918,299.05957 L250.15918,305 Z M257.571777,305 L257.51001,304.766357 C257.468831,304.610595 257.422282,304.43156 257.370361,304.229248 C257.31844,304.026936 257.271891,303.847901 257.230713,303.692139 L257.168945,303.458496 L254.805664,303.458496 L254.402832,305 L252.08252,305 L254.612305,297.249512 L257.469727,297.249512 L259.999512,305 L257.571777,305 Z M255.96582,299.038086 L255.890625,299.322754 C255.840495,299.512534 255.778728,299.747069 255.705322,300.026367 C255.631917,300.305665 255.557618,300.58496 255.482422,300.864258 C255.407226,301.143556 255.344564,301.378091 255.294434,301.567871 L255.219238,301.852539 L256.755371,301.852539 L256.008789,299.038086 L255.96582,299.038086 Z M261.197754,297.249512 L264.737305,297.249512 C265.600265,297.249512 266.29671,297.504636 266.82666,298.014893 C267.356611,298.525149 267.621582,299.211747 267.621582,300.074707 C267.621582,300.926925 267.341393,301.608152 266.781006,302.118408 C266.220619,302.628665 265.487472,302.883789 264.581543,302.883789 L263.475098,302.883789 L263.475098,305 L261.197754,305 L261.197754,297.249512 Z M263.475098,298.962891 L263.475098,301.202637 L264.114258,301.202637 C264.493817,301.202637 264.790119,301.107748 265.003174,300.917969 C265.216228,300.728189 265.322754,300.448895 265.322754,300.080078 C265.322754,299.711261 265.217123,299.432862 265.005859,299.244873 C264.794595,299.056884 264.502769,298.962891 264.130371,298.962891 L263.475098,298.962891 Z" id="TAP" fill="#1D1725"></path>
            <circle id="Led" stroke="#73786F" stroke-width="3" fill="#2DB377" cx="87.5" cy="272.5" r="7.5"></circle>
            <circle id="Led" stroke="#73786F" stroke-width="3" fill="#2DB377" cx="255.5" cy="272.5" r="7.5"></circle>
            <g id="Oval-7">
                <use fill="#5E625A" fill-rule="evenodd" xlink:href="#path-5"></use>
                <circle stroke="#9D9D9C" stroke-width="7" cx="87.5" cy="352.5" r="18"></circle>
            </g>
            <g id="Oval-7">
                <use fill="#5E625A" fill-rule="evenodd" xlink:href="#path-6"></use>
                <circle stroke="#9D9D9C" stroke-width="7" cx="256.5" cy="352.5" r="18"></circle>
            </g>
            <rect id="Rectangle-17" fill="#1D1725" x="111" y="24" width="23" height="9"></rect>
            <rect id="Rectangle-17" fill="#1D1725" x="52" y="24" width="52" height="9"></rect>
            <rect id="Rectangle-17" fill="#1D1725" x="142" y="24" width="12" height="9"></rect>
            <rect id="Rectangle-17" fill="#1D1725" x="160" y="24" width="7" height="9"></rect>
            <rect id="Rectangle-17" fill="#1D1725" x="181" y="24" width="2" height="9"></rect>
            <rect id="Rectangle-17" fill="#1D1725" x="172" y="24" width="5" height="9"></rect>
            <path d="M198.453613,31.7685547 L194.061035,31.7685547 L194.061035,28.9248047 L198.21875,28.9248047 L198.21875,27.7441406 L194.061035,27.7441406 L194.061035,25.0717773 L198.453613,25.0717773 L198.453613,23.840332 L192.63916,23.840332 L192.63916,33 L198.453613,33 L198.453613,31.7685547 Z M204.779297,33.1523438 C205.833013,33.1523438 206.701575,32.8889186 207.38501,32.3620605 C208.068444,31.8352024 208.496907,31.0978237 208.67041,30.1499023 L207.254883,30.1499023 C207.111002,30.7042671 206.823244,31.1359034 206.391602,31.4448242 C205.959959,31.753745 205.424645,31.9082031 204.785645,31.9082031 C203.943518,31.9082031 203.274905,31.5929394 202.779785,30.9624023 C202.284665,30.3318653 202.037109,29.4834038 202.037109,28.4169922 C202.037109,27.3548124 202.286781,26.5084667 202.786133,25.8779297 C203.285484,25.2473927 203.949866,24.9321289 204.779297,24.9321289 C205.40137,24.9321289 205.9388,25.1088036 206.391602,25.4621582 C206.844403,25.8155128 207.132161,26.2862926 207.254883,26.8745117 L208.664062,26.8745117 C208.545572,25.9181267 208.127689,25.1479521 207.4104,24.5639648 C206.693112,23.9799775 205.816086,23.6879883 204.779297,23.6879883 C203.501296,23.6879883 202.482507,24.113277 201.7229,24.9638672 C200.963294,25.8144574 200.583496,26.9654875 200.583496,28.4169922 C200.583496,29.8811922 200.962236,31.0364541 201.719727,31.8828125 C202.477217,32.7291709 203.497064,33.1523438 204.779297,33.1523438 Z M218.5,33 L218.5,23.840332 L217.078125,23.840332 L217.078125,27.7124023 L212.374512,27.7124023 L212.374512,23.840332 L210.952637,23.840332 L210.952637,33 L212.374512,33 L212.374512,28.9438477 L217.078125,28.9438477 L217.078125,33 L218.5,33 Z M225.143066,23.6879883 C226.463386,23.6879883 227.508622,24.113277 228.278809,24.9638672 C229.048995,25.8144574 229.434082,26.9676034 229.434082,28.4233398 C229.434082,29.8790763 229.048995,31.0311644 228.278809,31.8796387 C227.508622,32.728113 226.463386,33.1523438 225.143066,33.1523438 C223.822747,33.1523438 222.77751,32.728113 222.007324,31.8796387 C221.237138,31.0311644 220.852051,29.8790763 220.852051,28.4233398 C220.852051,26.9676034 221.237138,25.8144574 222.007324,24.9638672 C222.77751,24.113277 223.822747,23.6879883 225.143066,23.6879883 Z M225.143066,24.9384766 C224.275549,24.9384766 223.585777,25.2516245 223.07373,25.8779297 C222.561684,26.5042349 222.305664,27.3526965 222.305664,28.4233398 C222.305664,29.4897514 222.561684,30.3360971 223.07373,30.9624023 C223.585777,31.5887076 224.275549,31.9018555 225.143066,31.9018555 C226.010584,31.9018555 226.699298,31.5887076 227.209229,30.9624023 C227.719159,30.3360971 227.974121,29.4897514 227.974121,28.4233398 C227.974121,27.3526965 227.719159,26.5042349 227.209229,25.8779297 C226.699298,25.2516245 226.010584,24.9384766 225.143066,24.9384766 Z M235.375977,30.4482422 C235.422526,31.2734416 235.762122,31.9304175 236.394775,32.4191895 C237.027428,32.9079614 237.851557,33.1523438 238.867188,33.1523438 C239.950526,33.1523438 240.810625,32.9026718 241.44751,32.4033203 C242.084394,31.9039689 242.402832,31.2247764 242.402832,30.3657227 C242.402832,29.6970995 242.194419,29.1628438 241.777588,28.7629395 C241.360756,28.3630351 240.682622,28.0509451 239.743164,27.8266602 L238.733887,27.5791016 C238.145668,27.4352206 237.721437,27.2606618 237.461182,27.0554199 C237.200926,26.850178 237.070801,26.584637 237.070801,26.2587891 C237.070801,25.852537 237.243244,25.5224622 237.588135,25.2685547 C237.933026,25.0146472 238.380531,24.8876953 238.930664,24.8876953 C239.485029,24.8876953 239.936766,25.017821 240.285889,25.2780762 C240.635012,25.5383314 240.830729,25.8969704 240.873047,26.3540039 L242.256836,26.3540039 C242.235677,25.5626588 241.920413,24.920494 241.311035,24.4274902 C240.701657,23.9344865 239.914556,23.6879883 238.949707,23.6879883 C237.972163,23.6879883 237.172366,23.9344865 236.550293,24.4274902 C235.92822,24.920494 235.617188,25.5626588 235.617188,26.3540039 C235.617188,27.6066143 236.438143,28.4296855 238.080078,28.8232422 L239.26709,29.1088867 C239.859541,29.2527676 240.289061,29.4379058 240.555664,29.6643066 C240.822267,29.8907075 240.955566,30.1816388 240.955566,30.5371094 C240.955566,30.9433614 240.768312,31.2808418 240.393799,31.5495605 C240.019285,31.8182793 239.544274,31.9526367 238.96875,31.9526367 C238.367836,31.9526367 237.865318,31.8151055 237.461182,31.5400391 C237.057046,31.2649726 236.82959,30.9010439 236.778809,30.4482422 L235.375977,30.4482422 Z M252.226074,33 L252.226074,23.840332 L250.804199,23.840332 L250.804199,27.7124023 L246.100586,27.7124023 L246.100586,23.840332 L244.678711,23.840332 L244.678711,33 L246.100586,33 L246.100586,28.9438477 L250.804199,28.9438477 L250.804199,33 L252.226074,33 Z M256.330078,33 L256.330078,23.840332 L254.908203,23.840332 L254.908203,33 L256.330078,33 Z M260.44043,33 L260.44043,29.1660156 L264.375977,29.1660156 L264.375977,27.9663086 L260.44043,27.9663086 L260.44043,25.0717773 L264.737793,25.0717773 L264.737793,23.840332 L259.018555,23.840332 L259.018555,33 L260.44043,33 Z M270.720703,33 L270.720703,25.0717773 L273.570801,25.0717773 L273.570801,23.840332 L266.442383,23.840332 L266.442383,25.0717773 L269.298828,25.0717773 L269.298828,33 L270.720703,33 Z M281.546875,31.7685547 L277.154297,31.7685547 L277.154297,28.9248047 L281.312012,28.9248047 L281.312012,27.7441406 L277.154297,27.7441406 L277.154297,25.0717773 L281.546875,25.0717773 L281.546875,23.840332 L275.732422,23.840332 L275.732422,33 L281.546875,33 L281.546875,31.7685547 Z M285.428711,25.0336914 L285.428711,28.328125 L287.472656,28.328125 C288.022789,28.328125 288.449136,28.1842462 288.751709,27.8964844 C289.054282,27.6087225 289.205566,27.2024766 289.205566,26.6777344 C289.205566,26.1656875 289.047935,25.7636733 288.732666,25.4716797 C288.417398,25.179686 287.984703,25.0336914 287.43457,25.0336914 L285.428711,25.0336914 Z M285.428711,29.4770508 L285.428711,33 L284.006836,33 L284.006836,23.840332 L287.605957,23.840332 C288.549647,23.840332 289.295489,24.0931778 289.843506,24.598877 C290.391523,25.1045761 290.665527,25.7848265 290.665527,26.6396484 C290.665527,27.2574901 290.508953,27.8002093 290.195801,28.2678223 C289.882648,28.7354353 289.44678,29.0644522 288.888184,29.2548828 L290.944824,33 L289.300781,33 L287.43457,29.4770508 L285.428711,29.4770508 Z" id="ECHO-SHIFTER" fill="#1D1725"></path>
        </g>
    </g>
</svg>