<?xml version="1.0" encoding="UTF-8"?>
<svg width="235px" height="265px" viewBox="0 0 235 265" version="1.1" xmlns="http://www.w3.org/2000/svg" xmlns:xlink="http://www.w3.org/1999/xlink">
    <!-- Generator: Sketch 43.2 (39069) - http://www.bohemiancoding.com/sketch -->
    <title>pedal-distortion</title>
    <desc>Created with Sketch.</desc>
    <defs>
        <circle id="path-1" cx="117.5" cy="211.5" r="21.5"></circle>
    </defs>
    <g id="Page-1" stroke="none" stroke-width="1" fill="none" fill-rule="evenodd">
        <g id="Rat">
            <g id="Body">
                <polygon id="Path-6" fill="#242223" points="11.2442449 6.7998585 5.89124222 0.648430931 0.877650964 0.509433882 2.14801935 264.519783 9.27704489 264.519783 14.7886696 257.125464"></polygon>
                <polygon id="Path-7" fill="#242323" points="224.483953 7.3849391 229.020752 1.7086875 234.735783 1.7086875 231.62129 263.225171 225.434305 263.981574 220.609814 257.091522"></polygon>
                <polygon id="Path-7" fill="#313030" points="10.5464826 6.62853655 224.470649 6.62853655 221.742802 256.571092 13.732116 256.571092"></polygon>
            </g>
            <g id="Labels" transform="translate(6.000000, 15.000000)">
                <rect id="Rectangle-4" stroke="#FFFFFF" x="9.5" y="0.5" width="67" height="23"></rect>
                <rect id="Rectangle-4" stroke="#FFFFFF" x="76.5" y="0.5" width="68" height="23"></rect>
                <rect id="Rectangle-4" stroke="#FFFFFF" x="144.5" y="0.5" width="69" height="23"></rect>
                <path d="M12.6787109,8.95410156 L15.0957031,8.95410156 C16.1406302,8.95410156 16.9560518,9.26334326 17.5419922,9.88183594 C18.1279326,10.5003286 18.4208984,11.3645778 18.4208984,12.4746094 C18.4208984,13.584641 18.1287464,14.4497039 17.5444336,15.0698242 C16.9601208,15.6899445 16.1438854,16 15.0957031,16 L12.6787109,16 L12.6787109,8.95410156 Z M13.5576172,9.74511719 L13.5576172,15.2089844 L15.0371094,15.2089844 C15.8346394,15.2089844 16.44824,14.9729841 16.8779297,14.5009766 C17.3076193,14.028969 17.5224609,13.3567752 17.5224609,12.484375 C17.5224609,11.6022091 17.3084331,10.9251326 16.8803711,10.453125 C16.4523091,9.98111743 15.8378946,9.74511719 15.0371094,9.74511719 L13.5576172,9.74511719 Z M20.3886719,16 L20.3886719,8.95410156 L19.5097656,8.95410156 L19.5097656,16 L20.3886719,16 Z M21.4189453,14.0615234 C21.4612632,14.6832713 21.7208635,15.1813132 22.1977539,15.5556641 C22.6746443,15.9300149 23.2858036,16.1171875 24.03125,16.1171875 C24.8418009,16.1171875 25.4838844,15.9292011 25.9575195,15.5532227 C26.4311547,15.1772442 26.6679688,14.6669954 26.6679688,14.0224609 C26.6679688,13.5179011 26.5084651,13.1142593 26.1894531,12.8115234 C25.8704411,12.5087875 25.3463578,12.266277 24.6171875,12.0839844 L23.8798828,11.8886719 C23.4013648,11.7649733 23.05713,11.6176766 22.847168,11.4467773 C22.637206,11.2758781 22.5322266,11.0569675 22.5322266,10.7900391 C22.5322266,10.4449853 22.6762681,10.1650401 22.9643555,9.95019531 C23.2524428,9.73535049 23.6243467,9.62792969 24.0800781,9.62792969 C24.5390648,9.62792969 24.9117824,9.73697808 25.1982422,9.95507812 C25.484702,10.1731782 25.6474607,10.4710268 25.6865234,10.8486328 L26.5654297,10.8486328 C26.5458983,10.2561819 26.3066429,9.77278833 25.8476562,9.3984375 C25.3886696,9.02408667 24.8092483,8.83691406 24.109375,8.83691406 C23.3769495,8.83691406 22.7788109,9.02245908 22.3149414,9.39355469 C21.8510719,9.76465029 21.6191406,10.2431611 21.6191406,10.8291016 C21.6191406,11.7503301 22.2441344,12.3704411 23.4941406,12.6894531 L24.3974609,12.9238281 C24.8727237,13.0442714 25.2185862,13.2005199 25.4350586,13.3925781 C25.651531,13.5846364 25.7597656,13.8304021 25.7597656,14.1298828 C25.7597656,14.4749366 25.604331,14.7605783 25.293457,14.9868164 C24.9825831,15.2130545 24.5895206,15.3261719 24.1142578,15.3261719 C23.6129532,15.3261719 23.1962907,15.2106131 22.8642578,14.9794922 C22.5322249,14.7483712 22.3450523,14.4423847 22.3027344,14.0615234 L21.4189453,14.0615234 Z M30.4033203,16 L30.4033203,9.74511719 L32.6738281,9.74511719 L32.6738281,8.95410156 L27.2539062,8.95410156 L27.2539062,9.74511719 L29.5244141,9.74511719 L29.5244141,16 L30.4033203,16 Z M36.1357422,8.83691406 C37.1350961,8.83691406 37.9261039,9.16405923 38.5087891,9.81835938 C39.0914743,10.4726595 39.3828125,11.3596949 39.3828125,12.4794922 C39.3828125,13.5960342 39.0914743,14.481442 38.5087891,15.1357422 C37.9261039,15.7900423 37.1350961,16.1171875 36.1357422,16.1171875 C35.1363882,16.1171875 34.3453805,15.7900423 33.7626953,15.1357422 C33.1800101,14.481442 32.8886719,13.5960342 32.8886719,12.4794922 C32.8886719,11.3596949 33.1800101,10.4726595 33.7626953,9.81835938 C34.3453805,9.16405923 35.1363882,8.83691406 36.1357422,8.83691406 Z M36.1357422,9.64746094 C35.4163375,9.64746094 34.845868,9.90217844 34.4243164,10.4116211 C34.0027648,10.9210637 33.7919922,11.6103472 33.7919922,12.4794922 C33.7919922,13.3453819 34.0027648,14.0330378 34.4243164,14.5424805 C34.845868,15.0519231 35.4163375,15.3066406 36.1357422,15.3066406 C36.8551468,15.3066406 37.4256164,15.0519231 37.847168,14.5424805 C38.2687196,14.0330378 38.4794922,13.3453819 38.4794922,12.4794922 C38.4794922,11.6103472 38.2687196,10.9210637 37.847168,10.4116211 C37.4256164,9.90217844 36.8551468,9.64746094 36.1357422,9.64746094 Z M41.3554688,9.73535156 L41.3554688,12.4355469 L43.0888672,12.4355469 C43.5413434,12.4355469 43.890461,12.3183605 44.1362305,12.0839844 C44.3819999,11.8496082 44.5048828,11.5159527 44.5048828,11.0830078 C44.5048828,10.6598286 44.3763034,10.3294283 44.1191406,10.0917969 C43.8619779,9.85416548 43.5055361,9.73535156 43.0498047,9.73535156 L41.3554688,9.73535156 Z M41.3554688,13.2119141 L41.3554688,16 L40.4765625,16 L40.4765625,8.95410156 L43.1669922,8.95410156 C43.8473341,8.95410156 44.3917623,9.14534314 44.800293,9.52783203 C45.2088237,9.91032092 45.4130859,10.4189421 45.4130859,11.0537109 C45.4130859,11.5452499 45.2877617,11.9700503 45.0371094,12.328125 C44.7864571,12.6861997 44.4397809,12.9352207 43.9970703,13.0751953 L45.6279297,16 L44.5976562,16 L43.0888672,13.2119141 L41.3554688,13.2119141 Z M49.2265625,16 L49.2265625,9.74511719 L51.4970703,9.74511719 L51.4970703,8.95410156 L46.0771484,8.95410156 L46.0771484,9.74511719 L48.3476562,9.74511719 L48.3476562,16 L49.2265625,16 Z M53.3037109,16 L53.3037109,8.95410156 L52.4248047,8.95410156 L52.4248047,16 L53.3037109,16 Z M57.6445312,8.83691406 C58.6438852,8.83691406 59.4348929,9.16405923 60.0175781,9.81835938 C60.6002633,10.4726595 60.8916016,11.3596949 60.8916016,12.4794922 C60.8916016,13.5960342 60.6002633,14.481442 60.0175781,15.1357422 C59.4348929,15.7900423 58.6438852,16.1171875 57.6445312,16.1171875 C56.6451773,16.1171875 55.8541696,15.7900423 55.2714844,15.1357422 C54.6887992,14.481442 54.3974609,13.5960342 54.3974609,12.4794922 C54.3974609,11.3596949 54.6887992,10.4726595 55.2714844,9.81835938 C55.8541696,9.16405923 56.6451773,8.83691406 57.6445312,8.83691406 Z M57.6445312,9.64746094 C56.9251266,9.64746094 56.3546571,9.90217844 55.9331055,10.4116211 C55.5115539,10.9210637 55.3007812,11.6103472 55.3007812,12.4794922 C55.3007812,13.3453819 55.5115539,14.0330378 55.9331055,14.5424805 C56.3546571,15.0519231 56.9251266,15.3066406 57.6445312,15.3066406 C58.3639359,15.3066406 58.9344054,15.0519231 59.355957,14.5424805 C59.7775086,14.0330378 59.9882812,13.3453819 59.9882812,12.4794922 C59.9882812,11.6103472 59.7775086,10.9210637 59.355957,10.4116211 C58.9344054,9.90217844 58.3639359,9.64746094 57.6445312,9.64746094 Z M62.8544922,16 L62.8544922,10.4873047 L62.8984375,10.4873047 L66.7558594,16 L67.6103516,16 L67.6103516,8.95410156 L66.7412109,8.95410156 L66.7412109,14.4863281 L66.6972656,14.4863281 L62.8398438,8.95410156 L61.9853516,8.95410156 L61.9853516,16 L62.8544922,16 Z" id="DISTORTION" fill="#FFFFFF"></path>
                <path d="M98.5576172,16 L98.5576172,12.9482422 L101.677734,12.9482422 L101.677734,12.1669922 L98.5576172,12.1669922 L98.5576172,9.74511719 L101.956055,9.74511719 L101.956055,8.95410156 L97.6787109,8.95410156 L97.6787109,16 L98.5576172,16 Z M103.835938,16 L103.835938,8.95410156 L102.957031,8.95410156 L102.957031,16 L103.835938,16 Z M109.480469,15.2089844 L109.480469,16 L105.203125,16 L105.203125,8.95410156 L106.082031,8.95410156 L106.082031,15.2089844 L109.480469,15.2089844 Z M112.083008,16 L111.204102,16 L111.204102,9.74511719 L108.933594,9.74511719 L108.933594,8.95410156 L114.353516,8.95410156 L114.353516,9.74511719 L112.083008,9.74511719 L112.083008,16 Z M119.646484,15.2089844 L116.160156,15.2089844 L116.160156,12.7871094 L119.46582,12.7871094 L119.46582,12.0058594 L116.160156,12.0058594 L116.160156,9.74511719 L119.646484,9.74511719 L119.646484,8.95410156 L115.28125,8.95410156 L115.28125,16 L119.646484,16 L119.646484,15.2089844 Z M121.682617,9.73535156 L121.682617,12.4355469 L123.416016,12.4355469 C123.868492,12.4355469 124.217609,12.3183605 124.463379,12.0839844 C124.709148,11.8496082 124.832031,11.5159527 124.832031,11.0830078 C124.832031,10.6598286 124.703452,10.3294283 124.446289,10.0917969 C124.189126,9.85416548 123.832685,9.73535156 123.376953,9.73535156 L121.682617,9.73535156 Z M121.682617,13.2119141 L121.682617,16 L120.803711,16 L120.803711,8.95410156 L123.494141,8.95410156 C124.174483,8.95410156 124.718911,9.14534314 125.127441,9.52783203 C125.535972,9.91032092 125.740234,10.4189421 125.740234,11.0537109 C125.740234,11.5452499 125.61491,11.9700503 125.364258,12.328125 C125.113606,12.6861997 124.766929,12.9352207 124.324219,13.0751953 L125.955078,16 L124.924805,16 L123.416016,13.2119141 L121.682617,13.2119141 Z" id="FILTER" fill="#FFFFFF"></path>
                <path d="M163.583984,16 L166.181641,8.95410156 L165.258789,8.95410156 L163.164062,14.9306641 L163.134766,14.9306641 L161.040039,8.95410156 L160.117188,8.95410156 L162.714844,16 L163.583984,16 Z M169.960938,8.83691406 C170.960291,8.83691406 171.751299,9.16405923 172.333984,9.81835938 C172.91667,10.4726595 173.208008,11.3596949 173.208008,12.4794922 C173.208008,13.5960342 172.91667,14.481442 172.333984,15.1357422 C171.751299,15.7900423 170.960291,16.1171875 169.960938,16.1171875 C168.961584,16.1171875 168.170576,15.7900423 167.587891,15.1357422 C167.005205,14.481442 166.713867,13.5960342 166.713867,12.4794922 C166.713867,11.3596949 167.005205,10.4726595 167.587891,9.81835938 C168.170576,9.16405923 168.961584,8.83691406 169.960938,8.83691406 Z M169.960938,9.64746094 C169.241533,9.64746094 168.671063,9.90217844 168.249512,10.4116211 C167.82796,10.9210637 167.617188,11.6103472 167.617188,12.4794922 C167.617188,13.3453819 167.82796,14.0330378 168.249512,14.5424805 C168.671063,15.0519231 169.241533,15.3066406 169.960938,15.3066406 C170.680342,15.3066406 171.250812,15.0519231 171.672363,14.5424805 C172.093915,14.0330378 172.304688,13.3453819 172.304688,12.4794922 C172.304688,11.6103472 172.093915,10.9210637 171.672363,10.4116211 C171.250812,9.90217844 170.680342,9.64746094 169.960938,9.64746094 Z M178.579102,15.2089844 L175.180664,15.2089844 L175.180664,8.95410156 L174.301758,8.95410156 L174.301758,16 L178.579102,16 L178.579102,15.2089844 Z M180.083008,8.95410156 L179.204102,8.95410156 L179.204102,13.5292969 C179.204102,14.2812538 179.452309,14.900551 179.94873,15.387207 C180.445152,15.8738631 181.129553,16.1171875 182.001953,16.1171875 C182.877609,16.1171875 183.562823,15.8738631 184.057617,15.387207 C184.552411,14.900551 184.799805,14.2812538 184.799805,13.5292969 L184.799805,8.95410156 L183.920898,8.95410156 L183.920898,13.4707031 C183.920898,14.0013047 183.754071,14.4399397 183.42041,14.7866211 C183.08675,15.1333025 182.613935,15.3066406 182.001953,15.3066406 C181.393226,15.3066406 180.921226,15.1333025 180.585938,14.7866211 C180.250649,14.4399397 180.083008,14.0013047 180.083008,13.4707031 L180.083008,8.95410156 Z M193.110352,16 L193.110352,8.95410156 L192.089844,8.95410156 L189.658203,14.8330078 L189.619141,14.8330078 L187.1875,8.95410156 L186.166992,8.95410156 L186.166992,16 L186.987305,16 L186.987305,10.5703125 L187.021484,10.5703125 L189.267578,15.9511719 L190.009766,15.9511719 L192.255859,10.5703125 L192.290039,10.5703125 L192.290039,16 L193.110352,16 Z M198.842773,15.2089844 L195.356445,15.2089844 L195.356445,12.7871094 L198.662109,12.7871094 L198.662109,12.0058594 L195.356445,12.0058594 L195.356445,9.74511719 L198.842773,9.74511719 L198.842773,8.95410156 L194.477539,8.95410156 L194.477539,16 L198.842773,16 L198.842773,15.2089844 Z" id="VOLUME" fill="#FFFFFF"></path>
                <rect id="Rectangle-5" stroke="#FFFFFF" x="46.5" y="100.5" width="132" height="38"></rect>
                <g id="Rat" transform="translate(51.000000, 106.000000)">
                    <path d="M0.7421875,29 L0.7421875,0.23046875 L21.4434739,0.23046875 C25.2821423,0.23046875 28.2159376,0.465960512 30.244948,0.9369511 C32.2739585,1.40794169 33.9099378,2.28122364 35.1529352,3.55682315 C36.3959325,4.83242266 37.0174219,6.38601414 37.0174219,8.21764421 C37.0174219,9.81377898 36.5421653,11.1907516 35.5916379,12.3486035 C34.6411105,13.5064554 33.334155,14.4451517 31.670732,15.1647206 C30.6105284,15.6226282 29.15734,16.0020316 27.3111233,16.3029422 C28.7917526,16.6561852 29.8702194,17.0094228 30.5465562,17.3626657 C31.0035405,17.598161 31.6661579,18.1018517 32.5344281,18.873753 C33.4026983,19.6456542 33.9830597,20.2409251 34.2755296,20.6595834 L40.2802737,29 L26.2417854,29 L19.6064061,20.2082196 C18.765555,19.0699924 18.0161119,18.3308099 17.3580545,17.99065 C16.4623652,17.5458256 15.4478752,17.3234167 14.3145541,17.3234167 L13.2177972,17.3234167 L13.2177972,29 L0.7421875,29 Z" id="Path" fill="#FFFFFF"></path>
                    <path d="M13.2177972,11.8874275 L18.4548114,11.8874275 C19.021472,11.8874275 20.1182179,11.7565988 21.7450821,11.4949373 C22.5676539,11.3771897 23.2394108,11.0762835 23.7603729,10.5922099 C24.281335,10.1081362 24.5418122,9.55211401 24.5418122,8.92412656 C24.5418122,7.99522845 24.1305325,7.28221173 23.3079607,6.785055 C22.4853889,6.28789826 20.940805,6.03932363 18.6741628,6.03932363 L13.2177972,6.03932363 L13.2177972,11.8874275 Z" id="Path" fill="#FFFFFF"></path>
                    <polygon id="Path" fill="#FFFFFF" points="68.9878855 24.2508686 54.8397215 24.2508686 52.892978 29 40.1980169 29 55.3058432 0.23046875 68.8507909 0.23046875 83.9586171 29 70.9620479 29"></polygon>
                    <polygon id="Path" fill="#FFFFFF" points="66.3830878 18.0298991 61.9412224 7.68778244 57.5267759 18.0298991"></polygon>
                    <polygon id="Path" fill="#FFFFFF" points="81.2441438 0.23046875 119 0.23046875 119 7.33454127 106.332458 7.33454127 106.332458 29 93.911686 29 93.911686 7.33454127 81.2441438 7.33454127"></polygon>
                    <polygon id="Path-5" fill="#E5CF4B" points="63.0732444 7.94224134 67.4204946 15.8488136 58.6758222 15.8488136"></polygon>
                </g>
                <g id="Btn-bg" transform="translate(0.000000, 21.000000)" stroke="#FFFFFF">
                    <path d="M74,43.5 C74,26.6553151 60.3446849,13 43.5,13 C26.6553151,13 13,26.6553151 13,43.5 C13,60.3446849 26.6553151,74 43.5,74" id="Oval-5" transform="translate(43.500000, 43.500000) rotate(43.000000) translate(-43.500000, -43.500000) "></path>
                    <path d="M44.0981872,13.1158821 L44.0981872,56.5" id="Path-8"></path>
                    <path d="M66.2446889,64.0028311 L23.0110064,20.7691486" id="Path-9"></path>
                    <path d="M64.7137314,21.9081031 L21.9197337,64.7021008" id="Path-10"></path>
                    <path d="M12.9041582,43.3071736 L73.8107102,43.3071736" id="Path-11"></path>
                </g>
                <g id="Btn-bg" transform="translate(68.000000, 21.000000)" stroke="#FFFFFF">
                    <path d="M74,43.5 C74,26.6553151 60.3446849,13 43.5,13 C26.6553151,13 13,26.6553151 13,43.5 C13,60.3446849 26.6553151,74 43.5,74" id="Oval-5" transform="translate(43.500000, 43.500000) rotate(43.000000) translate(-43.500000, -43.500000) "></path>
                    <path d="M44.0981872,13.1158821 L44.0981872,57.5" id="Path-8"></path>
                    <path d="M66.2446889,64.0028311 L23.0110064,20.7691486" id="Path-9"></path>
                    <path d="M64.7137314,21.9081031 L21.9197337,64.7021008" id="Path-10"></path>
                    <path d="M12.9041582,43.3071736 L73.8107102,43.3071736" id="Path-11"></path>
                </g>
                <g id="Btn-bg" transform="translate(135.000000, 21.000000)" stroke="#FFFFFF">
                    <path d="M74,43.5 C74,26.6553151 60.3446849,13 43.5,13 C26.6553151,13 13,26.6553151 13,43.5 C13,60.3446849 26.6553151,74 43.5,74" id="Oval-5" transform="translate(43.500000, 43.500000) rotate(43.000000) translate(-43.500000, -43.500000) "></path>
                    <path d="M44.0981872,13.1158821 L44.0981872,58.5" id="Path-8"></path>
                    <path d="M66.2446889,64.0028311 L23.0110064,20.7691486" id="Path-9"></path>
                    <path d="M64.7137314,21.9081031 L21.9197337,64.7021008" id="Path-10"></path>
                    <path d="M12.9041582,43.3071736 L73.8107102,43.3071736" id="Path-11"></path>
                </g>
            </g>
            <g id="Knobs" transform="translate(32.000000, 63.000000)">
                <circle id="Oval-6" fill="#242323" cx="17" cy="17" r="17"></circle>
                <circle id="Oval-6" fill="#242323" cx="85" cy="17" r="17"></circle>
                <circle id="Oval-6" fill="#242323" cx="153" cy="17" r="17"></circle>
                <path d="M2.21415485,24.9655266 L6.33726048,20.8424209" id="Path-12" stroke="#FFFFFF" transform="translate(4.275708, 22.903974) rotate(19.000000) translate(-4.275708, -22.903974) "></path>
                <path d="M91.8852053,1.7508496 L89.795579,7.19451216" id="Path-12" stroke="#FFFFFF"></path>
                <path d="M168,23.0896263 L162.556337,21" id="Path-12" stroke="#FFFFFF"></path>
            </g>
            <g id="Oval-7">
                <use fill="#5E625A" fill-rule="evenodd" xlink:href="#path-1"></use>
                <circle stroke="#9D9D9C" stroke-width="7" cx="117.5" cy="211.5" r="18"></circle>
            </g>
        </g>
    </g>
</svg>