<?xml version="1.0" encoding="UTF-8"?>
<svg width="360px" height="54px" viewBox="0 0 360 54" version="1.1" xmlns="http://www.w3.org/2000/svg" xmlns:xlink="http://www.w3.org/1999/xlink">
    <!-- Generator: Sketch 43.2 (39069) - http://www.bohemiancoding.com/sketch -->
    <title>Group</title>
    <desc>Created with Sketch.</desc>
    <defs></defs>
    <g id="Page-1" stroke="none" stroke-width="1" fill="none" fill-rule="evenodd">
        <g id="Group">
            <path d="M321,18.1310387 L321,15.9970002 C321,13.7976585 319.210675,12 317.003431,12 L188.996569,12 C186.794406,12 185,13.789518 185,15.9970002 L185,41.0029998 C185,43.2023415 186.789325,45 188.996569,45 L317.003431,45 C318.910358,45 320.511531,43.6581468 320.906584,41.8650065 C324.166142,36.9489068 326.89638,40.2412463 331.596133,43.0337255 C336.538758,45.9705143 342.418796,43.2328698 342.418796,43.2328698 C342.418796,43.2328698 353.870095,37.2100798 358.038778,33.4718196 C362.207461,29.7335594 358.100766,24.6758194 358.100766,24.6758194 C358.100766,24.6758194 348.039794,19.6962589 341.529348,14.8251926 C335.018902,9.95412628 331.716712,16.3050944 330.39909,16.9274716 C328.210635,17.961186 324.687952,21.8308969 321,18.1310387 Z" id="Combined-Shape" fill="#BFB9B9"></path>
            <rect id="Rectangle-23" fill="#D8D8D8" x="0" y="0" width="188" height="54" rx="4"></rect>
        </g>
    </g>
</svg>