<?xml version="1.0" encoding="UTF-8" standalone="no"?>
<svg width="1159px" height="202px" viewBox="0 0 1159 202" version="1.1" xmlns="http://www.w3.org/2000/svg" xmlns:xlink="http://www.w3.org/1999/xlink">
    <!-- Generator: Sketch 3.6.1 (26313) - http://www.bohemiancoding.com/sketch -->
    <title>Reverb</title>
    <desc>Created with Sketch.</desc>
    <defs></defs>
    <g id="Page-1" stroke="none" stroke-width="1" fill="none" fill-rule="evenodd">
        <g id="Reverb" transform="translate(3.000000, 3.000000)">
            <g id="Input-node" transform="translate(0.000000, 56.000000)">
                <rect id="Rectangle-1" stroke="#FFFFFF" x="0" y="0" width="122" height="56" rx="8"></rect>
                <text id="Input" font-family="Quicksand-Light, Quicksand" font-size="24" font-weight="300" fill="#FFFFFF">
                    <tspan x="30.408" y="37">Input</tspan>
                </text>
            </g>
            <g id="Gain-node" transform="translate(644.000000, 0.000000)">
                <rect id="Rectangle-1" stroke="#FFFFFF" x="0" y="0" width="122" height="56" rx="8"></rect>
                <text id="Gain" font-family="Quicksand-Light, Quicksand" font-size="24" font-weight="300" fill="#FFFFFF">
                    <tspan x="33.456" y="37">Gain</tspan>
                </text>
            </g>
            <g id="Gain-node" transform="translate(400.000000, 140.000000)">
                <rect id="Rectangle-1" stroke="#FFFFFF" x="0" y="0" width="122" height="56" rx="8"></rect>
                <text id="Gain" font-family="Quicksand-Light, Quicksand" font-size="24" font-weight="300" fill="#FFFFFF">
                    <tspan x="33.456" y="37">Gain</tspan>
                </text>
            </g>
            <g id="Output-node" transform="translate(1031.000000, 84.000000)">
                <rect id="Rectangle-1" stroke="#FFFFFF" x="0" y="0" width="122" height="56" rx="8"></rect>
                <text id="Output" font-family="Quicksand-Light, Quicksand" font-size="24" font-weight="300" fill="#FFFFFF">
                    <tspan x="19.068" y="37">Output</tspan>
                </text>
            </g>
            <g id="Line" transform="translate(322.000000, 24.000000)">
                <path d="M0.2890625,47.4296875 C0.2890625,47.4296875 32.2070312,1.16796875 77.5390625,1.16796875" id="Path-52" stroke="#FFFFFF"></path>
                <path d="M31.2127226,20.2127226 L31.2127226,3.21272256 L48.2127226,11.7127226 L31.2127226,20.2127226 Z" id="Triangle-1" fill="#FFFFFF" transform="translate(39.712723, 11.712723) rotate(-32.000000) translate(-39.712723, -11.712723) "></path>
            </g>
            <g id="Line" transform="translate(766.000000, 36.000000)">
                <path d="M0.2890625,0.4296875 C0.2890625,0.4296875 39.3398438,6.08984375 62.0820312,60.265625" id="Path-52" stroke="#FFFFFF"></path>
                <path d="M30.2127226,32.2127226 L30.2127226,15.2127226 L47.2127226,23.7127226 L30.2127226,32.2127226 Z" id="Triangle-1" fill="#FFFFFF" transform="translate(38.712723, 23.712723) rotate(45.000000) translate(-38.712723, -23.712723) "></path>
            </g>
            <g id="Line" transform="translate(321.000000, 99.000000)">
                <path d="M0.203125,0.90625 C0.203125,0.90625 31.5703125,44.9101562 77.6523438,69.6171875" id="Path-52" stroke="#FFFFFF"></path>
                <path d="M32.2581316,53.2581316 L32.2581316,36.2581316 L49.2581316,44.7581316 L32.2581316,53.2581316 Z" id="Triangle-1" fill="#FFFFFF" transform="translate(40.758132, 44.758132) rotate(33.000000) translate(-40.758132, -44.758132) "></path>
            </g>
            <g id="Line" transform="translate(524.000000, 128.000000)">
                <path d="M0.32421875,42.375 C0.32421875,42.375 133.859375,58.3085938 304.246094,0.53515625" id="Path-52" stroke="#FFFFFF"></path>
                <path d="M134,46 L134,29 L151,37.5 L134,46 Z" id="Triangle-1" fill="#FFFFFF" transform="translate(142.500000, 37.500000) rotate(-9.000000) translate(-142.500000, -37.500000) "></path>
            </g>
            <g id="Gain-node" transform="translate(829.000000, 84.000000)">
                <rect id="Rectangle-1" stroke="#FFFFFF" x="0" y="0" width="122" height="56" rx="8"></rect>
                <text id="Gain" font-family="Quicksand-Light, Quicksand" font-size="24" font-weight="300" fill="#FFFFFF">
                    <tspan x="33.456" y="37">Gain</tspan>
                </text>
            </g>
            <g id="Line" transform="translate(951.000000, 103.000000)">
                <path d="M0.5,8.5 L77.5064926,8.5" stroke="#FFFFFF" stroke-linecap="square"></path>
                <path d="M31,17 L31,0 L48,8.5 L31,17 Z" id="Triangle-1" fill="#FFFFFF"></path>
            </g>
            <g id="Gain-node" transform="translate(400.000000, 0.000000)">
                <rect id="Rectangle-1" stroke="#FFFFFF" x="0" y="0" width="166" height="56" rx="8"></rect>
                <text id="Convolver" font-family="Quicksand-Light, Quicksand" font-size="24" font-weight="300" fill="#FFFFFF">
                    <tspan x="23.8723279" y="37">Convolver</tspan>
                </text>
            </g>
            <g id="Line" transform="translate(566.000000, 19.000000)">
                <path d="M0.5,8.5 L77.5064926,8.5" stroke="#FFFFFF" stroke-linecap="square"></path>
                <path d="M31,17 L31,0 L48,8.5 L31,17 Z" id="Triangle-1" fill="#FFFFFF"></path>
            </g>
            <g id="Gain-node" transform="translate(200.000000, 56.000000)">
                <rect id="Rectangle-1" stroke="#FFFFFF" x="0" y="0" width="122" height="56" rx="8"></rect>
                <text id="Gain" font-family="Quicksand-Light, Quicksand" font-size="24" font-weight="300" fill="#FFFFFF">
                    <tspan x="33.456" y="37">Gain</tspan>
                </text>
            </g>
            <g id="Line" transform="translate(122.000000, 75.000000)">
                <path d="M0.5,8.5 L77.5064926,8.5" stroke="#FFFFFF" stroke-linecap="square"></path>
                <path d="M31,17 L31,0 L48,8.5 L31,17 Z" id="Triangle-1" fill="#FFFFFF"></path>
            </g>
        </g>
    </g>
</svg>