<?xml version="1.0" encoding="UTF-8"?>
<svg width="1159px" height="202px" viewBox="0 0 1159 202" version="1.1" xmlns="http://www.w3.org/2000/svg" xmlns:xlink="http://www.w3.org/1999/xlink">
    <!-- Generator: Sketch 43.2 (39069) - http://www.bohemiancoding.com/sketch -->
    <title>Reverb</title>
    <desc>Created with Sketch.</desc>
    <defs></defs>
    <g id="Page-1" stroke="none" stroke-width="1" fill="none" fill-rule="evenodd">
        <g id="Reverb" transform="translate(3.000000, 3.000000)">
            <g id="Input-node" transform="translate(0.000000, 56.000000)">
                <rect id="Rectangle-1" stroke="#000000" x="-0.5" y="-0.5" width="123" height="57" rx="8"></rect>
                <path d="M33.072,36.688 C33.072,36.88 33.192,37 33.384,37 C33.528,37 33.672,36.88 33.672,36.688 L33.672,20.512 C33.672,20.32 33.528,20.2 33.384,20.2 C33.192,20.2 33.072,20.32 33.072,20.512 L33.072,36.688 Z M48.84,36.688 C48.84,36.856 48.936,37 49.128,37 C49.296,37 49.44,36.856 49.44,36.688 L49.44,29.992 C49.44,27.352 47.304,25.24 44.712,25.24 C42.936,25.24 41.376,26.224 40.56,27.688 L40.56,25.528 C40.56,25.336 40.44,25.24 40.272,25.24 C40.104,25.24 39.96,25.336 39.96,25.528 L39.96,36.736 C39.96,36.784 39.984,36.832 40.008,36.856 C40.008,36.88 40.008,36.88 40.032,36.904 C40.056,36.928 40.08,36.952 40.104,36.952 C40.128,36.976 40.152,36.976 40.176,37 L40.272,37 C40.368,37 40.44,36.952 40.488,36.88 C40.536,36.832 40.56,36.76 40.56,36.688 L40.56,29.992 C40.56,27.664 42.456,25.84 44.712,25.84 C46.968,25.84 48.84,27.664 48.84,29.992 L48.84,36.688 Z M54.672,41.824 L54.672,25.552 C54.672,25.36 54.792,25.24 54.984,25.24 C55.152,25.24 55.272,25.36 55.272,25.552 L55.272,28.456 C56.184,26.536 58.104,25.24 60.288,25.24 C63.456,25.24 65.952,27.832 65.952,31.048 C65.952,34.264 63.456,36.88 60.288,36.88 C58.104,36.88 56.184,35.56 55.272,33.688 L55.272,41.824 C55.272,42.016 55.152,42.136 54.984,42.136 C54.792,42.136 54.672,42.016 54.672,41.824 Z M55.272,30.832 L55.272,31.048 C55.272,33.928 57.552,36.256 60.288,36.256 C63.048,36.256 65.328,33.928 65.328,31.048 C65.328,28.192 63.048,25.84 60.288,25.84 C57.624,25.84 55.368,28.072 55.272,30.832 Z M70.272,32.248 C70.272,34.888 72.384,37 74.976,37 C77.592,37 79.728,34.888 79.728,32.248 L79.728,25.552 C79.728,25.384 79.584,25.24 79.416,25.24 C79.272,25.24 79.104,25.384 79.104,25.552 L79.104,32.248 C79.104,34.552 77.256,36.4 74.976,36.4 C72.72,36.4 70.872,34.552 70.872,32.248 L70.872,25.552 C70.872,25.384 70.728,25.24 70.584,25.24 C70.392,25.24 70.272,25.384 70.272,25.552 L70.272,32.248 Z M88.848,25.24 L86.928,25.24 L86.928,20.536 C86.928,20.368 86.784,20.224 86.616,20.224 C86.448,20.224 86.328,20.368 86.328,20.536 L86.328,25.24 L84.312,25.24 C84.144,25.24 84,25.384 84,25.552 C84,25.72 84.144,25.84 84.312,25.84 L86.328,25.84 L86.328,35.2 C86.328,36.208 87.144,37.024 88.152,37.024 C88.32,37.024 88.464,36.88 88.464,36.712 C88.464,36.544 88.32,36.424 88.152,36.424 C87.48,36.424 86.928,35.872 86.928,35.2 L86.928,25.84 L88.848,25.84 C89.016,25.84 89.16,25.72 89.16,25.552 C89.16,25.384 89.016,25.24 88.848,25.24 Z" id="Input" fill="#000000"></path>
            </g>
            <g id="Gain-node" transform="translate(644.000000, 0.000000)">
                <rect id="Rectangle-1" stroke="#000000" x="-0.5" y="-0.5" width="123" height="57" rx="8"></rect>
                <path d="M49.104,29.032 L49.104,34.72 C47.712,35.752 45.96,36.376 44.088,36.376 C39.528,36.376 35.832,32.776 35.832,28.312 C35.832,23.92 39.528,20.296 44.088,20.296 C46.032,20.296 47.832,20.968 49.224,22.072 C49.344,22.192 49.584,22.168 49.68,22.048 C49.8,21.88 49.776,21.688 49.608,21.568 C48.12,20.392 46.176,19.696 44.088,19.696 C39.192,19.696 35.208,23.56 35.208,28.312 C35.208,33.112 39.192,36.976 44.088,37 C46.176,37 48.12,36.28 49.608,35.128 C49.656,35.08 49.68,35.032 49.704,34.96 L49.704,34.912 C49.728,34.888 49.728,34.864 49.728,34.84 L49.728,28.744 C49.728,28.552 49.608,28.408 49.44,28.408 L43.944,28.408 C43.8,28.408 43.632,28.552 43.632,28.744 C43.632,28.888 43.8,29.032 43.944,29.032 L49.104,29.032 Z M64.992,25.24 C65.16,25.24 65.28,25.408 65.28,25.552 L65.28,36.688 C65.28,36.88 65.16,37 64.992,37 C64.8,37 64.68,36.88 64.68,36.688 L64.68,33.76 C63.768,35.68 61.896,37 59.736,37 C56.664,37 54.192,34.336 54.192,31.12 C54.192,27.904 56.664,25.24 59.736,25.24 C61.896,25.24 63.768,26.584 64.68,28.48 L64.68,25.552 C64.68,25.408 64.8,25.24 64.992,25.24 Z M59.736,36.4 C62.448,36.4 64.68,34.048 64.68,31.12 C64.68,28.216 62.448,25.864 59.736,25.864 C57.024,25.864 54.792,28.216 54.792,31.12 C54.792,34.048 57.024,36.4 59.736,36.4 Z M70.344,36.688 C70.344,36.856 70.464,37 70.656,37 C70.8,37 70.944,36.856 70.944,36.688 L70.944,25.528 C70.944,25.336 70.8,25.24 70.656,25.24 C70.464,25.24 70.344,25.336 70.344,25.528 L70.344,36.688 Z M70.344,22.336 C70.344,22.48 70.464,22.624 70.656,22.624 C70.8,22.624 70.944,22.48 70.944,22.336 L70.944,21.76 C70.944,21.568 70.8,21.448 70.656,21.448 C70.464,21.448 70.344,21.568 70.344,21.76 L70.344,22.336 Z M85.944,36.688 C85.944,36.856 86.04,37 86.232,37 C86.4,37 86.544,36.856 86.544,36.688 L86.544,29.992 C86.544,27.352 84.408,25.24 81.816,25.24 C80.04,25.24 78.48,26.224 77.664,27.688 L77.664,25.528 C77.664,25.336 77.544,25.24 77.376,25.24 C77.208,25.24 77.064,25.336 77.064,25.528 L77.064,36.736 C77.064,36.784 77.088,36.832 77.112,36.856 C77.112,36.88 77.112,36.88 77.136,36.904 C77.16,36.928 77.184,36.952 77.208,36.952 C77.232,36.976 77.256,36.976 77.28,37 L77.376,37 C77.472,37 77.544,36.952 77.592,36.88 C77.64,36.832 77.664,36.76 77.664,36.688 L77.664,29.992 C77.664,27.664 79.56,25.84 81.816,25.84 C84.072,25.84 85.944,27.664 85.944,29.992 L85.944,36.688 Z" id="Gain" fill="#000000"></path>
            </g>
            <g id="Gain-node" transform="translate(400.000000, 140.000000)">
                <rect id="Rectangle-1" stroke="#000000" x="-0.5" y="-0.5" width="123" height="57" rx="8"></rect>
                <path d="M49.104,29.032 L49.104,34.72 C47.712,35.752 45.96,36.376 44.088,36.376 C39.528,36.376 35.832,32.776 35.832,28.312 C35.832,23.92 39.528,20.296 44.088,20.296 C46.032,20.296 47.832,20.968 49.224,22.072 C49.344,22.192 49.584,22.168 49.68,22.048 C49.8,21.88 49.776,21.688 49.608,21.568 C48.12,20.392 46.176,19.696 44.088,19.696 C39.192,19.696 35.208,23.56 35.208,28.312 C35.208,33.112 39.192,36.976 44.088,37 C46.176,37 48.12,36.28 49.608,35.128 C49.656,35.08 49.68,35.032 49.704,34.96 L49.704,34.912 C49.728,34.888 49.728,34.864 49.728,34.84 L49.728,28.744 C49.728,28.552 49.608,28.408 49.44,28.408 L43.944,28.408 C43.8,28.408 43.632,28.552 43.632,28.744 C43.632,28.888 43.8,29.032 43.944,29.032 L49.104,29.032 Z M64.992,25.24 C65.16,25.24 65.28,25.408 65.28,25.552 L65.28,36.688 C65.28,36.88 65.16,37 64.992,37 C64.8,37 64.68,36.88 64.68,36.688 L64.68,33.76 C63.768,35.68 61.896,37 59.736,37 C56.664,37 54.192,34.336 54.192,31.12 C54.192,27.904 56.664,25.24 59.736,25.24 C61.896,25.24 63.768,26.584 64.68,28.48 L64.68,25.552 C64.68,25.408 64.8,25.24 64.992,25.24 Z M59.736,36.4 C62.448,36.4 64.68,34.048 64.68,31.12 C64.68,28.216 62.448,25.864 59.736,25.864 C57.024,25.864 54.792,28.216 54.792,31.12 C54.792,34.048 57.024,36.4 59.736,36.4 Z M70.344,36.688 C70.344,36.856 70.464,37 70.656,37 C70.8,37 70.944,36.856 70.944,36.688 L70.944,25.528 C70.944,25.336 70.8,25.24 70.656,25.24 C70.464,25.24 70.344,25.336 70.344,25.528 L70.344,36.688 Z M70.344,22.336 C70.344,22.48 70.464,22.624 70.656,22.624 C70.8,22.624 70.944,22.48 70.944,22.336 L70.944,21.76 C70.944,21.568 70.8,21.448 70.656,21.448 C70.464,21.448 70.344,21.568 70.344,21.76 L70.344,22.336 Z M85.944,36.688 C85.944,36.856 86.04,37 86.232,37 C86.4,37 86.544,36.856 86.544,36.688 L86.544,29.992 C86.544,27.352 84.408,25.24 81.816,25.24 C80.04,25.24 78.48,26.224 77.664,27.688 L77.664,25.528 C77.664,25.336 77.544,25.24 77.376,25.24 C77.208,25.24 77.064,25.336 77.064,25.528 L77.064,36.736 C77.064,36.784 77.088,36.832 77.112,36.856 C77.112,36.88 77.112,36.88 77.136,36.904 C77.16,36.928 77.184,36.952 77.208,36.952 C77.232,36.976 77.256,36.976 77.28,37 L77.376,37 C77.472,37 77.544,36.952 77.592,36.88 C77.64,36.832 77.664,36.76 77.664,36.688 L77.664,29.992 C77.664,27.664 79.56,25.84 81.816,25.84 C84.072,25.84 85.944,27.664 85.944,29.992 L85.944,36.688 Z" id="Gain" fill="#000000"></path>
            </g>
            <g id="Output-node" transform="translate(1031.000000, 84.000000)">
                <rect id="Rectangle-1" stroke="#000000" x="-0.5" y="-0.5" width="123" height="57" rx="8"></rect>
                <path d="M20.82,28.624 C20.844,23.824 24.468,19.96 29.004,19.96 C33.54,19.96 37.164,23.824 37.212,28.624 C37.164,33.448 33.54,37.312 29.004,37.312 C24.468,37.312 20.844,33.448 20.82,28.624 Z M21.468,28.624 C21.468,33.064 24.876,36.616 29.004,36.664 C33.108,36.616 36.516,33.064 36.54,28.624 C36.516,24.16 33.108,20.584 29.004,20.584 C24.876,20.584 21.468,24.16 21.468,28.624 Z M41.46,32.248 C41.46,34.888 43.572,37 46.164,37 C48.78,37 50.916,34.888 50.916,32.248 L50.916,25.552 C50.916,25.384 50.772,25.24 50.604,25.24 C50.46,25.24 50.292,25.384 50.292,25.552 L50.292,32.248 C50.292,34.552 48.444,36.4 46.164,36.4 C43.908,36.4 42.06,34.552 42.06,32.248 L42.06,25.552 C42.06,25.384 41.916,25.24 41.772,25.24 C41.58,25.24 41.46,25.384 41.46,25.552 L41.46,32.248 Z M60.036,25.24 L58.116,25.24 L58.116,20.536 C58.116,20.368 57.972,20.224 57.804,20.224 C57.636,20.224 57.516,20.368 57.516,20.536 L57.516,25.24 L55.5,25.24 C55.332,25.24 55.188,25.384 55.188,25.552 C55.188,25.72 55.332,25.84 55.5,25.84 L57.516,25.84 L57.516,35.2 C57.516,36.208 58.332,37.024 59.34,37.024 C59.508,37.024 59.652,36.88 59.652,36.712 C59.652,36.544 59.508,36.424 59.34,36.424 C58.668,36.424 58.116,35.872 58.116,35.2 L58.116,25.84 L60.036,25.84 C60.204,25.84 60.348,25.72 60.348,25.552 C60.348,25.384 60.204,25.24 60.036,25.24 Z M66.012,41.824 L66.012,25.552 C66.012,25.36 66.132,25.24 66.324,25.24 C66.492,25.24 66.612,25.36 66.612,25.552 L66.612,28.456 C67.524,26.536 69.444,25.24 71.628,25.24 C74.796,25.24 77.292,27.832 77.292,31.048 C77.292,34.264 74.796,36.88 71.628,36.88 C69.444,36.88 67.524,35.56 66.612,33.688 L66.612,41.824 C66.612,42.016 66.492,42.136 66.324,42.136 C66.132,42.136 66.012,42.016 66.012,41.824 Z M66.612,30.832 L66.612,31.048 C66.612,33.928 68.892,36.256 71.628,36.256 C74.388,36.256 76.668,33.928 76.668,31.048 C76.668,28.192 74.388,25.84 71.628,25.84 C68.964,25.84 66.708,28.072 66.612,30.832 Z M81.612,32.248 C81.612,34.888 83.724,37 86.316,37 C88.932,37 91.068,34.888 91.068,32.248 L91.068,25.552 C91.068,25.384 90.924,25.24 90.756,25.24 C90.612,25.24 90.444,25.384 90.444,25.552 L90.444,32.248 C90.444,34.552 88.596,36.4 86.316,36.4 C84.06,36.4 82.212,34.552 82.212,32.248 L82.212,25.552 C82.212,25.384 82.068,25.24 81.924,25.24 C81.732,25.24 81.612,25.384 81.612,25.552 L81.612,32.248 Z M100.188,25.24 L98.268,25.24 L98.268,20.536 C98.268,20.368 98.124,20.224 97.956,20.224 C97.788,20.224 97.668,20.368 97.668,20.536 L97.668,25.24 L95.652,25.24 C95.484,25.24 95.34,25.384 95.34,25.552 C95.34,25.72 95.484,25.84 95.652,25.84 L97.668,25.84 L97.668,35.2 C97.668,36.208 98.484,37.024 99.492,37.024 C99.66,37.024 99.804,36.88 99.804,36.712 C99.804,36.544 99.66,36.424 99.492,36.424 C98.82,36.424 98.268,35.872 98.268,35.2 L98.268,25.84 L100.188,25.84 C100.356,25.84 100.5,25.72 100.5,25.552 C100.5,25.384 100.356,25.24 100.188,25.24 Z" id="Output" fill="#000000"></path>
            </g>
            <g id="Line" transform="translate(322.000000, 24.000000)">
                <path d="M0.2890625,47.4296875 C0.2890625,47.4296875 32.2070312,1.16796875 77.5390625,1.16796875" id="Path-52" stroke="#000000"></path>
                <polygon id="Triangle-1" fill="#000000" transform="translate(39.712723, 11.712723) rotate(-32.000000) translate(-39.712723, -11.712723) " points="31.2127226 20.2127226 31.2127226 3.21272256 48.2127226 11.7127226"></polygon>
            </g>
            <g id="Line" transform="translate(766.000000, 36.000000)">
                <path d="M0.2890625,0.4296875 C0.2890625,0.4296875 39.3398438,6.08984375 62.0820312,60.265625" id="Path-52" stroke="#000000"></path>
                <polygon id="Triangle-1" fill="#000000" transform="translate(38.712723, 23.712723) rotate(45.000000) translate(-38.712723, -23.712723) " points="30.2127226 32.2127226 30.2127226 15.2127226 47.2127226 23.7127226"></polygon>
            </g>
            <g id="Line" transform="translate(321.000000, 99.000000)">
                <path d="M0.203125,0.90625 C0.203125,0.90625 31.5703125,44.9101562 77.6523438,69.6171875" id="Path-52" stroke="#000000"></path>
                <polygon id="Triangle-1" fill="#000000" transform="translate(40.758132, 44.758132) rotate(33.000000) translate(-40.758132, -44.758132) " points="32.2581316 53.2581316 32.2581316 36.2581316 49.2581316 44.7581316"></polygon>
            </g>
            <g id="Line" transform="translate(524.000000, 128.000000)">
                <path d="M0.32421875,42.375 C0.32421875,42.375 133.859375,58.3085938 304.246094,0.53515625" id="Path-52" stroke="#000000"></path>
                <polygon id="Triangle-1" fill="#000000" transform="translate(142.500000, 37.500000) rotate(-9.000000) translate(-142.500000, -37.500000) " points="134 46 134 29 151 37.5"></polygon>
            </g>
            <g id="Gain-node" transform="translate(829.000000, 84.000000)">
                <rect id="Rectangle-1" stroke="#000000" x="-0.5" y="-0.5" width="123" height="57" rx="8"></rect>
                <path d="M49.104,29.032 L49.104,34.72 C47.712,35.752 45.96,36.376 44.088,36.376 C39.528,36.376 35.832,32.776 35.832,28.312 C35.832,23.92 39.528,20.296 44.088,20.296 C46.032,20.296 47.832,20.968 49.224,22.072 C49.344,22.192 49.584,22.168 49.68,22.048 C49.8,21.88 49.776,21.688 49.608,21.568 C48.12,20.392 46.176,19.696 44.088,19.696 C39.192,19.696 35.208,23.56 35.208,28.312 C35.208,33.112 39.192,36.976 44.088,37 C46.176,37 48.12,36.28 49.608,35.128 C49.656,35.08 49.68,35.032 49.704,34.96 L49.704,34.912 C49.728,34.888 49.728,34.864 49.728,34.84 L49.728,28.744 C49.728,28.552 49.608,28.408 49.44,28.408 L43.944,28.408 C43.8,28.408 43.632,28.552 43.632,28.744 C43.632,28.888 43.8,29.032 43.944,29.032 L49.104,29.032 Z M64.992,25.24 C65.16,25.24 65.28,25.408 65.28,25.552 L65.28,36.688 C65.28,36.88 65.16,37 64.992,37 C64.8,37 64.68,36.88 64.68,36.688 L64.68,33.76 C63.768,35.68 61.896,37 59.736,37 C56.664,37 54.192,34.336 54.192,31.12 C54.192,27.904 56.664,25.24 59.736,25.24 C61.896,25.24 63.768,26.584 64.68,28.48 L64.68,25.552 C64.68,25.408 64.8,25.24 64.992,25.24 Z M59.736,36.4 C62.448,36.4 64.68,34.048 64.68,31.12 C64.68,28.216 62.448,25.864 59.736,25.864 C57.024,25.864 54.792,28.216 54.792,31.12 C54.792,34.048 57.024,36.4 59.736,36.4 Z M70.344,36.688 C70.344,36.856 70.464,37 70.656,37 C70.8,37 70.944,36.856 70.944,36.688 L70.944,25.528 C70.944,25.336 70.8,25.24 70.656,25.24 C70.464,25.24 70.344,25.336 70.344,25.528 L70.344,36.688 Z M70.344,22.336 C70.344,22.48 70.464,22.624 70.656,22.624 C70.8,22.624 70.944,22.48 70.944,22.336 L70.944,21.76 C70.944,21.568 70.8,21.448 70.656,21.448 C70.464,21.448 70.344,21.568 70.344,21.76 L70.344,22.336 Z M85.944,36.688 C85.944,36.856 86.04,37 86.232,37 C86.4,37 86.544,36.856 86.544,36.688 L86.544,29.992 C86.544,27.352 84.408,25.24 81.816,25.24 C80.04,25.24 78.48,26.224 77.664,27.688 L77.664,25.528 C77.664,25.336 77.544,25.24 77.376,25.24 C77.208,25.24 77.064,25.336 77.064,25.528 L77.064,36.736 C77.064,36.784 77.088,36.832 77.112,36.856 C77.112,36.88 77.112,36.88 77.136,36.904 C77.16,36.928 77.184,36.952 77.208,36.952 C77.232,36.976 77.256,36.976 77.28,37 L77.376,37 C77.472,37 77.544,36.952 77.592,36.88 C77.64,36.832 77.664,36.76 77.664,36.688 L77.664,29.992 C77.664,27.664 79.56,25.84 81.816,25.84 C84.072,25.84 85.944,27.664 85.944,29.992 L85.944,36.688 Z" id="Gain" fill="#000000"></path>
            </g>
            <g id="Line" transform="translate(951.000000, 103.000000)">
                <path d="M0.5,8.5 L77.5064926,8.5" stroke="#000000" stroke-linecap="square"></path>
                <polygon id="Triangle-1" fill="#000000" points="31 17 31 0 48 8.5"></polygon>
            </g>
            <g id="Gain-node" transform="translate(400.000000, 0.000000)">
                <rect id="Rectangle-1" stroke="#000000" x="-0.5" y="-0.5" width="167" height="57" rx="8"></rect>
                <path d="M25.6243279,28.456 C25.6243279,33.16 29.5363279,36.976 34.3363279,37 C36.4003279,37 38.2723279,36.28 39.7843279,35.152 C39.9283279,35.032 39.9763279,34.84 39.8563279,34.72 C39.7363279,34.576 39.5443279,34.576 39.4003279,34.672 C38.0083279,35.752 36.2563279,36.376 34.3363279,36.376 C29.8963279,36.376 26.2483279,32.848 26.2483279,28.456 C26.2483279,24.112 29.8963279,20.584 34.3363279,20.584 C36.2803279,20.584 38.0323279,21.208 39.4243279,22.288 C39.5443279,22.408 39.7363279,22.384 39.8803279,22.24 C39.9763279,22.12 39.9283279,21.928 39.7843279,21.808 C38.3203279,20.68 36.4003279,19.96 34.3363279,19.96 C29.5363279,19.96 25.6243279,23.8 25.6243279,28.456 Z M43.8163279,31.12 C43.8163279,27.88 46.2883279,25.24 49.3603279,25.24 C52.4323279,25.24 54.9283279,27.88 54.9283279,31.12 C54.9283279,34.336 52.4323279,37 49.3603279,37 C46.2883279,37 43.8163279,34.336 43.8163279,31.12 Z M44.4163279,31.12 C44.4163279,34.024 46.6483279,36.4 49.3603279,36.4 C52.0723279,36.4 54.3283279,34.024 54.3283279,31.12 C54.3283279,28.192 52.0723279,25.84 49.3603279,25.84 C46.6483279,25.84 44.4163279,28.192 44.4163279,31.12 Z M68.2483279,36.688 C68.2483279,36.856 68.3443279,37 68.5363279,37 C68.7043279,37 68.8483279,36.856 68.8483279,36.688 L68.8483279,29.992 C68.8483279,27.352 66.7123279,25.24 64.1203279,25.24 C62.3443279,25.24 60.7843279,26.224 59.9683279,27.688 L59.9683279,25.528 C59.9683279,25.336 59.8483279,25.24 59.6803279,25.24 C59.5123279,25.24 59.3683279,25.336 59.3683279,25.528 L59.3683279,36.736 C59.3683279,36.784 59.3923279,36.832 59.4163279,36.856 C59.4163279,36.88 59.4163279,36.88 59.4403279,36.904 C59.4643279,36.928 59.4883279,36.952 59.5123279,36.952 C59.5363279,36.976 59.5603279,36.976 59.5843279,37 L59.6803279,37 C59.7763279,37 59.8483279,36.952 59.8963279,36.88 C59.9443279,36.832 59.9683279,36.76 59.9683279,36.688 L59.9683279,29.992 C59.9683279,27.664 61.8643279,25.84 64.1203279,25.84 C66.3763279,25.84 68.2483279,27.664 68.2483279,29.992 L68.2483279,36.688 Z M77.3923279,36.808 C77.4403279,36.904 77.5363279,36.976 77.6083279,37 L77.7043279,37 C77.7763279,37 77.8483279,36.952 77.9203279,36.88 C77.9443279,36.856 77.9683279,36.808 77.9683279,36.784 L82.6483279,25.696 C82.7203279,25.552 82.6243279,25.384 82.4563279,25.312 C82.3123279,25.24 82.1443279,25.312 82.0963279,25.48 L77.6803279,35.92 L73.2643279,25.48 C73.1923279,25.312 73.0483279,25.24 72.8803279,25.312 C72.7363279,25.384 72.6403279,25.552 72.7123279,25.696 L77.3923279,36.808 Z M86.2963279,31.12 C86.2963279,27.88 88.7683279,25.24 91.8403279,25.24 C94.9123279,25.24 97.4083279,27.88 97.4083279,31.12 C97.4083279,34.336 94.9123279,37 91.8403279,37 C88.7683279,37 86.2963279,34.336 86.2963279,31.12 Z M86.8963279,31.12 C86.8963279,34.024 89.1283279,36.4 91.8403279,36.4 C94.5523279,36.4 96.8083279,34.024 96.8083279,31.12 C96.8083279,28.192 94.5523279,25.84 91.8403279,25.84 C89.1283279,25.84 86.8963279,28.192 86.8963279,31.12 Z M102.016328,36.688 C102.016328,36.856 102.136328,37 102.328328,37 C102.496328,37 102.616328,36.856 102.616328,36.688 L102.616328,20.512 C102.616328,20.344 102.496328,20.2 102.328328,20.2 C102.136328,20.2 102.016328,20.344 102.016328,20.512 L102.016328,36.688 Z M111.616328,36.808 C111.664328,36.904 111.760328,36.976 111.832328,37 L111.928328,37 C112.000328,37 112.072328,36.952 112.144328,36.88 C112.168328,36.856 112.192328,36.808 112.192328,36.784 L116.872328,25.696 C116.944328,25.552 116.848328,25.384 116.680328,25.312 C116.536328,25.24 116.368328,25.312 116.320328,25.48 L111.904328,35.92 L107.488328,25.48 C107.416328,25.312 107.272328,25.24 107.104328,25.312 C106.960328,25.384 106.864328,25.552 106.936328,25.696 L111.616328,36.808 Z M125.944328,37 C122.800328,36.952 120.280328,34.336 120.232328,31.12 C120.280328,27.856 122.800328,25.24 125.944328,25.24 C128.944328,25.24 131.368328,27.616 131.584328,30.664 L131.584328,30.76 C131.560328,30.904 131.440328,31.048 131.296328,31.048 L120.832328,31.048 L120.832328,31.12 C120.832328,34 123.112328,36.376 125.944328,36.4 C127.720328,36.4 129.280328,35.44 130.168328,34 C130.264328,33.856 130.432328,33.856 130.600328,33.928 C130.720328,34 130.768328,34.192 130.672328,34.336 C129.664328,35.896 127.912328,37 125.944328,37 Z M125.944328,25.864 C123.328328,25.864 121.168328,27.856 120.856328,30.472 L130.984328,30.472 C130.672328,27.856 128.512328,25.864 125.944328,25.864 Z M135.208328,36.688 C135.208328,36.88 135.352328,37 135.496328,37 C135.688328,37 135.784328,36.88 135.784328,36.688 L135.784328,31.192 C135.784328,31.192 135.880328,30.904 136.072328,30.376 C136.384328,29.632 136.960328,28.432 137.800328,27.472 C138.592328,26.584 139.720328,25.864 141.208328,25.864 C141.400328,25.864 141.520328,25.72 141.520328,25.552 C141.520328,25.384 141.400328,25.24 141.208328,25.24 C138.952328,25.24 137.440328,26.776 136.528328,28.144 C136.216328,28.624 135.976328,29.104 135.784328,29.536 L135.784328,25.552 C135.784328,25.384 135.688328,25.24 135.496328,25.24 C135.352328,25.24 135.208328,25.384 135.208328,25.552 L135.208328,31.048 C135.184328,31.12 135.184328,31.144 135.208328,31.192 L135.208328,36.688 Z" id="Convolver" fill="#000000"></path>
            </g>
            <g id="Line" transform="translate(566.000000, 19.000000)">
                <path d="M0.5,8.5 L77.5064926,8.5" stroke="#000000" stroke-linecap="square"></path>
                <polygon id="Triangle-1" fill="#000000" points="31 17 31 0 48 8.5"></polygon>
            </g>
            <g id="Gain-node" transform="translate(200.000000, 56.000000)">
                <rect id="Rectangle-1" stroke="#000000" x="-0.5" y="-0.5" width="123" height="57" rx="8"></rect>
                <path d="M49.104,29.032 L49.104,34.72 C47.712,35.752 45.96,36.376 44.088,36.376 C39.528,36.376 35.832,32.776 35.832,28.312 C35.832,23.92 39.528,20.296 44.088,20.296 C46.032,20.296 47.832,20.968 49.224,22.072 C49.344,22.192 49.584,22.168 49.68,22.048 C49.8,21.88 49.776,21.688 49.608,21.568 C48.12,20.392 46.176,19.696 44.088,19.696 C39.192,19.696 35.208,23.56 35.208,28.312 C35.208,33.112 39.192,36.976 44.088,37 C46.176,37 48.12,36.28 49.608,35.128 C49.656,35.08 49.68,35.032 49.704,34.96 L49.704,34.912 C49.728,34.888 49.728,34.864 49.728,34.84 L49.728,28.744 C49.728,28.552 49.608,28.408 49.44,28.408 L43.944,28.408 C43.8,28.408 43.632,28.552 43.632,28.744 C43.632,28.888 43.8,29.032 43.944,29.032 L49.104,29.032 Z M64.992,25.24 C65.16,25.24 65.28,25.408 65.28,25.552 L65.28,36.688 C65.28,36.88 65.16,37 64.992,37 C64.8,37 64.68,36.88 64.68,36.688 L64.68,33.76 C63.768,35.68 61.896,37 59.736,37 C56.664,37 54.192,34.336 54.192,31.12 C54.192,27.904 56.664,25.24 59.736,25.24 C61.896,25.24 63.768,26.584 64.68,28.48 L64.68,25.552 C64.68,25.408 64.8,25.24 64.992,25.24 Z M59.736,36.4 C62.448,36.4 64.68,34.048 64.68,31.12 C64.68,28.216 62.448,25.864 59.736,25.864 C57.024,25.864 54.792,28.216 54.792,31.12 C54.792,34.048 57.024,36.4 59.736,36.4 Z M70.344,36.688 C70.344,36.856 70.464,37 70.656,37 C70.8,37 70.944,36.856 70.944,36.688 L70.944,25.528 C70.944,25.336 70.8,25.24 70.656,25.24 C70.464,25.24 70.344,25.336 70.344,25.528 L70.344,36.688 Z M70.344,22.336 C70.344,22.48 70.464,22.624 70.656,22.624 C70.8,22.624 70.944,22.48 70.944,22.336 L70.944,21.76 C70.944,21.568 70.8,21.448 70.656,21.448 C70.464,21.448 70.344,21.568 70.344,21.76 L70.344,22.336 Z M85.944,36.688 C85.944,36.856 86.04,37 86.232,37 C86.4,37 86.544,36.856 86.544,36.688 L86.544,29.992 C86.544,27.352 84.408,25.24 81.816,25.24 C80.04,25.24 78.48,26.224 77.664,27.688 L77.664,25.528 C77.664,25.336 77.544,25.24 77.376,25.24 C77.208,25.24 77.064,25.336 77.064,25.528 L77.064,36.736 C77.064,36.784 77.088,36.832 77.112,36.856 C77.112,36.88 77.112,36.88 77.136,36.904 C77.16,36.928 77.184,36.952 77.208,36.952 C77.232,36.976 77.256,36.976 77.28,37 L77.376,37 C77.472,37 77.544,36.952 77.592,36.88 C77.64,36.832 77.664,36.76 77.664,36.688 L77.664,29.992 C77.664,27.664 79.56,25.84 81.816,25.84 C84.072,25.84 85.944,27.664 85.944,29.992 L85.944,36.688 Z" id="Gain" fill="#000000"></path>
            </g>
            <g id="Line" transform="translate(122.000000, 75.000000)">
                <path d="M0.5,8.5 L77.5064926,8.5" stroke="#000000" stroke-linecap="square"></path>
                <polygon id="Triangle-1" fill="#000000" points="31 17 31 0 48 8.5"></polygon>
            </g>
        </g>
    </g>
</svg>